#N canvas 0 23 1176 638 10;
#X obj 355 306 phasor~;
#X obj 355 532 +~;
#X obj 355 554 cos~;
#X obj 355 595 outlet~;
#X obj 582 303 phasor~;
#X obj 582 329 cos~;
#X obj 582 516 *~;
#X obj 597 432 pack 0 50;
#X obj 597 458 line~;
#X text 594 368 INDEX;
#X obj 582 272 *~;
#X obj 597 120 * 7;
#X obj 597 192 pack 0 50;
#X obj 597 214 line~;
#X text 596 58 RATIO;
#X obj 597 142 + 1;
#X obj 597 236 +~;
#X obj 801 219 *~ 8;
#X obj 597 480 +~;
#X obj 908 460 lop~ 100;
#X obj 108 165 hsl 128 15 0 127 0 1 \$0-2op-index-s \$0-2op-index-r
INDEX 135 7 0 10 #fcfcfc #000000 #000000 6000 1;
#X obj 108 135 hsl 128 15 0 127 0 1 \$0-2op-carrier-s \$0-2op-carrier-r
CARRIER 135 7 0 10 #fcfcfc #000000 #000000 6000 1;
#X obj 108 150 hsl 128 15 0 127 0 1 \$0-2op-ratio-s \$0-2op-ratio-r
RATIO 135 7 0 10 #fcfcfc #000000 #000000 0 1;
#X obj 597 386 r \$0-2op-index-s;
#X obj 597 410 * 0.00787402;
#X obj 907 315 inlet~ INDEX CV;
#X obj 801 104 inlet~ RATIO CV;
#X obj 597 76 r \$0-2op-ratio-s;
#X obj 597 98 * 0.00787402;
#X obj 355 99 r \$0-2op-carrier-s;
#X obj 355 121 clip 0 90;
#X obj 355 143 pack 0 50;
#X obj 355 165 line~;
#X obj 355 187 +~;
#X obj 355 209 mtof~;
#X floatatom 206 121 5 0 0 0 - \$0-2op-carrier-s s 0;
#X obj 108 196 hsl 128 15 0 127 0 1 \$0-2op-cv2-index-s \$0-2op-cv2-index-r
CV2(INDEX) 135 7 0 10 #90d4b0 #000000 #000000 0 1;
#X floatatom 105 211 5 0 0 0 - - s 0;
#X obj 1032 209 * 0.00787402;
#X obj 1032 231 * 2;
#X obj 1032 253 - 1;
#X obj 1032 275 t f f;
#X obj 1032 297 pack 0 50;
#X obj 1032 319 line~;
#X obj 907 337 *~;
#X obj 911 64 * 0.00787402;
#X obj 911 87 pack 0 50;
#X obj 911 109 line~;
#X obj 108 180 hsl 128 15 0 127 0 1 \$0-2op-cv1-ratio-s \$0-2op-cv1-ratio-r
CV1(RATIO) 135 7 0 10 #9898dc #000000 #000000 0 1;
#X obj 911 42 r \$0-2op-cv1-ratio-s;
#X obj 801 126 *~;
#X obj 1032 187 r \$0-2op-cv2-index-s;
#X obj 198 109 cnv 5 5 5 empty empty CV1 0 0 0 8 #fcfcfc #9898dc 0
;
#X obj 106 127 cnv 5 5 5 empty empty 2OP-FM 0 0 0 12 #fcfcfc #404040
0;
#X obj 102 109 cnv 5 5 5 empty empty CARRIER 0 0 0 8 #fcfcfc #404040
0;
#X obj 291 109 cnv 5 5 5 empty empty CV2 0 0 0 8 #fcfcfc #5ca878 0
;
#X floatatom 275 149 5 0 0 0 - \$0-ratio-gui-r \$0-ratio-gui-s 0;
#X obj 597 164 t f f;
#X obj 662 150 s \$0-ratio-gui-r;
#X obj 469 135 *~ 127;
#N canvas 315 35 501 428 save-state 0;
#X obj 224 125 f;
#X obj 224 168 pack f f f f f;
#X obj 115 216 unpack f f f f f;
#X obj 239 12 r \$0-2op-carrier-s;
#X obj 115 369 s \$0-2op-carrier-r;
#X obj 244 46 r \$0-2op-ratio-s;
#X obj 136 345 s \$0-2op-ratio-r;
#X obj 264 65 r \$0-2op-index-s;
#X obj 161 321 s \$0-2op-index-r;
#X obj 284 92 r \$0-2op-cv1-ratio-s;
#X obj 184 295 s \$0-2op-cv1-ratio-r;
#X obj 306 116 r \$0-2op-cv2-index-s;
#X obj 208 271 s \$0-2op-cv2-index-r;
#X obj 143 70 savestate;
#X obj 78 50 loadbang;
#X obj 35 180 list store;
#X msg 65 128 1;
#X obj 78 71 t b b;
#X obj 65 107 t b a;
#X obj 12 154 spigot 0;
#X obj 115 154 spigot 1;
#X obj 143 91 t a b;
#X msg 170 128 0;
#X msg 115 180 60 0 60 0 0;
#X connect 0 0 1 0;
#X connect 1 0 13 0;
#X connect 2 0 4 0;
#X connect 2 1 6 0;
#X connect 2 2 8 0;
#X connect 2 3 10 0;
#X connect 2 4 12 0;
#X connect 3 0 0 1;
#X connect 5 0 1 1;
#X connect 7 0 1 2;
#X connect 9 0 1 3;
#X connect 11 0 1 4;
#X connect 13 0 21 0;
#X connect 13 1 0 0;
#X connect 14 0 17 0;
#X connect 15 0 2 0;
#X connect 16 0 19 1;
#X connect 17 0 19 0;
#X connect 17 1 20 0;
#X connect 18 0 16 0;
#X connect 18 1 15 1;
#X connect 19 0 15 0;
#X connect 20 0 23 0;
#X connect 21 0 18 0;
#X connect 21 1 22 0;
#X connect 22 0 20 1;
#X connect 23 0 2 0;
#X restore 98 351 pd save-state;
#N canvas 384 23 459 344 forwarding 0;
#X obj 37 70 route CARRIER RATIO INDEX CV1(RATIO) CV2(INDEX);
#X obj 38 246 s \$0-2op-carrier-r;
#X obj 86 211 s \$0-2op-ratio-r;
#X obj 149 171 s \$0-2op-index-r;
#X obj 202 137 s \$0-2op-cv1-ratio-r;
#X obj 255 103 s \$0-2op-cv2-index-r;
#X obj 37 44 inlet;
#X connect 0 0 1 0;
#X connect 0 1 2 0;
#X connect 0 2 3 0;
#X connect 0 3 4 0;
#X connect 0 4 5 0;
#X connect 6 0 0 0;
#X restore 485 177 pd forwarding;
#X obj 469 113 inlet~ fwd;
#X connect 0 0 1 0;
#X connect 1 0 2 0;
#X connect 2 0 3 0;
#X connect 4 0 5 0;
#X connect 5 0 6 0;
#X connect 6 0 1 1;
#X connect 7 0 8 0;
#X connect 8 0 18 0;
#X connect 10 0 4 0;
#X connect 11 0 15 0;
#X connect 12 0 13 0;
#X connect 13 0 16 0;
#X connect 15 0 57 0;
#X connect 16 0 10 1;
#X connect 17 0 16 1;
#X connect 18 0 6 1;
#X connect 19 0 18 1;
#X connect 23 0 24 0;
#X connect 24 0 7 0;
#X connect 25 0 44 0;
#X connect 26 0 50 0;
#X connect 27 0 28 0;
#X connect 28 0 11 0;
#X connect 29 0 30 0;
#X connect 30 0 31 0;
#X connect 31 0 32 0;
#X connect 32 0 33 0;
#X connect 33 0 34 0;
#X connect 34 0 0 0;
#X connect 34 0 10 0;
#X connect 38 0 39 0;
#X connect 39 0 40 0;
#X connect 40 0 41 0;
#X connect 41 0 42 0;
#X connect 41 1 37 0;
#X connect 42 0 43 0;
#X connect 43 0 44 1;
#X connect 44 0 19 0;
#X connect 45 0 46 0;
#X connect 46 0 47 0;
#X connect 47 0 50 1;
#X connect 49 0 45 0;
#X connect 50 0 17 0;
#X connect 51 0 38 0;
#X connect 57 0 12 0;
#X connect 57 1 58 0;
#X connect 59 0 33 1;
#X connect 62 0 59 0;
#X connect 62 1 61 0;
#X coords 0 -1 1 1 210 130 2 100 100;
