#N canvas 364 112 916 666 10;
#X obj 108 133 hsl 128 15 0 127 0 1 \$0-3xfade-slider-s \$0-3xfade-slider-r
XFADE 135 7 0 10 #fcfcfc #000000 #000000 0 1;
#X obj 109 530 *~;
#X obj 109 584 outlet~;
#X obj 109 465 inlet~ A;
#X obj 227 530 *~;
#X obj 227 465 inlet~ B;
#X obj 346 530 *~;
#X obj 346 465 inlet~ C;
#X obj 105 123 cnv 5 5 5 empty empty 3WAY-XFADE 0 0 0 12 #fcfcfc #404040
0;
#X obj 185 123 cnv 5 5 5 empty \$0-instance-num 0 0 0 0 12 #fcfcfc
#404040 0;
#X obj 151 155 hradio 15 1 0 3 \$0-3xfade-gui-s \$0-3xfade-gui-r empty
0 -8 0 10 #fcfcfc #fc0400 #000000 0;
#X obj 375 49 / 127;
#X obj 375 71 * 4;
#X obj 105 109 cnv 5 5 5 empty empty 1 0 0 0 8 #fcfcfc #404040 0;
#X obj 158 109 cnv 5 5 5 empty empty 2 0 0 0 8 #fcfcfc #404040 0;
#X obj 248 109 cnv 5 5 5 empty empty XFADE 0 0 0 8 #fcfcfc #000000
0;
#X obj 214 109 cnv 5 5 5 empty empty 3 0 0 0 8 #fcfcfc #404040 0;
#X obj 509 36 snapshot~;
#X obj 592 -25 loadbang;
#X obj 592 -3 tgl 15 0 empty empty empty 17 7 0 10 #fcfcfc #000000
#000000 0 1;
#X obj 375 97 +;
#X obj 509 80 t b f;
#X obj 592 19 metro 50;
#X obj 375 27 r \$0-3xfade-slider-s;
#X obj 509 58 * 3;
#X obj 375 140 clip 0 3;
#X obj 124 275 sig~;
#X obj 124 312 +~;
#X obj 124 356 clip~ 0 1;
#X obj 124 498 lop~ 10;
#X obj 242 498 lop~ 10;
#X obj 361 498 lop~ 10;
#X obj 124 240 * 0.00787402;
#X obj 124 383 expr~ if ($v1 < 0.5 \, (1-$v1*2) \, 0 ) \; if ($v1 <
0.5 \, $v1*2 \, (1-$v1+0.5)*2-1 ) \; if ($v1 > 0.5 \, ($v1*2-1) \,
0 );
#X obj 124 439 clip~ 0 1;
#X obj 242 439 clip~ 0 1;
#X obj 361 439 clip~ 0 1;
#X obj 124 206 r \$0-3xfade-slider-s;
#N canvas 21 22 449 256 save-state 0;
#X obj 239 89 f;
#X obj 239 132 pack f;
#X obj 115 204 s \$0-3xfade-slider-r;
#X obj 254 40 r \$0-3xfade-slider-s;
#X obj 143 32 savestate;
#X obj 78 12 loadbang;
#X obj 35 142 list store;
#X msg 65 90 1;
#X obj 78 33 t b b;
#X obj 65 69 t b a;
#X obj 12 116 spigot 0;
#X obj 115 116 spigot 1;
#X obj 143 53 t a b;
#X msg 170 90 0;
#X obj 115 178 unpack f;
#X msg 115 142 0;
#X connect 0 0 1 0;
#X connect 1 0 4 0;
#X connect 3 0 0 1;
#X connect 4 0 12 0;
#X connect 4 1 0 0;
#X connect 5 0 8 0;
#X connect 6 0 14 0;
#X connect 7 0 10 1;
#X connect 8 0 10 0;
#X connect 8 1 11 0;
#X connect 9 0 7 0;
#X connect 9 1 6 1;
#X connect 10 0 6 0;
#X connect 11 0 15 0;
#X connect 12 0 9 0;
#X connect 12 1 13 0;
#X connect 13 0 11 1;
#X connect 14 0 2 0;
#X connect 15 0 14 0;
#X restore 377 212 pd save-state;
#N canvas 531 23 245 140 fwd 0;
#X obj 18 47 route XFADE;
#X obj 18 73 s \$0-3xfade-slider-r;
#X obj 18 21 inlet;
#X connect 0 0 1 0;
#X connect 2 0 0 0;
#X restore 566 66 pd fwd;
#X obj 509 14 inlet~ fwd;
#X connect 1 0 2 0;
#X connect 3 0 1 0;
#X connect 4 0 2 0;
#X connect 5 0 4 0;
#X connect 6 0 2 0;
#X connect 7 0 6 0;
#X connect 11 0 12 0;
#X connect 12 0 20 0;
#X connect 17 0 24 0;
#X connect 18 0 19 0;
#X connect 19 0 22 0;
#X connect 20 0 25 0;
#X connect 21 0 20 0;
#X connect 21 1 20 1;
#X connect 22 0 17 0;
#X connect 23 0 11 0;
#X connect 24 0 21 0;
#X connect 25 0 10 0;
#X connect 26 0 27 0;
#X connect 27 0 28 0;
#X connect 28 0 33 0;
#X connect 29 0 1 1;
#X connect 30 0 4 1;
#X connect 31 0 6 1;
#X connect 32 0 26 0;
#X connect 33 0 34 0;
#X connect 33 1 35 0;
#X connect 33 2 36 0;
#X connect 34 0 29 0;
#X connect 35 0 30 0;
#X connect 36 0 31 0;
#X connect 37 0 32 0;
#X connect 40 0 17 0;
#X connect 40 0 27 1;
#X connect 40 1 39 0;
#X coords 0 -1 1 1 175 75 2 100 100;
