#N canvas 8 78 1163 524 10;
#X obj 261 98 inlet~;
#X obj 881 94 inlet~;
#X obj 109 144 hradio 15 1 1 4 \$0-4to1-select-s \$0-4to1-select-r
empty 0 -8 0 10 #fcfcfc #dc4c90 #000000 0;
#X obj 105 109 cnv 5 5 5 empty empty 1 0 0 0 8 #fcfcfc #404040 0;
#X obj 137 109 cnv 5 5 5 empty empty 2 0 0 0 8 #fcfcfc #404040 0;
#X obj 207 109 cnv 5 5 5 empty empty 4 0 0 0 8 #fcfcfc #404040 0;
#X obj 229 109 cnv 5 5 5 empty empty TRIG 0 0 0 8 #fcfcfc #dc4c90 0
;
#X obj 172 109 cnv 5 5 5 empty empty 3 0 0 0 8 #fcfcfc #404040 0;
#X obj 113 137 cnv 5 5 5 empty empty 1 0 0 0 8 #fcfcfc #404040 0;
#X obj 129 137 cnv 5 5 5 empty empty 2 0 0 0 8 #fcfcfc #404040 0;
#X obj 143 137 cnv 5 5 5 empty empty 3 0 0 0 8 #fcfcfc #404040 0;
#X obj 158 137 cnv 5 5 5 empty empty 4 0 0 0 8 #fcfcfc #404040 0;
#X obj 125 122 cnv 5 5 5 empty empty 4to1-SWITCH 0 0 0 12 #fcfcfc #404040
0;
#X obj 210 122 cnv 5 5 5 empty \$0-instance-num 0 0 0 0 12 #fcfcfc
#404040 0;
#X obj 261 211 *~;
#X obj 291 128 r \$0-4to1-select-s;
#X obj 291 150 == 0;
#X obj 291 194 line~;
#X obj 261 390 outlet~;
#X obj 415 93 inlet~;
#X obj 415 206 *~;
#X obj 445 123 r \$0-4to1-select-s;
#X obj 445 189 line~;
#X obj 445 145 == 1;
#X obj 567 90 inlet~;
#X obj 567 203 *~;
#X obj 597 120 r \$0-4to1-select-s;
#X obj 597 186 line~;
#X obj 597 142 == 2;
#X obj 721 84 inlet~;
#X obj 721 197 *~;
#X obj 751 114 r \$0-4to1-select-s;
#X obj 751 180 line~;
#X obj 751 136 == 3;
#X obj 881 138 t b b;
#X obj 881 160 f;
#X obj 908 160 + 1;
#X obj 881 224 mod 4;
#X obj 881 246 s \$0-4to1-select-r;
#X obj 231 116 bng 15 100 50 0 empty empty empty 17 7 0 10 #fcfcfc
#dc4c90 #000000;
#X obj 291 172 pack 0 1;
#X obj 445 167 pack 0 1;
#X obj 597 164 pack 0 1;
#X obj 751 158 pack 0 1;
#X obj 881 116 threshold~ 0.9 0 0.9 0;
#X obj 191 144 hradio 15 1 1 3 \$0-4to1-steps-s \$0-4to1-steps-r STEPS
0 -8 0 10 #fcfcfc #dc4c90 #000000 0;
#X obj 195 165 cnv 5 5 5 empty empty 2 0 0 0 8 #fcfcfc #404040 0;
#X obj 212 165 cnv 5 5 5 empty empty 3 0 0 0 8 #fcfcfc #404040 0;
#X obj 227 165 cnv 5 5 5 empty empty 4 0 0 0 8 #fcfcfc #404040 0;
#X obj 1025 124 r \$0-4to1-steps-s;
#X obj 1025 146 + 2;
#X floatatom 1025 168 5 0 0 0 - - - 0;
#X obj 881 181 + 1;
#N canvas 21 22 430 313 save-state 0;
#X obj 252 117 f;
#X obj 267 68 r \$0-4to1-select-s;
#X obj 115 256 s \$0-4to1-select-r;
#X obj 252 160 pack f f;
#X obj 297 137 r \$0-4to1-steps-s;
#X obj 115 204 unpack f f;
#X obj 172 231 s \$0-4to1-steps-r;
#X obj 143 70 savestate;
#X obj 78 50 loadbang;
#X obj 35 180 list store;
#X msg 65 128 1;
#X obj 78 71 t b b;
#X obj 65 107 t b a;
#X obj 12 154 spigot 0;
#X obj 115 154 spigot 1;
#X obj 143 91 t a b;
#X msg 170 128 0;
#X msg 115 180 0 0;
#X connect 0 0 3 0;
#X connect 1 0 0 1;
#X connect 3 0 7 0;
#X connect 4 0 3 1;
#X connect 5 0 2 0;
#X connect 5 1 6 0;
#X connect 7 0 15 0;
#X connect 7 1 0 0;
#X connect 8 0 11 0;
#X connect 9 0 5 0;
#X connect 10 0 13 1;
#X connect 11 0 13 0;
#X connect 11 1 14 0;
#X connect 12 0 10 0;
#X connect 12 1 9 1;
#X connect 13 0 9 0;
#X connect 14 0 17 0;
#X connect 15 0 12 0;
#X connect 15 1 16 0;
#X connect 16 0 14 1;
#X connect 17 0 5 0;
#X restore 37 223 pd save-state;
#X connect 0 0 14 0;
#X connect 1 0 44 0;
#X connect 14 0 18 0;
#X connect 15 0 16 0;
#X connect 16 0 40 0;
#X connect 17 0 14 1;
#X connect 19 0 20 0;
#X connect 20 0 18 0;
#X connect 21 0 23 0;
#X connect 22 0 20 1;
#X connect 23 0 41 0;
#X connect 24 0 25 0;
#X connect 25 0 18 0;
#X connect 26 0 28 0;
#X connect 27 0 25 1;
#X connect 28 0 42 0;
#X connect 29 0 30 0;
#X connect 30 0 18 0;
#X connect 31 0 33 0;
#X connect 32 0 30 1;
#X connect 33 0 43 0;
#X connect 34 0 35 0;
#X connect 34 1 39 0;
#X connect 35 0 36 0;
#X connect 35 0 52 0;
#X connect 36 0 35 1;
#X connect 37 0 38 0;
#X connect 40 0 17 0;
#X connect 41 0 22 0;
#X connect 42 0 27 0;
#X connect 43 0 32 0;
#X connect 44 0 34 0;
#X connect 49 0 50 0;
#X connect 50 0 51 0;
#X connect 51 0 37 1;
#X connect 52 0 37 0;
#X coords 0 -1 1 1 150 75 2 100 100;
