#N canvas 0 23 778 608 10;
#X obj 214 343 f;
#X obj 18 39 hsl 128 15 0 127 0 1 \$0-adsr-attack-s \$0-adsr-attack-r
ATTACK 135 7 0 10 #fcfcfc #000000 #000000 0 1;
#X obj 404 471 vline~;
#X obj 18 84 hsl 128 15 0 127 0 1 \$0-adsr-release-s \$0-adsr-release-r
RELEASE 135 7 0 10 #fcfcfc #000000 #000000 0 1;
#X obj 324 405 pack f f f;
#X obj 18 54 hsl 128 15 0 127 0 1 \$0-adsr-decay-s \$0-adsr-decay-r
DECAY 135 7 0 10 #fcfcfc #000000 #000000 0 1;
#X obj 18 69 hsl 128 15 0 127 0 1 \$0-adsr-sustain-s \$0-adsr-sustain-r
SUSTAIN 135 7 0 10 #fcfcfc #000000 #000000 0 1;
#X obj 603 377 f;
#X obj 404 497 *~;
#X obj 472 233 r \$0-adsr-sustain-s;
#X obj 618 237 r \$0-adsr-release-s;
#X obj 29 30 cnv 5 5 5 empty empty ADSR 0 0 0 12 #fcfcfc #404040 0
;
#X obj 15 25 cnv 10 10 10 empty \$0-adsr-gui-r empty 20 12 0 14 #202020
#fcfcfc 0;
#X obj 15 19 cnv 5 5 5 empty empty GATE 0 0 0 8 #fcfcfc #dc4c90 0;
#X obj 404 523 outlet~;
#N canvas 315 35 436 391 save-state 0;
#X obj 223 115 f;
#X obj 238 12 r \$0-adsr-attack-s;
#X obj 115 337 s \$0-adsr-attack-r;
#X obj 246 35 r \$0-adsr-decay-s;
#X obj 136 313 s \$0-adsr-decay-r;
#X obj 260 56 r \$0-adsr-sustain-s;
#X obj 157 289 s \$0-adsr-sustain-r;
#X obj 278 81 r \$0-adsr-release-s;
#X obj 178 265 s \$0-adsr-release-r;
#X obj 143 38 savestate;
#X obj 78 18 loadbang;
#X obj 35 148 list store;
#X msg 65 96 1;
#X obj 78 39 t b b;
#X obj 65 75 t b a;
#X obj 12 122 spigot 0;
#X obj 115 122 spigot 1;
#X obj 143 59 t a b;
#X msg 170 96 0;
#X obj 115 184 unpack f f f f;
#X obj 223 158 pack f f f f;
#X msg 115 148 32 32 100 32;
#X connect 0 0 20 0;
#X connect 1 0 0 1;
#X connect 3 0 20 1;
#X connect 5 0 20 2;
#X connect 7 0 20 3;
#X connect 9 0 17 0;
#X connect 9 1 0 0;
#X connect 10 0 13 0;
#X connect 11 0 19 0;
#X connect 12 0 15 1;
#X connect 13 0 15 0;
#X connect 13 1 16 0;
#X connect 14 0 12 0;
#X connect 14 1 11 1;
#X connect 15 0 11 0;
#X connect 16 0 21 0;
#X connect 17 0 14 0;
#X connect 17 1 18 0;
#X connect 18 0 16 1;
#X connect 19 0 2 0;
#X connect 19 1 4 0;
#X connect 19 2 6 0;
#X connect 19 3 8 0;
#X connect 20 0 9 0;
#X connect 21 0 19 0;
#X restore 16 257 pd save-state;
#N canvas 59 22 365 268 forwarding 0;
#X obj 28 44 route ATTACK DECAY SUSTAIN RELEASE CURVE;
#X obj 28 180 s \$0-adsr-attack-r;
#X obj 75 151 s \$0-adsr-decay-r;
#X obj 122 126 s \$0-adsr-sustain-r;
#X obj 170 99 s \$0-adsr-release-r;
#X obj 217 73 s \$0-adsr-curve-r;
#X obj 28 18 inlet;
#X connect 0 0 1 0;
#X connect 0 1 2 0;
#X connect 0 2 3 0;
#X connect 0 3 4 0;
#X connect 0 4 5 0;
#X connect 6 0 0 0;
#X restore 461 79 pd forwarding;
#X obj 404 53 inlet~ fwd;
#X msg 603 403 0 \$1;
#X obj 404 79 env~;
#X obj 404 100 > 0;
#X obj 404 121 change;
#X obj 618 258 / 127;
#X msg 618 330 2 \$1;
#X obj 618 351 pow;
#X obj 618 309 * 11;
#X obj 472 254 / 127;
#X obj 352 254 / 127;
#X msg 352 296 2 \$1;
#X obj 352 317 pow;
#X obj 352 338 * 10;
#X obj 352 275 * 8;
#X obj 352 233 r \$0-adsr-decay-s;
#X obj 229 254 / 127;
#X obj 229 233 r \$0-adsr-attack-s;
#X obj 229 275 * 11;
#X msg 229 296 2 \$1;
#X obj 229 317 pow;
#X msg 324 427 1 \$1 \, \$3 \$2 \$1;
#X obj 404 147 select 1 0;
#X text 404 33 (I1) Gate;
#X text 404 543 (O1) Envelope Output;
#X text 229 213 P1: Attack;
#X text 352 213 P2: Decay;
#X text 492 213 P3: Sustain;
#X text 618 217 P4: Release;
#X obj 618 279 sqrt;
#X msg 472 275 10 \$1;
#X obj 472 296 pow;
#X obj 472 317 - 1;
#X obj 472 338 / 9;
#X obj 472 359 sqrt;
#X connect 0 0 4 0;
#X connect 2 0 8 0;
#X connect 2 0 8 1;
#X connect 4 0 38 0;
#X connect 7 0 18 0;
#X connect 8 0 14 0;
#X connect 9 0 26 0;
#X connect 10 0 22 0;
#X connect 17 0 19 0;
#X connect 17 1 16 0;
#X connect 18 0 2 0;
#X connect 19 0 20 0;
#X connect 20 0 21 0;
#X connect 21 0 39 0;
#X connect 22 0 46 0;
#X connect 23 0 24 0;
#X connect 24 0 7 1;
#X connect 25 0 23 0;
#X connect 26 0 47 0;
#X connect 27 0 31 0;
#X connect 28 0 29 0;
#X connect 29 0 30 0;
#X connect 30 0 4 1;
#X connect 31 0 28 0;
#X connect 32 0 27 0;
#X connect 33 0 35 0;
#X connect 34 0 33 0;
#X connect 35 0 36 0;
#X connect 36 0 37 0;
#X connect 37 0 0 1;
#X connect 38 0 2 0;
#X connect 39 0 0 0;
#X connect 39 1 7 0;
#X connect 46 0 25 0;
#X connect 47 0 48 0;
#X connect 48 0 49 0;
#X connect 49 0 50 0;
#X connect 50 0 51 0;
#X connect 51 0 4 2;
#X coords 0 -1 1 1 200 100 2 10 10;
