#N canvas 0 23 1115 730 10;
#X obj 469 152 snapshot~;
#X obj 488 107 tgl 15 0 empty empty empty 17 7 0 10 #fcfcfc #000000
#000000 0 1;
#X obj 469 402 f;
#X obj 108 129 hsl 128 15 1.27 127 1 1 \$0-adsr-attack-s \$0-adsr-attack-r
ATTACK 135 7 0 10 #fcfcfc #000000 #000000 0 1;
#X obj 512 297 * 0.00787402;
#X obj 512 319 * 1990;
#X obj 512 341 + 10;
#X obj 512 363 +;
#X obj 512 385 clip 10 2000;
#X obj 469 530 vline~;
#X obj 108 174 hsl 128 15 1.27 127 1 1 \$0-adsr-release-s \$0-adsr-release-r
RELEASE 135 7 0 10 #fcfcfc #000000 #000000 0 1;
#X obj 873 352 * 0.00787402;
#X obj 873 396 + 10;
#X obj 873 418 +;
#X msg 469 446 1 \$1 \, \$3 \$2 \$1;
#X obj 469 424 pack f f f;
#X obj 108 144 hsl 128 15 1.27 127 1 1 \$0-adsr-decay-s \$0-adsr-decay-r
DECAY 135 7 0 10 #fcfcfc #000000 #000000 0 1;
#X obj 611 319 * 0.00787402;
#X obj 611 341 * 1990;
#X obj 611 363 + 10;
#X obj 611 385 +;
#X obj 611 407 clip 10 2000;
#X obj 108 159 hsl 128 15 0 127 0 1 \$0-adsr-sustain-s \$0-adsr-sustain-r
SUSTAIN 135 7 0 10 #fcfcfc #000000 #000000 12700 1;
#X obj 781 319 * 0.00787402;
#X obj 781 385 +;
#X obj 781 407 clip 0.2 0.8;
#X obj 858 468 f;
#X obj 469 208 t f f;
#X obj 858 247 sel 1;
#X obj 858 269 t b;
#X obj 873 374 * 3990;
#X obj 873 440 clip 10 4000;
#X obj 469 174 change;
#X obj 469 230 > 0;
#X obj 469 271 sel 1;
#X obj 469 566 *~;
#X obj 470 628 *~;
#X obj 196 501 * 0.00787402;
#X obj 108 189 hsl 128 15 0 127 0 1 \$0-adsr-curve-s \$0-adsr-curve-r
CURVE 135 7 0 10 #fcfcfc #000000 #000000 0 1;
#X obj 781 363 + 0.1;
#X obj 781 341 * 0.8;
#X obj 488 125 metro 10;
#X obj 858 225 < 0.1;
#X obj 488 33 env~;
#X obj 488 55 > 0;
#X obj 488 77 change;
#X obj 512 270 r \$0-adsr-attack-s;
#X obj 611 297 r \$0-adsr-decay-s;
#X obj 781 296 r \$0-adsr-sustain-s;
#X obj 873 326 r \$0-adsr-release-s;
#X obj 196 475 r \$0-adsr-curve-s;
#X obj 119 120 cnv 5 5 5 empty empty ADSR 0 0 0 12 #fcfcfc #404040
0;
#X obj 153 120 cnv 5 5 5 empty \$0-instance-num 0 0 0 0 12 #fcfcfc
#404040 0;
#X obj 105 115 cnv 10 10 10 empty \$0-adsr-gui-r empty 20 12 0 14 #202020
#fcfcfc 0;
#X floatatom 361 247 5 0 0 0 - - - 0;
#X obj 361 266 + 12;
#X obj 361 310 s \$0-adsr-gui-r;
#X obj 105 109 cnv 5 5 5 empty empty GATE 0 0 0 8 #fcfcfc #dc4c90 0
;
#X msg 361 288 color \$1;
#X obj 470 677 outlet~;
#X obj 412 628 *~;
#X obj 196 523 t f f;
#X msg 196 545 1 \$1;
#X obj 196 567 -;
#X obj 196 589 pack 0 50;
#X obj 196 611 line~;
#X obj 303 591 pack 0 50;
#X obj 303 611 line~;
#X obj 469 588 *~;
#X obj 469 300 t b b;
#X msg 484 339 0 1;
#X obj 858 490 pack f f;
#X msg 789 519 \$2 1 \, 0 \$1 1;
#N canvas 315 35 436 391 save-state 0;
#X obj 223 115 f;
#X obj 223 158 pack f f f f f;
#X obj 115 184 unpack f f f f f;
#X obj 238 12 r \$0-adsr-attack-s;
#X obj 115 337 s \$0-adsr-attack-r;
#X obj 246 35 r \$0-adsr-decay-s;
#X obj 136 313 s \$0-adsr-decay-r;
#X obj 260 56 r \$0-adsr-sustain-s;
#X obj 157 289 s \$0-adsr-sustain-r;
#X obj 278 81 r \$0-adsr-release-s;
#X obj 178 265 s \$0-adsr-release-r;
#X obj 298 106 r \$0-adsr-curve-s;
#X obj 206 239 s \$0-adsr-curve-r;
#X obj 143 38 savestate;
#X obj 78 18 loadbang;
#X obj 35 148 list store;
#X msg 65 96 1;
#X obj 78 39 t b b;
#X obj 65 75 t b a;
#X obj 12 122 spigot 0;
#X obj 115 122 spigot 1;
#X obj 143 59 t a b;
#X msg 170 96 0;
#X msg 115 148 0 0 127 0 0;
#X connect 0 0 1 0;
#X connect 1 0 13 0;
#X connect 2 0 4 0;
#X connect 2 1 6 0;
#X connect 2 2 8 0;
#X connect 2 3 10 0;
#X connect 2 4 12 0;
#X connect 3 0 0 1;
#X connect 5 0 1 1;
#X connect 7 0 1 2;
#X connect 9 0 1 3;
#X connect 11 0 1 4;
#X connect 13 0 21 0;
#X connect 13 1 0 0;
#X connect 14 0 17 0;
#X connect 15 0 2 0;
#X connect 16 0 19 1;
#X connect 17 0 19 0;
#X connect 17 1 20 0;
#X connect 18 0 16 0;
#X connect 18 1 15 1;
#X connect 19 0 15 0;
#X connect 20 0 23 0;
#X connect 21 0 18 0;
#X connect 21 1 22 0;
#X connect 22 0 20 1;
#X connect 23 0 2 0;
#X restore 96 297 pd save-state;
#N canvas 59 22 365 268 forwarding 0;
#X obj 28 44 route ATTACK DECAY SUSTAIN RELEASE CURVE;
#X obj 28 180 s \$0-adsr-attack-r;
#X obj 75 151 s \$0-adsr-decay-r;
#X obj 122 126 s \$0-adsr-sustain-r;
#X obj 170 99 s \$0-adsr-release-r;
#X obj 217 73 s \$0-adsr-curve-r;
#X obj 28 18 inlet;
#X connect 0 0 1 0;
#X connect 0 1 2 0;
#X connect 0 2 3 0;
#X connect 0 3 4 0;
#X connect 0 4 5 0;
#X connect 6 0 0 0;
#X restore 548 42 pd forwarding;
#X obj 471 6 inlet~ fwd;
#X connect 0 0 32 0;
#X connect 1 0 41 0;
#X connect 2 0 15 0;
#X connect 4 0 5 0;
#X connect 5 0 6 0;
#X connect 6 0 7 0;
#X connect 7 0 8 0;
#X connect 8 0 2 1;
#X connect 9 0 35 0;
#X connect 9 0 35 1;
#X connect 9 0 60 0;
#X connect 11 0 30 0;
#X connect 12 0 13 0;
#X connect 13 0 31 0;
#X connect 14 0 9 0;
#X connect 15 0 14 0;
#X connect 17 0 18 0;
#X connect 18 0 19 0;
#X connect 19 0 20 0;
#X connect 20 0 21 0;
#X connect 21 0 15 1;
#X connect 23 0 40 0;
#X connect 24 0 25 0;
#X connect 25 0 15 2;
#X connect 25 0 71 1;
#X connect 26 0 71 0;
#X connect 27 0 33 0;
#X connect 27 1 42 0;
#X connect 28 0 29 0;
#X connect 29 0 26 0;
#X connect 30 0 12 0;
#X connect 31 0 26 1;
#X connect 32 0 27 0;
#X connect 33 0 34 0;
#X connect 33 0 54 0;
#X connect 34 0 69 0;
#X connect 35 0 68 0;
#X connect 35 0 68 1;
#X connect 36 0 59 0;
#X connect 37 0 61 0;
#X connect 39 0 24 0;
#X connect 40 0 39 0;
#X connect 41 0 0 0;
#X connect 42 0 28 0;
#X connect 43 0 44 0;
#X connect 44 0 45 0;
#X connect 45 0 1 0;
#X connect 46 0 4 0;
#X connect 47 0 17 0;
#X connect 48 0 23 0;
#X connect 49 0 11 0;
#X connect 50 0 37 0;
#X connect 54 0 55 0;
#X connect 55 0 58 0;
#X connect 58 0 56 0;
#X connect 60 0 59 0;
#X connect 61 0 62 0;
#X connect 61 1 66 0;
#X connect 62 0 63 0;
#X connect 63 0 64 0;
#X connect 64 0 65 0;
#X connect 65 0 60 1;
#X connect 66 0 67 0;
#X connect 67 0 36 1;
#X connect 68 0 36 0;
#X connect 69 0 2 0;
#X connect 69 1 70 0;
#X connect 70 0 9 0;
#X connect 71 0 72 0;
#X connect 72 0 9 0;
#X connect 75 0 0 0;
#X connect 75 0 43 0;
#X connect 75 1 74 0;
#X coords 0 -1 1 1 200 110 2 100 100;
