#N canvas 150 23 1051 749 10;
#X obj 117 576 vline~;
#X obj 153 147 vsl 15 96 1.27 127 1 1 \$0-ahr-release-s \$0-ahr-release-r
R 4 -9 0 10 #fcfcfc #000000 #000000 0 1;
#X obj 123 147 vsl 15 96 1.27 127 1 1 \$0-ahr-attack-s \$0-ahr-attack-r
A 4 -9 0 10 #fcfcfc #000000 #000000 0 1;
#X obj 117 480 f;
#X obj 53 263 / 127;
#X obj 177 299 / 127;
#X obj 177 381 + 1;
#X obj 59 364 * 1999;
#X obj 177 362 * 1999;
#X obj 179 406 t f f;
#X obj 248 537 delay;
#X obj 275 451 +;
#X obj 275 426 t b f;
#X obj 20 419 bng 15 250 50 0 empty empty empty 17 7 0 10 #fcfcfc #000000
#000000;
#X obj 248 616 spigot;
#X text 290 629 CYCLE ON/OFF;
#X obj 123 249 tgl 15 1 \$0-ahr-cycle-s \$0-ahr-cycle-r CYCLE 17 7
0 10 #fcfcfc #000000 #000000 0 1;
#X obj 105 117 bng 15 100 50 0 empty empty empty 17 7 0 10 #fcfcfc
#dc4c90 #000000;
#X obj 117 738 outlet~;
#X obj 281 560 t f f;
#X obj 308 583 sel 1;
#X obj 308 605 t b;
#X obj 117 434 t b b b;
#X obj 126 126 cnv 5 5 5 empty empty AHR/LFO 0 0 0 12 #fcfcfc #404040
0;
#X obj 104 109 cnv 5 5 5 empty empty TRIG 0 0 0 8 #fcfcfc #dc4c90 0
;
#X obj 173 145 vradio 15 1 0 3 \$0-ahr-fast/med/slow-s \$0-ahr-fast/med/slow-r
empty 0 -8 0 10 #fcfcfc #000000 #000000 0;
#X obj 190 184 cnv 5 5 5 empty empty SLOW 0 0 0 8 #fcfcfc #000000 0
;
#X obj 207 265 cnv 5 5 5 empty empty EOC 0 0 0 8 #fcfcfc #dc4c90 0
;
#X obj 191 153 cnv 5 5 5 empty empty FAST 0 0 0 8 #fcfcfc #000000 0
;
#X obj 191 168 cnv 5 5 5 empty empty MEDIUM 0 0 0 8 #fcfcfc #000000
0;
#X obj 323 117 sel 0 1 2;
#X msg 323 203 1999;
#X msg 340 179 4999;
#X msg 357 152 9999;
#X msg 117 554 1 \$1 \, 0 \$2 \$3;
#X obj 117 531 pack f f f;
#X obj 138 147 vsl 15 96 1.27 127 1 1 \$0-ahr-hold-s \$0-ahr-hold-r
H 4 -9 0 10 #fcfcfc #000000 #000000 9500 1;
#X obj 411 378 / 127;
#X obj 410 440 * 1999;
#X obj 195 475 +;
#X obj 132 403 t f f f;
#X obj 275 484 +;
#X obj 410 464 t b b f f;
#X obj 21 691 t b b;
#X msg 510 697 1 0 \, 0 1 1;
#X obj 510 719 vline~;
#X obj 510 741 outlet~;
#X obj 104 267 cnv 5 5 5 empty empty OUT 0 0 0 8 #fcfcfc #000000 0
;
#X obj 173 194 tgl 15 1 \$0-ahr-curve-s \$0-ahr-curve-r CURVE 17 7
0 10 #fcfcfc #000000 #000000 0 1;
#X obj 177 274 - 1.27;
#X obj 323 235 t b b b f f f;
#X obj 53 246 - 1.27;
#X obj 59 386 + 1;
#X obj 173 577 t f f;
#X obj 214 622 == 0;
#X obj 117 682 *~;
#X obj 199 692 *~;
#X obj 173 621 line~;
#X obj 173 599 pack 0 10;
#X obj 214 669 line~;
#X obj 214 647 pack 0 10;
#X obj 275 506 moses 1;
#X obj 195 497 moses 1;
#X obj 139 503 moses 1;
#X obj 65 502 moses 1;
#X obj 469 62 inlet~;
#X text 459 44 ATTACK CV IN;
#X obj 577 62 inlet~;
#X text 567 44 HOLD CV IN;
#X obj 670 62 inlet~;
#X text 660 44 RELEASE CV IN;
#X obj 469 196 snapshot~;
#X obj 472 267 t b f;
#X obj 526 72 bang~;
#X obj 57 292 +;
#X obj 177 321 +;
#X obj 577 187 snapshot~;
#X obj 581 290 t b f;
#X obj 671 189 snapshot~;
#X obj 672 391 t b f;
#X obj 410 411 +;
#X obj 526 94 t b b b;
#X obj 141 109 cnv 5 5 5 empty empty A 0 0 0 8 #fcfcfc #000000 0;
#X obj 179 109 cnv 5 5 5 empty empty H 0 0 0 8 #fcfcfc #000000 0;
#X obj 216 109 cnv 5 5 5 empty empty R 0 0 0 8 #fcfcfc #000000 0;
#X floatatom 699 220 5 0 0 0 - - - 0;
#X obj 71 593 *~;
#X obj 71 616 *~;
#X obj 184 126 cnv 5 5 5 empty \$0-instance-num 0 0 0 0 12 #fcfcfc
#404040 0;
#X obj 7 53 threshold~ 0.99 0 1 0;
#N canvas 363 22 395 330 forwarding 0;
#X obj 28 53 route A H R CURVE CYCLE TRIG RADIO;
#X obj 28 302 s \$0-ahr-attack-r;
#X obj 64 263 s \$0-ahr-hold-r;
#X obj 93 217 s \$0-ahr-release-r;
#X obj 126 183 s \$0-ahr-curve-r;
#X obj 149 143 s \$0-ahr-cycle-r;
#X obj 173 120 s \$0-ahr-trig-gui!-r;
#X obj 199 94 s \$0-ahr-fast/med/slow-r;
#X obj 28 20 inlet;
#X connect 0 0 1 0;
#X connect 0 1 2 0;
#X connect 0 2 3 0;
#X connect 0 3 4 0;
#X connect 0 4 5 0;
#X connect 0 5 6 0;
#X connect 0 6 7 0;
#X connect 8 0 0 0;
#X restore 168 48 pd forwarding;
#N canvas 472 130 515 444 save-state 0;
#X obj 272 176 f;
#X obj 272 219 pack f f f f f f;
#X obj 115 246 unpack f f f f f f;
#X obj 287 73 r \$0-ahr-attack-s;
#X obj 115 399 s \$0-ahr-attack-r;
#X obj 295 96 r \$0-ahr-hold-s;
#X obj 136 375 s \$0-ahr-hold-r;
#X obj 309 117 r \$0-ahr-release-s;
#X obj 157 351 s \$0-ahr-release-r;
#X obj 327 142 r \$0-ahr-fast/med/slow-s;
#X obj 178 327 s \$0-ahr-fast/med/slow-r;
#X obj 347 167 r \$0-ahr-curve-s;
#X obj 199 301 s \$0-ahr-curve-r;
#X obj 365 188 r \$0-ahr-cycle-s;
#X obj 220 277 s \$0-ahr-cycle-r;
#X obj 143 70 savestate;
#X obj 78 50 loadbang;
#X obj 35 180 list store;
#X msg 65 128 1;
#X obj 78 71 t b b;
#X obj 65 107 t b a;
#X obj 12 154 spigot 0;
#X obj 115 154 spigot 1;
#X obj 143 91 t a b;
#X msg 170 128 0;
#X msg 115 180 0 127 0 0 0 0;
#X connect 0 0 1 0;
#X connect 1 0 15 0;
#X connect 2 0 4 0;
#X connect 2 1 6 0;
#X connect 2 2 8 0;
#X connect 2 3 10 0;
#X connect 2 4 12 0;
#X connect 2 5 14 0;
#X connect 3 0 0 1;
#X connect 5 0 1 1;
#X connect 7 0 1 2;
#X connect 9 0 1 3;
#X connect 11 0 1 4;
#X connect 13 0 1 5;
#X connect 15 0 23 0;
#X connect 15 1 0 0;
#X connect 16 0 19 0;
#X connect 17 0 2 0;
#X connect 18 0 21 1;
#X connect 19 0 21 0;
#X connect 19 1 22 0;
#X connect 20 0 18 0;
#X connect 20 1 17 1;
#X connect 21 0 17 0;
#X connect 22 0 25 0;
#X connect 23 0 20 0;
#X connect 23 1 24 0;
#X connect 24 0 22 1;
#X connect 25 0 2 0;
#X restore 560 458 pd save-state;
#X obj 12 18 inlet~ fwd;
#X connect 0 0 56 0;
#X connect 0 0 86 0;
#X connect 0 0 86 1;
#X connect 1 0 49 0;
#X connect 2 0 51 0;
#X connect 3 0 64 0;
#X connect 4 0 74 0;
#X connect 5 0 75 0;
#X connect 6 0 9 0;
#X connect 7 0 52 0;
#X connect 8 0 6 0;
#X connect 9 0 63 0;
#X connect 9 1 12 0;
#X connect 10 0 14 0;
#X connect 11 0 41 0;
#X connect 12 0 11 0;
#X connect 12 1 11 1;
#X connect 13 0 22 0;
#X connect 14 0 43 0;
#X connect 16 0 19 0;
#X connect 19 0 14 1;
#X connect 19 1 20 0;
#X connect 20 0 21 0;
#X connect 21 0 13 0;
#X connect 22 0 3 0;
#X connect 22 1 10 0;
#X connect 22 2 17 0;
#X connect 25 0 30 0;
#X connect 30 0 31 0;
#X connect 30 1 32 0;
#X connect 30 2 33 0;
#X connect 31 0 50 0;
#X connect 32 0 50 0;
#X connect 33 0 50 0;
#X connect 34 0 0 0;
#X connect 35 0 34 0;
#X connect 36 0 37 0;
#X connect 37 0 80 0;
#X connect 38 0 42 0;
#X connect 39 0 62 0;
#X connect 40 0 3 1;
#X connect 40 1 11 0;
#X connect 40 2 39 0;
#X connect 41 0 61 0;
#X connect 42 0 39 0;
#X connect 42 1 41 0;
#X connect 42 2 39 1;
#X connect 42 3 41 1;
#X connect 43 0 13 0;
#X connect 43 1 44 0;
#X connect 44 0 45 0;
#X connect 45 0 46 0;
#X connect 48 0 53 0;
#X connect 49 0 5 0;
#X connect 50 0 7 0;
#X connect 50 1 8 0;
#X connect 50 2 38 0;
#X connect 50 3 7 1;
#X connect 50 4 8 1;
#X connect 50 5 38 1;
#X connect 51 0 4 0;
#X connect 52 0 40 0;
#X connect 53 0 58 0;
#X connect 53 1 54 0;
#X connect 54 0 60 0;
#X connect 55 0 18 0;
#X connect 56 0 18 0;
#X connect 57 0 55 1;
#X connect 58 0 57 0;
#X connect 59 0 56 1;
#X connect 60 0 59 0;
#X connect 61 1 10 1;
#X connect 62 1 35 2;
#X connect 63 1 35 1;
#X connect 64 1 35 0;
#X connect 65 0 71 0;
#X connect 67 0 76 0;
#X connect 69 0 78 0;
#X connect 71 0 72 0;
#X connect 72 0 74 0;
#X connect 72 1 74 1;
#X connect 73 0 81 0;
#X connect 74 0 7 0;
#X connect 75 0 8 0;
#X connect 76 0 77 0;
#X connect 77 0 75 0;
#X connect 77 1 75 1;
#X connect 78 0 79 0;
#X connect 78 0 85 0;
#X connect 79 0 80 0;
#X connect 79 1 80 1;
#X connect 80 0 38 0;
#X connect 81 0 71 0;
#X connect 81 1 76 0;
#X connect 81 2 78 0;
#X connect 86 0 87 0;
#X connect 86 0 87 1;
#X connect 87 0 55 0;
#X connect 89 0 22 0;
#X connect 92 0 89 0;
#X connect 92 1 90 0;
#X coords 0 -1 1 1 125 175 2 100 100;
