#N canvas 0 23 1185 710 10;
#X obj 379 638 outlet~;
#X obj 802 626 *~;
#X obj 788 236 / 127;
#X obj 817 491 pack 0 50;
#X obj 817 513 line~;
#X text 786 198 RESONANCE;
#X obj 106 164 hsl 128 15 0 127 0 1 \$0-analog-filter-fm-/+-s \$0-analog-filter-fm-/+-r
FM-/+ 133 7 0 10 #90d4b0 #000000 #000000 6300 1;
#X obj 517 102 / 127;
#X text 515 57 CUTOFF;
#X obj 802 649 delwrite~ \$0-q-feedback 1;
#X obj 353 123 delread~ \$0-q-feedback 1;
#X obj 346 457 clip~ -1 1;
#X obj 379 609 clip~ -1 1;
#X obj 517 177 sig~;
#X obj 788 283 t f f;
#X obj 488 322 + 1;
#X obj 517 77 r \$0-analog-filter-cutoff-s;
#X text 620 169 "ANALOG" FLUX;
#X obj 106 134 hsl 128 15 0 127 0 1 \$0-analog-filter-cutoff-s \$0-analog-filter-cutoff-r
CUTOFF 133 7 0 10 #fcfcfc #000000 #000000 12700 1;
#X obj 788 213 r \$0-analog-filter-q-s;
#X text 297 58 SIGNAL IN;
#X text 725 86 FM CV IN;
#X obj 106 149 hsl 128 15 0 127 0 1 \$0-analog-filter-q-s \$0-analog-filter-q-r
Q 133 7 0 10 #fcfcfc #000000 #000000 0 1;
#X obj 735 107 inlet~;
#X obj 735 129 *~ 5000;
#X obj 735 190 *~;
#X obj 786 63 r \$0-analog-filter-fm-/+-s;
#X obj 786 85 / 127;
#X obj 786 107 * 2;
#X obj 786 129 - 1;
#X obj 786 151 pack 0 50;
#X obj 786 173 line~;
#X obj 788 258 +;
#X obj 488 344 min 3;
#X obj 936 197 inlet~;
#X obj 936 219 snapshot~;
#X obj 936 241 t b f;
#X obj 1000 202 metro 20;
#X obj 1000 146 loadbang;
#X obj 1000 174 tgl 15 0 empty empty empty 17 7 0 10 #fcfcfc #000000
#000000 0 1;
#X obj 817 535 min~ 5;
#X floatatom 103 179 5 0 0 0 - - - 0;
#X obj 52 65 r \$0-analog-filter-fm-/+-s;
#X obj 52 104 / 127;
#X obj 52 126 * 2;
#X obj 52 162 - 1;
#X obj 313 383 vcf~ 1;
#X obj 346 486 vcf~ 1;
#X obj 488 366 t f f;
#X obj 468 473 r \$0-analog-filter-q-s;
#X obj 379 520 *~;
#X obj 468 495 / 127;
#X obj 468 517 * 3;
#X obj 468 539 + 2;
#X obj 468 561 pack 0 50;
#X obj 468 583 line~;
#X text 467 455 GAIN COMPENSATION;
#X obj 564 129 osc~ 1;
#X obj 564 151 *~;
#X obj 564 173 *~ 25;
#X obj 105 123 cnv 5 5 5 empty empty ANALOG-FILTER 0 0 0 12 #fcfcfc
#404040 0;
#X obj 205 123 cnv 5 5 5 empty \$0-instance-num 0 0 0 0 12 #fcfcfc
#404040 0;
#X obj 346 431 *~ 1.5;
#X obj 517 126 * 5000;
#X obj 517 207 +~;
#X obj 817 466 * 4;
#X obj 488 300 * 1.5;
#X obj 105 109 cnv 5 5 5 empty empty IN 0 0 0 8 #fcfcfc #404040 0;
#X obj 172 109 cnv 5 5 5 empty empty CUTOFF 0 0 0 8 #fcfcfc #5ca878
0;
#X obj 267 109 cnv 5 5 5 empty empty Q 0 0 0 8 #fcfcfc #404040 0;
#X obj 353 146 *~ 0.2;
#X obj 313 188 *~ 0.5;
#N canvas 490 22 479 342 save-state 0;
#X obj 223 139 f;
#X obj 223 182 pack f f f;
#X obj 115 211 unpack f f f;
#X obj 238 91 r \$0-analog-filter-cutoff-s;
#X obj 115 283 s \$0-analog-filter-cutoff-r;
#X obj 251 129 r \$0-analog-filter-q-s;
#X obj 149 257 s \$0-analog-filter-q-r;
#X obj 280 157 r \$0-analog-filter-fm-/+-s;
#X obj 184 235 s \$0-analog-filter-fm-/+-r;
#X obj 143 70 savestate;
#X obj 78 50 loadbang;
#X obj 35 180 list store;
#X msg 65 128 1;
#X obj 78 71 t b b;
#X obj 65 107 t b a;
#X obj 12 154 spigot 0;
#X obj 115 154 spigot 1;
#X obj 143 91 t a b;
#X msg 170 128 0;
#X msg 115 180 127 0 63;
#X connect 0 0 1 0;
#X connect 1 0 9 0;
#X connect 2 0 4 0;
#X connect 2 1 6 0;
#X connect 2 2 8 0;
#X connect 3 0 0 1;
#X connect 5 0 1 1;
#X connect 7 0 1 2;
#X connect 9 0 17 0;
#X connect 9 1 0 0;
#X connect 10 0 13 0;
#X connect 11 0 2 0;
#X connect 12 0 15 1;
#X connect 13 0 15 0;
#X connect 13 1 16 0;
#X connect 14 0 12 0;
#X connect 14 1 11 1;
#X connect 15 0 11 0;
#X connect 16 0 19 0;
#X connect 17 0 14 0;
#X connect 17 1 18 0;
#X connect 18 0 16 1;
#X connect 19 0 2 0;
#X restore 101 277 pd save-state;
#X obj 313 76 inlet~ fwd;
#N canvas 531 26 306 161 forwarding 0;
#X obj 17 27 route CUTOFF Q FM-/+;
#X obj 17 93 s \$0-analog-filter-cutoff-r;
#X obj 56 71 s \$0-analog-filter-q-r;
#X obj 95 51 s \$0-analog-filter-fm-/+-r;
#X obj 17 5 inlet;
#X connect 0 0 1 0;
#X connect 0 1 2 0;
#X connect 0 2 3 0;
#X connect 4 0 0 0;
#X restore 370 102 pd forwarding;
#X connect 1 0 9 0;
#X connect 2 0 32 0;
#X connect 3 0 4 0;
#X connect 4 0 40 0;
#X connect 7 0 63 0;
#X connect 10 0 70 0;
#X connect 11 0 47 0;
#X connect 12 0 0 0;
#X connect 12 0 1 0;
#X connect 13 0 64 0;
#X connect 14 0 66 0;
#X connect 14 1 65 0;
#X connect 15 0 33 0;
#X connect 16 0 7 0;
#X connect 19 0 2 0;
#X connect 23 0 24 0;
#X connect 24 0 25 0;
#X connect 25 0 64 1;
#X connect 26 0 27 0;
#X connect 27 0 28 0;
#X connect 28 0 29 0;
#X connect 29 0 30 0;
#X connect 30 0 31 0;
#X connect 31 0 25 1;
#X connect 32 0 14 0;
#X connect 33 0 48 0;
#X connect 34 0 35 0;
#X connect 35 0 36 0;
#X connect 36 0 32 0;
#X connect 36 1 32 1;
#X connect 37 0 35 0;
#X connect 38 0 39 0;
#X connect 39 0 37 0;
#X connect 40 0 1 1;
#X connect 42 0 43 0;
#X connect 43 0 44 0;
#X connect 44 0 45 0;
#X connect 45 0 41 0;
#X connect 46 1 62 0;
#X connect 47 1 50 0;
#X connect 48 0 46 2;
#X connect 48 1 47 2;
#X connect 49 0 51 0;
#X connect 50 0 12 0;
#X connect 51 0 52 0;
#X connect 52 0 53 0;
#X connect 53 0 54 0;
#X connect 54 0 55 0;
#X connect 55 0 50 1;
#X connect 57 0 58 0;
#X connect 57 0 58 1;
#X connect 58 0 59 0;
#X connect 59 0 64 1;
#X connect 62 0 11 0;
#X connect 63 0 13 0;
#X connect 64 0 46 1;
#X connect 64 0 47 1;
#X connect 65 0 3 0;
#X connect 66 0 15 0;
#X connect 70 0 71 0;
#X connect 71 0 46 0;
#X connect 73 0 71 0;
#X connect 73 1 74 0;
#X coords 0 -1 1 1 175 100 2 100 100;
