#N canvas 105 22 1101 594 10;
#X obj 100 54 sigmund~ -npeak 8 peaks;
#N canvas 0 23 1013 573 resynthesis 0;
#X obj 71 177 *~;
#X obj 123 140 pack 0 10;
#X obj 123 161 line~;
#X obj 71 198 throw~ \$0-SUM;
#X obj 776 195 osc~;
#X text 719 108 LFO;
#X obj 776 62 r \$0-freeze-modrate-s;
#X obj 776 83 / 127;
#X floatatom 776 125 5 0 0 0 - - - 0;
#X obj 776 145 pack 0 10;
#X obj 776 166 line~;
#X obj 776 232 *~;
#X obj 844 153 r \$0-freeze-modindex-s;
#X obj 844 174 / 127;
#X obj 844 195 pack 0 10;
#X obj 844 216 line~;
#X obj 776 253 s~ \$0-freeze-LFO;
#X obj 72 66 line~;
#X obj 72 45 pack 0 1;
#X obj 131 43 r~ \$0-freeze-LFO;
#X obj 72 108 phasor~;
#X obj 72 129 +~;
#X obj 72 150 cos~;
#X obj 254 169 *~;
#X obj 306 132 pack 0 10;
#X obj 306 153 line~;
#X obj 254 190 throw~ \$0-SUM;
#X obj 255 58 line~;
#X obj 255 37 pack 0 1;
#X obj 314 35 r~ \$0-freeze-LFO;
#X obj 255 100 phasor~;
#X obj 255 121 +~;
#X obj 255 142 cos~;
#X obj 432 170 *~;
#X obj 484 133 pack 0 10;
#X obj 484 154 line~;
#X obj 432 191 throw~ \$0-SUM;
#X obj 433 59 line~;
#X obj 433 38 pack 0 1;
#X obj 492 36 r~ \$0-freeze-LFO;
#X obj 433 101 phasor~;
#X obj 433 122 +~;
#X obj 433 143 cos~;
#X obj 606 166 *~;
#X obj 658 129 pack 0 10;
#X obj 658 150 line~;
#X obj 606 187 throw~ \$0-SUM;
#X obj 607 55 line~;
#X obj 607 34 pack 0 1;
#X obj 666 32 r~ \$0-freeze-LFO;
#X obj 607 97 phasor~;
#X obj 607 118 +~;
#X obj 607 139 cos~;
#X obj 63 391 *~;
#X obj 115 354 pack 0 10;
#X obj 115 375 line~;
#X obj 63 412 throw~ \$0-SUM;
#X obj 64 280 line~;
#X obj 64 259 pack 0 1;
#X obj 123 257 r~ \$0-freeze-LFO;
#X obj 64 322 phasor~;
#X obj 64 343 +~;
#X obj 64 364 cos~;
#X obj 246 383 *~;
#X obj 298 346 pack 0 10;
#X obj 298 367 line~;
#X obj 246 404 throw~ \$0-SUM;
#X obj 247 272 line~;
#X obj 247 251 pack 0 1;
#X obj 306 249 r~ \$0-freeze-LFO;
#X obj 247 314 phasor~;
#X obj 247 335 +~;
#X obj 247 356 cos~;
#X obj 424 384 *~;
#X obj 476 347 pack 0 10;
#X obj 476 368 line~;
#X obj 424 405 throw~ \$0-SUM;
#X obj 425 273 line~;
#X obj 425 252 pack 0 1;
#X obj 484 250 r~ \$0-freeze-LFO;
#X obj 425 315 phasor~;
#X obj 425 336 +~;
#X obj 425 357 cos~;
#X obj 598 380 *~;
#X obj 650 343 pack 0 10;
#X obj 650 364 line~;
#X obj 598 401 throw~ \$0-SUM;
#X obj 599 269 line~;
#X obj 599 248 pack 0 1;
#X obj 658 246 r~ \$0-freeze-LFO;
#X obj 599 311 phasor~;
#X obj 599 332 +~;
#X obj 599 353 cos~;
#X obj 776 104 * 50;
#X obj 72 24 r \$0-freq1;
#X obj 123 119 r \$0-amp1;
#X obj 255 16 r \$0-freq2;
#X obj 306 111 r \$0-amp2;
#X obj 432 17 r \$0-freq3;
#X obj 484 112 r \$0-amp3;
#X obj 606 13 r \$0-freq4;
#X obj 658 108 r \$0-amp4;
#X obj 64 238 r \$0-freq5;
#X obj 115 333 r \$0-amp5;
#X obj 247 229 r \$0-freq6;
#X obj 298 325 r \$0-amp6;
#X obj 424 230 r \$0-freq7;
#X obj 476 326 r \$0-amp7;
#X obj 598 227 r \$0-freq8;
#X obj 650 322 r \$0-amp8;
#X connect 0 0 3 0;
#X connect 1 0 2 0;
#X connect 2 0 0 1;
#X connect 4 0 11 0;
#X connect 6 0 7 0;
#X connect 7 0 93 0;
#X connect 8 0 9 0;
#X connect 9 0 10 0;
#X connect 10 0 4 0;
#X connect 11 0 16 0;
#X connect 12 0 13 0;
#X connect 13 0 14 0;
#X connect 14 0 15 0;
#X connect 15 0 11 1;
#X connect 17 0 20 0;
#X connect 18 0 17 0;
#X connect 19 0 21 1;
#X connect 20 0 21 0;
#X connect 21 0 22 0;
#X connect 22 0 0 0;
#X connect 23 0 26 0;
#X connect 24 0 25 0;
#X connect 25 0 23 1;
#X connect 27 0 30 0;
#X connect 28 0 27 0;
#X connect 29 0 31 1;
#X connect 30 0 31 0;
#X connect 31 0 32 0;
#X connect 32 0 23 0;
#X connect 33 0 36 0;
#X connect 34 0 35 0;
#X connect 35 0 33 1;
#X connect 37 0 40 0;
#X connect 38 0 37 0;
#X connect 39 0 41 1;
#X connect 40 0 41 0;
#X connect 41 0 42 0;
#X connect 42 0 33 0;
#X connect 43 0 46 0;
#X connect 44 0 45 0;
#X connect 45 0 43 1;
#X connect 47 0 50 0;
#X connect 48 0 47 0;
#X connect 49 0 51 1;
#X connect 50 0 51 0;
#X connect 51 0 52 0;
#X connect 52 0 43 0;
#X connect 53 0 56 0;
#X connect 54 0 55 0;
#X connect 55 0 53 1;
#X connect 57 0 60 0;
#X connect 58 0 57 0;
#X connect 59 0 61 1;
#X connect 60 0 61 0;
#X connect 61 0 62 0;
#X connect 62 0 53 0;
#X connect 63 0 66 0;
#X connect 64 0 65 0;
#X connect 65 0 63 1;
#X connect 67 0 70 0;
#X connect 68 0 67 0;
#X connect 69 0 71 1;
#X connect 70 0 71 0;
#X connect 71 0 72 0;
#X connect 72 0 63 0;
#X connect 73 0 76 0;
#X connect 74 0 75 0;
#X connect 75 0 73 1;
#X connect 77 0 80 0;
#X connect 78 0 77 0;
#X connect 79 0 81 1;
#X connect 80 0 81 0;
#X connect 81 0 82 0;
#X connect 82 0 73 0;
#X connect 83 0 86 0;
#X connect 84 0 85 0;
#X connect 85 0 83 1;
#X connect 87 0 90 0;
#X connect 88 0 87 0;
#X connect 89 0 91 1;
#X connect 90 0 91 0;
#X connect 91 0 92 0;
#X connect 92 0 83 0;
#X connect 93 0 8 0;
#X connect 94 0 18 0;
#X connect 95 0 1 0;
#X connect 96 0 28 0;
#X connect 97 0 24 0;
#X connect 98 0 38 0;
#X connect 99 0 34 0;
#X connect 100 0 48 0;
#X connect 101 0 44 0;
#X connect 102 0 58 0;
#X connect 103 0 54 0;
#X connect 104 0 68 0;
#X connect 105 0 64 0;
#X connect 106 0 78 0;
#X connect 107 0 74 0;
#X connect 108 0 88 0;
#X connect 109 0 84 0;
#X restore 380 362 pd resynthesis;
#N canvas 0 23 918 570 partials 0;
#X obj 64 45 route 0 1 2 3 4 5 6 7;
#X obj 63 118 unpack f f;
#X floatatom 63 139 5 0 0 0 - - - 0;
#X floatatom 120 142 5 0 0 0 - - - 0;
#X obj 32 221 f, f 6;
#X obj 106 220 f;
#X obj 32 182 t b b;
#X obj 64 18 inlet;
#X obj 191 216 unpack f f;
#X floatatom 191 237 5 0 0 0 - - - 0;
#X floatatom 248 240 5 0 0 0 - - - 0;
#X obj 160 319 f, f 6;
#X obj 234 318 f;
#X obj 160 280 t b b;
#X obj 314 134 unpack f f;
#X floatatom 314 155 5 0 0 0 - - - 0;
#X floatatom 371 158 5 0 0 0 - - - 0;
#X obj 283 237 f, f 6;
#X obj 357 236 f;
#X obj 283 198 t b b;
#X obj 452 139 unpack f f;
#X floatatom 452 160 5 0 0 0 - - - 0;
#X floatatom 509 163 5 0 0 0 - - - 0;
#X obj 421 242 f, f 6;
#X obj 495 241 f;
#X obj 421 203 t b b;
#X obj 424 301 unpack f f;
#X floatatom 424 322 5 0 0 0 - - - 0;
#X floatatom 481 325 5 0 0 0 - - - 0;
#X obj 393 404 f, f 6;
#X obj 467 403 f;
#X obj 393 365 t b b;
#X obj 578 301 unpack f f;
#X floatatom 578 322 5 0 0 0 - - - 0;
#X floatatom 635 325 5 0 0 0 - - - 0;
#X obj 547 404 f, f 6;
#X obj 621 403 f;
#X obj 547 365 t b b;
#X obj 610 134 unpack f f;
#X floatatom 610 155 5 0 0 0 - - - 0;
#X floatatom 667 158 5 0 0 0 - - - 0;
#X obj 579 237 f, f 6;
#X obj 653 236 f;
#X obj 579 198 t b b;
#X obj 749 335 unpack f f;
#X floatatom 749 356 5 0 0 0 - - - 0;
#X floatatom 806 359 5 0 0 0 - - - 0;
#X obj 718 438 f, f 6;
#X obj 792 437 f;
#X obj 718 399 t b b;
#X obj 32 161 r \$0-freeze!;
#X obj 160 259 r \$0-freeze!;
#X obj 283 177 r \$0-freeze!;
#X obj 421 182 r \$0-freeze!;
#X obj 393 344 r \$0-freeze!;
#X obj 547 344 r \$0-freeze!;
#X obj 579 177 r \$0-freeze!;
#X obj 718 378 r \$0-freeze!;
#X obj 32 242 s \$0-freq1;
#X obj 106 241 s \$0-amp1;
#X obj 160 340 s \$0-freq2;
#X obj 234 339 s \$0-amp2;
#X obj 283 258 s \$0-freq3;
#X obj 357 257 s \$0-amp3;
#X obj 421 263 s \$0-freq4;
#X obj 393 425 s \$0-freq5;
#X obj 467 424 s \$0-amp5;
#X obj 495 262 s \$0-amp4;
#X obj 546 425 s \$0-freq6;
#X obj 621 424 s \$0-amp6;
#X obj 578 258 s \$0-freq7;
#X obj 653 257 s \$0-amp7;
#X obj 717 460 s \$0-freq8;
#X obj 792 458 s \$0-amp9;
#X connect 0 0 1 0;
#X connect 0 1 8 0;
#X connect 0 2 14 0;
#X connect 0 3 20 0;
#X connect 0 4 26 0;
#X connect 0 5 32 0;
#X connect 0 6 38 0;
#X connect 0 7 44 0;
#X connect 1 0 2 0;
#X connect 1 1 3 0;
#X connect 2 0 4 1;
#X connect 3 0 5 1;
#X connect 4 0 58 0;
#X connect 5 0 59 0;
#X connect 6 0 4 0;
#X connect 6 1 5 0;
#X connect 7 0 0 0;
#X connect 8 0 9 0;
#X connect 8 1 10 0;
#X connect 9 0 11 1;
#X connect 10 0 12 1;
#X connect 11 0 60 0;
#X connect 12 0 61 0;
#X connect 13 0 11 0;
#X connect 13 1 12 0;
#X connect 14 0 15 0;
#X connect 14 1 16 0;
#X connect 15 0 17 1;
#X connect 16 0 18 1;
#X connect 17 0 62 0;
#X connect 18 0 63 0;
#X connect 19 0 17 0;
#X connect 19 1 18 0;
#X connect 20 0 21 0;
#X connect 20 1 22 0;
#X connect 21 0 23 1;
#X connect 22 0 24 1;
#X connect 23 0 64 0;
#X connect 24 0 67 0;
#X connect 25 0 23 0;
#X connect 25 1 24 0;
#X connect 26 0 27 0;
#X connect 26 1 28 0;
#X connect 27 0 29 1;
#X connect 28 0 30 1;
#X connect 29 0 65 0;
#X connect 30 0 66 0;
#X connect 31 0 29 0;
#X connect 31 1 30 0;
#X connect 32 0 33 0;
#X connect 32 1 34 0;
#X connect 33 0 35 1;
#X connect 34 0 36 1;
#X connect 35 0 68 0;
#X connect 36 0 69 0;
#X connect 37 0 35 0;
#X connect 37 1 36 0;
#X connect 38 0 39 0;
#X connect 38 1 40 0;
#X connect 39 0 41 1;
#X connect 40 0 42 1;
#X connect 41 0 70 0;
#X connect 42 0 71 0;
#X connect 43 0 41 0;
#X connect 43 1 42 0;
#X connect 44 0 45 0;
#X connect 44 1 46 0;
#X connect 45 0 47 1;
#X connect 46 0 48 1;
#X connect 47 0 72 0;
#X connect 48 0 73 0;
#X connect 49 0 47 0;
#X connect 49 1 48 0;
#X connect 50 0 6 0;
#X connect 51 0 13 0;
#X connect 52 0 19 0;
#X connect 53 0 25 0;
#X connect 54 0 31 0;
#X connect 55 0 37 0;
#X connect 56 0 43 0;
#X connect 57 0 49 0;
#X restore 100 76 pd partials;
#X obj 228 129 tgl 15 0 \$0-freeze-freeze!-s \$0-freeze-freeze!-r FREEZE
17 7 0 10 #fcfcfc #000000 #000000 0 1;
#X obj 379 414 *~;
#X obj 113 144 hsl 128 15 0 127 0 0 \$0-freeze-attack-s \$0-freeze-attack-r
ATTACK 133 7 0 10 #fcfcfc #000000 #000000 0 1;
#X obj 497 118 / 127;
#X obj 482 251 f;
#X obj 377 234 sel 1 0;
#X obj 482 399 line~;
#X msg 482 279 0 \$1;
#X msg 546 332 1 \$1;
#X obj 561 234 / 127;
#X obj 546 306 f;
#X obj 378 290 t b b;
#X obj 497 160 + 10;
#X obj 497 139 * 1990;
#X obj 561 276 + 10;
#X obj 561 255 * 1990;
#X obj 113 209 hsl 128 15 0 127 0 0 \$0-freeze-dry/wet-s \$0-freeze-dry/wet-r
DRY/WET 133 7 0 10 #8480d4 #000000 #000000 0 1;
#X obj 375 69 r \$0-freeze-freeze!-s;
#X obj 497 92 r \$0-freeze-decay-s;
#X obj 113 159 hsl 128 15 0 127 0 0 \$0-freeze-decay-s \$0-freeze-decay-r
DECAY 133 7 0 10 #fcfcfc #000000 #000000 0 1;
#X obj 561 210 r \$0-freeze-attack-s;
#X obj 379 385 catch~ \$0-SUM;
#X obj 380 478 *~;
#X obj 524 422 / 127;
#X obj 524 442 pack 0 10;
#X obj 524 463 line~;
#X obj 671 25 inlet~ FREEZE;
#X obj 671 46 threshold~ 0.9 0 0.9 0;
#X msg 671 67 bang;
#X obj 671 88 t b b;
#X obj 274 114 bng 15 250 50 0 empty \$0-freeze-gui-r empty 17 7 0
10 #fcfcfc #d0307c #000000;
#X obj 698 116 s \$0-freeze-gui-r;
#X obj 378 324 s \$0-freeze!;
#X obj 671 141 s \$0-freeze-freeze!-r;
#X obj 380 511 outlet~;
#X obj 110 135 cnv 5 5 5 empty empty AUDIOFREEZE 0 0 0 12 #fcfcfc #404040
0;
#X obj 105 233 cnv 5 5 5 empty empty OUT 0 0 0 8 #fcfcfc #404040 0
;
#X obj 199 135 cnv 5 5 5 empty \$0-instance-num 0 0 0 0 12 #fcfcfc
#404040 0;
#X obj 266 109 cnv 5 5 5 empty empty FREEZE 0 0 0 8 #fcfcfc #d0307c
0;
#X obj 105 109 cnv 5 5 5 empty empty IN 0 0 0 8 #fcfcfc #404040 0;
#X obj 113 194 hsl 128 15 0 127 0 0 \$0-freeze-modindex-s \$0-freeze-modindex-r
MODINDEX 133 7 0 10 #8480d4 #000000 #000000 0 1;
#X obj 113 179 hsl 128 15 0 127 0 0 \$0-freeze-modrate-s \$0-freeze-modrate-r
MODRATE 133 7 0 10 #fcfcfc #000000 #000000 0 1;
#X obj 284 28 r pedal;
#X obj 35 77 s~ \$0-DRY;
#X obj 524 401 r \$0-freeze-dry/wet-s;
#X obj 167 373 r~ \$0-DRY;
#X obj 167 445 *~;
#X obj 321 445 pack 0 10;
#X obj 321 466 line~;
#X obj 233 389 / 127;
#X obj 233 409 pack 0 10;
#X obj 233 430 line~;
#X obj 233 325 r \$0-freeze-dry/wet-s;
#X msg 233 346 127 \$1;
#X obj 233 367 -;
#N canvas 537 22 473 428 save-state 0;
#X obj 224 134 f;
#X obj 224 177 pack f f f f f f;
#X obj 115 216 unpack f f f f f f;
#X obj 239 31 r \$0-freeze-freeze!-s;
#X obj 115 369 s \$0-freeze-freeze!-r;
#X obj 247 54 r \$0-freeze-attack-s;
#X obj 136 345 s \$0-freeze-attack-r;
#X obj 261 75 r \$0-freeze-decay-s;
#X obj 157 321 s \$0-freeze-decay-r;
#X obj 279 100 r \$0-freeze-modrate-s;
#X obj 178 297 s \$0-freeze-modrate-r;
#X obj 299 125 r \$0-freeze-modindex-s;
#X obj 199 271 s \$0-freeze-modindex-r;
#X obj 317 146 r \$0-freeze-dry/wet-s;
#X obj 220 247 s \$0-freeze-dry/wet-r;
#X obj 143 70 savestate;
#X obj 78 50 loadbang;
#X obj 35 180 list store;
#X msg 65 128 1;
#X obj 78 71 t b b;
#X obj 65 107 t b a;
#X obj 12 154 spigot 0;
#X obj 115 154 spigot 1;
#X obj 143 91 t a b;
#X msg 170 128 0;
#X msg 115 180 0 0 0 0 0 63;
#X connect 0 0 1 0;
#X connect 1 0 15 0;
#X connect 2 0 4 0;
#X connect 2 1 6 0;
#X connect 2 2 8 0;
#X connect 2 3 10 0;
#X connect 2 4 12 0;
#X connect 2 5 14 0;
#X connect 3 0 0 1;
#X connect 5 0 1 1;
#X connect 7 0 1 2;
#X connect 9 0 1 3;
#X connect 11 0 1 4;
#X connect 13 0 1 5;
#X connect 15 0 23 0;
#X connect 15 1 0 0;
#X connect 16 0 19 0;
#X connect 17 0 2 0;
#X connect 18 0 21 1;
#X connect 19 0 21 0;
#X connect 19 1 22 0;
#X connect 20 0 18 0;
#X connect 20 1 17 1;
#X connect 21 0 17 0;
#X connect 22 0 25 0;
#X connect 23 0 20 0;
#X connect 23 1 24 0;
#X connect 24 0 22 1;
#X connect 25 0 2 0;
#X restore 721 251 pd save-state;
#N canvas 344 22 444 360 forwarding 0;
#X obj 30 74 route FREEZE ATTACK DECAY MODRATE MODINDEX DRY/WET;
#X obj 25 300 s \$0-freeze-freeze!-r;
#X obj 79 254 s \$0-freeze-attack-r;
#X obj 133 209 s \$0-freeze-decay-r;
#X obj 178 178 s \$0-freeze-modrate-r;
#X obj 228 159 s \$0-freeze-modindex-r;
#X obj 278 124 s \$0-freeze-dry/wet-r;
#X obj 30 22 inlet;
#X connect 0 0 1 0;
#X connect 0 1 2 0;
#X connect 0 2 3 0;
#X connect 0 3 4 0;
#X connect 0 4 5 0;
#X connect 0 5 6 0;
#X connect 7 0 0 0;
#X restore 156 28 pd forwarding;
#X obj 100 1 inlet~ fwd;
#X connect 0 0 2 0;
#X connect 4 0 25 0;
#X connect 6 0 16 0;
#X connect 7 0 10 0;
#X connect 8 0 14 0;
#X connect 8 1 7 0;
#X connect 9 0 4 1;
#X connect 10 0 9 0;
#X connect 11 0 9 0;
#X connect 12 0 18 0;
#X connect 13 0 11 0;
#X connect 14 0 35 0;
#X connect 14 1 13 0;
#X connect 15 0 7 1;
#X connect 16 0 15 0;
#X connect 17 0 13 1;
#X connect 18 0 17 0;
#X connect 20 0 8 0;
#X connect 21 0 6 0;
#X connect 23 0 12 0;
#X connect 24 0 4 0;
#X connect 25 0 37 0;
#X connect 26 0 27 0;
#X connect 27 0 28 0;
#X connect 28 0 25 1;
#X connect 29 0 30 0;
#X connect 30 0 31 0;
#X connect 31 0 32 0;
#X connect 32 0 36 0;
#X connect 32 1 34 0;
#X connect 45 0 3 0;
#X connect 47 0 26 0;
#X connect 48 0 49 0;
#X connect 49 0 37 0;
#X connect 50 0 51 0;
#X connect 52 0 53 0;
#X connect 53 0 54 0;
#X connect 54 0 49 1;
#X connect 55 0 56 0;
#X connect 56 0 57 0;
#X connect 57 0 52 0;
#X connect 60 0 0 0;
#X connect 60 0 46 0;
#X connect 60 1 59 0;
#X coords 0 -1 1 1 200 140 2 100 100;
