#N canvas 169 23 1068 703 10;
#X obj 93 296 t f f;
#X obj 93 384 line~;
#X obj 93 478 mtof~;
#X floatatom 205 118 5 0 0 0 - - - 0;
#X obj 350 621 outlet~;
#X obj 93 450 +~;
#X obj 217 433 *~ 127;
#X obj 465 463 *~;
#X obj 480 416 pack 0 50;
#X obj 480 438 line~;
#X obj 107 177 hsl 128 15 0 127 0 1 \$0-basic-osc-fm-att-s \$0-basic-osc-fm-att-r
FM 133 7 0 10 #9898dc #000000 #000000 0 1;
#X obj 107 132 hsl 128 15 0 127 0 1 \$0-basic-osc-pitch-s \$0-basic-osc-pitch-r
PITCH 133 7 0 10 #fcfcfc #000000 #000000 6000 1;
#X obj 192 109 cnv 5 5 5 empty empty PWM 0 0 0 8 #fcfcfc #7474a4 0
;
#X text 462 227 FM IN;
#X obj 465 485 *~ 2000;
#X obj 93 502 +~;
#X text 214 230 PITCH CV IN;
#X obj 104 124 cnv 5 5 5 empty empty BASIC-OSC 0 0 0 12 #fcfcfc #404040
0;
#X obj 93 361 pack 0 50;
#X obj 240 200 cnv 5 5 5 empty \$0-waveform-gui-r SINE 0 0 0 10 #fcfcfc
#404040 0;
#X obj 93 269 r \$0-basic-osc-pitch-s;
#X obj 107 147 hsl 128 15 0 127 0 1 \$0-basic-osc-pwidth-s \$0-basic-osc-pwidth-r
P-WIDTH 133 7 0 10 #fcfcfc #000000 #000000 0 1;
#X obj 107 162 hsl 128 15 0 127 0 1 \$0-basic-osc-pwm-att-s \$0-basic-osc-pwm-att-r
PWM 133 7 0 10 #9898dc #000000 #000000 0 1;
#X obj 480 350 r \$0-basic-osc-fm-att-s;
#X obj 480 372 * 0.00787402;
#X obj 480 394 * 2;
#X obj 105 204 cnv 5 5 5 empty empty OUT 0 0 0 8 #fcfcfc #404040 0
;
#X obj 679 14 r \$0-basic-osc-wform-s;
#X obj 679 35 sel 0 1 2 3;
#N canvas 0 22 897 458 sinewave 0;
#X obj 193 69 inlet~;
#X obj 193 147 osc~;
#X obj 193 226 outlet~;
#X obj 241 263 switch~;
#X obj 241 68 r \$0-basic-osc-sine-on/off;
#X obj 193 181 *~;
#X obj 241 90 t f f;
#X obj 268 164 line~;
#X obj 268 142 pack 0 100;
#X obj 241 186 sel 0;
#X obj 241 208 del 100;
#X msg 241 230 0;
#X connect 0 0 1 0;
#X connect 1 0 5 0;
#X connect 4 0 6 0;
#X connect 5 0 2 0;
#X connect 6 0 9 0;
#X connect 6 1 8 0;
#X connect 7 0 5 1;
#X connect 8 0 7 0;
#X connect 9 0 10 0;
#X connect 9 1 3 0;
#X connect 10 0 11 0;
#X connect 11 0 3 0;
#X restore 93 604 pd sinewave;
#X msg 679 522 1 0 0 0;
#X obj 679 498 t b b;
#X obj 177 192 hradio 15 1 1 4 \$0-basic-osc-wform-s \$0-basic-osc-wform-r
empty 65 7 0 10 #fcfcfc #000000 #000000 0;
#X obj 175 124 cnv 5 5 5 empty \$0-instance-num 0 0 0 0 12 #fcfcfc
#404040 0;
#X obj 938 588 s \$0-waveform-gui-r;
#X obj 938 541 makefilename %s;
#X msg 938 565 label \$1;
#X msg 938 515 symbol SINE;
#X obj 285 109 cnv 5 5 5 empty empty FM 0 0 0 8 #fcfcfc #7474a4 0;
#X obj 694 329 t b b;
#X msg 694 351 0 1 0 0;
#X obj 679 544 unpack f f f f;
#X obj 679 643 s \$0-basic-osc-sine-on/off;
#X obj 706 618 s \$0-basic-osc-triangle-on/off;
#X obj 733 592 s \$0-basic-osc-saw-on/off;
#X obj 760 567 s \$0-basic-osc-pulse-on/off;
#X obj 694 374 unpack f f f f;
#X obj 694 473 s \$0-basic-osc-sine-on/off;
#X obj 721 448 s \$0-basic-osc-triangle-on/off;
#X obj 748 422 s \$0-basic-osc-saw-on/off;
#X obj 775 397 s \$0-basic-osc-pulse-on/off;
#X msg 938 493 symbol TRIANGLE;
#X obj 710 161 t b b;
#X obj 710 206 unpack f f f f;
#X obj 710 305 s \$0-basic-osc-sine-on/off;
#X obj 737 280 s \$0-basic-osc-triangle-on/off;
#X obj 764 254 s \$0-basic-osc-saw-on/off;
#X obj 791 229 s \$0-basic-osc-pulse-on/off;
#X msg 710 183 0 0 1 0;
#X msg 939 471 symbol SAW;
#X obj 804 52 t b b;
#X obj 804 97 unpack f f f f;
#X obj 804 196 s \$0-basic-osc-sine-on/off;
#X obj 831 171 s \$0-basic-osc-triangle-on/off;
#X obj 858 145 s \$0-basic-osc-saw-on/off;
#X obj 885 120 s \$0-basic-osc-pulse-on/off;
#X msg 804 74 0 0 0 1;
#X msg 935 439 symbol PULSE;
#N canvas 0 23 632 532 triangle 0;
#X obj 90 62 inlet~;
#X obj 90 380 outlet~;
#X obj 138 344 switch~;
#X obj 90 335 *~;
#X obj 138 83 t f f;
#X obj 165 318 line~;
#X obj 138 61 r \$0-basic-osc-triangle-on/off;
#X obj 90 134 phasor~;
#X obj 90 222 min~;
#X obj 111 176 *~ -1;
#X obj 111 198 +~ 1;
#X obj 90 244 *~ 4;
#X obj 90 266 -~ 1;
#X obj 165 296 pack 0 100;
#X obj 138 234 sel 0;
#X obj 138 256 del 100;
#X msg 138 278 0;
#X connect 0 0 7 0;
#X connect 3 0 1 0;
#X connect 4 0 14 0;
#X connect 4 1 13 0;
#X connect 5 0 3 1;
#X connect 6 0 4 0;
#X connect 7 0 8 0;
#X connect 7 0 9 0;
#X connect 8 0 11 0;
#X connect 9 0 10 0;
#X connect 10 0 8 1;
#X connect 11 0 12 0;
#X connect 12 0 3 0;
#X connect 13 0 5 0;
#X connect 14 0 15 0;
#X connect 14 1 2 0;
#X connect 15 0 16 0;
#X connect 16 0 2 0;
#X restore 185 519 pd triangle;
#N canvas 0 22 344 453 saw 0;
#X obj 90 62 inlet~;
#X obj 90 380 outlet~;
#X obj 138 344 switch~;
#X obj 90 335 *~;
#X obj 138 83 t f f;
#X obj 165 318 line~;
#X obj 90 134 phasor~;
#X obj 90 266 -~ 1;
#X obj 90 209 *~ 2;
#X obj 138 61 r \$0-basic-osc-saw-on/off;
#X obj 165 296 pack 0 100;
#X obj 138 171 sel 0;
#X obj 138 193 del 100;
#X msg 138 215 0;
#X connect 0 0 6 0;
#X connect 3 0 1 0;
#X connect 4 0 11 0;
#X connect 4 1 10 0;
#X connect 5 0 3 1;
#X connect 6 0 8 0;
#X connect 7 0 3 0;
#X connect 8 0 7 0;
#X connect 9 0 4 0;
#X connect 10 0 5 0;
#X connect 11 0 12 0;
#X connect 11 1 2 0;
#X connect 12 0 13 0;
#X connect 13 0 2 0;
#X restore 278 519 pd saw;
#N canvas 0 22 633 594 pulse 0;
#X obj 164 62 inlet~;
#X obj 164 553 outlet~;
#X obj 212 517 switch~;
#X obj 164 508 *~;
#X obj 212 83 t f f;
#X obj 239 491 line~;
#X obj 164 134 phasor~;
#X obj 164 434 -~ 1;
#X obj 164 332 cos~;
#X obj 164 359 expr~ $v1 < $v2;
#X obj 251 262 * 0.99;
#X obj 251 284 pack 0 50;
#X obj 389 117 inlet~;
#X text 387 96 PWM CV INPUT;
#X obj 251 306 line~;
#X obj 251 330 +~;
#X obj 389 313 *~;
#X obj 404 257 pack 0 50;
#X obj 404 279 line~;
#X obj 251 207 r \$0-basic-osc-pwidth-s;
#X obj 251 240 * 0.00787402;
#X obj 404 235 * 0.00787402;
#X obj 404 206 r \$0-basic-osc-pwm-att-s;
#X obj 212 61 r \$0-basic-osc-pulse-on/off;
#X obj 164 413 *~ 2;
#X obj 239 469 pack 0 100;
#X obj 212 400 sel 0;
#X obj 212 422 del 100;
#X msg 212 444 0;
#X connect 0 0 6 0;
#X connect 3 0 1 0;
#X connect 4 0 26 0;
#X connect 4 1 25 0;
#X connect 5 0 3 1;
#X connect 6 0 8 0;
#X connect 7 0 3 0;
#X connect 8 0 9 0;
#X connect 9 0 24 0;
#X connect 10 0 11 0;
#X connect 11 0 14 0;
#X connect 12 0 16 0;
#X connect 14 0 15 0;
#X connect 15 0 9 1;
#X connect 16 0 15 1;
#X connect 17 0 18 0;
#X connect 18 0 16 1;
#X connect 19 0 20 0;
#X connect 20 0 10 0;
#X connect 21 0 17 0;
#X connect 22 0 21 0;
#X connect 23 0 4 0;
#X connect 24 0 7 0;
#X connect 25 0 5 0;
#X connect 26 0 27 0;
#X connect 26 1 2 0;
#X connect 27 0 28 0;
#X connect 28 0 2 0;
#X restore 350 519 pd pulse;
#X obj 395 272 inlet~ PWM;
#X obj 465 246 inlet~ FM;
#X obj 93 318 clip 0 100;
#X obj 105 109 cnv 5 5 5 empty empty PITCH 0 0 0 8 #fcfcfc #404040
0;
#X obj 350 540 *~ 0.9;
#X obj 175 312 mtof;
#X obj 217 246 inlet~ fwd;
#N canvas 474 23 387 344 forwarding 0;
#X obj 13 250 s \$0-basic-osc-pitch-r;
#X obj 50 208 s \$0-basic-osc-pwidth-r;
#X obj 111 186 s \$0-basic-osc-pwm-att-r;
#X obj 125 141 s \$0-basic-osc-fm-att-r;
#X obj 12 12 inlet;
#X obj 12 64 route PITCH P-WIDTH PWM FM RADIO;
#X obj 169 107 s \$0-basic-osc-wform-r;
#X connect 4 0 5 0;
#X connect 5 0 0 0;
#X connect 5 1 1 0;
#X connect 5 2 2 0;
#X connect 5 3 3 0;
#X connect 5 4 6 0;
#X restore 244 274 pd forwarding;
#N canvas 587 136 517 408 save-state 0;
#X obj 259 120 f;
#X obj 259 163 pack f f f f f;
#X obj 106 212 unpack f f f f f;
#X obj 274 17 r \$0-basic-osc-pitch-s;
#X obj 106 365 s \$0-basic-osc-pitch-r;
#X obj 282 40 r \$0-basic-osc-pwidth-s;
#X obj 127 341 s \$0-basic-osc-pwidth-r;
#X obj 296 61 r \$0-basic-osc-pwm-att-s;
#X obj 148 317 s \$0-basic-osc-pwm-att-r;
#X obj 314 86 r \$0-basic-osc-fm-att-s;
#X obj 169 293 s \$0-basic-osc-fm-att-r;
#X obj 334 111 r \$0-basic-osc-wform-s;
#X obj 196 267 s \$0-basic-osc-wform-r;
#X obj 143 70 savestate;
#X obj 78 50 loadbang;
#X obj 35 180 list store;
#X msg 65 128 1;
#X obj 78 71 t b b;
#X obj 65 107 t b a;
#X obj 12 154 spigot 0;
#X obj 115 154 spigot 1;
#X obj 143 91 t a b;
#X msg 170 128 0;
#X msg 115 180 60 0 0 0 0;
#X connect 0 0 1 0;
#X connect 1 0 13 0;
#X connect 2 0 4 0;
#X connect 2 1 6 0;
#X connect 2 2 8 0;
#X connect 2 3 10 0;
#X connect 2 4 12 0;
#X connect 3 0 0 1;
#X connect 5 0 1 1;
#X connect 7 0 1 2;
#X connect 9 0 1 3;
#X connect 11 0 1 4;
#X connect 13 0 21 0;
#X connect 13 1 0 0;
#X connect 14 0 17 0;
#X connect 15 0 2 0;
#X connect 16 0 19 1;
#X connect 17 0 19 0;
#X connect 17 1 20 0;
#X connect 18 0 16 0;
#X connect 18 1 15 1;
#X connect 19 0 15 0;
#X connect 20 0 23 0;
#X connect 21 0 18 0;
#X connect 21 1 22 0;
#X connect 22 0 20 1;
#X connect 23 0 2 0;
#X restore 316 122 pd save-state;
#X connect 0 0 73 0;
#X connect 0 1 76 0;
#X connect 0 1 3 0;
#X connect 1 0 5 0;
#X connect 2 0 15 0;
#X connect 5 0 2 0;
#X connect 6 0 5 1;
#X connect 7 0 14 0;
#X connect 8 0 9 0;
#X connect 9 0 7 1;
#X connect 14 0 15 1;
#X connect 15 0 29 0;
#X connect 15 0 68 0;
#X connect 15 0 69 0;
#X connect 15 0 70 0;
#X connect 18 0 1 0;
#X connect 20 0 0 0;
#X connect 23 0 24 0;
#X connect 24 0 25 0;
#X connect 25 0 8 0;
#X connect 27 0 28 0;
#X connect 28 0 31 0;
#X connect 28 1 39 0;
#X connect 28 2 52 0;
#X connect 28 3 60 0;
#X connect 29 0 4 0;
#X connect 30 0 41 0;
#X connect 31 0 30 0;
#X connect 31 1 37 0;
#X connect 35 0 36 0;
#X connect 36 0 34 0;
#X connect 37 0 35 0;
#X connect 39 0 40 0;
#X connect 39 1 51 0;
#X connect 40 0 46 0;
#X connect 41 0 42 0;
#X connect 41 1 43 0;
#X connect 41 2 44 0;
#X connect 41 3 45 0;
#X connect 46 0 47 0;
#X connect 46 1 48 0;
#X connect 46 2 49 0;
#X connect 46 3 50 0;
#X connect 51 0 35 0;
#X connect 52 0 58 0;
#X connect 52 1 59 0;
#X connect 53 0 54 0;
#X connect 53 1 55 0;
#X connect 53 2 56 0;
#X connect 53 3 57 0;
#X connect 58 0 53 0;
#X connect 59 0 35 0;
#X connect 60 0 66 0;
#X connect 60 1 67 0;
#X connect 61 0 62 0;
#X connect 61 1 63 0;
#X connect 61 2 64 0;
#X connect 61 3 65 0;
#X connect 66 0 61 0;
#X connect 67 0 35 0;
#X connect 68 0 4 0;
#X connect 69 0 4 0;
#X connect 70 0 75 0;
#X connect 71 0 70 1;
#X connect 72 0 7 0;
#X connect 73 0 18 0;
#X connect 75 0 4 0;
#X connect 77 0 6 0;
#X connect 77 1 78 0;
#X coords 0 -1 1 1 200 112 2 100 100;
