#N canvas 0 23 1023 750 10;
#X obj 191 461 lop~ 2000;
#X obj 191 487 lop~ 2000;
#X obj 191 514 samphold~;
#X obj 326 313 mtof~;
#X obj 405 242 inlet~;
#X obj 326 281 +~;
#X obj 405 264 *~ 127;
#X obj 326 335 phasor~;
#X obj 326 221 sig~;
#X obj 326 243 lop~ 10;
#X obj 326 379 *~ 2;
#X obj 326 401 -~ 1;
#X obj 326 198 -;
#X msg 326 176 127 \$1;
#X obj 326 357 expr~ $v1 > 0.5;
#X text 403 222 CRUSH CV IN;
#X text 183 223 SIGNAL IN;
#X obj 191 536 lop~ 2000;
#X obj 191 558 lop~ 2000;
#X obj 191 666 outlet~;
#X obj 98 550 *~;
#X obj 107 136 hsl 128 15 0 127 0 1 \$0-bitcrush-dry-s \$0-bitcrush-dry-r
DRY 133 7 0 10 #fcfcfc #000000 #000000 0 1;
#X obj 113 260 / 127;
#X obj 113 282 pack 0 50;
#X obj 113 304 line~;
#X obj 191 638 *~ 0.5;
#X obj 326 150 t f;
#X obj 532 238 inlet~;
#X obj 532 260 abs~;
#X obj 113 469 +~;
#X obj 113 491 min~ 1;
#X obj 258 109 cnv 5 5 5 empty empty DRY 0 0 0 8 #fcfcfc #404040 0
;
#X obj 105 109 cnv 5 5 5 empty empty IN 0 0 0 8 #fcfcfc #404040 0;
#X obj 175 109 cnv 5 5 5 empty empty CRUSH 0 0 0 8 #fcfcfc #404040
0;
#X text 534 221 DRY CV IN;
#X obj 104 129 cnv 5 5 5 empty empty BITCRUSH 0 0 0 12 #fcfcfc #404040
0;
#X obj 167 129 cnv 5 5 5 empty \$0-instance-num 0 0 0 0 12 #fcfcfc
#404040 0;
#X obj 107 151 hsl 128 15 0 127 0 1 \$0-bitcrush-crush-s \$0-bitcrush-crush-r
CRUSH 133 7 0 10 #fcfcfc #000000 #000000 0 1;
#N canvas 362 22 513 320 save-state 0;
#X obj 223 64 f;
#X obj 223 107 pack f f;
#X obj 113 173 unpack f f;
#X obj 238 16 r \$0-bitcrush-dry-s;
#X obj 113 235 s \$0-bitcrush-dry-r;
#X obj 268 63 r \$0-bitcrush-crush-s;
#X obj 170 201 s \$0-bitcrush-crush-r;
#X obj 143 32 savestate;
#X obj 78 12 loadbang;
#X obj 35 142 list store;
#X msg 65 90 1;
#X obj 78 33 t b b;
#X obj 65 69 t b a;
#X obj 12 116 spigot 0;
#X obj 115 116 spigot 1;
#X obj 143 53 t a b;
#X msg 170 90 0;
#X msg 115 142 63 0;
#X connect 0 0 1 0;
#X connect 1 0 7 0;
#X connect 2 0 4 0;
#X connect 2 1 6 0;
#X connect 3 0 0 1;
#X connect 5 0 1 1;
#X connect 7 0 15 0;
#X connect 7 1 0 0;
#X connect 8 0 11 0;
#X connect 9 0 2 0;
#X connect 10 0 13 1;
#X connect 11 0 13 0;
#X connect 11 1 14 0;
#X connect 12 0 10 0;
#X connect 12 1 9 1;
#X connect 13 0 9 0;
#X connect 14 0 17 0;
#X connect 15 0 12 0;
#X connect 15 1 16 0;
#X connect 16 0 14 1;
#X connect 17 0 2 0;
#X restore 374 48 pd save-state;
#N canvas 531 26 254 140 forwarding 0;
#X obj 9 40 route DRY CRUSH;
#X obj 10 86 s \$0-bitcrush-dry-r;
#X obj 47 64 s \$0-bitcrush-crush-r;
#X obj 9 18 inlet;
#X connect 0 0 1 0;
#X connect 0 1 2 0;
#X connect 3 0 0 0;
#X restore 230 274 pd forwarding;
#X obj 191 246 inlet~ fwd;
#X connect 0 0 1 0;
#X connect 1 0 2 0;
#X connect 2 0 17 0;
#X connect 3 0 7 0;
#X connect 4 0 6 0;
#X connect 5 0 3 0;
#X connect 6 0 5 1;
#X connect 7 0 14 0;
#X connect 8 0 9 0;
#X connect 9 0 5 0;
#X connect 10 0 11 0;
#X connect 11 0 2 1;
#X connect 12 0 8 0;
#X connect 13 0 12 0;
#X connect 14 0 10 0;
#X connect 17 0 18 0;
#X connect 18 0 25 0;
#X connect 20 0 25 0;
#X connect 21 0 22 0;
#X connect 22 0 23 0;
#X connect 23 0 24 0;
#X connect 24 0 29 0;
#X connect 25 0 19 0;
#X connect 26 0 13 0;
#X connect 27 0 28 0;
#X connect 28 0 29 1;
#X connect 29 0 30 0;
#X connect 30 0 20 1;
#X connect 37 0 26 0;
#X connect 40 0 0 0;
#X connect 40 0 20 0;
#X connect 40 1 39 0;
#X coords 0 -1 1 1 175 75 2 100 100;
