#N canvas 15 24 1027 569 10;
#X obj 582 491 bob~;
#X obj 592 258 / 127;
#X obj 592 321 pack 0 10;
#X obj 592 343 line~;
#X obj 592 365 +~;
#X obj 582 517 outlet~;
#X obj 106 167 hsl 128 15 0 127 0 0 \$0-bob-fm--/+-s \$0-bob-fm--/+-r
FM-/+ 133 7 0 10 #90d4b0 #000000 #000000 0 1;
#X obj 106 137 hsl 128 15 0 127 0 0 \$0-bob-cutoff-s \$0-bob-cutoff-r
CUTOFF 133 7 0 10 #fcfcfc #000000 #000000 0 1;
#X obj 105 109 cnv 5 5 5 empty empty IN 0 0 0 8 #fcfcfc #404040 0;
#X obj 173 109 cnv 5 5 5 empty empty CUTOFF 0 0 0 8 #fcfcfc #5ca878
0;
#X obj 104 128 cnv 5 5 5 empty empty BOB-FILTER 0 0 0 12 #fcfcfc #404040
0;
#X obj 263 109 cnv 5 5 5 empty empty Q 0 0 0 8 #fcfcfc #404040 0;
#X floatatom 103 182 5 0 0 0 - \$0-fm-nbx - 0;
#X obj 106 152 hsl 128 15 0 127 0 0 \$0-bob-res-s \$0-bob-res-r RES
133 7 0 10 #fcfcfc #000000 #000000 0 1;
#X obj 592 237 r \$0-bob-cutoff-s;
#X obj 816 361 r \$0-bob-res-s;
#X obj 719 57 r \$0-bob-fm--/+-s;
#X obj 719 125 / 127;
#X obj 719 147 * 2;
#X obj 719 169 - 1;
#X obj 719 302 pack 0 10;
#X obj 719 324 line~;
#X obj 704 349 *~;
#N canvas 431 54 447 389 save-state 0;
#X obj 220 109 f;
#X obj 220 152 pack f f f;
#X obj 115 218 unpack f f f;
#X obj 235 61 r \$0-bob-cutoff-s;
#X obj 115 290 s \$0-bob-cutoff-r;
#X obj 277 127 r \$0-bob-fm--/+-s;
#X obj 184 242 s \$0-bob-fm--/+-r;
#X obj 248 99 r \$0-bob-res-s;
#X obj 149 264 s \$0-bob-res-r;
#X obj 143 70 savestate;
#X obj 78 50 loadbang;
#X obj 35 180 list store;
#X msg 65 128 1;
#X obj 78 71 t b b;
#X obj 65 107 t b a;
#X obj 12 154 spigot 0;
#X obj 115 154 spigot 1;
#X obj 143 91 t a b;
#X msg 170 128 0;
#X msg 115 180 63 63 63;
#X connect 0 0 1 0;
#X connect 1 0 9 0;
#X connect 2 0 4 0;
#X connect 2 1 8 0;
#X connect 2 2 6 0;
#X connect 3 0 0 1;
#X connect 5 0 1 2;
#X connect 7 0 1 1;
#X connect 9 0 17 0;
#X connect 9 1 0 0;
#X connect 10 0 13 0;
#X connect 11 0 2 0;
#X connect 12 0 15 1;
#X connect 13 0 15 0;
#X connect 13 1 16 0;
#X connect 14 0 12 0;
#X connect 14 1 11 1;
#X connect 15 0 11 0;
#X connect 16 0 19 0;
#X connect 17 0 14 0;
#X connect 17 1 18 0;
#X connect 18 0 16 1;
#X connect 19 0 2 0;
#X restore 42 298 pd save-state;
#N canvas 531 26 270 242 forwarding 0;
#X obj 15 67 route CUTOFF RES FM-/+;
#X obj 15 173 s \$0-bob-cutoff-r;
#X obj 54 141 s \$0-bob-res-r;
#X obj 98 108 s \$0-bob-fm--/+-r;
#X obj 15 15 inlet;
#X connect 0 0 1 0;
#X connect 0 1 2 0;
#X connect 0 2 3 0;
#X connect 4 0 0 0;
#X restore 518 195 pd forwarding;
#X obj 461 169 inlet~ fwd;
#X obj 592 455 clip~ 20 17000;
#X obj 816 382 / 127;
#X obj 816 403 * 4;
#X obj 816 424 pack f 20;
#X obj 816 445 line~;
#X obj 816 476 +~;
#X text 888 430 (I3) Resonance;
#X obj 592 279 * 111;
#X obj 592 300 + 21;
#X obj 719 190 t f f;
#X obj 704 36 inlet~;
#X text 704 16 (I2) Cutoff;
#X obj 746 211 send \$0-fm-nbx;
#X obj 592 386 mtof~;
#X obj 719 78 sel 63;
#X obj 888 450 inlet~;
#X text 461 149 (I1) Input;
#X msg 719 99 63.5;
#X obj 719 237 * 96;
#X connect 0 0 5 0;
#X connect 1 0 33 0;
#X connect 2 0 3 0;
#X connect 3 0 4 0;
#X connect 4 0 39 0;
#X connect 14 0 1 0;
#X connect 15 0 27 0;
#X connect 16 0 40 0;
#X connect 17 0 18 0;
#X connect 18 0 19 0;
#X connect 19 0 35 0;
#X connect 20 0 21 0;
#X connect 21 0 22 1;
#X connect 22 0 4 1;
#X connect 25 0 0 0;
#X connect 25 1 24 0;
#X connect 26 0 0 1;
#X connect 27 0 28 0;
#X connect 28 0 29 0;
#X connect 29 0 30 0;
#X connect 30 0 31 0;
#X connect 31 0 0 2;
#X connect 33 0 34 0;
#X connect 34 0 2 0;
#X connect 35 0 44 0;
#X connect 35 1 38 0;
#X connect 36 0 22 0;
#X connect 39 0 26 0;
#X connect 40 0 43 0;
#X connect 40 1 17 0;
#X connect 41 0 31 1;
#X connect 43 0 17 0;
#X connect 44 0 20 0;
#X coords 0 -1 1 1 175 100 2 100 100;
