#N canvas 0 23 1129 665 10;
#X obj 294 303 vcf~ 1;
#X obj 294 364 vcf~ 1;
#X obj 294 434 vcf~ 1;
#X obj 294 499 vcf~ 1;
#X obj 294 621 outlet~;
#X obj 106 120 hsl 128 15 1.27 127 1 1 \$0-bandpass-cutoff-s \$0-bandpass-cutoff-r
CUTOFF 133 7 0 10 #fcfcfc #000000 #000000 10767 1;
#X obj 105 109 cnv 5 5 5 empty empty IN 0 0 0 8 #fcfcfc #404040 0;
#X obj 541 281 +~;
#X obj 541 163 / 127;
#X obj 541 236 sig~;
#X obj 541 258 lop~ 10;
#X obj 541 207 + 100;
#X obj 106 135 hsl 128 15 1.27 127 1 1 \$0-bandpass-res-s \$0-bandpass-res-r
RES. 133 7 0 10 #fcfcfc #000000 #000000 10767 1;
#X obj 394 189 / 127;
#X obj 394 211 * 9;
#X obj 394 233 + 1;
#X obj 394 255 pack 0 50;
#X obj 394 276 line;
#X obj 294 564 min~ 1;
#X obj 294 586 max~ -1;
#X obj 715 167 inlet~;
#X obj 715 229 *~ 5000;
#X obj 541 185 * 5000;
#X obj 106 165 hsl 128 15 0 127 0 1 \$0-bandpass-fm-/+-s \$0-bandpass-fm-/+-r
FM-/+ 133 7 0 10 #90d4b0 #000000 #000000 6300 1;
#X obj 783 97 / 127;
#X obj 783 119 * 2;
#X obj 783 141 - 1;
#X obj 783 247 line~;
#X floatatom 103 182 5 0 0 0 - - - 0;
#X obj 715 264 *~;
#X text 741 268 FM-/+ ATTENUEVERTER;
#X obj 783 163 t f f;
#X obj 253 109 cnv 5 5 5 empty empty FREQ 0 0 0 8 #fcfcfc #5ca878 0
;
#X obj 121 112 cnv 5 5 5 empty empty BANDPASS-FILTER 0 0 0 12 #fcfcfc
#404040 0;
#X obj 394 297 t f f f f;
#X obj 106 150 hsl 128 15 1.27 127 1 1 \$0-bandpass-drive-s \$0-bandpass-drive-r
DRIVE 133 7 0 10 #fcfcfc #000000 #000000 10767 1;
#X obj 464 436 / 127;
#X obj 464 458 * 3;
#X obj 464 480 + 1;
#X obj 464 502 pack 0 50;
#X obj 464 524 line~;
#X obj 294 542 *~;
#X obj 232 112 cnv 5 5 5 empty \$0-instance-num 0 0 0 0 12 #fcfcfc
#404040 0;
#N canvas 659 407 469 303 save-state 0;
#X obj 115 168 unpack f f f f;
#X obj 244 111 pack f f f f;
#X obj 244 68 f;
#X obj 259 20 r \$0-bandpass-cutoff-s;
#X obj 115 262 s \$0-bandpass-cutoff-r;
#X obj 267 43 r \$0-bandpass-res-s;
#X obj 142 239 s \$0-bandpass-res-r;
#X obj 290 64 r \$0-bandpass-drive-s;
#X obj 313 85 r \$0-bandpass-fm-/+-s;
#X obj 196 193 s \$0-bandpass-fm-/+-r;
#X obj 169 213 s \$0-bandpass-drive-r;
#X obj 143 32 savestate;
#X obj 78 12 loadbang;
#X obj 35 142 list store;
#X msg 65 90 1;
#X obj 78 33 t b b;
#X obj 65 69 t b a;
#X obj 12 116 spigot 0;
#X obj 115 116 spigot 1;
#X obj 143 53 t a b;
#X msg 170 90 0;
#X msg 115 142 63 63 63 63;
#X connect 0 0 4 0;
#X connect 0 1 6 0;
#X connect 0 2 10 0;
#X connect 0 3 9 0;
#X connect 1 0 11 0;
#X connect 2 0 1 0;
#X connect 3 0 2 1;
#X connect 5 0 1 1;
#X connect 7 0 1 2;
#X connect 8 0 1 3;
#X connect 11 0 19 0;
#X connect 11 1 2 0;
#X connect 12 0 15 0;
#X connect 13 0 0 0;
#X connect 14 0 17 1;
#X connect 15 0 17 0;
#X connect 15 1 18 0;
#X connect 16 0 14 0;
#X connect 16 1 13 1;
#X connect 17 0 13 0;
#X connect 18 0 21 0;
#X connect 19 0 16 0;
#X connect 19 1 20 0;
#X connect 20 0 18 1;
#X connect 21 0 0 0;
#X restore 386 64 pd save-state;
#X obj 783 76 r \$0-bandpass-fm-/+-s;
#X obj 541 142 r \$0-bandpass-cutoff-s;
#X obj 464 415 r \$0-bandpass-drive-s;
#X obj 394 168 r \$0-bandpass-res-s;
#N canvas 531 26 332 201 forwarding 0;
#X obj 13 40 route CUTOFF RES DRIVE FM-/+;
#X obj 14 166 s \$0-bandpass-cutoff-r;
#X obj 51 134 s \$0-bandpass-res-r;
#X obj 92 104 s \$0-bandpass-drive-r;
#X obj 147 76 s \$0-bandpass-fm-/+-r;
#X obj 13 14 inlet;
#X connect 0 0 1 0;
#X connect 0 1 2 0;
#X connect 0 2 3 0;
#X connect 0 3 4 0;
#X connect 5 0 0 0;
#X restore 281 252 pd forwarding;
#X obj 224 226 inlet~ fwd;
#X obj 783 225 pack 0 10;
#X connect 0 0 1 0;
#X connect 1 0 2 0;
#X connect 2 0 3 0;
#X connect 3 0 41 0;
#X connect 7 0 0 1;
#X connect 7 0 1 1;
#X connect 7 0 2 1;
#X connect 7 0 3 1;
#X connect 8 0 22 0;
#X connect 9 0 10 0;
#X connect 10 0 7 0;
#X connect 11 0 9 0;
#X connect 13 0 14 0;
#X connect 14 0 15 0;
#X connect 15 0 16 0;
#X connect 16 0 17 0;
#X connect 17 0 34 0;
#X connect 18 0 19 0;
#X connect 19 0 4 0;
#X connect 20 0 21 0;
#X connect 21 0 29 0;
#X connect 22 0 11 0;
#X connect 24 0 25 0;
#X connect 25 0 26 0;
#X connect 26 0 31 0;
#X connect 27 0 29 1;
#X connect 29 0 7 1;
#X connect 31 0 50 0;
#X connect 34 0 0 2;
#X connect 34 1 1 2;
#X connect 34 2 2 2;
#X connect 34 3 3 2;
#X connect 36 0 37 0;
#X connect 37 0 38 0;
#X connect 38 0 39 0;
#X connect 39 0 40 0;
#X connect 40 0 41 1;
#X connect 41 0 18 0;
#X connect 44 0 24 0;
#X connect 45 0 8 0;
#X connect 46 0 36 0;
#X connect 47 0 13 0;
#X connect 49 0 0 0;
#X connect 49 1 48 0;
#X connect 50 0 27 0;
#X coords 0 -1 1 1 175 100 2 100 100;
