#N canvas 0 23 625 505 10;
#X obj 109 184 hsl 128 15 0 127 0 1 \$0-channel-eq-mid-gain-s \$0-channel-eq-mid-gain-r
MID-GAIN:0 133 7 0 10 #9898dc #000000 #000000 6300 1;
#X obj 109 219 hsl 128 15 0 127 0 1 \$0-channel-eq-low-gain-s \$0-channel-eq-low-gain-r
LOW-GAIN:0 133 7 0 10 #9898dc #000000 #000000 6300 1;
#X obj 109 134 hsl 128 15 0 127 0 1 \$0-channel-eq-high-freq-s \$0-channel-eq-high-freq-r
HIGH-FREQ:6648 133 7 0 10 #fcfcfc #000000 #000000 6300 1;
#X obj 109 149 hsl 128 15 0 127 0 1 \$0-channel-eq-high-gain-s \$0-channel-eq-high-gain-r
HIGH-GAIN:0 133 7 0 10 #9898dc #000000 #000000 6300 1;
#X obj 367 401 clip~ -1 1;
#X obj 367 432 outlet~;
#X obj 367 371 *~ 1;
#X obj 105 109 cnv 5 5 5 empty empty IN 0 0 0 8 #fcfcfc #404040 0;
#X obj 105 123 cnv 5 5 5 empty empty CHANNEL-EQ 0 0 0 12 #fcfcfc #404040
0;
#X obj 184 123 cnv 5 5 5 empty \$0-instance-num 0 0 0 0 12 #fcfcfc
#404040 0;
#N canvas 422 26 858 752 mid 0;
#X obj 126 21 inlet~;
#X obj 126 544 outlet~;
#X obj 142 53 r \$0-channel-eq-mid-freq-s;
#X obj 142 75 / 127;
#X obj 142 119 + 150;
#X floatatom 142 141 5 0 0 0 - - - 0;
#X obj 142 97 * 3350;
#X obj 142 214 pack 0 50;
#X obj 142 240 line~;
#X obj 126 493 *~;
#X floatatom 409 104 5 0 0 0 - - - 0;
#X floatatom 466 106 5 0 0 0 - - - 0;
#X obj 409 53 moses 63.5;
#X obj 466 84 / 63.5;
#X obj 409 82 / 63.5;
#X obj 466 125 * 10;
#X floatatom 466 147 5 0 0 0 - - - 0;
#X obj 466 166 - 10;
#X floatatom 466 188 5 0 0 0 - - - 0;
#X obj 466 289 pack 0 50;
#X obj 466 220 spigot;
#X obj 409 14 t f f;
#X obj 534 31 > 63.5;
#X floatatom 534 57 5 0 0 0 - - - 0;
#X obj 534 76 t f f;
#X obj 408 253 spigot;
#X obj 561 236 == 0;
#X obj 586 13 / 127;
#X obj 586 35 * 20;
#X obj 586 57 - 10;
#X obj 586 79 i;
#X floatatom 586 101 5 0 0 0 - - - 0;
#X obj 409 -8 r \$0-channel-eq-mid-gain-s;
#X obj 586 -9 r \$0-channel-eq-mid-gain-s;
#X obj 466 476 line~;
#X obj 227 177 i;
#X obj 142 160 t f f;
#X msg 227 199 label MID-FREQ:\$1;
#X obj 227 221 s \$0-channel-eq-mid-freq-r;
#X obj 586 146 s \$0-channel-eq-mid-gain-r;
#X obj 126 265 vcf~ 3;
#X obj 126 287 vcf~ 3;
#X obj 126 311 vcf~ 3;
#X obj 126 333 vcf~ 3;
#X msg 586 124 label MID-GAIN:\$1;
#X connect 0 0 40 0;
#X connect 2 0 3 0;
#X connect 3 0 6 0;
#X connect 4 0 5 0;
#X connect 5 0 36 0;
#X connect 6 0 4 0;
#X connect 7 0 8 0;
#X connect 8 0 40 1;
#X connect 8 0 41 1;
#X connect 8 0 42 1;
#X connect 8 0 43 1;
#X connect 9 0 1 0;
#X connect 10 0 25 0;
#X connect 11 0 15 0;
#X connect 12 0 14 0;
#X connect 12 1 13 0;
#X connect 13 0 11 0;
#X connect 14 0 10 0;
#X connect 15 0 16 0;
#X connect 16 0 17 0;
#X connect 17 0 18 0;
#X connect 18 0 20 0;
#X connect 19 0 34 0;
#X connect 20 0 19 0;
#X connect 21 0 12 0;
#X connect 21 1 22 0;
#X connect 22 0 23 0;
#X connect 23 0 24 0;
#X connect 24 0 20 1;
#X connect 24 1 26 0;
#X connect 25 0 19 0;
#X connect 26 0 25 1;
#X connect 27 0 28 0;
#X connect 28 0 29 0;
#X connect 29 0 30 0;
#X connect 30 0 31 0;
#X connect 31 0 44 0;
#X connect 32 0 21 0;
#X connect 33 0 27 0;
#X connect 34 0 9 1;
#X connect 35 0 37 0;
#X connect 36 0 7 0;
#X connect 36 1 35 0;
#X connect 37 0 38 0;
#X connect 40 0 41 0;
#X connect 41 0 42 0;
#X connect 42 0 43 0;
#X connect 43 0 9 0;
#X connect 44 0 39 0;
#X restore 420 252 pd mid;
#N canvas 422 26 858 752 high 0;
#X obj 126 21 inlet~;
#X obj 126 544 outlet~;
#X obj 142 75 / 127;
#X floatatom 142 141 5 0 0 0 - - - 0;
#X obj 142 214 pack 0 50;
#X obj 142 240 line~;
#X obj 126 493 *~;
#X floatatom 409 104 5 0 0 0 - - - 0;
#X floatatom 466 106 5 0 0 0 - - - 0;
#X obj 409 53 moses 63.5;
#X obj 466 84 / 63.5;
#X obj 409 82 / 63.5;
#X obj 466 125 * 10;
#X floatatom 466 147 5 0 0 0 - - - 0;
#X obj 466 166 - 10;
#X floatatom 466 188 5 0 0 0 - - - 0;
#X obj 466 289 pack 0 50;
#X obj 466 220 spigot;
#X obj 409 14 t f f;
#X obj 534 31 > 63.5;
#X floatatom 534 57 5 0 0 0 - - - 0;
#X obj 534 76 t f f;
#X obj 408 253 spigot;
#X obj 561 236 == 0;
#X obj 586 13 / 127;
#X obj 586 35 * 20;
#X obj 586 57 - 10;
#X obj 586 79 i;
#X floatatom 586 101 5 0 0 0 - - - 0;
#X obj 466 476 line~;
#X obj 227 177 i;
#X obj 142 160 t f f;
#X obj 126 265 vcf~ 3;
#X obj 126 287 vcf~ 3;
#X obj 126 311 vcf~ 3;
#X obj 126 333 vcf~ 3;
#X obj 227 221 s \$0-channel-eq-high-freq-r;
#X obj 586 146 s \$0-channel-eq-high-gain-r;
#X obj 586 -9 r \$0-channel-eq-high-gain-s;
#X obj 409 -8 r \$0-channel-eq-high-gain-s;
#X obj 142 53 r \$0-channel-eq-high-freq-s;
#X obj 142 119 + 3350;
#X msg 227 199 label HIGH-FREQ:\$1;
#X msg 586 124 label HIGH-GAIN:\$1;
#X obj 142 97 * 6649;
#X connect 0 0 32 0;
#X connect 2 0 44 0;
#X connect 3 0 31 0;
#X connect 4 0 5 0;
#X connect 5 0 32 1;
#X connect 5 0 33 1;
#X connect 5 0 34 1;
#X connect 5 0 35 1;
#X connect 6 0 1 0;
#X connect 7 0 22 0;
#X connect 8 0 12 0;
#X connect 9 0 11 0;
#X connect 9 1 10 0;
#X connect 10 0 8 0;
#X connect 11 0 7 0;
#X connect 12 0 13 0;
#X connect 13 0 14 0;
#X connect 14 0 15 0;
#X connect 15 0 17 0;
#X connect 16 0 29 0;
#X connect 17 0 16 0;
#X connect 18 0 9 0;
#X connect 18 1 19 0;
#X connect 19 0 20 0;
#X connect 20 0 21 0;
#X connect 21 0 17 1;
#X connect 21 1 23 0;
#X connect 22 0 16 0;
#X connect 23 0 22 1;
#X connect 24 0 25 0;
#X connect 25 0 26 0;
#X connect 26 0 27 0;
#X connect 27 0 28 0;
#X connect 28 0 43 0;
#X connect 29 0 6 1;
#X connect 30 0 42 0;
#X connect 31 0 4 0;
#X connect 31 1 30 0;
#X connect 32 0 33 0;
#X connect 33 0 34 0;
#X connect 34 0 35 0;
#X connect 35 0 6 0;
#X connect 38 0 24 0;
#X connect 39 0 18 0;
#X connect 40 0 2 0;
#X connect 41 0 3 0;
#X connect 42 0 36 0;
#X connect 43 0 37 0;
#X connect 44 0 41 0;
#X restore 474 252 pd high;
#X obj 109 204 hsl 128 15 0 127 0 1 \$0-channel-eq-low-freq-s \$0-channel-eq-low-freq-r
LOW-FREQ:89 133 7 0 10 #fcfcfc #000000 #000000 6300 1;
#X obj 109 169 hsl 128 15 0 127 0 1 \$0-channel-eq-mid-freq-s \$0-channel-eq-mid-freq-r
MID-FREQ:1811 133 7 0 10 #fcfcfc #000000 #000000 6300 1;
#N canvas 422 26 858 752 low 0;
#X obj 126 21 inlet~;
#X obj 126 544 outlet~;
#X obj 142 75 / 127;
#X floatatom 142 141 5 0 0 0 - - - 0;
#X obj 142 214 pack 0 50;
#X obj 142 240 line~;
#X obj 126 493 *~;
#X floatatom 409 104 5 0 0 0 - - - 0;
#X floatatom 466 106 5 0 0 0 - - - 0;
#X obj 409 53 moses 63.5;
#X obj 466 84 / 63.5;
#X obj 409 82 / 63.5;
#X obj 466 125 * 10;
#X floatatom 466 147 5 0 0 0 - - - 0;
#X obj 466 166 - 10;
#X floatatom 466 188 5 0 0 0 - - - 0;
#X obj 466 289 pack 0 50;
#X obj 466 220 spigot;
#X obj 409 14 t f f;
#X obj 534 31 > 63.5;
#X floatatom 534 57 5 0 0 0 - - - 0;
#X obj 534 76 t f f;
#X obj 408 253 spigot;
#X obj 561 236 == 0;
#X obj 586 13 / 127;
#X obj 586 35 * 20;
#X obj 586 57 - 10;
#X obj 586 79 i;
#X floatatom 586 101 5 0 0 0 - - - 0;
#X obj 466 476 line~;
#X obj 227 177 i;
#X obj 142 160 t f f;
#X obj 126 265 vcf~ 3;
#X obj 126 287 vcf~ 3;
#X obj 126 311 vcf~ 3;
#X obj 126 333 vcf~ 3;
#X obj 142 53 r \$0-channel-eq-low-freq-s;
#X msg 227 199 label LOW-FREQ:\$1;
#X obj 227 221 s \$0-channel-eq-low-freq-r;
#X obj 409 -8 r \$0-channel-eq-low-gain-s;
#X obj 586 -9 r \$0-channel-eq-low-gain-s;
#X obj 586 146 s \$0-channel-eq-low-gain-r;
#X msg 586 124 label LOW-GAIN:\$1;
#X obj 142 97 * 120;
#X obj 142 119 + 30;
#X connect 0 0 32 0;
#X connect 2 0 43 0;
#X connect 3 0 31 0;
#X connect 4 0 5 0;
#X connect 5 0 32 1;
#X connect 5 0 33 1;
#X connect 5 0 34 1;
#X connect 5 0 35 1;
#X connect 6 0 1 0;
#X connect 7 0 22 0;
#X connect 8 0 12 0;
#X connect 9 0 11 0;
#X connect 9 1 10 0;
#X connect 10 0 8 0;
#X connect 11 0 7 0;
#X connect 12 0 13 0;
#X connect 13 0 14 0;
#X connect 14 0 15 0;
#X connect 15 0 17 0;
#X connect 16 0 29 0;
#X connect 17 0 16 0;
#X connect 18 0 9 0;
#X connect 18 1 19 0;
#X connect 19 0 20 0;
#X connect 20 0 21 0;
#X connect 21 0 17 1;
#X connect 21 1 23 0;
#X connect 22 0 16 0;
#X connect 23 0 22 1;
#X connect 24 0 25 0;
#X connect 25 0 26 0;
#X connect 26 0 27 0;
#X connect 27 0 28 0;
#X connect 28 0 42 0;
#X connect 29 0 6 1;
#X connect 30 0 37 0;
#X connect 31 0 4 0;
#X connect 31 1 30 0;
#X connect 32 0 33 0;
#X connect 33 0 34 0;
#X connect 34 0 35 0;
#X connect 35 0 6 0;
#X connect 36 0 2 0;
#X connect 37 0 38 0;
#X connect 39 0 18 0;
#X connect 40 0 24 0;
#X connect 42 0 41 0;
#X connect 43 0 44 0;
#X connect 44 0 3 0;
#X restore 367 252 pd low;
#N canvas 393 107 572 395 save-state 0;
#X obj 274 133 f;
#X obj 274 176 pack f f f f f f;
#X obj 115 190 unpack f f f f f f;
#X obj 348 124 r \$0-channel-eq-low-freq-s;
#X obj 367 149 r \$0-channel-eq-low-gain-s;
#X obj 329 100 r \$0-channel-eq-mid-gain-s;
#X obj 311 75 r \$0-channel-eq-mid-freq-s;
#X obj 288 12 r \$0-channel-eq-high-freq-s;
#X obj 292 51 r \$0-channel-eq-high-gain-s;
#X obj 115 335 s \$0-channel-eq-high-freq-r;
#X obj 136 307 s \$0-channel-eq-high-gain-r;
#X obj 157 282 s \$0-channel-eq-mid-freq-r;
#X obj 178 256 s \$0-channel-eq-mid-gain-r;
#X obj 199 230 s \$0-channel-eq-low-freq-r;
#X obj 247 207 s \$0-channel-eq-low-gain-r;
#X obj 143 44 savestate;
#X obj 78 24 loadbang;
#X obj 35 154 list store;
#X msg 65 102 1;
#X obj 78 45 t b b;
#X obj 65 81 t b a;
#X obj 12 128 spigot 0;
#X obj 115 128 spigot 1;
#X obj 143 65 t a b;
#X msg 170 102 0;
#X msg 115 154 63 63 63 63 63 63;
#X connect 0 0 1 0;
#X connect 1 0 15 0;
#X connect 2 0 9 0;
#X connect 2 1 10 0;
#X connect 2 2 11 0;
#X connect 2 3 12 0;
#X connect 2 4 13 0;
#X connect 2 5 14 0;
#X connect 3 0 1 4;
#X connect 4 0 1 5;
#X connect 5 0 1 3;
#X connect 6 0 1 2;
#X connect 7 0 0 1;
#X connect 8 0 1 1;
#X connect 15 0 23 0;
#X connect 15 1 0 0;
#X connect 16 0 19 0;
#X connect 17 0 2 0;
#X connect 18 0 21 1;
#X connect 19 0 21 0;
#X connect 19 1 22 0;
#X connect 20 0 18 0;
#X connect 20 1 17 1;
#X connect 21 0 17 0;
#X connect 22 0 25 0;
#X connect 23 0 20 0;
#X connect 23 1 24 0;
#X connect 24 0 22 1;
#X connect 25 0 2 0;
#X restore 100 307 pd save-state;
#N canvas 531 26 749 752 forwarding 0;
#X floatatom 44 706 5 0 0 0 - - - 0;
#X obj 44 685 f;
#X obj 44 633 t b f;
#X obj 44 656 spigot;
#X obj 92 640 r \$0-msg-spigot;
#X floatatom 81 594 5 0 0 0 - - - 0;
#X obj 81 573 f;
#X obj 81 521 t b f;
#X obj 81 544 spigot;
#X obj 129 528 r \$0-msg-spigot;
#X floatatom 243 709 5 0 0 0 - - - 0;
#X obj 243 688 f;
#X obj 243 636 t b f;
#X obj 243 659 spigot;
#X obj 291 643 r \$0-msg-spigot;
#X floatatom 283 587 5 0 0 0 - - - 0;
#X obj 283 566 f;
#X obj 283 514 t b f;
#X obj 283 537 spigot;
#X obj 331 521 r \$0-msg-spigot;
#X floatatom 453 674 5 0 0 0 - - - 0;
#X obj 453 653 f;
#X obj 453 601 t b f;
#X obj 453 624 spigot;
#X obj 501 608 r \$0-msg-spigot;
#X obj 42 380 route HIGH-FREQ HIGH-GAIN MID-FREQ MID-GAIN LOW-FREQ
LOW-GAIN;
#X floatatom 468 516 5 0 0 0 - - - 0;
#X obj 468 495 f;
#X obj 468 443 t b f;
#X obj 468 466 spigot;
#X obj 516 450 r \$0-msg-spigot;
#X obj 44 726 s \$0-channel-eq-high-freq-r;
#X obj 81 614 s \$0-channel-eq-high-gain-r;
#X obj 243 729 s \$0-channel-eq-mid-freq-r;
#X obj 283 607 s \$0-channel-eq-mid-gain-r;
#X obj 453 694 s \$0-channel-eq-low-freq-r;
#X obj 468 536 s \$0-channel-eq-low-gain-r;
#X obj 42 328 inlet;
#X connect 0 0 31 0;
#X connect 1 0 0 0;
#X connect 2 0 3 0;
#X connect 2 1 1 1;
#X connect 3 0 1 0;
#X connect 4 0 3 1;
#X connect 5 0 32 0;
#X connect 6 0 5 0;
#X connect 7 0 8 0;
#X connect 7 1 6 1;
#X connect 8 0 6 0;
#X connect 9 0 8 1;
#X connect 10 0 33 0;
#X connect 11 0 10 0;
#X connect 12 0 13 0;
#X connect 12 1 11 1;
#X connect 13 0 11 0;
#X connect 14 0 13 1;
#X connect 15 0 34 0;
#X connect 16 0 15 0;
#X connect 17 0 18 0;
#X connect 17 1 16 1;
#X connect 18 0 16 0;
#X connect 19 0 18 1;
#X connect 20 0 35 0;
#X connect 21 0 20 0;
#X connect 22 0 23 0;
#X connect 22 1 21 1;
#X connect 23 0 21 0;
#X connect 24 0 23 1;
#X connect 25 0 2 0;
#X connect 25 1 7 0;
#X connect 25 2 12 0;
#X connect 25 3 17 0;
#X connect 25 4 22 0;
#X connect 25 5 28 0;
#X connect 26 0 36 0;
#X connect 27 0 26 0;
#X connect 28 0 29 0;
#X connect 28 1 27 1;
#X connect 29 0 27 0;
#X connect 30 0 29 1;
#X connect 37 0 25 0;
#X restore 424 121 pd forwarding;
#X obj 367 95 inlet~ fwd;
#X connect 4 0 5 0;
#X connect 6 0 4 0;
#X connect 10 0 6 0;
#X connect 11 0 6 0;
#X connect 14 0 6 0;
#X connect 17 0 10 0;
#X connect 17 0 11 0;
#X connect 17 0 14 0;
#X connect 17 1 16 0;
#X coords 0 -1 1 1 230 140 2 100 100;
