#N canvas 0 23 1209 730 10;
#X obj 341 398 phasor~;
#X obj 341 420 +~;
#X obj 341 442 cos~;
#X obj 341 464 +~ 1;
#X obj 341 486 *~ 0.5;
#X obj 341 351 mtof~;
#X obj 341 693 outlet~;
#X obj 410 319 / 127;
#X obj 410 383 pack f 50;
#X obj 410 442 line~;
#X obj 341 508 *~;
#X obj 766 400 phasor~;
#X obj 766 444 cos~;
#X obj 766 466 +~ 1;
#X obj 766 488 *~ 0.5;
#X obj 766 510 *~;
#X obj 766 369 mtof~;
#X obj 766 422 +~ 0.25;
#X obj 831 319 / 127;
#X obj 831 416 pack f 50;
#X obj 831 444 line~;
#X obj 478 394 phasor~;
#X obj 478 438 cos~;
#X obj 478 460 +~ 1;
#X obj 478 482 *~ 0.5;
#X obj 478 347 mtof~;
#X obj 766 693 outlet~;
#X obj 547 319 / 127;
#X obj 547 379 pack f 50;
#X obj 547 438 line~;
#X obj 478 504 *~;
#X obj 630 391 phasor~;
#X obj 630 435 cos~;
#X obj 630 457 +~ 1;
#X obj 630 479 *~ 0.5;
#X obj 630 501 *~;
#X obj 630 360 mtof~;
#X obj 695 319 / 127;
#X obj 695 407 pack f 50;
#X obj 695 435 line~;
#X obj 478 416 +~ 0.5;
#X obj 630 413 +~ 0.75;
#X obj 341 180 / 127;
#X obj 478 171 / 127;
#X obj 630 171 / 127;
#X obj 766 171 / 127;
#X obj 410 361 * 5;
#X obj 547 357 * 5;
#X obj 695 385 * 5;
#X obj 831 394 * 5;
#X obj 341 530 vd~ \$0-pe-chorus;
#X obj 478 623 vd~ \$0-pe-chorus;
#X obj 630 584 vd~ \$0-pe-chorus;
#X obj 766 532 vd~ \$0-pe-chorus;
#X obj 341 71 delwrite~ \$0-pe-chorus 100;
#X obj 106 128 hsl 128 15 0 127 0 1 \$0-chorus-rate-s \$0-chorus-rate-r
RATE 133 7 0 10 #fcfcfc #000000 #000000 6300 1;
#X obj 106 143 hsl 128 15 0 127 0 1 \$0-chorus-depth-s \$0-chorus-depth-r
DEPTH 133 7 0 10 #fcfcfc #000000 #000000 6300 1;
#X obj 341 154 t f f f f;
#X obj 897 285 t f f f f;
#X obj 341 601 *~ 0.5;
#X obj 766 640 *~ 0.5;
#X obj 341 637 +~;
#X obj 766 665 +~;
#X obj 341 224 - 64;
#X obj 478 227 - 64;
#X obj 630 221 - 64;
#X obj 766 226 - 64;
#X obj 341 202 * 96;
#X obj 478 205 * 96;
#X obj 630 199 * 96;
#X obj 766 204 * 96;
#X obj 341 246 sig~;
#X obj 478 249 sig~;
#X obj 630 243 sig~;
#X obj 766 248 sig~;
#X obj 341 282 +~;
#X obj 478 282 +~;
#X obj 630 282 +~;
#X obj 766 282 +~;
#X obj 538 50 inlet~;
#X text 515 30 RATE CV IN;
#X text 278 48 SIGNAL IN;
#X obj 410 491 +~;
#X obj 547 487 +~;
#X obj 695 484 +~;
#X obj 831 493 +~;
#X obj 812 217 inlet~;
#X text 810 198 DEPTH CV IN;
#X obj 812 240 *~ 5;
#X obj 103 120 cnv 5 5 5 empty empty CHORUS 0 0 0 12 #fcfcfc #404040
0;
#X obj 104 167 cnv 5 5 5 empty empty LEFT 0 0 0 8 #fcfcfc #404040 0
;
#X obj 179 109 cnv 5 5 5 empty empty RATE 0 0 0 8 #fcfcfc #404040 0
;
#X obj 104 109 cnv 5 5 5 empty empty IN 0 0 0 8 #fcfcfc #404040 0;
#X obj 247 108 cnv 5 5 5 empty empty DEPTH 0 0 0 8 #fcfcfc #404040
0;
#X obj 245 167 cnv 5 5 5 empty empty RIGHT 0 0 0 8 #fcfcfc #404040
0;
#X obj 538 72 *~ 96;
#X obj 150 120 cnv 5 5 5 empty \$0-instance-num 0 0 0 0 12 #fcfcfc
#404040 0;
#N canvas 489 22 441 334 save-state 0;
#X obj 232 96 f;
#X obj 232 139 pack f f;
#X obj 115 216 unpack f f;
#X obj 247 48 r \$0-chorus-rate-s;
#X obj 277 95 r \$0-chorus-depth-s;
#X obj 115 270 s \$0-chorus-rate-r;
#X obj 172 244 s \$0-chorus-depth-r;
#X obj 143 70 savestate;
#X obj 78 50 loadbang;
#X obj 35 180 list store;
#X msg 65 128 1;
#X obj 78 71 t b b;
#X obj 65 107 t b a;
#X obj 12 154 spigot 0;
#X obj 115 154 spigot 1;
#X obj 143 91 t a b;
#X msg 170 128 0;
#X msg 115 180 63 63;
#X connect 0 0 1 0;
#X connect 1 0 7 0;
#X connect 2 0 5 0;
#X connect 2 1 6 0;
#X connect 3 0 0 1;
#X connect 4 0 1 1;
#X connect 7 0 15 0;
#X connect 7 1 0 0;
#X connect 8 0 11 0;
#X connect 9 0 2 0;
#X connect 10 0 13 1;
#X connect 11 0 13 0;
#X connect 11 1 14 0;
#X connect 12 0 10 0;
#X connect 12 1 9 1;
#X connect 13 0 9 0;
#X connect 14 0 17 0;
#X connect 15 0 12 0;
#X connect 15 1 16 0;
#X connect 16 0 14 1;
#X connect 17 0 2 0;
#X restore 57 306 pd save-state;
#X obj 341 19 inlet~ fwd;
#N canvas 531 26 256 154 forwarding 0;
#X obj 12 44 route RATE DEPTH;
#X obj 13 110 s \$0-chorus-rate-r;
#X obj 50 78 s \$0-chorus-depth-r;
#X obj 12 12 inlet;
#X connect 0 0 1 0;
#X connect 0 1 2 0;
#X connect 3 0 0 0;
#X restore 395 41 pd forwarding;
#X obj 341 128 r \$0-chorus-rate-s;
#X obj 897 259 r \$0-chorus-depth-s;
#X connect 0 0 1 0;
#X connect 1 0 2 0;
#X connect 2 0 3 0;
#X connect 3 0 4 0;
#X connect 4 0 10 0;
#X connect 5 0 0 0;
#X connect 7 0 46 0;
#X connect 8 0 9 0;
#X connect 9 0 82 0;
#X connect 10 0 50 0;
#X connect 11 0 17 0;
#X connect 12 0 13 0;
#X connect 13 0 14 0;
#X connect 14 0 15 0;
#X connect 15 0 53 0;
#X connect 16 0 11 0;
#X connect 17 0 12 0;
#X connect 18 0 49 0;
#X connect 19 0 20 0;
#X connect 20 0 85 0;
#X connect 21 0 40 0;
#X connect 22 0 23 0;
#X connect 23 0 24 0;
#X connect 24 0 30 0;
#X connect 25 0 21 0;
#X connect 27 0 47 0;
#X connect 28 0 29 0;
#X connect 29 0 83 0;
#X connect 30 0 51 0;
#X connect 31 0 41 0;
#X connect 32 0 33 0;
#X connect 33 0 34 0;
#X connect 34 0 35 0;
#X connect 35 0 52 0;
#X connect 36 0 31 0;
#X connect 37 0 48 0;
#X connect 38 0 39 0;
#X connect 39 0 84 0;
#X connect 40 0 22 0;
#X connect 41 0 32 0;
#X connect 42 0 67 0;
#X connect 43 0 68 0;
#X connect 44 0 69 0;
#X connect 45 0 70 0;
#X connect 46 0 8 0;
#X connect 47 0 28 0;
#X connect 48 0 38 0;
#X connect 49 0 19 0;
#X connect 50 0 59 0;
#X connect 51 0 60 0;
#X connect 52 0 59 0;
#X connect 53 0 60 0;
#X connect 57 0 42 0;
#X connect 57 1 43 0;
#X connect 57 2 44 0;
#X connect 57 3 45 0;
#X connect 58 0 7 0;
#X connect 58 1 27 0;
#X connect 58 2 37 0;
#X connect 58 3 18 0;
#X connect 59 0 61 0;
#X connect 60 0 62 0;
#X connect 61 0 6 0;
#X connect 62 0 26 0;
#X connect 63 0 71 0;
#X connect 64 0 72 0;
#X connect 65 0 73 0;
#X connect 66 0 74 0;
#X connect 67 0 63 0;
#X connect 68 0 64 0;
#X connect 69 0 65 0;
#X connect 70 0 66 0;
#X connect 71 0 75 0;
#X connect 72 0 76 0;
#X connect 73 0 77 0;
#X connect 74 0 78 0;
#X connect 75 0 5 0;
#X connect 76 0 25 0;
#X connect 77 0 36 0;
#X connect 78 0 16 0;
#X connect 79 0 95 0;
#X connect 82 0 10 1;
#X connect 83 0 30 1;
#X connect 84 0 35 1;
#X connect 85 0 15 1;
#X connect 86 0 88 0;
#X connect 88 0 82 1;
#X connect 88 0 83 1;
#X connect 88 0 84 1;
#X connect 88 0 85 1;
#X connect 95 0 75 1;
#X connect 95 0 76 1;
#X connect 95 0 77 1;
#X connect 95 0 78 1;
#X connect 98 0 54 0;
#X connect 98 1 99 0;
#X connect 100 0 57 0;
#X connect 101 0 58 0;
#X coords 0 -1 1 1 175 75 2 100 100;
