#N canvas 0 23 1028 570 10;
#X obj 335 223 timer;
#X obj 272 317 tgl 15 0 empty empty empty 17 7 0 10 #fcfcfc #000000
#000000 0 1;
#X obj 272 342 metro;
#X obj 335 245 t f f f f;
#X msg 272 449 1 0 \, 0 1 1;
#X obj 272 471 vline~;
#X obj 272 493 outlet~;
#X obj 272 422 t b b;
#X obj 105 169 bng 15 50 50 0 empty empty empty 17 7 0 10 #fcfcfc #dc4c90
#000000;
#X obj 107 135 hsl 128 15 0 127 0 1 \$0-clock-multiply-multiply-s \$0-clock-multiply-multiply-r
MPLY 133 7 0 10 #fcfcfc #000000 #000000 0 1;
#X obj 415 136 / 127;
#X obj 415 235 i;
#X obj 335 274 /;
#X floatatom 206 121 5 0 0 0 - - - 0;
#X obj 621 292 delay 1000;
#X msg 621 320 0;
#X msg 594 269 1;
#X obj 335 95 t b b b;
#X obj 594 233 t b b;
#X obj 605 97 inlet~;
#X obj 605 119 snapshot~;
#X obj 605 141 t b f;
#X obj 415 158 +;
#X obj 104 150 hradio 15 1 0 9 \$0-clock-multiply-x-s \$0-clock-multiply-x-r
empty 0 -8 0 10 #fcfcfc #dc4c90 #000000 0;
#X obj 415 257 t f f f;
#X obj 415 209 + 1;
#X obj 454 279 - 1;
#X obj 415 187 * 8;
#X obj 132 112 cnv 5 5 5 empty empty CLOCK-MULTIPLY 0 0 0 12 #fcfcfc
#404040 0;
#X obj 262 109 cnv 5 5 5 empty empty CV 0 0 0 8 #fcfcfc #000000 0;
#X obj 105 109 cnv 5 5 5 empty empty IN 0 0 0 8 #fcfcfc #dc4c90 0;
#X obj 233 112 cnv 5 5 5 empty \$0-instance-num 0 0 0 0 12 #fcfcfc
#404040 0;
#X obj 103 193 cnv 5 5 5 empty empty OUT 0 0 0 8 #fcfcfc #404040 0
;
#X obj 689 114 env~;
#X obj 689 140 change;
#X obj 689 162 t b;
#X obj 335 71 threshold~ 0.9 0 0.9 0;
#N canvas 21 22 456 289 save-state 0;
#X obj 222 70 f;
#X obj 237 22 r \$0-clock-multiply-multiply-s;
#X obj 105 209 s \$0-clock-multiply-multiply-r;
#X obj 133 30 savestate;
#X obj 68 10 loadbang;
#X obj 25 140 list store;
#X msg 55 88 1;
#X obj 68 31 t b b;
#X obj 55 67 t b a;
#X obj 2 114 spigot 0;
#X obj 105 114 spigot 1;
#X obj 133 51 t a b;
#X msg 160 88 0;
#X obj 105 181 unpack f;
#X msg 105 140 0;
#X connect 0 0 3 0;
#X connect 1 0 0 1;
#X connect 3 0 11 0;
#X connect 3 1 0 0;
#X connect 4 0 7 0;
#X connect 5 0 13 0;
#X connect 6 0 9 1;
#X connect 7 0 9 0;
#X connect 7 1 10 0;
#X connect 8 0 6 0;
#X connect 8 1 5 1;
#X connect 9 0 5 0;
#X connect 10 0 14 0;
#X connect 11 0 8 0;
#X connect 11 1 12 0;
#X connect 12 0 10 1;
#X connect 13 0 2 0;
#X connect 14 0 13 0;
#X restore 104 289 pd save-state;
#X obj 415 111 r \$0-clock-multiply-multiply-s;
#N canvas 531 26 265 155 forwarding 0;
#X obj 24 46 route MPLY;
#X obj 24 72 s \$0-clock-multiply-multiply-r;
#X obj 24 20 inlet;
#X connect 0 0 1 0;
#X connect 2 0 0 0;
#X restore 391 41 pd forwarding;
#X obj 335 21 inlet~ fwd;
#X connect 0 0 3 0;
#X connect 1 0 2 0;
#X connect 2 0 7 0;
#X connect 3 0 12 0;
#X connect 4 0 5 0;
#X connect 5 0 6 0;
#X connect 7 0 4 0;
#X connect 7 1 8 0;
#X connect 10 0 22 0;
#X connect 11 0 24 0;
#X connect 12 0 2 1;
#X connect 14 0 15 0;
#X connect 15 0 1 0;
#X connect 16 0 1 0;
#X connect 17 0 0 0;
#X connect 17 1 0 1;
#X connect 17 2 18 0;
#X connect 18 0 16 0;
#X connect 18 1 14 0;
#X connect 19 0 20 0;
#X connect 19 0 33 0;
#X connect 20 0 21 0;
#X connect 21 0 22 0;
#X connect 21 1 22 1;
#X connect 22 0 27 0;
#X connect 24 0 12 1;
#X connect 24 1 13 0;
#X connect 24 2 26 0;
#X connect 25 0 11 0;
#X connect 26 0 23 0;
#X connect 27 0 25 0;
#X connect 33 0 34 0;
#X connect 34 0 35 0;
#X connect 35 0 20 0;
#X connect 36 0 17 0;
#X connect 38 0 10 0;
#X connect 40 0 36 0;
#X connect 40 1 39 0;
#X coords 0 -1 1 1 175 100 2 100 100;
