#N canvas 0 23 1026 506 10;
#X obj 222 145 tgl 15 1 \$0-clock-on/off-s \$0-clock-on/off-r ON/OFF
17 7 0 10 #fcfcfc #000000 #000000 1 1;
#X obj 389 375 vline~;
#X obj 107 126 hsl 128 15 0 127 0 1 \$0-clock-clk-rate-s \$0-clock-clk-rate-r
RATE 133 7 0 10 #fcfcfc #000000 #000000 6000 1;
#X floatatom 104 141 5 0 0 0 - \$0-rate-nbx - 0;
#X obj 204 145 bng 15 50 50 0 empty empty empty 17 7 0 10 #fcfcfc #dc4c90
#000000;
#X obj 390 323 t b b;
#X obj 160 115 cnv 5 5 5 empty empty CLOCK 0 0 0 12 #fcfcfc #404040
0;
#X obj 389 441 outlet~;
#X obj 574 81 inlet~;
#X obj 320 164 snapshot~;
#X obj 320 190 t b f;
#X text 319 24 CLK-RATE CV INPUT;
#X text 577 62 ON/OFF GATE INPUT;
#X obj 244 109 cnv 5 5 5 empty empty ON/OFF 0 0 0 8 #fcfcfc #dc4c90
0;
#X obj 105 109 cnv 5 5 5 empty empty CLK-RATE 0 0 0 8 #fcfcfc #404040
0;
#X obj 200 115 cnv 5 5 5 empty \$0-instance-num 0 0 0 0 12 #fcfcfc
#404040 0;
#X obj 103 167 cnv 5 5 5 empty empty OUT 0 0 0 8 #fcfcfc #dc4c90 0
;
#X obj 574 105 threshold~ 0.99 0 0.99 0;
#X obj 422 96 env~;
#X obj 422 117 change;
#X msg 389 353 1 0 \, 0 1 1;
#N canvas 531 26 231 129 forwarding 0;
#X obj 9 44 route RATE ON/OFF;
#X obj 9 96 s \$0-clock-clk-rate-r;
#X obj 58 70 s \$0-clock-on/off-r;
#X obj 9 18 inlet;
#X connect 0 0 1 0;
#X connect 0 1 2 0;
#X connect 3 0 0 0;
#X restore 403 71 pd forwarding;
#X obj 390 250 r \$0-clock-on/off-s;
#X obj 320 48 inlet~ fwd;
#X obj 422 138 bang;
#X obj 766 13 r \$0-clock-clk-rate-s;
#X obj 766 34 / 127;
#X obj 766 117 pow;
#X obj 766 138 * 30;
#X msg 766 96 2 \$1;
#X obj 766 75 * 4;
#X msg 766 246 60000 \$1;
#X obj 766 267 /;
#X obj 766 288 / 4;
#X obj 766 206 t f f;
#X obj 793 227 s \$0-rate-nbx;
#X obj 766 159 + 0.5;
#X obj 766 180 i;
#X obj 574 126 send \$0-clock-on/off-r;
#N canvas 528 22 407 296 save-state 0;
#X obj 223 108 f;
#X obj 223 141 pack f f;
#X obj 115 216 unpack f f;
#X obj 238 60 r \$0-clock-clk-rate-s;
#X obj 115 268 s \$0-clock-clk-rate-r;
#X obj 268 97 r \$0-clock-on/off-s;
#X obj 172 244 s \$0-clock-on/off-r;
#X obj 143 70 savestate;
#X obj 78 50 loadbang;
#X obj 35 180 list store;
#X msg 65 128 1;
#X obj 78 71 t b b;
#X obj 65 107 t b a;
#X obj 12 154 spigot 0;
#X obj 115 154 spigot 1;
#X obj 143 91 t a b;
#X msg 170 128 0;
#X msg 115 180 50 1;
#X connect 0 0 1 0;
#X connect 1 0 7 0;
#X connect 2 0 4 0;
#X connect 2 1 6 0;
#X connect 3 0 0 1;
#X connect 5 0 1 1;
#X connect 7 0 15 0;
#X connect 7 1 0 0;
#X connect 8 0 11 0;
#X connect 9 0 2 0;
#X connect 10 0 13 1;
#X connect 11 0 13 0;
#X connect 11 1 14 0;
#X connect 12 0 10 0;
#X connect 12 1 9 1;
#X connect 13 0 9 0;
#X connect 14 0 17 0;
#X connect 15 0 12 0;
#X connect 15 1 16 0;
#X connect 16 0 14 1;
#X connect 17 0 2 0;
#X restore 134 316 pd save-state;
#X obj 390 301 metro;
#X obj 766 55 +;
#X connect 1 0 7 0;
#X connect 5 0 20 0;
#X connect 5 1 4 0;
#X connect 8 0 17 0;
#X connect 9 0 10 0;
#X connect 10 0 41 0;
#X connect 10 1 41 1;
#X connect 17 0 38 0;
#X connect 18 0 19 0;
#X connect 19 0 24 0;
#X connect 20 0 1 0;
#X connect 22 0 40 0;
#X connect 23 0 18 0;
#X connect 23 0 9 0;
#X connect 23 1 21 0;
#X connect 24 0 9 0;
#X connect 25 0 26 0;
#X connect 26 0 41 0;
#X connect 27 0 28 0;
#X connect 28 0 36 0;
#X connect 29 0 27 0;
#X connect 30 0 29 0;
#X connect 31 0 32 0;
#X connect 32 0 33 0;
#X connect 33 0 40 1;
#X connect 34 0 31 0;
#X connect 34 1 35 0;
#X connect 36 0 37 0;
#X connect 37 0 34 0;
#X connect 40 0 5 0;
#X connect 41 0 30 0;
#X coords 0 -1 1 1 175 75 2 100 100;
