#N canvas 0 23 1226 700 10;
#N canvas 667 172 450 300 allpass 0;
#X obj 57 71 inlet~;
#X obj 57 132 rzero_rev~;
#X obj 57 154 rpole~;
#X obj 57 185 outlet~;
#X obj 102 30 inlet;
#X obj 102 100 / 100;
#X obj 102 65 clip -1 1;
#X connect 0 0 1 0;
#X connect 1 0 2 0;
#X connect 2 0 3 0;
#X connect 4 0 6 0;
#X connect 5 0 1 1;
#X connect 5 0 2 1;
#X connect 6 0 5 0;
#X restore 438 259 pd allpass;
#N canvas 0 22 793 555 comb_filter1 0;
#X obj 195 157 inlet~;
#X obj 197 510 delwrite~ \$0-comb1 100;
#X obj 365 300 vd~ \$0-comb1;
#X obj 365 126 inlet;
#X obj 365 148 / 127;
#X obj 365 192 + 1;
#X obj 365 214 sig~;
#X obj 365 506 outlet~;
#X obj 456 356 *~;
#X obj 472 158 inlet;
#X obj 472 182 / 127;
#X obj 472 253 pack 0 50;
#X obj 472 275 line~;
#X obj 472 297 min~ 0.9;
#X text 454 141 FEEDBACK;
#X text 365 106 DELAY;
#X text 193 135 SIGNAL IN;
#X obj 472 226 + 0.5;
#X obj 472 204 * 0.48;
#X obj 571 141 inlet~;
#X obj 365 274 +~;
#X obj 571 163 *~ 99;
#X obj 365 236 lop~ 10;
#X obj 443 25 r \$0-combfilter-comb/dly-s;
#X obj 443 47 sel 0 1;
#X msg 462 113 9;
#X obj 365 170 *;
#X msg 443 83 99;
#X connect 0 0 1 0;
#X connect 2 0 7 0;
#X connect 2 0 8 0;
#X connect 3 0 4 0;
#X connect 4 0 26 0;
#X connect 5 0 6 0;
#X connect 6 0 22 0;
#X connect 8 0 1 0;
#X connect 9 0 10 0;
#X connect 10 0 18 0;
#X connect 11 0 12 0;
#X connect 12 0 13 0;
#X connect 13 0 8 1;
#X connect 17 0 11 0;
#X connect 18 0 17 0;
#X connect 19 0 21 0;
#X connect 20 0 2 0;
#X connect 21 0 20 1;
#X connect 22 0 20 0;
#X connect 23 0 24 0;
#X connect 24 0 27 0;
#X connect 24 0 4 0;
#X connect 24 1 25 0;
#X connect 24 1 4 0;
#X connect 25 0 26 1;
#X connect 26 0 5 0;
#X connect 27 0 26 1;
#X restore 438 130 pd comb_filter1;
#X obj 109 129 hsl 128 15 0 127 0 1 \$0-combfilter-delay-s \$0-combfilter-delay-r
DELAY 133 7 0 10 #fcfcfc #000000 #000000 6300 1;
#X obj 109 144 hsl 128 15 0 127 0 1 \$0-combfilter-feedback-s \$0-combfilter-feedback-r
FEEDBACK 133 7 0 10 #fcfcfc #000000 #000000 6300 1;
#N canvas 0 22 793 555 comb_filter2 0;
#X obj 195 112 inlet~;
#X obj 365 79 inlet;
#X obj 365 101 / 127;
#X obj 365 145 + 1;
#X obj 365 167 sig~;
#X obj 365 461 outlet~;
#X obj 456 311 *~;
#X obj 472 113 inlet;
#X obj 472 208 pack 0 50;
#X obj 472 230 line~;
#X obj 472 252 min~ 0.9;
#X text 454 96 FEEDBACK;
#X text 365 59 DELAY;
#X text 193 90 SIGNAL IN;
#X obj 365 255 vd~ \$0-comb2;
#X obj 197 465 delwrite~ \$0-comb2 100;
#X obj 365 189 lop~ 10;
#X obj 472 135 / 127;
#X obj 472 181 + 0.5;
#X obj 472 159 * 0.48;
#X obj 609 175 inlet~;
#X obj 609 197 *~ 99;
#X obj 365 211 +~;
#X obj 443 22 r \$0-combfilter-comb/dly-s;
#X obj 443 44 sel 0 1;
#X msg 463 65 9;
#X msg 421 81 99;
#X obj 365 123 *;
#X connect 0 0 15 0;
#X connect 1 0 2 0;
#X connect 2 0 27 0;
#X connect 3 0 4 0;
#X connect 4 0 16 0;
#X connect 6 0 15 0;
#X connect 7 0 17 0;
#X connect 8 0 9 0;
#X connect 9 0 10 0;
#X connect 10 0 6 1;
#X connect 14 0 5 0;
#X connect 14 0 6 0;
#X connect 16 0 22 0;
#X connect 17 0 19 0;
#X connect 18 0 8 0;
#X connect 19 0 18 0;
#X connect 20 0 21 0;
#X connect 21 0 22 1;
#X connect 22 0 14 0;
#X connect 23 0 24 0;
#X connect 24 0 26 0;
#X connect 24 0 2 0;
#X connect 24 1 25 0;
#X connect 24 1 2 0;
#X connect 25 0 27 1;
#X connect 26 0 27 1;
#X connect 27 0 3 0;
#X restore 541 131 pd comb_filter2;
#N canvas 667 172 450 300 allpass 0;
#X obj 57 71 inlet~;
#X obj 57 132 rzero_rev~;
#X obj 57 154 rpole~;
#X obj 57 185 outlet~;
#X obj 102 30 inlet;
#X obj 102 100 / 100;
#X obj 102 65 clip -1 1;
#X connect 0 0 1 0;
#X connect 1 0 2 0;
#X connect 2 0 3 0;
#X connect 4 0 6 0;
#X connect 5 0 1 1;
#X connect 5 0 2 1;
#X connect 6 0 5 0;
#X restore 438 282 pd allpass;
#X msg 495 207 1;
#X obj 495 182 loadbang;
#X obj 438 368 lop~;
#X obj 438 390 lop~;
#X obj 109 159 hsl 128 15 0 127 0 1 \$0-combfilter-lowpass-s \$0-combfilter-lowpass-r
LOWPASS 133 7 0 10 #fcfcfc #000000 #000000 12700 1;
#X obj 606 173 / 127;
#X obj 606 195 * 4950;
#X obj 606 217 + 50;
#X obj 606 239 pack 0 50;
#X obj 606 261 line;
#X obj 606 283 t f f;
#X obj 438 506 *~ -1;
#X obj 495 233 t f f;
#X obj 81 486 *~;
#X obj 438 482 *~;
#X obj 109 204 hsl 128 15 0 127 0 1 \$0-combfilter-dry/wet-s \$0-combfilter-dry/wet-r
DRY/WET 133 7 0 10 #fcfcfc #000000 #000000 6300 1;
#X obj 44 279 t f f;
#X msg 44 301 127 \$1;
#X obj 44 323 -;
#X obj 44 345 / 127;
#X obj 44 367 pack 0 50;
#X obj 44 389 line~;
#X obj 248 420 / 127;
#X obj 248 442 pack 0 50;
#X obj 248 464 line~;
#X obj 438 346 hip~ 5;
#X obj 81 516 hip~ 5;
#X obj 439 534 min~ 1;
#X obj 439 556 max~ -1;
#X obj 439 614 outlet~;
#X obj 109 189 hsl 128 15 1.27 127 1 1 \$0-combfilter-drive-s \$0-combfilter-drive-r
DRIVE 133 7 0 10 #fcfcfc #000000 #000000 0 1;
#X obj 245 305 / 127;
#X obj 245 371 pack 0 50;
#X obj 245 393 line~;
#X obj 438 310 *~;
#X obj 245 349 + 0.25;
#X obj 245 327 * 4.75;
#X obj 273 108 cnv 5 5 5 empty empty DELAY 0 0 0 8 #fcfcfc #404040
0;
#X obj 105 122 cnv 5 5 5 empty empty COMBFILTER 0 0 0 12 #fcfcfc #404040
0;
#X obj 438 210 *~ 0.5;
#X obj 601 78 t f f;
#X obj 109 174 hsl 128 15 1.27 127 1 1 \$0-combfilter-highpass-s \$0-combfilter-highpass-r
HIGHPASS 133 7 0 10 #fcfcfc #000000 #000000 0 1;
#X obj 438 412 hip~;
#X obj 438 434 hip~;
#X obj 719 192 / 127;
#X obj 719 214 * 4950;
#X obj 719 236 + 50;
#X obj 719 258 pack 0 50;
#X obj 719 280 line;
#X obj 719 302 t f f;
#X obj 774 75 inlet~;
#X obj 104 108 cnv 5 5 5 empty empty IN 0 0 0 8 #fcfcfc #404040 0;
#X obj 485 47 r \$0-combfilter-delay-s;
#X obj 485 69 t f f;
#X text 772 52 DELAY CV IN;
#X obj 439 578 *~ 1;
#X obj 186 122 cnv 5 5 5 empty \$0-instance-num 0 0 0 0 12 #fcfcfc
#404040 0;
#X obj 224 114 tgl 15 1 \$0-combfilter-comb/dly-s \$0-combfilter-comb/dly-r
COMB 17 7 0 10 #fcfcfc #000000 #000000 1 1;
#X obj 733 479 r \$0-combfilter-comb/dly-s;
#X obj 733 501 sel 0 1;
#X obj 733 580 s \$0-combfilter-comb/dly-r;
#X msg 763 536 label COMB;
#X msg 733 558 label DELAY;
#N canvas 450 41 593 400 save-state 0;
#X obj 270 132 f;
#X obj 285 19 r \$0-combfilter-delay-s;
#X obj 293 42 r \$0-combfilter-feedback-s;
#X obj 307 63 r \$0-combfilter-lowpass-s;
#X obj 325 88 r \$0-combfilter-highpass-s;
#X obj 345 113 r \$0-combfilter-drive-s;
#X obj 363 134 r \$0-combfilter-dry/wet-s;
#X obj 115 359 s \$0-combfilter-delay-r;
#X obj 136 335 s \$0-combfilter-feedback-r;
#X obj 157 311 s \$0-combfilter-lowpass-r;
#X obj 178 287 s \$0-combfilter-highpass-r;
#X obj 220 237 s \$0-combfilter-dry/wet-r;
#X obj 199 261 s \$0-combfilter-drive-r;
#X obj 270 175 pack f f f f f f f;
#X obj 115 206 unpack f f f f f f f;
#X obj 387 155 r \$0-combfilter-comb/dly-s;
#X obj 258 208 s \$0-combfilter-comb/dly-r;
#X obj 143 70 savestate;
#X obj 78 50 loadbang;
#X obj 35 180 list store;
#X msg 65 128 1;
#X obj 78 71 t b b;
#X obj 65 107 t b a;
#X obj 12 154 spigot 0;
#X obj 115 154 spigot 1;
#X obj 143 91 t a b;
#X msg 170 128 0;
#X msg 115 180 63 63 127 0 0 63 1;
#X connect 0 0 13 0;
#X connect 1 0 0 1;
#X connect 2 0 13 1;
#X connect 3 0 13 2;
#X connect 4 0 13 3;
#X connect 5 0 13 4;
#X connect 6 0 13 5;
#X connect 13 0 17 0;
#X connect 14 0 7 0;
#X connect 14 1 8 0;
#X connect 14 2 9 0;
#X connect 14 3 10 0;
#X connect 14 4 12 0;
#X connect 14 5 11 0;
#X connect 14 6 16 0;
#X connect 15 0 13 6;
#X connect 17 0 25 0;
#X connect 17 1 0 0;
#X connect 18 0 21 0;
#X connect 19 0 14 0;
#X connect 20 0 23 1;
#X connect 21 0 23 0;
#X connect 21 1 24 0;
#X connect 22 0 20 0;
#X connect 22 1 19 1;
#X connect 23 0 19 0;
#X connect 24 0 27 0;
#X connect 25 0 22 0;
#X connect 25 1 26 0;
#X connect 26 0 24 1;
#X connect 27 0 14 0;
#X restore 803 238 pd save-state;
#N canvas 531 26 482 365 forwarding 0;
#X obj 19 52 route DELAY FEEDBACK LOWPASS HIGHPASS DRIVE DRY/WET;
#X obj 21 315 s \$0-combfilter-delay-r;
#X obj 57 286 s \$0-combfilter-feedback-r;
#X obj 126 245 s \$0-combfilter-lowpass-r;
#X obj 198 202 s \$0-combfilter-highpass-r;
#X obj 237 159 s \$0-combfilter-drive-r;
#X obj 269 125 s \$0-combfilter-dry/wet-r;
#X obj 19 20 inlet;
#X connect 0 0 1 0;
#X connect 0 1 2 0;
#X connect 0 2 3 0;
#X connect 0 3 4 0;
#X connect 0 4 5 0;
#X connect 0 5 6 0;
#X connect 7 0 0 0;
#X restore 495 21 pd forwarding;
#X obj 438 -4 inlet~ fwd;
#X connect 0 0 5 0;
#X connect 1 0 45 0;
#X connect 3 0 46 0;
#X connect 4 0 45 0;
#X connect 5 0 40 0;
#X connect 6 0 18 0;
#X connect 7 0 6 0;
#X connect 8 0 9 0;
#X connect 9 0 48 0;
#X connect 10 0 11 0;
#X connect 11 0 12 0;
#X connect 12 0 13 0;
#X connect 13 0 14 0;
#X connect 14 0 15 0;
#X connect 15 0 16 0;
#X connect 16 0 8 1;
#X connect 16 1 9 1;
#X connect 17 0 33 0;
#X connect 18 0 0 1;
#X connect 18 1 5 1;
#X connect 19 0 32 0;
#X connect 20 0 17 0;
#X connect 21 0 22 0;
#X connect 22 0 23 0;
#X connect 22 1 28 0;
#X connect 23 0 24 0;
#X connect 24 0 25 0;
#X connect 25 0 26 0;
#X connect 26 0 27 0;
#X connect 27 0 19 1;
#X connect 28 0 29 0;
#X connect 29 0 30 0;
#X connect 30 0 20 1;
#X connect 31 0 8 0;
#X connect 32 0 33 0;
#X connect 33 0 34 0;
#X connect 34 0 61 0;
#X connect 36 0 37 0;
#X connect 37 0 42 0;
#X connect 38 0 39 0;
#X connect 39 0 40 1;
#X connect 40 0 31 0;
#X connect 41 0 38 0;
#X connect 42 0 41 0;
#X connect 45 0 0 0;
#X connect 46 0 1 2;
#X connect 46 1 4 2;
#X connect 47 0 50 0;
#X connect 48 0 49 0;
#X connect 49 0 20 0;
#X connect 50 0 51 0;
#X connect 51 0 52 0;
#X connect 52 0 53 0;
#X connect 53 0 54 0;
#X connect 54 0 55 0;
#X connect 55 0 48 1;
#X connect 55 1 49 1;
#X connect 56 0 1 3;
#X connect 58 0 59 0;
#X connect 59 0 1 1;
#X connect 59 1 4 1;
#X connect 61 0 35 0;
#X connect 64 0 65 0;
#X connect 65 0 68 0;
#X connect 65 1 67 0;
#X connect 67 0 66 0;
#X connect 68 0 66 0;
#X connect 71 0 1 0;
#X connect 71 0 4 0;
#X connect 71 0 19 0;
#X connect 71 1 70 0;
#X coords 0 -1 1 1 200 125 2 100 100;
