#N canvas 0 23 945 584 10;
#X obj 339 102 delwrite~ \$0-comp 100;
#X obj 527 98 env~ 1024;
#X floatatom 527 120 5 0 0 0 - - - 0;
#X obj 527 139 moses;
#X obj 527 161 t b;
#X msg 527 183 1;
#X obj 527 205 pack 0 20;
#X obj 526 331 line~;
#X obj 384 475 *~;
#X obj 110 135 hsl 128 15 0 127 0 1 \$0-compressor-attack-s \$0-compressor-attack-r
ATTACK 135 7 0 10 #fcfcfc #000000 #000000 0 1;
#X obj 335 184 / 127;
#X obj 335 206 * 99;
#X obj 335 228 + 1;
#X floatatom 598 171 5 0 0 0 - - - 0;
#X obj 598 190 expr (($f1 - $f3) / $f2) - $f1 + $f3;
#X floatatom 598 212 5 0 0 0 - - - 0;
#X obj 598 231 expr 100 + $f1;
#X floatatom 598 253 5 0 0 0 - - - 0;
#X obj 598 272 dbtorms;
#X floatatom 598 294 5 0 0 0 - - - 0;
#X obj 598 313 pack 0 20;
#X obj 110 150 hsl 128 15 0 127 0 1 \$0-compressor-threshold-s \$0-compressor-threshold-r
THRESHOLD 135 7 0 10 #fcfcfc #000000 #000000 10000 1;
#X obj 810 97 / 127;
#X obj 810 119 * 9;
#X obj 810 141 + 1;
#X obj 335 295 vd~ \$0-comp;
#X obj 335 250 pack 0 50;
#X obj 335 272 line~;
#X obj 110 165 hsl 128 15 0 127 0 1 \$0-compressor-limit-s \$0-compressor-limit-r
LIMIT 135 7 0 10 #fcfcfc #000000 #000000 0 1;
#X obj 708 51 / 127;
#X obj 708 95 + 1;
#X obj 108 126 cnv 5 5 5 empty empty COMPRESSOR 0 0 0 12 #fcfcfc #404040
0;
#X obj 103 109 cnv 5 5 5 empty empty IN 0 0 0 8 #fcfcfc #404040 0;
#X obj 183 126 cnv 5 5 5 empty \$0-instance-num 0 0 0 0 12 #fcfcfc
#404040 0;
#X obj 708 73 * 9;
#X obj 110 180 hsl 128 15 0 127 0 1 \$0-compressor-make-up-s \$0-compressor-make-up-r
MAKE-UP 135 7 0 10 #fcfcfc #000000 #000000 0 1;
#X obj 560 371 r \$0-compressor-make-up-s;
#X obj 384 499 *~;
#X obj 560 393 / 127;
#X obj 560 415 * 9;
#X obj 560 437 + 1;
#X obj 560 459 pack 0 20;
#X obj 560 481 line~;
#X obj 384 521 clip~ -1 1;
#X obj 384 543 outlet~;
#N canvas 531 26 380 179 forwarding 0;
#X obj 12 44 route ATTACK THRESHOLD LIMIT MAKE-UP;
#X obj 12 150 s \$0-compressor-attack-r;
#X obj 65 118 s \$0-compressor-threshold-r;
#X obj 118 93 s \$0-compressor-limit-r;
#X obj 171 71 s \$0-compressor-make-up-r;
#X obj 12 12 inlet;
#X connect 0 0 1 0;
#X connect 0 1 2 0;
#X connect 0 2 3 0;
#X connect 0 3 4 0;
#X connect 5 0 0 0;
#X restore 427 74 pd forwarding;
#N canvas 462 22 561 406 save-state 0;
#X obj 228 85 f;
#X obj 243 37 r \$0-compressor-attack-s;
#X obj 115 318 s \$0-compressor-attack-r;
#X obj 256 64 r \$0-compressor-threshold-s;
#X obj 149 293 s \$0-compressor-threshold-r;
#X obj 285 90 r \$0-compressor-limit-s;
#X obj 183 254 s \$0-compressor-limit-r;
#X obj 228 128 pack f f f f;
#X obj 336 131 r \$0-compressor-make-up-s;
#X obj 115 216 unpack f f f f;
#X obj 264 231 s \$0-compressor-make-up-r;
#X obj 143 70 savestate;
#X obj 78 50 loadbang;
#X obj 35 180 list store;
#X msg 65 128 1;
#X obj 78 71 t b b;
#X obj 65 107 t b a;
#X obj 12 154 spigot 0;
#X obj 115 154 spigot 1;
#X obj 143 91 t a b;
#X msg 170 128 0;
#X msg 115 180 0 100 0 0;
#X connect 0 0 7 0;
#X connect 1 0 0 1;
#X connect 3 0 7 1;
#X connect 5 0 7 2;
#X connect 7 0 11 0;
#X connect 8 0 7 3;
#X connect 9 0 2 0;
#X connect 9 1 4 0;
#X connect 9 2 6 0;
#X connect 9 3 10 0;
#X connect 11 0 19 0;
#X connect 11 1 0 0;
#X connect 12 0 15 0;
#X connect 13 0 9 0;
#X connect 14 0 17 1;
#X connect 15 0 17 0;
#X connect 15 1 18 0;
#X connect 16 0 14 0;
#X connect 16 1 13 1;
#X connect 17 0 13 0;
#X connect 18 0 21 0;
#X connect 19 0 16 0;
#X connect 19 1 20 0;
#X connect 20 0 18 1;
#X connect 21 0 9 0;
#X restore 59 256 pd save-state;
#X obj 339 46 inlet~ fwd;
#X connect 1 0 2 0;
#X connect 2 0 3 0;
#X connect 3 0 4 0;
#X connect 3 1 13 0;
#X connect 4 0 5 0;
#X connect 5 0 6 0;
#X connect 6 0 7 0;
#X connect 7 0 8 1;
#X connect 8 0 37 0;
#X connect 9 0 10 0;
#X connect 10 0 11 0;
#X connect 11 0 12 0;
#X connect 12 0 26 0;
#X connect 13 0 14 0;
#X connect 14 0 15 0;
#X connect 15 0 16 0;
#X connect 16 0 17 0;
#X connect 17 0 18 0;
#X connect 18 0 19 0;
#X connect 19 0 20 0;
#X connect 20 0 7 0;
#X connect 21 0 22 0;
#X connect 22 0 23 0;
#X connect 23 0 24 0;
#X connect 24 0 14 2;
#X connect 25 0 8 0;
#X connect 26 0 27 0;
#X connect 27 0 25 0;
#X connect 28 0 29 0;
#X connect 29 0 34 0;
#X connect 30 0 14 1;
#X connect 34 0 30 0;
#X connect 36 0 38 0;
#X connect 37 0 43 0;
#X connect 38 0 39 0;
#X connect 39 0 40 0;
#X connect 40 0 41 0;
#X connect 41 0 42 0;
#X connect 42 0 37 1;
#X connect 43 0 44 0;
#X connect 47 0 0 0;
#X connect 47 0 1 0;
#X connect 47 1 45 0;
#X coords 0 -1 1 1 200 100 2 100 100;
