#N canvas 0 51 932 636 10;
#X obj 122 165 vsl 15 96 1.27 127 1 1 \$0-decay-decay-s \$0-decay-decay-r
D 4 -9 0 10 #fcfcfc #000000 #000000 5687 1;
#X obj 329 247 / 127;
#X obj 329 291 * 1999;
#X obj 329 313 - 18.99;
#X obj 314 481 outlet~;
#X obj 107 117 bng 15 50 50 0 empty empty empty 17 7 0 10 #fcfcfc #dc4c90
#000000;
#X obj 314 100 t b b;
#X obj 103 268 cnv 5 5 5 empty empty OUT 0 0 0 8 #fcfcfc #000000 0
;
#X obj 314 359 f;
#X msg 314 387 1 1 \, 0 \$1 1;
#X obj 137 165 vsl 15 96 0 127 0 1 \$0-decay-cv-att-s \$0-decay-cv-att-r
CV 2 -9 0 10 #9898dc #000000 #000000 0 1;
#X obj 112 141 cnv 5 5 5 empty empty DECAY 0 0 0 12 #fcfcfc #404040
0;
#X obj 499 85 inlet~;
#X obj 499 206 *~;
#X obj 499 230 snapshot~;
#X obj 499 252 t b f;
#X obj 562 213 bang~;
#X obj 514 136 / 127;
#X obj 514 158 pack 0 50;
#X obj 514 180 line~;
#X text 500 63 CV IN;
#X text 311 4 SGNAL IN;
#X obj 162 108 cnv 5 5 5 empty empty CV 0 0 0 8 #fcfcfc #9898dc 0;
#X obj 104 109 cnv 5 5 5 empty empty TRIG 0 0 0 8 #fcfcfc #dc4c90 0
;
#X obj 329 269 +;
#X obj 329 335 moses 1;
#X obj 314 411 vline~;
#X obj 314 433 *~;
#X obj 314 455 *~;
#X obj 157 141 cnv 5 5 5 empty \$0-instance-num 0 0 0 0 12 #fcfcfc
#404040 0;
#X obj 314 78 threshold~ 0.99 0 1 0;
#X obj 250 60 bng 15 250 50 0 \$0-decay-trig-gui!-s \$0-decay-trig-gui!-r
empty 17 7 0 10 #fcfcfc #000000 #000000;
#N canvas 514 35 418 302 save-state 0;
#X obj 215 60 f;
#X obj 215 83 pack f f;
#X obj 115 188 unpack f f;
#X obj 230 12 r \$0-decay-decay-s;
#X obj 115 240 s \$0-decay-decay-r;
#X obj 260 39 r \$0-decay-cv-att-s;
#X obj 172 216 s \$0-decay-cv-att-r;
#X obj 143 42 savestate;
#X obj 78 22 loadbang;
#X obj 35 152 list store;
#X msg 65 100 1;
#X obj 78 43 t b b;
#X obj 65 79 t b a;
#X obj 12 126 spigot 0;
#X obj 115 126 spigot 1;
#X obj 143 63 t a b;
#X msg 170 100 0;
#X msg 115 152 20 0;
#X connect 0 0 1 0;
#X connect 1 0 7 0;
#X connect 2 0 4 0;
#X connect 2 1 6 0;
#X connect 3 0 0 1;
#X connect 5 0 1 1;
#X connect 7 0 15 0;
#X connect 7 1 0 0;
#X connect 8 0 11 0;
#X connect 9 0 2 0;
#X connect 10 0 13 1;
#X connect 11 0 13 0;
#X connect 11 1 14 0;
#X connect 12 0 10 0;
#X connect 12 1 9 1;
#X connect 13 0 9 0;
#X connect 14 0 17 0;
#X connect 15 0 12 0;
#X connect 15 1 16 0;
#X connect 16 0 14 1;
#X connect 17 0 2 0;
#X restore 102 363 pd save-state;
#N canvas 531 26 303 213 forwarding 0;
#X obj 17 36 route D CV TRIG;
#X obj 17 122 s \$0-decay-decay-r;
#X obj 46 100 s \$0-decay-cv-att-r;
#X obj 75 73 s \$0-decay-trig-gui!-r;
#X obj 17 10 inlet;
#X connect 0 0 1 0;
#X connect 0 1 2 0;
#X connect 0 2 3 0;
#X connect 4 0 0 0;
#X restore 371 52 pd forwarding;
#X obj 314 26 inlet~ fwd;
#X connect 0 0 1 0;
#X connect 1 0 24 0;
#X connect 2 0 3 0;
#X connect 3 0 25 0;
#X connect 6 0 8 0;
#X connect 6 1 5 0;
#X connect 8 0 9 0;
#X connect 9 0 26 0;
#X connect 10 0 17 0;
#X connect 12 0 13 0;
#X connect 13 0 14 0;
#X connect 14 0 15 0;
#X connect 15 0 24 0;
#X connect 15 1 24 1;
#X connect 16 0 14 0;
#X connect 17 0 18 0;
#X connect 18 0 19 0;
#X connect 19 0 13 1;
#X connect 24 0 2 0;
#X connect 25 1 8 1;
#X connect 26 0 27 0;
#X connect 26 0 27 1;
#X connect 27 0 28 0;
#X connect 27 0 28 1;
#X connect 28 0 4 0;
#X connect 30 0 6 0;
#X connect 30 0 31 0;
#X connect 31 0 6 0;
#X connect 34 0 30 0;
#X connect 34 1 33 0;
#X coords 0 -1 1 1 75 175 2 100 100;
