#N canvas 0 23 1001 752 10;
#X obj 356 456 clip 0 1;
#X obj 356 477 sig~;
#X obj 356 506 lop~ 10;
#X text 407 505 SMOOTHENESS;
#X obj 488 460 expr~ if ($v1 > $v2 \, 1 \, 0 );
#X obj 647 434 sig~;
#X obj 356 431 / 100;
#X obj 356 387 *~ 1;
#X obj 356 409 env~;
#X obj 111 121 hsl 128 15 0 127 0 1 \$0-env-follower-input-s \$0-env-follower-input-r
INPUT 135 7 0 10 #fcfcfc #000000 #000000 3200 1;
#X obj 647 390 r \$0-env-follower-threshold-s;
#X obj 647 412 * 0.00787402;
#X obj 488 530 outlet~ EXTRACT-GATE;
#X obj 484 198 *~;
#X obj 111 151 hsl 128 15 0 127 0 1 \$0-env-follower-threshold-s \$0-env-follower-threshold-r
GATE-THRESH 135 7 0 10 #fcfcfc #000000 #000000 1000 1;
#X obj 111 136 hsl 128 15 0 127 0 1 \$0-env-follower-smooth-s \$0-env-follower-smooth-r
AMP-SMOOTH 135 7 0 10 #fcfcfc #000000 #000000 1000 1;
#X obj 549 49 r \$0-env-follower-input-s;
#X obj 549 71 * 0.00787402;
#X obj 549 134 pack 0 50;
#X obj 549 157 line~;
#X obj 549 179 +~;
#X obj 356 693 outlet~ AMPLITUDE;
#X obj 395 287 r \$0-env-follower-smooth-s;
#X obj 395 370 * 0.00787402;
#X obj 395 414 + 1;
#X obj 549 93 * 4;
#X msg 395 309 127 \$1;
#X obj 395 331 -;
#X floatatom 209 107 5 0 0 0 - - - 0;
#X obj 210 19 r \$0-env-follower-input-s;
#X obj 210 41 * 0.00787402;
#X obj 210 63 * 4;
#X floatatom 432 462 5 0 0 0 - - - 0;
#X obj 395 392 * 999;
#X obj 851 214 fiddle~;
#X obj 877 238 unpack f f;
#X floatatom 877 260 5 0 0 0 - - - 0;
#X obj 877 279 * 0.00787402;
#X obj 877 323 line~;
#X obj 877 301 pack 0 10;
#X obj 877 345 +~;
#X obj 877 367 outlet~ FREQUENCY;
#X obj 109 115 cnv 5 5 5 empty empty ENV-FOLLOWER 0 0 0 12 #fcfcfc
#404040 0;
#X obj 198 115 cnv 5 5 5 empty \$0-instance-num 0 0 0 0 12 #fcfcfc
#404040 0;
#X obj 299 204 cnv 5 5 5 empty empty FREQ 0 0 0 8 #fcfcfc #000000 0
;
#X obj 205 205 cnv 5 5 5 empty empty GATE 0 0 0 8 #fcfcfc #dc4c90 0
;
#X obj 104 204 cnv 5 5 5 empty empty AMPLITUDE 0 0 0 8 #fcfcfc #000000
0;
#X obj 111 166 hsl 128 15 0 127 0 1 \$0-env-follower-amp-/+-s \$0-env-follower-amp-/+-r
AMPLITUDE-/+ 135 7 0 10 #90d4b0 #000000 #000000 6300 1;
#X floatatom 108 181 5 0 0 0 - - - 0;
#X obj 36 23 r \$0-env-follower-amp-/+-s;
#X obj 36 45 * 0.00787402;
#X obj 36 67 * 2;
#X obj 36 89 - 1;
#X obj 356 626 *~;
#X obj 411 562 r \$0-env-follower-amp-/+-s;
#X obj 411 584 * 0.00787402;
#X obj 411 606 * 2;
#X obj 411 628 - 1;
#X obj 411 672 line~;
#X obj 411 650 pack 0 10;
#N canvas 531 26 431 211 forwarding 0;
#X obj 15 50 route INPUT AMP-SMOOTH GATE-THRESH AMPLITUDE-/+;
#X obj 16 146 s \$0-env-follower-input-r;
#X obj 83 124 s \$0-env-follower-smooth-r;
#X obj 157 99 s \$0-env-follower-threshold-r;
#X obj 224 77 s \$0-env-follower-amp-/+-r;
#X obj 15 8 inlet;
#X connect 0 0 1 0;
#X connect 0 1 2 0;
#X connect 0 2 3 0;
#X connect 0 3 4 0;
#X connect 5 0 0 0;
#X restore 425 104 pd forwarding;
#N canvas 486 22 528 400 save-state 0;
#X obj 115 226 unpack f f f f;
#X obj 254 159 pack f f f f;
#X obj 254 116 f;
#X obj 269 68 r \$0-env-follower-input-s;
#X obj 115 340 s \$0-env-follower-input-r;
#X obj 277 91 r \$0-env-follower-smooth-s;
#X obj 142 317 s \$0-env-follower-smooth-r;
#X obj 300 112 r \$0-env-follower-threshold-s;
#X obj 169 291 s \$0-env-follower-threshold-r;
#X obj 323 133 r \$0-env-follower-amp-/+-s;
#X obj 196 261 s \$0-env-follower-amp-/+-r;
#X obj 143 70 savestate;
#X obj 78 50 loadbang;
#X obj 35 180 list store;
#X msg 65 128 1;
#X obj 78 71 t b b;
#X obj 65 107 t b a;
#X obj 12 154 spigot 0;
#X obj 115 154 spigot 1;
#X obj 143 91 t a b;
#X msg 170 128 0;
#X msg 115 180 32 10 10 63;
#X connect 0 0 4 0;
#X connect 0 1 6 0;
#X connect 0 2 8 0;
#X connect 0 3 10 0;
#X connect 1 0 11 0;
#X connect 2 0 1 0;
#X connect 3 0 2 1;
#X connect 5 0 1 1;
#X connect 7 0 1 2;
#X connect 9 0 1 3;
#X connect 11 0 19 0;
#X connect 11 1 2 0;
#X connect 12 0 15 0;
#X connect 13 0 0 0;
#X connect 14 0 17 1;
#X connect 15 0 17 0;
#X connect 15 1 18 0;
#X connect 16 0 14 0;
#X connect 16 1 13 1;
#X connect 17 0 13 0;
#X connect 18 0 21 0;
#X connect 19 0 16 0;
#X connect 19 1 20 0;
#X connect 20 0 18 1;
#X connect 21 0 0 0;
#X restore 51 451 pd save-state;
#X obj 362 76 inlet~ fwd;
#X connect 0 0 1 0;
#X connect 1 0 2 0;
#X connect 2 0 53 0;
#X connect 4 0 12 0;
#X connect 5 0 4 1;
#X connect 6 0 0 0;
#X connect 7 0 8 0;
#X connect 8 0 6 0;
#X connect 10 0 11 0;
#X connect 11 0 5 0;
#X connect 13 0 4 0;
#X connect 13 0 7 0;
#X connect 13 0 34 0;
#X connect 16 0 17 0;
#X connect 17 0 25 0;
#X connect 18 0 19 0;
#X connect 19 0 20 0;
#X connect 20 0 13 1;
#X connect 22 0 26 0;
#X connect 23 0 33 0;
#X connect 24 0 2 1;
#X connect 24 0 32 0;
#X connect 25 0 18 0;
#X connect 26 0 27 0;
#X connect 27 0 23 0;
#X connect 29 0 30 0;
#X connect 30 0 31 0;
#X connect 31 0 28 0;
#X connect 33 0 24 0;
#X connect 34 2 35 0;
#X connect 35 0 36 0;
#X connect 36 0 37 0;
#X connect 37 0 39 0;
#X connect 38 0 40 0;
#X connect 39 0 38 0;
#X connect 40 0 41 0;
#X connect 49 0 50 0;
#X connect 50 0 51 0;
#X connect 51 0 52 0;
#X connect 52 0 48 0;
#X connect 53 0 21 0;
#X connect 54 0 55 0;
#X connect 55 0 56 0;
#X connect 56 0 57 0;
#X connect 57 0 59 0;
#X connect 58 0 53 1;
#X connect 59 0 58 0;
#X connect 62 0 13 0;
#X connect 62 1 60 0;
#X coords 0 -1 1 1 225 112 2 100 100;
