#N canvas 0 23 1001 752 10;
#X obj 356 456 clip 0 1;
#X obj 356 477 sig~;
#X obj 356 506 lop~ 10;
#X text 407 505 SMOOTHENESS;
#X obj 488 460 expr~ if ($v1 > $v2 \, 1 \, 0 );
#X obj 647 434 sig~;
#X obj 356 431 / 100;
#X obj 356 409 env~;
#X obj 112 121 hsl 128 15 0 127 0 1 \$0-env-follower2-input-s \$0-env-follower2-input-r
INPUT 135 7 0 10 #fcfcfc #000000 #000000 3300 1;
#X obj 647 412 * 0.00787402;
#X obj 488 530 outlet~ EXTRACT-GATE;
#X obj 484 198 *~;
#X obj 112 151 hsl 128 15 0 127 0 1 \$0-env-follower2-threshold-s \$0-env-follower2-threshold-r
GATE-THRESH 135 7 0 10 #fcfcfc #000000 #000000 1000 1;
#X obj 112 136 hsl 128 15 0 127 0 1 \$0-env-follower2-smooth-s \$0-env-follower2-smooth-r
AMP-SMOOTH 135 7 0 10 #fcfcfc #000000 #000000 1000 1;
#X obj 549 71 * 0.00787402;
#X obj 549 134 pack 0 50;
#X obj 549 157 line~;
#X obj 549 179 +~;
#X obj 356 693 outlet~ AMPLITUDE;
#X obj 395 370 * 0.00787402;
#X obj 395 414 + 1;
#X obj 549 93 * 4;
#X msg 395 309 127 \$1;
#X obj 395 331 -;
#X floatatom 241 106 5 0 0 0 - - - 0;
#X obj 243 41 * 0.00787402;
#X obj 243 63 * 4;
#X obj 395 392 * 999;
#X obj 851 214 fiddle~;
#X obj 877 238 unpack f f;
#X floatatom 877 260 5 0 0 0 - - - 0;
#X obj 877 279 * 0.00787402;
#X obj 877 323 line~;
#X obj 877 301 pack 0 10;
#X obj 877 345 +~;
#X obj 877 367 outlet~ FREQUENCY;
#X obj 109 114 cnv 5 5 5 empty empty EXTERNAL-AUDIO 0 0 0 12 #fcfcfc
#404040 0;
#X obj 219 114 cnv 5 5 5 empty \$0-instance-num 0 0 0 0 12 #fcfcfc
#404040 0;
#X obj 342 217 cnv 5 5 5 empty empty FREQ 0 0 0 8 #fcfcfc #000000 0
;
#X obj 288 217 cnv 5 5 5 empty empty GATE 0 0 0 8 #fcfcfc #dc4c90 0
;
#X obj 161 217 cnv 5 5 5 empty empty CH2 0 0 0 8 #fcfcfc #000000 0
;
#X obj 112 166 hsl 128 15 0 127 0 1 \$0-env-follower2-amp-/+-s \$0-env-follower2-amp-/+-r
AMPLITUDE-/+ 135 7 0 10 #90d4b0 #000000 #000000 6300 1;
#X floatatom 109 181 5 0 0 0 - - - 0;
#X obj 36 45 * 0.00787402;
#X obj 36 67 * 2;
#X obj 36 89 - 1;
#X obj 356 626 *~;
#X obj 411 584 * 0.00787402;
#X obj 411 606 * 2;
#X obj 411 628 - 1;
#X obj 411 672 line~;
#X obj 411 650 pack 0 10;
#X obj 323 109 vu 15 80 empty empty -1 -8 0 10 #404040 #000000 0 0
;
#X obj 417 176 env~;
#X obj 417 198 - 96;
#X obj 226 217 cnv 5 5 5 empty empty ENV 0 0 0 8 #fcfcfc #000000 0
;
#X obj 104 217 cnv 5 5 5 empty empty CH1 0 0 0 8 #fcfcfc #000000 0
;
#X obj 633 180 *~;
#X obj 759 220 *~ 0.5;
#X obj 485 376 *~ 0.5;
#X obj 356 387 *~ 0.5;
#X obj 340 109 vu 15 80 empty empty -1 -8 0 10 #404040 #000000 0 0
;
#X obj 639 243 env~;
#X obj 639 265 - 96;
#X obj 36 23 r \$0-env-follower2-amp-/+-s;
#X obj 243 19 r \$0-env-follower2-input-s;
#X obj 549 49 r \$0-env-follower2-input-s;
#X obj 647 390 r \$0-env-follower2-threshold-s;
#X obj 411 562 r \$0-env-follower2-amp-/+-s;
#X obj 395 287 r \$0-env-follower2-smooth-s;
#X obj 483 47 adc~ 1 2;
#N canvas 509 22 498 392 save-state 0;
#X obj 115 216 unpack f f f f;
#X obj 223 139 pack f f f f;
#X obj 223 96 f;
#X obj 238 48 r \$0-env-follower2-input-s;
#X obj 246 71 r \$0-env-follower2-smooth-s;
#X obj 269 92 r \$0-env-follower2-threshold-s;
#X obj 292 113 r \$0-env-follower2-amp-/+-s;
#X obj 115 330 s \$0-env-follower2-input-r;
#X obj 142 307 s \$0-env-follower2-smooth-r;
#X obj 169 281 s \$0-env-follower2-threshold-r;
#X obj 196 251 s \$0-env-follower2-amp-/+-r;
#X obj 143 70 savestate;
#X obj 78 50 loadbang;
#X obj 35 180 list store;
#X msg 65 128 1;
#X obj 78 71 t b b;
#X obj 65 107 t b a;
#X obj 12 154 spigot 0;
#X obj 115 154 spigot 1;
#X obj 143 91 t a b;
#X msg 170 128 0;
#X msg 115 180 33 10 10 63;
#X connect 0 0 7 0;
#X connect 0 1 8 0;
#X connect 0 2 9 0;
#X connect 0 3 10 0;
#X connect 1 0 11 0;
#X connect 2 0 1 0;
#X connect 3 0 2 1;
#X connect 4 0 1 1;
#X connect 5 0 1 2;
#X connect 6 0 1 3;
#X connect 11 0 19 0;
#X connect 11 1 2 0;
#X connect 12 0 15 0;
#X connect 13 0 0 0;
#X connect 14 0 17 1;
#X connect 15 0 17 0;
#X connect 15 1 18 0;
#X connect 16 0 14 0;
#X connect 16 1 13 1;
#X connect 17 0 13 0;
#X connect 18 0 21 0;
#X connect 19 0 16 0;
#X connect 19 1 20 0;
#X connect 20 0 18 1;
#X connect 21 0 0 0;
#X restore 51 451 pd save-state;
#N canvas 531 26 446 250 forwarding 0;
#X obj 13 68 route INPUT AMP-SMOOTH GATE-THRESH AMPLITUDE-/+;
#X obj 14 204 s \$0-env-follower2-input-r;
#X obj 51 172 s \$0-env-follower2-smooth-r;
#X obj 141 146 s \$0-env-follower2-threshold-r;
#X obj 230 116 s \$0-env-follower2-amp-/+-r;
#X obj 13 16 inlet;
#X connect 0 0 1 0;
#X connect 0 1 2 0;
#X connect 0 2 3 0;
#X connect 0 3 4 0;
#X connect 5 0 0 0;
#X restore 56 377 pd forwarding;
#X obj 56 351 inlet;
#X obj 17 685 outlet~;
#X obj 169 684 outlet~;
#X connect 0 0 1 0;
#X connect 1 0 2 0;
#X connect 2 0 46 0;
#X connect 4 0 10 0;
#X connect 5 0 4 1;
#X connect 6 0 0 0;
#X connect 7 0 6 0;
#X connect 9 0 5 0;
#X connect 11 0 53 0;
#X connect 11 0 58 0;
#X connect 11 0 59 0;
#X connect 11 0 60 0;
#X connect 11 0 74 0;
#X connect 14 0 21 0;
#X connect 15 0 16 0;
#X connect 16 0 17 0;
#X connect 17 0 11 1;
#X connect 17 0 57 1;
#X connect 19 0 27 0;
#X connect 20 0 2 1;
#X connect 21 0 15 0;
#X connect 22 0 23 0;
#X connect 23 0 19 0;
#X connect 25 0 26 0;
#X connect 26 0 24 0;
#X connect 27 0 20 0;
#X connect 28 2 29 0;
#X connect 29 0 30 0;
#X connect 30 0 31 0;
#X connect 31 0 33 0;
#X connect 32 0 34 0;
#X connect 33 0 32 0;
#X connect 34 0 35 0;
#X connect 43 0 44 0;
#X connect 44 0 45 0;
#X connect 45 0 42 0;
#X connect 46 0 18 0;
#X connect 47 0 48 0;
#X connect 48 0 49 0;
#X connect 49 0 51 0;
#X connect 50 0 46 1;
#X connect 51 0 50 0;
#X connect 53 0 54 0;
#X connect 54 0 52 0;
#X connect 54 0 52 1;
#X connect 57 0 58 0;
#X connect 57 0 59 0;
#X connect 57 0 60 0;
#X connect 57 0 62 0;
#X connect 57 0 75 0;
#X connect 58 0 28 0;
#X connect 59 0 4 0;
#X connect 60 0 7 0;
#X connect 62 0 63 0;
#X connect 63 0 61 0;
#X connect 63 0 61 1;
#X connect 64 0 43 0;
#X connect 65 0 25 0;
#X connect 66 0 14 0;
#X connect 67 0 9 0;
#X connect 68 0 47 0;
#X connect 69 0 22 0;
#X connect 70 0 11 0;
#X connect 70 1 57 0;
#X connect 73 0 72 0;
#X coords 0 -1 1 1 265 125 2 100 100;
