#N canvas 91 22 1082 683 10;
#X obj 179 143 vsl 15 90 0 127 0 1 \$0-eq-3200-s \$0-eq-3200-r 3200
0 101 0 10 #dc4c90 #000000 #000000 7700 1;
#X obj 104 143 vsl 15 90 0 127 0 1 \$0-eq-100-s \$0-eq-100-r 100 0
-9 0 10 #9898dc #000000 #000000 7008 1;
#X obj 375 120 s~ \$0-eq-inputL;
#X obj 374 163 catch~ \$0-eq-outputL;
#X obj 194 143 vsl 15 90 0 127 0 1 \$0-eq-6400-s \$0-eq-6400-r 6400
0 -9 0 10 #dc4c90 #000000 #000000 7008 1;
#X obj 119 143 vsl 15 90 0 127 0 1 \$0-eq-200-s \$0-eq-200-r 200 0
101 0 10 #9898dc #000000 #000000 7008 1;
#X obj 134 143 vsl 15 90 0 127 0 1 \$0-eq-400-s \$0-eq-400-r 400 0
-9 0 10 #9898dc #000000 #000000 6800 1;
#X obj 149 143 vsl 15 90 0 127 0 1 \$0-eq-800-s \$0-eq-800-r 800 0
101 0 10 #90d4b0 #000000 #000000 7008 1;
#X obj 164 143 vsl 15 90 0 127 0 1 \$0-eq-1600-s \$0-eq-1600-r 1600
0 -9 0 10 #90d4b0 #000000 #000000 7008 1;
#X obj 295 290 / 127;
#X obj 295 334 + 1;
#X obj 295 356 pack 0 50;
#X obj 295 378 line;
#X obj 295 400 s \$0-eq-Q;
#X obj 295 267 r \$0-eq-q-s;
#X obj 508 58 r \$0-eq-level-s;
#X obj 508 80 * 0.00787402;
#X obj 508 102 * 0.75;
#X obj 508 146 pack 0 50;
#X obj 508 168 line~;
#X obj 374 185 *~;
#X obj 104 122 cnv 5 5 5 empty empty FILTERBANK 0 0 0 12 #fcfcfc #404040
0;
#X obj 185 122 cnv 5 5 5 empty \$0-instance-num 0 0 0 0 12 #fcfcfc
#404040 0;
#X obj 355 246 cnv 5 5 5 empty empty R 0 0 0 8 #fcfcfc #404040 0;
#X obj 156 108 cnv 5 5 5 empty empty RIGHT 0 0 0 8 #fcfcfc #404040
0;
#X obj 225 108 cnv 5 5 5 empty empty LOW 0 0 0 8 #fcfcfc #9898dc 0
;
#X obj 290 108 cnv 5 5 5 empty empty MID 0 0 0 8 #fcfcfc #5ca878 0
;
#X obj 343 108 cnv 5 5 5 empty empty HIGH 0 0 0 8 #fcfcfc #dc4c90 0
;
#X obj 375 98 inlet~ LEFT;
#X obj 596 175 r \$0-eq-level-s;
#X obj 596 197 * 0.00787402;
#X obj 596 263 pack 0 50;
#X obj 596 285 line~;
#X obj 462 302 *~;
#X obj 463 215 inlet~ RIGHT;
#X obj 463 237 s~ \$0-eq-inputR;
#X obj 462 280 catch~ \$0-eq-outputR;
#X obj 373 620 outlet~ LEFT;
#X obj 461 619 outlet~ RIGHT;
#X obj 699 79 inlet~;
#X obj 699 277 s~ \$0-eq-cv-low;
#X obj 830 82 inlet~;
#X obj 829 280 s~ \$0-eq-cv-mid;
#X obj 956 78 inlet~;
#X obj 956 286 s~ \$0-eq-cv-high;
#N canvas 71 62 1209 716 7bandsLEFT 0;
#X obj 17 74 vcf~ 1;
#X msg 33 29 100;
#X obj 33 51 sig~;
#X obj 33 6 loadbang;
#X obj 17 255 *~;
#X obj 32 123 r \$0-eq-100-s;
#N canvas 375 75 488 529 scale-(0-127)-(0-15_with-1_in_middle) 0;
#X obj 137 62 / 127;
#X obj 137 200 clip 0 0.5;
#X floatatom 137 222 5 0 0 0 - - - 0;
#X obj 137 121 t f f;
#X obj 224 138 clip 0.5 1;
#X floatatom 224 160 5 0 0 0 - - - 0;
#X floatatom 137 285 5 0 0 0 - - - 0;
#X obj 224 179 * 2;
#X floatatom 224 245 5 0 0 0 - - - 0;
#X obj 137 387 spigot;
#X obj 224 339 spigot;
#X obj 293 243 > 0.5;
#X floatatom 293 265 5 0 0 0 - - - 0;
#X obj 137 84 t f f;
#X obj 293 284 t f f;
#X obj 320 338 == 0;
#X floatatom 137 459 5 0 0 0 - - - 0;
#X obj 137 24 inlet;
#X obj 137 478 outlet;
#X obj 137 263 - 0;
#X obj 137 241 * 2;
#X obj 224 201 * 9;
#X obj 224 223 - 8;
#X connect 0 0 13 0;
#X connect 1 0 2 0;
#X connect 2 0 20 0;
#X connect 3 0 1 0;
#X connect 3 1 4 0;
#X connect 4 0 5 0;
#X connect 5 0 7 0;
#X connect 6 0 9 0;
#X connect 7 0 21 0;
#X connect 8 0 10 0;
#X connect 9 0 16 0;
#X connect 10 0 16 0;
#X connect 11 0 12 0;
#X connect 12 0 14 0;
#X connect 13 0 3 0;
#X connect 13 1 11 0;
#X connect 14 0 10 1;
#X connect 14 1 15 0;
#X connect 15 0 9 1;
#X connect 16 0 18 0;
#X connect 17 0 0 0;
#X connect 19 0 6 0;
#X connect 20 0 19 0;
#X connect 21 0 22 0;
#X connect 22 0 8 0;
#X restore 32 145 pd scale-(0-127)-(0-15_with-1_in_middle);
#X obj 32 167 pack 0 50;
#X obj 32 189 line~;
#X obj 17 96 vcf~ 1;
#X obj 306 71 vcf~ 1;
#X obj 322 48 sig~;
#X obj 322 3 loadbang;
#X obj 306 93 vcf~ 1;
#X msg 322 26 200;
#X obj 306 233 *~;
#X obj 591 85 vcf~ 1;
#X obj 607 62 sig~;
#X obj 607 17 loadbang;
#X obj 591 107 vcf~ 1;
#X obj 591 224 *~;
#X obj 17 -19 r~ \$0-eq-inputL;
#X obj 306 -18 r~ \$0-eq-inputL;
#X obj 591 -7 r~ \$0-eq-inputL;
#X obj 17 281 throw~ \$0-eq-outputL;
#X obj 306 258 throw~ \$0-eq-outputL;
#X msg 607 40 400;
#X obj 591 246 throw~ \$0-eq-outputL;
#X obj 894 81 vcf~ 1;
#X obj 910 58 sig~;
#X obj 910 13 loadbang;
#X obj 894 103 vcf~ 1;
#X obj 894 220 *~;
#X obj 894 -11 r~ \$0-eq-inputL;
#X obj 894 242 throw~ \$0-eq-outputL;
#X msg 910 36 800;
#X obj 21 395 vcf~ 1;
#X obj 37 372 sig~;
#X obj 37 327 loadbang;
#X obj 21 417 vcf~ 1;
#X obj 21 534 *~;
#X obj 21 303 r~ \$0-eq-inputL;
#X obj 21 556 throw~ \$0-eq-outputL;
#X msg 37 350 1600;
#X obj 322 387 vcf~ 1;
#X obj 338 364 sig~;
#X obj 338 319 loadbang;
#X obj 322 409 vcf~ 1;
#X obj 322 526 *~;
#X obj 322 295 r~ \$0-eq-inputL;
#X obj 322 548 throw~ \$0-eq-outputL;
#X msg 338 342 3200;
#X obj 620 377 vcf~ 1;
#X obj 636 354 sig~;
#X obj 636 309 loadbang;
#X obj 620 399 vcf~ 1;
#X obj 620 516 *~;
#X obj 620 285 r~ \$0-eq-inputL;
#X obj 620 538 throw~ \$0-eq-outputL;
#X msg 636 332 6400;
#X obj 100 57 r \$0-eq-Q;
#X obj 381 54 r \$0-eq-Q;
#X obj 673 62 r \$0-eq-Q;
#X obj 954 59 r \$0-eq-Q;
#X obj 98 371 r \$0-eq-Q;
#X obj 379 368 r \$0-eq-Q;
#X obj 681 367 r \$0-eq-Q;
#X obj 79 194 r~ \$0-eq-cv-low;
#X obj 32 211 +~;
#X obj 32 233 clip~ 0 10;
#N canvas 375 75 488 529 scale-(0-127)-(0-15_with-1_in_middle) 0;
#X obj 137 62 / 127;
#X obj 137 200 clip 0 0.5;
#X floatatom 137 222 5 0 0 0 - - - 0;
#X obj 137 121 t f f;
#X obj 224 138 clip 0.5 1;
#X floatatom 224 160 5 0 0 0 - - - 0;
#X floatatom 137 285 5 0 0 0 - - - 0;
#X obj 224 179 * 2;
#X floatatom 224 245 5 0 0 0 - - - 0;
#X obj 137 387 spigot;
#X obj 224 339 spigot;
#X obj 293 243 > 0.5;
#X floatatom 293 265 5 0 0 0 - - - 0;
#X obj 137 84 t f f;
#X obj 293 284 t f f;
#X obj 320 338 == 0;
#X floatatom 137 459 5 0 0 0 - - - 0;
#X obj 137 24 inlet;
#X obj 137 478 outlet;
#X obj 137 263 - 0;
#X obj 137 241 * 2;
#X obj 224 201 * 9;
#X obj 224 223 - 8;
#X connect 0 0 13 0;
#X connect 1 0 2 0;
#X connect 2 0 20 0;
#X connect 3 0 1 0;
#X connect 3 1 4 0;
#X connect 4 0 5 0;
#X connect 5 0 7 0;
#X connect 6 0 9 0;
#X connect 7 0 21 0;
#X connect 8 0 10 0;
#X connect 9 0 16 0;
#X connect 10 0 16 0;
#X connect 11 0 12 0;
#X connect 12 0 14 0;
#X connect 13 0 3 0;
#X connect 13 1 11 0;
#X connect 14 0 10 1;
#X connect 14 1 15 0;
#X connect 15 0 9 1;
#X connect 16 0 18 0;
#X connect 17 0 0 0;
#X connect 19 0 6 0;
#X connect 20 0 19 0;
#X connect 21 0 22 0;
#X connect 22 0 8 0;
#X restore 347 128 pd scale-(0-127)-(0-15_with-1_in_middle);
#X obj 347 150 pack 0 50;
#X obj 347 172 line~;
#X obj 394 177 r~ \$0-eq-cv-low;
#X obj 347 194 +~;
#X obj 347 216 clip~ 0 10;
#X obj 347 106 r \$0-eq-200-s;
#N canvas 375 75 488 529 scale-(0-127)-(0-15_with-1_in_middle) 0;
#X obj 137 62 / 127;
#X obj 137 200 clip 0 0.5;
#X floatatom 137 222 5 0 0 0 - - - 0;
#X obj 137 121 t f f;
#X obj 224 138 clip 0.5 1;
#X floatatom 224 160 5 0 0 0 - - - 0;
#X floatatom 137 285 5 0 0 0 - - - 0;
#X obj 224 179 * 2;
#X floatatom 224 245 5 0 0 0 - - - 0;
#X obj 137 387 spigot;
#X obj 224 339 spigot;
#X obj 293 243 > 0.5;
#X floatatom 293 265 5 0 0 0 - - - 0;
#X obj 137 84 t f f;
#X obj 293 284 t f f;
#X obj 320 338 == 0;
#X floatatom 137 459 5 0 0 0 - - - 0;
#X obj 137 24 inlet;
#X obj 137 478 outlet;
#X obj 137 263 - 0;
#X obj 137 241 * 2;
#X obj 224 201 * 9;
#X obj 224 223 - 8;
#X connect 0 0 13 0;
#X connect 1 0 2 0;
#X connect 2 0 20 0;
#X connect 3 0 1 0;
#X connect 3 1 4 0;
#X connect 4 0 5 0;
#X connect 5 0 7 0;
#X connect 6 0 9 0;
#X connect 7 0 21 0;
#X connect 8 0 10 0;
#X connect 9 0 16 0;
#X connect 10 0 16 0;
#X connect 11 0 12 0;
#X connect 12 0 14 0;
#X connect 13 0 3 0;
#X connect 13 1 11 0;
#X connect 14 0 10 1;
#X connect 14 1 15 0;
#X connect 15 0 9 1;
#X connect 16 0 18 0;
#X connect 17 0 0 0;
#X connect 19 0 6 0;
#X connect 20 0 19 0;
#X connect 21 0 22 0;
#X connect 22 0 8 0;
#X restore 641 119 pd scale-(0-127)-(0-15_with-1_in_middle);
#X obj 641 141 pack 0 50;
#X obj 641 163 line~;
#X obj 688 168 r~ \$0-eq-cv-low;
#X obj 641 185 +~;
#X obj 641 207 clip~ 0 10;
#X obj 641 97 r \$0-eq-400-s;
#N canvas 375 75 488 529 scale-(0-127)-(0-15_with-1_in_middle) 0;
#X obj 137 62 / 127;
#X obj 137 200 clip 0 0.5;
#X floatatom 137 222 5 0 0 0 - - - 0;
#X obj 137 121 t f f;
#X obj 224 138 clip 0.5 1;
#X floatatom 224 160 5 0 0 0 - - - 0;
#X floatatom 137 285 5 0 0 0 - - - 0;
#X obj 224 179 * 2;
#X floatatom 224 245 5 0 0 0 - - - 0;
#X obj 137 387 spigot;
#X obj 224 339 spigot;
#X obj 293 243 > 0.5;
#X floatatom 293 265 5 0 0 0 - - - 0;
#X obj 137 84 t f f;
#X obj 293 284 t f f;
#X obj 320 338 == 0;
#X floatatom 137 459 5 0 0 0 - - - 0;
#X obj 137 24 inlet;
#X obj 137 478 outlet;
#X obj 137 263 - 0;
#X obj 137 241 * 2;
#X obj 224 201 * 9;
#X obj 224 223 - 8;
#X connect 0 0 13 0;
#X connect 1 0 2 0;
#X connect 2 0 20 0;
#X connect 3 0 1 0;
#X connect 3 1 4 0;
#X connect 4 0 5 0;
#X connect 5 0 7 0;
#X connect 6 0 9 0;
#X connect 7 0 21 0;
#X connect 8 0 10 0;
#X connect 9 0 16 0;
#X connect 10 0 16 0;
#X connect 11 0 12 0;
#X connect 12 0 14 0;
#X connect 13 0 3 0;
#X connect 13 1 11 0;
#X connect 14 0 10 1;
#X connect 14 1 15 0;
#X connect 15 0 9 1;
#X connect 16 0 18 0;
#X connect 17 0 0 0;
#X connect 19 0 6 0;
#X connect 20 0 19 0;
#X connect 21 0 22 0;
#X connect 22 0 8 0;
#X restore 945 112 pd scale-(0-127)-(0-15_with-1_in_middle);
#X obj 945 134 pack 0 50;
#X obj 945 156 line~;
#X obj 945 178 +~;
#X obj 945 200 clip~ 0 10;
#X obj 945 90 r \$0-eq-800-s;
#N canvas 375 75 488 529 scale-(0-127)-(0-15_with-1_in_middle) 0;
#X obj 137 62 / 127;
#X obj 137 200 clip 0 0.5;
#X floatatom 137 222 5 0 0 0 - - - 0;
#X obj 137 121 t f f;
#X obj 224 138 clip 0.5 1;
#X floatatom 224 160 5 0 0 0 - - - 0;
#X floatatom 137 285 5 0 0 0 - - - 0;
#X obj 224 179 * 2;
#X floatatom 224 245 5 0 0 0 - - - 0;
#X obj 137 387 spigot;
#X obj 224 339 spigot;
#X obj 293 243 > 0.5;
#X floatatom 293 265 5 0 0 0 - - - 0;
#X obj 137 84 t f f;
#X obj 293 284 t f f;
#X obj 320 338 == 0;
#X floatatom 137 459 5 0 0 0 - - - 0;
#X obj 137 24 inlet;
#X obj 137 478 outlet;
#X obj 137 263 - 0;
#X obj 137 241 * 2;
#X obj 224 201 * 9;
#X obj 224 223 - 8;
#X connect 0 0 13 0;
#X connect 1 0 2 0;
#X connect 2 0 20 0;
#X connect 3 0 1 0;
#X connect 3 1 4 0;
#X connect 4 0 5 0;
#X connect 5 0 7 0;
#X connect 6 0 9 0;
#X connect 7 0 21 0;
#X connect 8 0 10 0;
#X connect 9 0 16 0;
#X connect 10 0 16 0;
#X connect 11 0 12 0;
#X connect 12 0 14 0;
#X connect 13 0 3 0;
#X connect 13 1 11 0;
#X connect 14 0 10 1;
#X connect 14 1 15 0;
#X connect 15 0 9 1;
#X connect 16 0 18 0;
#X connect 17 0 0 0;
#X connect 19 0 6 0;
#X connect 20 0 19 0;
#X connect 21 0 22 0;
#X connect 22 0 8 0;
#X restore 65 429 pd scale-(0-127)-(0-15_with-1_in_middle);
#X obj 65 451 pack 0 50;
#X obj 65 473 line~;
#X obj 65 495 +~;
#X obj 65 517 clip~ 0 10;
#X obj 65 407 r \$0-eq-1600-s;
#N canvas 375 75 488 529 scale-(0-127)-(0-15_with-1_in_middle) 0;
#X obj 137 62 / 127;
#X obj 137 200 clip 0 0.5;
#X floatatom 137 222 5 0 0 0 - - - 0;
#X obj 137 121 t f f;
#X obj 224 138 clip 0.5 1;
#X floatatom 224 160 5 0 0 0 - - - 0;
#X floatatom 137 285 5 0 0 0 - - - 0;
#X obj 224 179 * 2;
#X floatatom 224 245 5 0 0 0 - - - 0;
#X obj 137 387 spigot;
#X obj 224 339 spigot;
#X obj 293 243 > 0.5;
#X floatatom 293 265 5 0 0 0 - - - 0;
#X obj 137 84 t f f;
#X obj 293 284 t f f;
#X obj 320 338 == 0;
#X floatatom 137 459 5 0 0 0 - - - 0;
#X obj 137 24 inlet;
#X obj 137 478 outlet;
#X obj 137 263 - 0;
#X obj 137 241 * 2;
#X obj 224 201 * 9;
#X obj 224 223 - 8;
#X connect 0 0 13 0;
#X connect 1 0 2 0;
#X connect 2 0 20 0;
#X connect 3 0 1 0;
#X connect 3 1 4 0;
#X connect 4 0 5 0;
#X connect 5 0 7 0;
#X connect 6 0 9 0;
#X connect 7 0 21 0;
#X connect 8 0 10 0;
#X connect 9 0 16 0;
#X connect 10 0 16 0;
#X connect 11 0 12 0;
#X connect 12 0 14 0;
#X connect 13 0 3 0;
#X connect 13 1 11 0;
#X connect 14 0 10 1;
#X connect 14 1 15 0;
#X connect 15 0 9 1;
#X connect 16 0 18 0;
#X connect 17 0 0 0;
#X connect 19 0 6 0;
#X connect 20 0 19 0;
#X connect 21 0 22 0;
#X connect 22 0 8 0;
#X restore 374 418 pd scale-(0-127)-(0-15_with-1_in_middle);
#X obj 374 440 pack 0 50;
#X obj 374 462 line~;
#X obj 374 484 +~;
#X obj 374 506 clip~ 0 10;
#X obj 374 396 r \$0-eq-3200-s;
#N canvas 375 75 488 529 scale-(0-127)-(0-15_with-1_in_middle) 0;
#X obj 137 62 / 127;
#X obj 137 200 clip 0 0.5;
#X floatatom 137 222 5 0 0 0 - - - 0;
#X obj 137 121 t f f;
#X obj 224 138 clip 0.5 1;
#X floatatom 224 160 5 0 0 0 - - - 0;
#X floatatom 137 285 5 0 0 0 - - - 0;
#X obj 224 179 * 2;
#X floatatom 224 245 5 0 0 0 - - - 0;
#X obj 137 387 spigot;
#X obj 224 339 spigot;
#X obj 293 243 > 0.5;
#X floatatom 293 265 5 0 0 0 - - - 0;
#X obj 137 84 t f f;
#X obj 293 284 t f f;
#X obj 320 338 == 0;
#X floatatom 137 459 5 0 0 0 - - - 0;
#X obj 137 24 inlet;
#X obj 137 478 outlet;
#X obj 137 263 - 0;
#X obj 137 241 * 2;
#X obj 224 201 * 9;
#X obj 224 223 - 8;
#X connect 0 0 13 0;
#X connect 1 0 2 0;
#X connect 2 0 20 0;
#X connect 3 0 1 0;
#X connect 3 1 4 0;
#X connect 4 0 5 0;
#X connect 5 0 7 0;
#X connect 6 0 9 0;
#X connect 7 0 21 0;
#X connect 8 0 10 0;
#X connect 9 0 16 0;
#X connect 10 0 16 0;
#X connect 11 0 12 0;
#X connect 12 0 14 0;
#X connect 13 0 3 0;
#X connect 13 1 11 0;
#X connect 14 0 10 1;
#X connect 14 1 15 0;
#X connect 15 0 9 1;
#X connect 16 0 18 0;
#X connect 17 0 0 0;
#X connect 19 0 6 0;
#X connect 20 0 19 0;
#X connect 21 0 22 0;
#X connect 22 0 8 0;
#X restore 683 417 pd scale-(0-127)-(0-15_with-1_in_middle);
#X obj 683 439 pack 0 50;
#X obj 683 461 line~;
#X obj 683 483 +~;
#X obj 683 505 clip~ 0 10;
#X obj 683 395 r \$0-eq-6400-s;
#X obj 992 161 r~ \$0-eq-cv-mid;
#X obj 112 478 r~ \$0-eq-cv-mid;
#X obj 421 467 r~ \$0-eq-cv-high;
#X obj 730 466 r~ \$0-eq-cv-high;
#X connect 0 0 9 0;
#X connect 1 0 2 0;
#X connect 2 0 0 1;
#X connect 2 0 9 1;
#X connect 3 0 1 0;
#X connect 4 0 24 0;
#X connect 5 0 6 0;
#X connect 6 0 7 0;
#X connect 7 0 8 0;
#X connect 8 0 68 0;
#X connect 9 0 4 0;
#X connect 10 0 13 0;
#X connect 11 0 10 1;
#X connect 11 0 13 1;
#X connect 12 0 14 0;
#X connect 13 0 15 0;
#X connect 14 0 11 0;
#X connect 15 0 25 0;
#X connect 16 0 19 0;
#X connect 17 0 16 1;
#X connect 17 0 19 1;
#X connect 18 0 26 0;
#X connect 19 0 20 0;
#X connect 20 0 27 0;
#X connect 21 0 0 0;
#X connect 22 0 10 0;
#X connect 23 0 16 0;
#X connect 26 0 17 0;
#X connect 28 0 31 0;
#X connect 29 0 28 1;
#X connect 29 0 31 1;
#X connect 30 0 35 0;
#X connect 31 0 32 0;
#X connect 32 0 34 0;
#X connect 33 0 28 0;
#X connect 35 0 29 0;
#X connect 36 0 39 0;
#X connect 37 0 36 1;
#X connect 37 0 39 1;
#X connect 38 0 43 0;
#X connect 39 0 40 0;
#X connect 40 0 42 0;
#X connect 41 0 36 0;
#X connect 43 0 37 0;
#X connect 44 0 47 0;
#X connect 45 0 44 1;
#X connect 45 0 47 1;
#X connect 46 0 51 0;
#X connect 47 0 48 0;
#X connect 48 0 50 0;
#X connect 49 0 44 0;
#X connect 51 0 45 0;
#X connect 52 0 55 0;
#X connect 53 0 52 1;
#X connect 53 0 55 1;
#X connect 54 0 59 0;
#X connect 55 0 56 0;
#X connect 56 0 58 0;
#X connect 57 0 52 0;
#X connect 59 0 53 0;
#X connect 60 0 0 2;
#X connect 60 0 9 2;
#X connect 61 0 10 2;
#X connect 61 0 13 2;
#X connect 62 0 16 2;
#X connect 62 0 19 2;
#X connect 63 0 28 2;
#X connect 63 0 31 2;
#X connect 64 0 36 2;
#X connect 64 0 39 2;
#X connect 65 0 44 2;
#X connect 65 0 47 2;
#X connect 66 0 52 2;
#X connect 66 0 55 2;
#X connect 67 0 68 1;
#X connect 68 0 69 0;
#X connect 69 0 4 1;
#X connect 70 0 71 0;
#X connect 71 0 72 0;
#X connect 72 0 74 0;
#X connect 73 0 74 1;
#X connect 74 0 75 0;
#X connect 75 0 15 1;
#X connect 76 0 70 0;
#X connect 77 0 78 0;
#X connect 78 0 79 0;
#X connect 79 0 81 0;
#X connect 80 0 81 1;
#X connect 81 0 82 0;
#X connect 82 0 20 1;
#X connect 83 0 77 0;
#X connect 84 0 85 0;
#X connect 85 0 86 0;
#X connect 86 0 87 0;
#X connect 87 0 88 0;
#X connect 88 0 32 1;
#X connect 89 0 84 0;
#X connect 90 0 91 0;
#X connect 91 0 92 0;
#X connect 92 0 93 0;
#X connect 93 0 94 0;
#X connect 94 0 40 1;
#X connect 95 0 90 0;
#X connect 96 0 97 0;
#X connect 97 0 98 0;
#X connect 98 0 99 0;
#X connect 99 0 100 0;
#X connect 100 0 48 1;
#X connect 101 0 96 0;
#X connect 102 0 103 0;
#X connect 103 0 104 0;
#X connect 104 0 105 0;
#X connect 105 0 106 0;
#X connect 106 0 56 1;
#X connect 107 0 102 0;
#X connect 108 0 87 1;
#X connect 109 0 93 1;
#X connect 110 0 99 1;
#X connect 111 0 105 1;
#X restore 375 142 pd 7bandsLEFT;
#N canvas 0 22 1209 716 7bandsRIGHT 0;
#X obj 17 74 vcf~ 1;
#X msg 33 29 100;
#X obj 33 51 sig~;
#X obj 33 6 loadbang;
#X obj 17 255 *~;
#X obj 32 123 r \$0-eq-100-s;
#N canvas 375 75 488 529 scale-(0-127)-(0-15_with-1_in_middle) 0;
#X obj 137 62 / 127;
#X obj 137 200 clip 0 0.5;
#X floatatom 137 222 5 0 0 0 - - - 0;
#X obj 137 121 t f f;
#X obj 224 138 clip 0.5 1;
#X floatatom 224 160 5 0 0 0 - - - 0;
#X floatatom 137 285 5 0 0 0 - - - 0;
#X obj 224 179 * 2;
#X floatatom 224 245 5 0 0 0 - - - 0;
#X obj 137 387 spigot;
#X obj 224 339 spigot;
#X obj 293 243 > 0.5;
#X floatatom 293 265 5 0 0 0 - - - 0;
#X obj 137 84 t f f;
#X obj 293 284 t f f;
#X obj 320 338 == 0;
#X floatatom 137 459 5 0 0 0 - - - 0;
#X obj 137 24 inlet;
#X obj 137 478 outlet;
#X obj 137 263 - 0;
#X obj 137 241 * 2;
#X obj 224 201 * 9;
#X obj 224 223 - 8;
#X connect 0 0 13 0;
#X connect 1 0 2 0;
#X connect 2 0 20 0;
#X connect 3 0 1 0;
#X connect 3 1 4 0;
#X connect 4 0 5 0;
#X connect 5 0 7 0;
#X connect 6 0 9 0;
#X connect 7 0 21 0;
#X connect 8 0 10 0;
#X connect 9 0 16 0;
#X connect 10 0 16 0;
#X connect 11 0 12 0;
#X connect 12 0 14 0;
#X connect 13 0 3 0;
#X connect 13 1 11 0;
#X connect 14 0 10 1;
#X connect 14 1 15 0;
#X connect 15 0 9 1;
#X connect 16 0 18 0;
#X connect 17 0 0 0;
#X connect 19 0 6 0;
#X connect 20 0 19 0;
#X connect 21 0 22 0;
#X connect 22 0 8 0;
#X restore 32 145 pd scale-(0-127)-(0-15_with-1_in_middle);
#X obj 32 167 pack 0 50;
#X obj 32 189 line~;
#X obj 17 96 vcf~ 1;
#X obj 306 71 vcf~ 1;
#X obj 322 48 sig~;
#X obj 322 3 loadbang;
#X obj 306 93 vcf~ 1;
#X msg 322 26 200;
#X obj 306 233 *~;
#X obj 591 85 vcf~ 1;
#X obj 607 62 sig~;
#X obj 607 17 loadbang;
#X obj 591 107 vcf~ 1;
#X obj 591 224 *~;
#X msg 607 40 400;
#X obj 894 81 vcf~ 1;
#X obj 910 58 sig~;
#X obj 910 13 loadbang;
#X obj 894 103 vcf~ 1;
#X obj 894 220 *~;
#X msg 910 36 800;
#X obj 21 395 vcf~ 1;
#X obj 37 372 sig~;
#X obj 37 327 loadbang;
#X obj 21 417 vcf~ 1;
#X obj 21 534 *~;
#X msg 37 350 1600;
#X obj 322 387 vcf~ 1;
#X obj 338 364 sig~;
#X obj 338 319 loadbang;
#X obj 322 409 vcf~ 1;
#X obj 322 526 *~;
#X msg 338 342 3200;
#X obj 620 377 vcf~ 1;
#X obj 636 354 sig~;
#X obj 636 309 loadbang;
#X obj 620 399 vcf~ 1;
#X obj 620 516 *~;
#X msg 636 332 6400;
#X obj 100 57 r \$0-eq-Q;
#X obj 381 54 r \$0-eq-Q;
#X obj 673 62 r \$0-eq-Q;
#X obj 954 59 r \$0-eq-Q;
#X obj 98 371 r \$0-eq-Q;
#X obj 379 368 r \$0-eq-Q;
#X obj 681 367 r \$0-eq-Q;
#X obj 79 194 r~ \$0-eq-cv-low;
#X obj 32 211 +~;
#X obj 32 233 clip~ 0 10;
#N canvas 375 75 488 529 scale-(0-127)-(0-15_with-1_in_middle) 0;
#X obj 137 62 / 127;
#X obj 137 200 clip 0 0.5;
#X floatatom 137 222 5 0 0 0 - - - 0;
#X obj 137 121 t f f;
#X obj 224 138 clip 0.5 1;
#X floatatom 224 160 5 0 0 0 - - - 0;
#X floatatom 137 285 5 0 0 0 - - - 0;
#X obj 224 179 * 2;
#X floatatom 224 245 5 0 0 0 - - - 0;
#X obj 137 387 spigot;
#X obj 224 339 spigot;
#X obj 293 243 > 0.5;
#X floatatom 293 265 5 0 0 0 - - - 0;
#X obj 137 84 t f f;
#X obj 293 284 t f f;
#X obj 320 338 == 0;
#X floatatom 137 459 5 0 0 0 - - - 0;
#X obj 137 24 inlet;
#X obj 137 478 outlet;
#X obj 137 263 - 0;
#X obj 137 241 * 2;
#X obj 224 201 * 9;
#X obj 224 223 - 8;
#X connect 0 0 13 0;
#X connect 1 0 2 0;
#X connect 2 0 20 0;
#X connect 3 0 1 0;
#X connect 3 1 4 0;
#X connect 4 0 5 0;
#X connect 5 0 7 0;
#X connect 6 0 9 0;
#X connect 7 0 21 0;
#X connect 8 0 10 0;
#X connect 9 0 16 0;
#X connect 10 0 16 0;
#X connect 11 0 12 0;
#X connect 12 0 14 0;
#X connect 13 0 3 0;
#X connect 13 1 11 0;
#X connect 14 0 10 1;
#X connect 14 1 15 0;
#X connect 15 0 9 1;
#X connect 16 0 18 0;
#X connect 17 0 0 0;
#X connect 19 0 6 0;
#X connect 20 0 19 0;
#X connect 21 0 22 0;
#X connect 22 0 8 0;
#X restore 347 128 pd scale-(0-127)-(0-15_with-1_in_middle);
#X obj 347 150 pack 0 50;
#X obj 347 172 line~;
#X obj 394 177 r~ \$0-eq-cv-low;
#X obj 347 194 +~;
#X obj 347 216 clip~ 0 10;
#X obj 347 106 r \$0-eq-200-s;
#N canvas 375 75 488 529 scale-(0-127)-(0-15_with-1_in_middle) 0;
#X obj 137 62 / 127;
#X obj 137 200 clip 0 0.5;
#X floatatom 137 222 5 0 0 0 - - - 0;
#X obj 137 121 t f f;
#X obj 224 138 clip 0.5 1;
#X floatatom 224 160 5 0 0 0 - - - 0;
#X floatatom 137 285 5 0 0 0 - - - 0;
#X obj 224 179 * 2;
#X floatatom 224 245 5 0 0 0 - - - 0;
#X obj 137 387 spigot;
#X obj 224 339 spigot;
#X obj 293 243 > 0.5;
#X floatatom 293 265 5 0 0 0 - - - 0;
#X obj 137 84 t f f;
#X obj 293 284 t f f;
#X obj 320 338 == 0;
#X floatatom 137 459 5 0 0 0 - - - 0;
#X obj 137 24 inlet;
#X obj 137 478 outlet;
#X obj 137 263 - 0;
#X obj 137 241 * 2;
#X obj 224 201 * 9;
#X obj 224 223 - 8;
#X connect 0 0 13 0;
#X connect 1 0 2 0;
#X connect 2 0 20 0;
#X connect 3 0 1 0;
#X connect 3 1 4 0;
#X connect 4 0 5 0;
#X connect 5 0 7 0;
#X connect 6 0 9 0;
#X connect 7 0 21 0;
#X connect 8 0 10 0;
#X connect 9 0 16 0;
#X connect 10 0 16 0;
#X connect 11 0 12 0;
#X connect 12 0 14 0;
#X connect 13 0 3 0;
#X connect 13 1 11 0;
#X connect 14 0 10 1;
#X connect 14 1 15 0;
#X connect 15 0 9 1;
#X connect 16 0 18 0;
#X connect 17 0 0 0;
#X connect 19 0 6 0;
#X connect 20 0 19 0;
#X connect 21 0 22 0;
#X connect 22 0 8 0;
#X restore 641 119 pd scale-(0-127)-(0-15_with-1_in_middle);
#X obj 641 141 pack 0 50;
#X obj 641 163 line~;
#X obj 688 168 r~ \$0-eq-cv-low;
#X obj 641 185 +~;
#X obj 641 207 clip~ 0 10;
#X obj 641 97 r \$0-eq-400-s;
#N canvas 375 75 488 529 scale-(0-127)-(0-15_with-1_in_middle) 0;
#X obj 137 62 / 127;
#X obj 137 200 clip 0 0.5;
#X floatatom 137 222 5 0 0 0 - - - 0;
#X obj 137 121 t f f;
#X obj 224 138 clip 0.5 1;
#X floatatom 224 160 5 0 0 0 - - - 0;
#X floatatom 137 285 5 0 0 0 - - - 0;
#X obj 224 179 * 2;
#X floatatom 224 245 5 0 0 0 - - - 0;
#X obj 137 387 spigot;
#X obj 224 339 spigot;
#X obj 293 243 > 0.5;
#X floatatom 293 265 5 0 0 0 - - - 0;
#X obj 137 84 t f f;
#X obj 293 284 t f f;
#X obj 320 338 == 0;
#X floatatom 137 459 5 0 0 0 - - - 0;
#X obj 137 24 inlet;
#X obj 137 478 outlet;
#X obj 137 263 - 0;
#X obj 137 241 * 2;
#X obj 224 201 * 9;
#X obj 224 223 - 8;
#X connect 0 0 13 0;
#X connect 1 0 2 0;
#X connect 2 0 20 0;
#X connect 3 0 1 0;
#X connect 3 1 4 0;
#X connect 4 0 5 0;
#X connect 5 0 7 0;
#X connect 6 0 9 0;
#X connect 7 0 21 0;
#X connect 8 0 10 0;
#X connect 9 0 16 0;
#X connect 10 0 16 0;
#X connect 11 0 12 0;
#X connect 12 0 14 0;
#X connect 13 0 3 0;
#X connect 13 1 11 0;
#X connect 14 0 10 1;
#X connect 14 1 15 0;
#X connect 15 0 9 1;
#X connect 16 0 18 0;
#X connect 17 0 0 0;
#X connect 19 0 6 0;
#X connect 20 0 19 0;
#X connect 21 0 22 0;
#X connect 22 0 8 0;
#X restore 945 112 pd scale-(0-127)-(0-15_with-1_in_middle);
#X obj 945 134 pack 0 50;
#X obj 945 156 line~;
#X obj 945 178 +~;
#X obj 945 200 clip~ 0 10;
#X obj 945 90 r \$0-eq-800-s;
#N canvas 375 75 488 529 scale-(0-127)-(0-15_with-1_in_middle) 0;
#X obj 137 62 / 127;
#X obj 137 200 clip 0 0.5;
#X floatatom 137 222 5 0 0 0 - - - 0;
#X obj 137 121 t f f;
#X obj 224 138 clip 0.5 1;
#X floatatom 224 160 5 0 0 0 - - - 0;
#X floatatom 137 285 5 0 0 0 - - - 0;
#X obj 224 179 * 2;
#X floatatom 224 245 5 0 0 0 - - - 0;
#X obj 137 387 spigot;
#X obj 224 339 spigot;
#X obj 293 243 > 0.5;
#X floatatom 293 265 5 0 0 0 - - - 0;
#X obj 137 84 t f f;
#X obj 293 284 t f f;
#X obj 320 338 == 0;
#X floatatom 137 459 5 0 0 0 - - - 0;
#X obj 137 24 inlet;
#X obj 137 478 outlet;
#X obj 137 263 - 0;
#X obj 137 241 * 2;
#X obj 224 201 * 9;
#X obj 224 223 - 8;
#X connect 0 0 13 0;
#X connect 1 0 2 0;
#X connect 2 0 20 0;
#X connect 3 0 1 0;
#X connect 3 1 4 0;
#X connect 4 0 5 0;
#X connect 5 0 7 0;
#X connect 6 0 9 0;
#X connect 7 0 21 0;
#X connect 8 0 10 0;
#X connect 9 0 16 0;
#X connect 10 0 16 0;
#X connect 11 0 12 0;
#X connect 12 0 14 0;
#X connect 13 0 3 0;
#X connect 13 1 11 0;
#X connect 14 0 10 1;
#X connect 14 1 15 0;
#X connect 15 0 9 1;
#X connect 16 0 18 0;
#X connect 17 0 0 0;
#X connect 19 0 6 0;
#X connect 20 0 19 0;
#X connect 21 0 22 0;
#X connect 22 0 8 0;
#X restore 65 429 pd scale-(0-127)-(0-15_with-1_in_middle);
#X obj 65 451 pack 0 50;
#X obj 65 473 line~;
#X obj 65 495 +~;
#X obj 65 517 clip~ 0 10;
#X obj 65 407 r \$0-eq-1600-s;
#N canvas 375 75 488 529 scale-(0-127)-(0-15_with-1_in_middle) 0;
#X obj 137 62 / 127;
#X obj 137 200 clip 0 0.5;
#X floatatom 137 222 5 0 0 0 - - - 0;
#X obj 137 121 t f f;
#X obj 224 138 clip 0.5 1;
#X floatatom 224 160 5 0 0 0 - - - 0;
#X floatatom 137 285 5 0 0 0 - - - 0;
#X obj 224 179 * 2;
#X floatatom 224 245 5 0 0 0 - - - 0;
#X obj 137 387 spigot;
#X obj 224 339 spigot;
#X obj 293 243 > 0.5;
#X floatatom 293 265 5 0 0 0 - - - 0;
#X obj 137 84 t f f;
#X obj 293 284 t f f;
#X obj 320 338 == 0;
#X floatatom 137 459 5 0 0 0 - - - 0;
#X obj 137 24 inlet;
#X obj 137 478 outlet;
#X obj 137 263 - 0;
#X obj 137 241 * 2;
#X obj 224 201 * 9;
#X obj 224 223 - 8;
#X connect 0 0 13 0;
#X connect 1 0 2 0;
#X connect 2 0 20 0;
#X connect 3 0 1 0;
#X connect 3 1 4 0;
#X connect 4 0 5 0;
#X connect 5 0 7 0;
#X connect 6 0 9 0;
#X connect 7 0 21 0;
#X connect 8 0 10 0;
#X connect 9 0 16 0;
#X connect 10 0 16 0;
#X connect 11 0 12 0;
#X connect 12 0 14 0;
#X connect 13 0 3 0;
#X connect 13 1 11 0;
#X connect 14 0 10 1;
#X connect 14 1 15 0;
#X connect 15 0 9 1;
#X connect 16 0 18 0;
#X connect 17 0 0 0;
#X connect 19 0 6 0;
#X connect 20 0 19 0;
#X connect 21 0 22 0;
#X connect 22 0 8 0;
#X restore 374 418 pd scale-(0-127)-(0-15_with-1_in_middle);
#X obj 374 440 pack 0 50;
#X obj 374 462 line~;
#X obj 374 484 +~;
#X obj 374 506 clip~ 0 10;
#X obj 374 396 r \$0-eq-3200-s;
#N canvas 375 75 488 529 scale-(0-127)-(0-15_with-1_in_middle) 0;
#X obj 137 62 / 127;
#X obj 137 200 clip 0 0.5;
#X floatatom 137 222 5 0 0 0 - - - 0;
#X obj 137 121 t f f;
#X obj 224 138 clip 0.5 1;
#X floatatom 224 160 5 0 0 0 - - - 0;
#X floatatom 137 285 5 0 0 0 - - - 0;
#X obj 224 179 * 2;
#X floatatom 224 245 5 0 0 0 - - - 0;
#X obj 137 387 spigot;
#X obj 224 339 spigot;
#X obj 293 243 > 0.5;
#X floatatom 293 265 5 0 0 0 - - - 0;
#X obj 137 84 t f f;
#X obj 293 284 t f f;
#X obj 320 338 == 0;
#X floatatom 137 459 5 0 0 0 - - - 0;
#X obj 137 24 inlet;
#X obj 137 478 outlet;
#X obj 137 263 - 0;
#X obj 137 241 * 2;
#X obj 224 201 * 9;
#X obj 224 223 - 8;
#X connect 0 0 13 0;
#X connect 1 0 2 0;
#X connect 2 0 20 0;
#X connect 3 0 1 0;
#X connect 3 1 4 0;
#X connect 4 0 5 0;
#X connect 5 0 7 0;
#X connect 6 0 9 0;
#X connect 7 0 21 0;
#X connect 8 0 10 0;
#X connect 9 0 16 0;
#X connect 10 0 16 0;
#X connect 11 0 12 0;
#X connect 12 0 14 0;
#X connect 13 0 3 0;
#X connect 13 1 11 0;
#X connect 14 0 10 1;
#X connect 14 1 15 0;
#X connect 15 0 9 1;
#X connect 16 0 18 0;
#X connect 17 0 0 0;
#X connect 19 0 6 0;
#X connect 20 0 19 0;
#X connect 21 0 22 0;
#X connect 22 0 8 0;
#X restore 683 417 pd scale-(0-127)-(0-15_with-1_in_middle);
#X obj 683 439 pack 0 50;
#X obj 683 461 line~;
#X obj 683 483 +~;
#X obj 683 505 clip~ 0 10;
#X obj 683 395 r \$0-eq-6400-s;
#X obj 992 161 r~ \$0-eq-cv-mid;
#X obj 112 478 r~ \$0-eq-cv-mid;
#X obj 421 467 r~ \$0-eq-cv-high;
#X obj 730 466 r~ \$0-eq-cv-high;
#X obj 17 -19 r~ \$0-eq-inputR;
#X obj 17 281 throw~ \$0-eq-outputR;
#X obj 306 -18 r~ \$0-eq-inputR;
#X obj 306 258 throw~ \$0-eq-outputR;
#X obj 591 -7 r~ \$0-eq-inputR;
#X obj 591 246 throw~ \$0-eq-outputR;
#X obj 894 -11 r~ \$0-eq-inputR;
#X obj 894 242 throw~ \$0-eq-outputR;
#X obj 21 303 r~ \$0-eq-inputR;
#X obj 21 556 throw~ \$0-eq-outputR;
#X obj 322 295 r~ \$0-eq-inputR;
#X obj 322 548 throw~ \$0-eq-outputR;
#X obj 620 285 r~ \$0-eq-inputR;
#X obj 620 538 throw~ \$0-eq-outputR;
#X connect 0 0 9 0;
#X connect 1 0 2 0;
#X connect 2 0 0 1;
#X connect 2 0 9 1;
#X connect 3 0 1 0;
#X connect 4 0 99 0;
#X connect 5 0 6 0;
#X connect 6 0 7 0;
#X connect 7 0 8 0;
#X connect 8 0 54 0;
#X connect 9 0 4 0;
#X connect 10 0 13 0;
#X connect 11 0 10 1;
#X connect 11 0 13 1;
#X connect 12 0 14 0;
#X connect 13 0 15 0;
#X connect 14 0 11 0;
#X connect 15 0 101 0;
#X connect 16 0 19 0;
#X connect 17 0 16 1;
#X connect 17 0 19 1;
#X connect 18 0 21 0;
#X connect 19 0 20 0;
#X connect 20 0 103 0;
#X connect 21 0 17 0;
#X connect 22 0 25 0;
#X connect 23 0 22 1;
#X connect 23 0 25 1;
#X connect 24 0 27 0;
#X connect 25 0 26 0;
#X connect 26 0 105 0;
#X connect 27 0 23 0;
#X connect 28 0 31 0;
#X connect 29 0 28 1;
#X connect 29 0 31 1;
#X connect 30 0 33 0;
#X connect 31 0 32 0;
#X connect 32 0 107 0;
#X connect 33 0 29 0;
#X connect 34 0 37 0;
#X connect 35 0 34 1;
#X connect 35 0 37 1;
#X connect 36 0 39 0;
#X connect 37 0 38 0;
#X connect 38 0 109 0;
#X connect 39 0 35 0;
#X connect 40 0 43 0;
#X connect 41 0 40 1;
#X connect 41 0 43 1;
#X connect 42 0 45 0;
#X connect 43 0 44 0;
#X connect 44 0 111 0;
#X connect 45 0 41 0;
#X connect 46 0 0 2;
#X connect 46 0 9 2;
#X connect 47 0 10 2;
#X connect 47 0 13 2;
#X connect 48 0 16 2;
#X connect 48 0 19 2;
#X connect 49 0 22 2;
#X connect 49 0 25 2;
#X connect 50 0 28 2;
#X connect 50 0 31 2;
#X connect 51 0 34 2;
#X connect 51 0 37 2;
#X connect 52 0 40 2;
#X connect 52 0 43 2;
#X connect 53 0 54 1;
#X connect 54 0 55 0;
#X connect 55 0 4 1;
#X connect 56 0 57 0;
#X connect 57 0 58 0;
#X connect 58 0 60 0;
#X connect 59 0 60 1;
#X connect 60 0 61 0;
#X connect 61 0 15 1;
#X connect 62 0 56 0;
#X connect 63 0 64 0;
#X connect 64 0 65 0;
#X connect 65 0 67 0;
#X connect 66 0 67 1;
#X connect 67 0 68 0;
#X connect 68 0 20 1;
#X connect 69 0 63 0;
#X connect 70 0 71 0;
#X connect 71 0 72 0;
#X connect 72 0 73 0;
#X connect 73 0 74 0;
#X connect 74 0 26 1;
#X connect 75 0 70 0;
#X connect 76 0 77 0;
#X connect 77 0 78 0;
#X connect 78 0 79 0;
#X connect 79 0 80 0;
#X connect 80 0 32 1;
#X connect 81 0 76 0;
#X connect 82 0 83 0;
#X connect 83 0 84 0;
#X connect 84 0 85 0;
#X connect 85 0 86 0;
#X connect 86 0 38 1;
#X connect 87 0 82 0;
#X connect 88 0 89 0;
#X connect 89 0 90 0;
#X connect 90 0 91 0;
#X connect 91 0 92 0;
#X connect 92 0 44 1;
#X connect 93 0 88 0;
#X connect 94 0 73 1;
#X connect 95 0 79 1;
#X connect 96 0 85 1;
#X connect 97 0 91 1;
#X connect 98 0 0 0;
#X connect 100 0 10 0;
#X connect 102 0 16 0;
#X connect 104 0 22 0;
#X connect 106 0 28 0;
#X connect 108 0 34 0;
#X connect 110 0 40 0;
#X restore 462 257 pd 7bandsRIGHT;
#X obj 699 240 *~;
#X obj 219 221 hsl 90 15 0 127 0 1 \$0-eq-level-s \$0-eq-level-r LEVEL
95 7 0 10 #fcfcfc #000000 #000000 8900 1;
#X obj 219 141 hsl 90 15 0 127 0 1 \$0-eq-cv1-att-s \$0-eq-cv1-att-r
CV(LOW) 95 7 0 10 #9898dc #000000 #000000 0 1;
#X obj 219 156 hsl 90 15 0 127 0 1 \$0-eq-cv2-att-s \$0-eq-cv2-att-r
CV(MID) 95 7 0 10 #90d4b0 #000000 #000000 0 1;
#X obj 219 171 hsl 90 15 0 127 0 1 \$0-eq-cv3-att-s \$0-eq-cv3-att-r
CV(HIGH) 95 7 0 10 #dc4c90 #000000 #000000 0 1;
#X obj 219 206 hsl 90 15 0 127 0 1 \$0-eq-q-s \$0-eq-q-r Q 95 7 0 10
#fcfcfc #000000 #000000 4415 1;
#X obj 102 108 cnv 5 5 5 empty empty LEFT 0 0 0 8 #fcfcfc #404040 0
;
#X obj 103 246 cnv 5 5 5 empty empty L 0 0 0 8 #fcfcfc #404040 0;
#X obj 714 120 r \$0-eq-cv1-att-s;
#X obj 714 194 pack 0 50;
#X obj 714 216 line~;
#X obj 829 253 *~;
#X obj 844 207 pack 0 50;
#X obj 844 229 line~;
#X obj 956 255 *~;
#X obj 971 209 pack 0 50;
#X obj 971 231 line~;
#X obj 844 150 r \$0-eq-cv2-att-s;
#X obj 714 142 * 0.00787402;
#X obj 844 172 * 0.00787402;
#X obj 971 148 * 0.00787402;
#X obj 971 126 r \$0-eq-cv3-att-s;
#X obj 699 101 *~ 10;
#X obj 830 114 *~ 10;
#X obj 956 105 *~ 10;
#X obj 596 241 + 0.1;
#X obj 596 219 * 0.9;
#X obj 508 124 + 0;
#X obj 295 312 * 9;
#N canvas 478 22 788 739 save-state 0;
#X obj 251 266 f;
#X obj 251 309 pack f f f f f f f f f f f f;
#X obj 110 415 unpack f f f f f f f f f f f f;
#X obj 258 0 r \$0-eq-100-s;
#X obj 84 760 s \$0-eq-100-r;
#X obj 266 23 r \$0-eq-200-s;
#X obj 105 736 s \$0-eq-200-r;
#X obj 280 44 r \$0-eq-400-s;
#X obj 126 712 s \$0-eq-400-e;
#X obj 298 69 r \$0-eq-800-s;
#X obj 147 688 s \$0-eq-800-r;
#X obj 323 98 r \$0-eq-1600-s;
#X obj 175 662 s \$0-eq-1600-r;
#X obj 344 121 r \$0-eq-3200-s;
#X obj 190 632 s \$0-eq-3200-s;
#X obj 356 149 r \$0-eq-6400-s;
#X obj 206 604 s \$0-eq-6400-r;
#X obj 381 178 r \$0-eq-cv1-att-s;
#X obj 234 578 s \$0-eq-cv1-att-r;
#X obj 402 201 r \$0-eq-cv2-att-s;
#X obj 249 548 s \$0-eq-cv2-att-r;
#X obj 421 225 r \$0-eq-cv3-att-s;
#X obj 284 497 s \$0-eq-cv3-att-r;
#X obj 446 254 r \$0-eq-q-s;
#X obj 312 471 s \$0-eq-q-r;
#X obj 467 277 r \$0-eq-level-s;
#X obj 327 441 s \$0-eq-level-r;
#X obj 148 262 savestate;
#X obj 83 242 loadbang;
#X obj 40 372 list store;
#X msg 70 320 1;
#X obj 83 263 t b b;
#X obj 70 299 t b a;
#X obj 17 346 spigot 0;
#X obj 120 346 spigot 1;
#X obj 148 283 t a b;
#X msg 175 320 0;
#X msg 120 372 100 100 100 100 100 100 100 0 0 0 63 63;
#X connect 0 0 1 0;
#X connect 1 0 27 0;
#X connect 2 0 4 0;
#X connect 2 1 6 0;
#X connect 2 2 8 0;
#X connect 2 3 10 0;
#X connect 2 4 12 0;
#X connect 2 5 14 0;
#X connect 2 6 16 0;
#X connect 2 7 18 0;
#X connect 2 8 20 0;
#X connect 2 9 22 0;
#X connect 2 10 24 0;
#X connect 2 11 26 0;
#X connect 3 0 0 1;
#X connect 5 0 1 1;
#X connect 7 0 1 2;
#X connect 9 0 1 3;
#X connect 11 0 1 4;
#X connect 13 0 1 5;
#X connect 15 0 1 6;
#X connect 17 0 1 7;
#X connect 19 0 1 8;
#X connect 21 0 1 9;
#X connect 23 0 1 10;
#X connect 25 0 1 11;
#X connect 27 0 35 0;
#X connect 27 1 0 0;
#X connect 28 0 31 0;
#X connect 29 0 2 0;
#X connect 30 0 33 1;
#X connect 31 0 33 0;
#X connect 31 1 34 0;
#X connect 32 0 30 0;
#X connect 32 1 29 1;
#X connect 33 0 29 0;
#X connect 34 0 37 0;
#X connect 35 0 32 0;
#X connect 35 1 36 0;
#X connect 36 0 34 1;
#X connect 37 0 2 0;
#X restore 33 332 pd save-state;
#X connect 3 0 20 0;
#X connect 9 0 75 0;
#X connect 10 0 11 0;
#X connect 11 0 12 0;
#X connect 12 0 13 0;
#X connect 14 0 9 0;
#X connect 15 0 16 0;
#X connect 16 0 17 0;
#X connect 17 0 74 0;
#X connect 18 0 19 0;
#X connect 19 0 20 1;
#X connect 20 0 37 0;
#X connect 28 0 2 0;
#X connect 29 0 30 0;
#X connect 30 0 73 0;
#X connect 31 0 32 0;
#X connect 32 0 33 1;
#X connect 33 0 38 0;
#X connect 34 0 35 0;
#X connect 36 0 33 0;
#X connect 39 0 69 0;
#X connect 41 0 70 0;
#X connect 43 0 71 0;
#X connect 47 0 40 0;
#X connect 55 0 65 0;
#X connect 56 0 57 0;
#X connect 57 0 47 1;
#X connect 58 0 42 0;
#X connect 59 0 60 0;
#X connect 60 0 58 1;
#X connect 61 0 44 0;
#X connect 62 0 63 0;
#X connect 63 0 61 1;
#X connect 64 0 66 0;
#X connect 65 0 56 0;
#X connect 66 0 59 0;
#X connect 67 0 62 0;
#X connect 68 0 67 0;
#X connect 69 0 47 0;
#X connect 70 0 58 0;
#X connect 71 0 61 0;
#X connect 72 0 31 0;
#X connect 73 0 72 0;
#X connect 74 0 18 0;
#X connect 75 0 10 0;
#X coords 0 -1 1 1 265 155 2 100 100;
