#N canvas 0 23 1013 546 10;
#X obj 313 338 hip~;
#X obj 108 128 hsl 128 15 0 127 0 1 \$0-highpass-freq-s \$0-highpass-freq-r
FREQ 133 7 0 10 #fcfcfc #000000 #000000 0 1;
#X obj 131 210 / 127;
#X obj 131 278 pack 0 50;
#X obj 131 300 line;
#X obj 313 399 min~ 1;
#X obj 313 421 max~ -1;
#X obj 313 443 outlet~;
#X obj 131 232 * 9950;
#X obj 105 109 cnv 5 5 5 empty empty IN 0 0 0 8 #fcfcfc #404040 0;
#X obj 531 130 inlet~;
#X obj 108 143 hsl 128 15 0 127 0 1 \$0-highpass-fm-/+-s \$0-highpass-fm-/+-r
FM-/+ 133 7 0 10 #90d4b0 #000000 #000000 6300 1;
#X obj 599 71 / 127;
#X obj 599 93 * 2;
#X obj 599 115 - 1;
#X obj 599 159 pack 0 50;
#X obj 599 181 line~;
#X floatatom 105 158 5 0 0 0 - - - 0;
#X obj 531 198 *~;
#X text 557 202 FM-/+ ATTENUEVERTER;
#X obj 599 137 t f f;
#X obj 250 109 cnv 5 5 5 empty empty FREQ 0 0 0 8 #fcfcfc #5ca878 0
;
#X obj 168 120 cnv 5 5 5 empty empty FILTER 0 0 0 12 #fcfcfc #404040
0;
#X obj 105 120 cnv 5 5 5 empty empty HIGHPASS- 0 0 0 12 #fcfcfc #404040
0;
#X obj 531 163 *~ 10000;
#X obj 364 249 snapshot~;
#X obj 364 271 t b f;
#X obj 363 221 bang~;
#X obj 131 254 + 100;
#X obj 218 120 cnv 5 5 5 empty \$0-instance-num 0 0 0 0 12 #fcfcfc
#404040 0;
#X obj 334 315 +;
#X obj 313 373 *~ 1;
#N canvas 531 26 248 161 forwarding 0;
#X obj 21 42 route FREQ FM-/+;
#X obj 21 88 s \$0-highpass-freq-r;
#X obj 67 66 s \$0-highpass-fm-/+-r;
#X obj 21 16 inlet;
#X connect 0 0 1 0;
#X connect 0 1 2 0;
#X connect 3 0 0 0;
#X restore 369 175 pd forwarding;
#X obj 312 149 inlet~ fwd;
#N canvas 318 22 593 735 save-state 0;
#X obj 270 128 f;
#X obj 270 171 pack f f;
#X obj 134 268 unpack f f;
#X obj 315 127 r \$0-highpass-fm-/+-s;
#X obj 191 296 s \$0-highpass-fm-/+-r;
#X obj 285 80 r \$0-highpass-freq-s;
#X obj 134 320 s \$0-highpass-freq-r;
#X obj 180 113 savestate;
#X obj 115 93 loadbang;
#X obj 72 223 list store;
#X msg 102 171 1;
#X obj 115 114 t b b;
#X obj 102 150 t b a;
#X obj 49 197 spigot 0;
#X obj 152 197 spigot 1;
#X obj 180 134 t a b;
#X msg 207 171 0;
#X msg 152 223 0 63;
#X connect 0 0 1 0;
#X connect 1 0 7 0;
#X connect 2 0 6 0;
#X connect 2 1 4 0;
#X connect 3 0 1 1;
#X connect 5 0 0 1;
#X connect 7 0 15 0;
#X connect 7 1 0 0;
#X connect 8 0 11 0;
#X connect 9 0 2 0;
#X connect 10 0 13 1;
#X connect 11 0 13 0;
#X connect 11 1 14 0;
#X connect 12 0 10 0;
#X connect 12 1 9 1;
#X connect 13 0 9 0;
#X connect 14 0 17 0;
#X connect 15 0 12 0;
#X connect 15 1 16 0;
#X connect 16 0 14 1;
#X connect 17 0 2 0;
#X restore 278 45 pd save-state;
#X connect 0 0 31 0;
#X connect 1 0 2 0;
#X connect 2 0 8 0;
#X connect 3 0 4 0;
#X connect 4 0 30 0;
#X connect 5 0 6 0;
#X connect 6 0 7 0;
#X connect 8 0 28 0;
#X connect 10 0 24 0;
#X connect 11 0 12 0;
#X connect 12 0 13 0;
#X connect 13 0 14 0;
#X connect 14 0 20 0;
#X connect 15 0 16 0;
#X connect 16 0 18 1;
#X connect 18 0 25 0;
#X connect 20 0 15 0;
#X connect 20 1 17 0;
#X connect 24 0 18 0;
#X connect 25 0 26 0;
#X connect 26 0 30 0;
#X connect 26 1 30 1;
#X connect 27 0 25 0;
#X connect 28 0 3 0;
#X connect 30 0 0 1;
#X connect 31 0 5 0;
#X connect 33 0 0 0;
#X connect 33 1 32 0;
#X coords 0 -1 1 1 175 75 2 100 100;
