#N canvas 265 23 1015 752 10;
#X obj 108 133 hsl 128 15 0 127 0 1 \$0-karplus2-pitch-s \$0-karplus2-pitch-r
PITCH 135 7 0 10 #fcfcfc #000000 #000000 6000 1;
#X obj 132 393 noise~;
#X obj 182 668 *~;
#X obj 108 148 hsl 128 15 0 127 0 1 \$0-karplus2-contour-s \$0-karplus2-contour-r
CONTOUR 135 7 0 10 #fcfcfc #000000 #000000 5000 1;
#X obj 108 178 hsl 128 15 0 127 0 1 \$0-karplus2-resonate-s \$0-karplus2-resonate-r
RESONATE 135 7 0 10 #fcfcfc #000000 #000000 10000 1;
#X obj 453 758 *~ 0.99;
#X obj 71 580 vd~ \$0-kps;
#X obj 105 116 bng 15 50 50 0 empty empty empty 17 7 0 10 #fcfcfc #dc4c90
#000000;
#X obj 474 592 / 127;
#X obj 474 614 * 4800;
#X obj 474 636 + 200;
#X floatatom 206 119 5 0 0 0 - - - 0;
#X obj 420 597 *~;
#X obj 108 163 hsl 128 15 0 127 0 1 \$0-karplus2-damp-slider-s \$0-karplus2-damp-slider-r
DAMP 135 7 0 10 #fcfcfc #000000 #000000 5000 1;
#X obj 435 476 pack 0 50;
#X obj 435 498 line~;
#X obj 435 408 / 127;
#X obj 435 430 * 0.1999;
#X obj 435 452 + 0.8;
#X obj -175 126 threshold~ 0.9 0 0.9 0;
#X obj 71 276 r \$0-karplus2-pitch-s;
#X obj 474 568 r \$0-karplus2-damp-s;
#X obj -176 323 s \$0-karplus-excite-bang1!;
#X obj 262 253 r \$0-karplus-excite-bang1!;
#X obj 183 699 delwrite~ \$0-kps 20;
#X obj 71 345 mtof~;
#X obj 435 145 *~ 127;
#X obj 71 321 +~;
#X obj 71 372 expr~ 1000 / $v1;
#X obj 71 298 sig~;
#X obj 435 376 r \$0-karplus2-resonate-s;
#X obj -175 147 f;
#X obj -147 147 + 1;
#X msg 289 318 reset;
#X obj -156 295 s \$0-karplus-excite-bang2!;
#X obj 71 394 lop~ 10;
#X obj 487 162 s~ \$0-kps-pitch-cv;
#N canvas 622 28 646 635 contour 0;
#X obj 198 158 spigot;
#X floatatom 198 180 5 0 0 0 - - - 0;
#X obj 164 112 spigot;
#X obj 197 87 < 64;
#X obj 164 137 clip 0 64;
#X obj 197 67 t f f f f;
#X obj 153 429 pack f f;
#X msg 153 454 1 \$2 \, 0 \$1 \$2;
#X obj 153 288 f;
#X obj 164 158 / 64;
#X obj 198 221 - 63;
#X obj 198 243 / 64;
#X obj 231 108 > 63;
#X obj 198 199 clip 63 127;
#X obj 164 183 * 990;
#X obj 164 205 + 10;
#X obj 198 266 * 999;
#X obj 198 288 + 1;
#X obj 153 476 vline~;
#X obj 153 540 outlet~;
#X obj 197 43 r \$0-karplus2-excite-s;
#X obj 153 14 inlet;
#X obj 198 310 t f f;
#X msg 225 333 1000 \$1;
#X obj 225 355 -;
#X connect 0 0 1 0;
#X connect 1 0 13 0;
#X connect 2 0 4 0;
#X connect 3 0 2 1;
#X connect 4 0 9 0;
#X connect 5 0 3 0;
#X connect 5 1 2 0;
#X connect 5 2 12 0;
#X connect 5 3 0 0;
#X connect 6 0 7 0;
#X connect 7 0 18 0;
#X connect 8 0 6 0;
#X connect 9 0 14 0;
#X connect 10 0 11 0;
#X connect 11 0 16 0;
#X connect 12 0 0 1;
#X connect 13 0 10 0;
#X connect 14 0 15 0;
#X connect 15 0 8 1;
#X connect 16 0 17 0;
#X connect 17 0 22 0;
#X connect 18 0 19 0;
#X connect 20 0 5 0;
#X connect 21 0 8 0;
#X connect 22 0 6 1;
#X connect 22 1 23 0;
#X connect 23 0 24 0;
#X connect 24 0 8 1;
#X restore 265 651 pd contour;
#X obj 290 365 / 127;
#X obj 290 387 * 4800;
#X obj 290 409 + 200;
#X obj 108 193 hsl 128 15 0 127 0 1 \$0-karplus2-color-s \$0-karplus2-color-r
COLOR 135 7 0 10 #fcfcfc #000000 #000000 6300 1;
#X obj 290 341 r \$0-karplus2-color-s;
#X obj 435 304 samphold~;
#X obj 262 275 t b b;
#X obj -144 262 s \$0-karplus-excite-bang3!;
#X obj -124 234 s \$0-karplus-excite-bang4!;
#N canvas 0 23 915 739 karplus2 0;
#X obj 186 509 *~;
#X obj 26 531 outlet~;
#X obj 403 455 / 127;
#X obj 403 477 * 4800;
#X obj 403 499 + 200;
#X obj 350 438 *~;
#X obj 365 349 pack 0 50;
#X obj 365 371 line~;
#X obj 365 281 / 127;
#X obj 365 303 * 0.1999;
#X obj 365 325 + 0.8;
#X obj 26 117 r \$0-karplus2-pitch-s;
#X obj 403 430 r \$0-karplus2-damp-s;
#X obj 26 186 mtof~;
#X obj 26 162 +~;
#X obj 26 213 expr~ 1000 / $v1;
#X obj 26 139 sig~;
#X obj 365 249 r \$0-karplus2-resonate-s;
#X msg 293 200 reset;
#X obj 26 235 lop~ 10;
#N canvas 622 28 646 635 contour 0;
#X obj 198 158 spigot;
#X floatatom 198 180 5 0 0 0 - - - 0;
#X obj 164 112 spigot;
#X obj 197 87 < 64;
#X obj 164 137 clip 0 64;
#X obj 197 67 t f f f f;
#X obj 153 429 pack f f;
#X msg 153 454 1 \$2 \, 0 \$1 \$2;
#X obj 153 288 f;
#X obj 164 158 / 64;
#X obj 198 221 - 63;
#X obj 198 243 / 64;
#X obj 231 108 > 63;
#X obj 198 199 clip 63 127;
#X obj 164 183 * 990;
#X obj 164 205 + 10;
#X obj 198 266 * 999;
#X obj 198 288 + 1;
#X obj 153 476 vline~;
#X obj 153 540 outlet~;
#X obj 197 43 r \$0-karplus2-excite-s;
#X obj 153 14 inlet;
#X obj 198 310 t f f;
#X msg 225 333 1000 \$1;
#X obj 225 355 -;
#X connect 0 0 1 0;
#X connect 1 0 13 0;
#X connect 2 0 4 0;
#X connect 3 0 2 1;
#X connect 4 0 9 0;
#X connect 5 0 3 0;
#X connect 5 1 2 0;
#X connect 5 2 12 0;
#X connect 5 3 0 0;
#X connect 6 0 7 0;
#X connect 7 0 18 0;
#X connect 8 0 6 0;
#X connect 9 0 14 0;
#X connect 10 0 11 0;
#X connect 11 0 16 0;
#X connect 12 0 0 1;
#X connect 13 0 10 0;
#X connect 14 0 15 0;
#X connect 15 0 8 1;
#X connect 16 0 17 0;
#X connect 17 0 22 0;
#X connect 18 0 19 0;
#X connect 20 0 5 0;
#X connect 21 0 8 0;
#X connect 22 0 6 1;
#X connect 22 1 23 0;
#X connect 23 0 24 0;
#X connect 24 0 8 1;
#X restore 269 492 pd contour;
#X obj 202 282 / 127;
#X obj 202 304 * 4800;
#X obj 202 326 + 200;
#X obj 202 258 r \$0-karplus2-color-s;
#X obj 439 145 samphold~;
#X obj 266 125 t b b;
#X obj 186 533 delwrite~ \$0-kps2 20;
#X obj 26 421 vd~ \$0-kps2;
#X obj 266 103 r \$0-karplus-excite-bang2!;
#X obj 439 118 r~ \$0-kps-pitch-cv;
#X obj 293 166 delay 3;
#X obj 41 48 r~ \$0-kps-free-running-pitch-cv;
#X obj 202 375 line~;
#X obj 202 397 +~;
#X obj 219 477 vcf~ 1;
#X obj 186 421 vcf~ 1;
#X obj 219 449 *~ 2;
#X obj 350 608 *~ 0.99;
#X obj 350 562 lop~;
#X obj 403 521 t f f;
#X obj 350 584 lop~;
#X obj 146 183 noise~;
#X obj 146 286 *~;
#X obj 161 205 r \$0-kps-kill-noise;
#X obj 186 226 r~ \$0-kps-ext;
#X obj 202 353 pack 0 50;
#X obj 241 380 r~ \$0-kps-color-cv;
#X obj 365 393 +~;
#X connect 0 0 27 0;
#X connect 2 0 3 0;
#X connect 3 0 4 0;
#X connect 4 0 40 0;
#X connect 5 0 39 0;
#X connect 6 0 7 0;
#X connect 7 0 48 0;
#X connect 8 0 9 0;
#X connect 9 0 10 0;
#X connect 10 0 6 0;
#X connect 11 0 16 0;
#X connect 12 0 2 0;
#X connect 13 0 15 0;
#X connect 14 0 13 0;
#X connect 15 0 19 0;
#X connect 16 0 14 0;
#X connect 17 0 8 0;
#X connect 18 0 25 0;
#X connect 19 0 28 0;
#X connect 20 0 0 1;
#X connect 21 0 22 0;
#X connect 22 0 23 0;
#X connect 23 0 46 0;
#X connect 24 0 21 0;
#X connect 25 0 14 1;
#X connect 26 0 20 0;
#X connect 26 1 31 0;
#X connect 28 0 5 0;
#X connect 28 0 1 0;
#X connect 29 0 26 0;
#X connect 30 0 25 0;
#X connect 31 0 18 0;
#X connect 32 0 14 1;
#X connect 33 0 34 0;
#X connect 34 0 35 1;
#X connect 34 0 36 1;
#X connect 35 1 0 0;
#X connect 36 1 37 0;
#X connect 37 0 35 0;
#X connect 38 0 27 0;
#X connect 39 0 41 0;
#X connect 40 0 39 1;
#X connect 40 1 41 1;
#X connect 41 0 38 0;
#X connect 42 0 43 0;
#X connect 43 0 36 0;
#X connect 44 0 43 1;
#X connect 45 0 36 0;
#X connect 46 0 33 0;
#X connect 47 0 34 1;
#X connect 48 0 5 1;
#X restore -5 580 pd karplus2;
#X obj 517 304 *~;
#X obj 517 326 s~ \$0-kps-free-running-pitch-cv;
#X obj 306 103 tgl 15 1 \$0-kps-free-s \$0-kps-free-r FREE 17 7 0 10
#fcfcfc #000000 #000000 0 1;
#X obj 532 273 r \$0-kps-free-s;
#X obj -175 348 r \$0-karplus2-contour-s;
#X obj -175 370 sig~;
#X obj -175 414 +~;
#X obj -175 452 snapshot~;
#X obj -175 500 s \$0-karplus2-excite-s;
#X obj -70 413 loadbang;
#X obj -70 435 metro 20;
#X obj -175 474 clip 0 127;
#X obj 485 76 *~ 127;
#X obj 485 98 s~ \$0-kps-contour-cv;
#X obj -160 391 r~ \$0-kps-contour-cv;
#X obj 105 109 cnv 5 5 5 empty empty EXC. 0 0 0 8 #fcfcfc #dc4c90 0
;
#X obj 124 125 cnv 5 5 5 empty empty KARPLUS 0 0 0 12 #fcfcfc #404040
0;
#X obj 284 109 cnv 5 5 5 empty empty CLR 0 0 0 8 #fcfcfc #000000 0
;
#X obj 273 218 cnv 5 5 5 empty empty RIGHT 0 0 0 8 #fcfcfc #000000
0;
#X obj 178 125 cnv 5 5 5 empty \$0-instance-num 0 0 0 0 12 #fcfcfc
#404040 0;
#X obj 127 109 cnv 5 5 5 empty empty EXT.EX 0 0 0 8 #fcfcfc #000000
0;
#X obj 290 453 line~;
#X obj 290 502 +~;
#X obj 307 588 vcf~ 1;
#X obj 274 531 vcf~ 1;
#X obj 307 563 *~ 2;
#X obj 453 686 lop~;
#X obj 453 708 lop~;
#X obj 474 658 t f f;
#X obj -174 546 sig~;
#X obj -174 590 +~;
#X obj -174 628 snapshot~;
#X obj -69 589 loadbang;
#X obj -69 611 metro 20;
#X obj -174 650 clip 0 127;
#X obj -174 524 r \$0-karplus2-damp-slider-s;
#X obj -159 567 r~ \$0-kps-damp-cv;
#X obj -174 676 s \$0-karplus2-damp-s;
#X obj 616 121 *~ 127;
#X obj 616 143 s~ \$0-kps-damp-cv;
#X obj 132 514 *~;
#X obj -33 -24 env~;
#X obj -33 -2 > 0;
#X floatatom -33 20 5 0 0 0 - - - 0;
#X obj -48 65 *~;
#X obj -33 39 t f f;
#X obj -6 61 == 0;
#X obj -48 103 s~ \$0-kps-ext;
#X obj -6 83 s \$0-kps-kill-noise;
#X obj 147 412 r \$0-kps-kill-noise;
#X obj 158 436 r~ \$0-kps-ext;
#X obj -48 -45 *~ 0.5;
#X obj -48 -69 inlet~ 2-EXT.EXCITE;
#X obj 435 123 inlet~ 3-PITCH CV;
#X obj 485 54 inlet~ 4-CONTOUR;
#X obj 616 99 inlet~ 5-DAMP;
#X obj 210 109 cnv 5 5 5 empty empty CNTR 0 0 0 8 #fcfcfc #000000 0
;
#X obj 249 109 cnv 5 5 5 empty empty DAMP 0 0 0 8 #fcfcfc #000000 0
;
#X obj 748 186 s~ \$0-kps-color-cv;
#X obj 305 474 r~ \$0-kps-color-cv;
#X obj 290 431 pack 0 50;
#X obj 748 119 *~ 4800;
#X obj 748 141 +~ 200;
#X obj 435 520 +~;
#X obj 435 542 clip~ 0.8 0.9999;
#X obj -175 191 sel 0 1 2 3;
#N canvas 0 23 915 739 karplus3 0;
#X obj 186 509 *~;
#X obj 26 531 outlet~;
#X obj 403 455 / 127;
#X obj 403 477 * 4800;
#X obj 403 499 + 200;
#X obj 350 438 *~;
#X obj 365 349 pack 0 50;
#X obj 365 371 line~;
#X obj 365 281 / 127;
#X obj 365 303 * 0.1999;
#X obj 365 325 + 0.8;
#X obj 26 117 r \$0-karplus2-pitch-s;
#X obj 403 430 r \$0-karplus2-damp-s;
#X obj 26 186 mtof~;
#X obj 26 162 +~;
#X obj 26 213 expr~ 1000 / $v1;
#X obj 26 139 sig~;
#X obj 365 249 r \$0-karplus2-resonate-s;
#X msg 293 200 reset;
#X obj 26 235 lop~ 10;
#N canvas 622 28 646 635 contour 0;
#X obj 198 158 spigot;
#X floatatom 198 180 5 0 0 0 - - - 0;
#X obj 164 112 spigot;
#X obj 197 87 < 64;
#X obj 164 137 clip 0 64;
#X obj 197 67 t f f f f;
#X obj 153 429 pack f f;
#X msg 153 454 1 \$2 \, 0 \$1 \$2;
#X obj 153 288 f;
#X obj 164 158 / 64;
#X obj 198 221 - 63;
#X obj 198 243 / 64;
#X obj 231 108 > 63;
#X obj 198 199 clip 63 127;
#X obj 164 183 * 990;
#X obj 164 205 + 10;
#X obj 198 266 * 999;
#X obj 198 288 + 1;
#X obj 153 476 vline~;
#X obj 153 540 outlet~;
#X obj 197 43 r \$0-karplus2-excite-s;
#X obj 153 14 inlet;
#X obj 198 310 t f f;
#X msg 225 333 1000 \$1;
#X obj 225 355 -;
#X connect 0 0 1 0;
#X connect 1 0 13 0;
#X connect 2 0 4 0;
#X connect 3 0 2 1;
#X connect 4 0 9 0;
#X connect 5 0 3 0;
#X connect 5 1 2 0;
#X connect 5 2 12 0;
#X connect 5 3 0 0;
#X connect 6 0 7 0;
#X connect 7 0 18 0;
#X connect 8 0 6 0;
#X connect 9 0 14 0;
#X connect 10 0 11 0;
#X connect 11 0 16 0;
#X connect 12 0 0 1;
#X connect 13 0 10 0;
#X connect 14 0 15 0;
#X connect 15 0 8 1;
#X connect 16 0 17 0;
#X connect 17 0 22 0;
#X connect 18 0 19 0;
#X connect 20 0 5 0;
#X connect 21 0 8 0;
#X connect 22 0 6 1;
#X connect 22 1 23 0;
#X connect 23 0 24 0;
#X connect 24 0 8 1;
#X restore 269 492 pd contour;
#X obj 202 282 / 127;
#X obj 202 304 * 4800;
#X obj 202 326 + 200;
#X obj 202 258 r \$0-karplus2-color-s;
#X obj 439 145 samphold~;
#X obj 266 125 t b b;
#X obj 439 118 r~ \$0-kps-pitch-cv;
#X obj 41 48 r~ \$0-kps-free-running-pitch-cv;
#X obj 202 375 line~;
#X obj 202 397 +~;
#X obj 219 477 vcf~ 1;
#X obj 186 421 vcf~ 1;
#X obj 219 449 *~ 2;
#X obj 350 608 *~ 0.99;
#X obj 350 562 lop~;
#X obj 403 521 t f f;
#X obj 350 584 lop~;
#X obj 146 183 noise~;
#X obj 146 286 *~;
#X obj 161 205 r \$0-kps-kill-noise;
#X obj 186 226 r~ \$0-kps-ext;
#X obj 202 353 pack 0 50;
#X obj 241 380 r~ \$0-kps-color-cv;
#X obj 365 393 +~;
#X obj 266 103 r \$0-karplus-excite-bang3!;
#X obj 186 533 delwrite~ \$0-kps3 20;
#X obj 26 421 vd~ \$0-kps3;
#X obj 293 166 delay 5;
#X connect 0 0 46 0;
#X connect 2 0 3 0;
#X connect 3 0 4 0;
#X connect 4 0 36 0;
#X connect 5 0 35 0;
#X connect 6 0 7 0;
#X connect 7 0 44 0;
#X connect 8 0 9 0;
#X connect 9 0 10 0;
#X connect 10 0 6 0;
#X connect 11 0 16 0;
#X connect 12 0 2 0;
#X connect 13 0 15 0;
#X connect 14 0 13 0;
#X connect 15 0 19 0;
#X connect 16 0 14 0;
#X connect 17 0 8 0;
#X connect 18 0 25 0;
#X connect 19 0 47 0;
#X connect 20 0 0 1;
#X connect 21 0 22 0;
#X connect 22 0 23 0;
#X connect 23 0 42 0;
#X connect 24 0 21 0;
#X connect 25 0 14 1;
#X connect 26 0 20 0;
#X connect 26 1 48 0;
#X connect 27 0 25 0;
#X connect 28 0 14 1;
#X connect 29 0 30 0;
#X connect 30 0 31 1;
#X connect 30 0 32 1;
#X connect 31 1 0 0;
#X connect 32 1 33 0;
#X connect 33 0 31 0;
#X connect 34 0 46 0;
#X connect 35 0 37 0;
#X connect 36 0 35 1;
#X connect 36 1 37 1;
#X connect 37 0 34 0;
#X connect 38 0 39 0;
#X connect 39 0 32 0;
#X connect 40 0 39 1;
#X connect 41 0 32 0;
#X connect 42 0 29 0;
#X connect 43 0 30 1;
#X connect 44 0 5 1;
#X connect 45 0 26 0;
#X connect 47 0 5 0;
#X connect 47 0 1 0;
#X connect 48 0 18 0;
#X restore 107 609 pd karplus3;
#N canvas 0 23 915 739 karplus4 0;
#X obj 186 509 *~;
#X obj 26 531 outlet~;
#X obj 403 455 / 127;
#X obj 403 477 * 4800;
#X obj 403 499 + 200;
#X obj 350 438 *~;
#X obj 365 349 pack 0 50;
#X obj 365 371 line~;
#X obj 365 281 / 127;
#X obj 365 303 * 0.1999;
#X obj 365 325 + 0.8;
#X obj 26 117 r \$0-karplus2-pitch-s;
#X obj 403 430 r \$0-karplus2-damp-s;
#X obj 26 186 mtof~;
#X obj 26 162 +~;
#X obj 26 213 expr~ 1000 / $v1;
#X obj 26 139 sig~;
#X obj 365 249 r \$0-karplus2-resonate-s;
#X msg 293 200 reset;
#X obj 26 235 lop~ 10;
#N canvas 622 28 646 635 contour 0;
#X obj 198 158 spigot;
#X floatatom 198 180 5 0 0 0 - - - 0;
#X obj 164 112 spigot;
#X obj 197 87 < 64;
#X obj 164 137 clip 0 64;
#X obj 197 67 t f f f f;
#X obj 153 429 pack f f;
#X msg 153 454 1 \$2 \, 0 \$1 \$2;
#X obj 153 288 f;
#X obj 164 158 / 64;
#X obj 198 221 - 63;
#X obj 198 243 / 64;
#X obj 231 108 > 63;
#X obj 198 199 clip 63 127;
#X obj 164 183 * 990;
#X obj 164 205 + 10;
#X obj 198 266 * 999;
#X obj 198 288 + 1;
#X obj 153 476 vline~;
#X obj 153 540 outlet~;
#X obj 197 43 r \$0-karplus2-excite-s;
#X obj 153 14 inlet;
#X obj 198 310 t f f;
#X msg 225 333 1000 \$1;
#X obj 225 355 -;
#X connect 0 0 1 0;
#X connect 1 0 13 0;
#X connect 2 0 4 0;
#X connect 3 0 2 1;
#X connect 4 0 9 0;
#X connect 5 0 3 0;
#X connect 5 1 2 0;
#X connect 5 2 12 0;
#X connect 5 3 0 0;
#X connect 6 0 7 0;
#X connect 7 0 18 0;
#X connect 8 0 6 0;
#X connect 9 0 14 0;
#X connect 10 0 11 0;
#X connect 11 0 16 0;
#X connect 12 0 0 1;
#X connect 13 0 10 0;
#X connect 14 0 15 0;
#X connect 15 0 8 1;
#X connect 16 0 17 0;
#X connect 17 0 22 0;
#X connect 18 0 19 0;
#X connect 20 0 5 0;
#X connect 21 0 8 0;
#X connect 22 0 6 1;
#X connect 22 1 23 0;
#X connect 23 0 24 0;
#X connect 24 0 8 1;
#X restore 269 492 pd contour;
#X obj 202 282 / 127;
#X obj 202 304 * 4800;
#X obj 202 326 + 200;
#X obj 202 258 r \$0-karplus2-color-s;
#X obj 439 145 samphold~;
#X obj 266 125 t b b;
#X obj 439 118 r~ \$0-kps-pitch-cv;
#X obj 41 48 r~ \$0-kps-free-running-pitch-cv;
#X obj 202 375 line~;
#X obj 202 397 +~;
#X obj 219 477 vcf~ 1;
#X obj 186 421 vcf~ 1;
#X obj 219 449 *~ 2;
#X obj 350 608 *~ 0.99;
#X obj 350 562 lop~;
#X obj 403 521 t f f;
#X obj 350 584 lop~;
#X obj 146 183 noise~;
#X obj 146 286 *~;
#X obj 161 205 r \$0-kps-kill-noise;
#X obj 186 226 r~ \$0-kps-ext;
#X obj 202 353 pack 0 50;
#X obj 241 380 r~ \$0-kps-color-cv;
#X obj 365 393 +~;
#X obj 266 103 r \$0-karplus-excite-bang4!;
#X obj 186 533 delwrite~ \$0-kps4 20;
#X obj 26 421 vd~ \$0-kps4;
#X obj 293 166 delay 7;
#X connect 0 0 46 0;
#X connect 2 0 3 0;
#X connect 3 0 4 0;
#X connect 4 0 36 0;
#X connect 5 0 35 0;
#X connect 6 0 7 0;
#X connect 7 0 44 0;
#X connect 8 0 9 0;
#X connect 9 0 10 0;
#X connect 10 0 6 0;
#X connect 11 0 16 0;
#X connect 12 0 2 0;
#X connect 13 0 15 0;
#X connect 14 0 13 0;
#X connect 15 0 19 0;
#X connect 16 0 14 0;
#X connect 17 0 8 0;
#X connect 18 0 25 0;
#X connect 19 0 47 0;
#X connect 20 0 0 1;
#X connect 21 0 22 0;
#X connect 22 0 23 0;
#X connect 23 0 42 0;
#X connect 24 0 21 0;
#X connect 25 0 14 1;
#X connect 26 0 20 0;
#X connect 26 1 48 0;
#X connect 27 0 25 0;
#X connect 28 0 14 1;
#X connect 29 0 30 0;
#X connect 30 0 31 1;
#X connect 30 0 32 1;
#X connect 31 1 0 0;
#X connect 32 1 33 0;
#X connect 33 0 31 0;
#X connect 34 0 46 0;
#X connect 35 0 37 0;
#X connect 36 0 35 1;
#X connect 36 1 37 1;
#X connect 37 0 34 0;
#X connect 38 0 39 0;
#X connect 39 0 32 0;
#X connect 40 0 39 1;
#X connect 41 0 32 0;
#X connect 42 0 29 0;
#X connect 43 0 30 1;
#X connect 44 0 5 1;
#X connect 45 0 26 0;
#X connect 47 0 5 0;
#X connect 47 0 1 0;
#X connect 48 0 18 0;
#X restore -4 664 pd karplus4;
#X obj -175 169 % 4;
#X obj 748 96 inlet~ 6-COLOR;
#X obj -16 759 outlet~ MONO;
#X obj 73 736 outlet~ LEFT;
#X obj 128 735 outlet~ RIGHT;
#X obj 169 109 cnv 5 5 5 empty empty PITCH 0 0 0 8 #fcfcfc #000000
0;
#X obj 104 218 cnv 5 5 5 empty empty MONO 0 0 0 8 #fcfcfc #000000 0
;
#X obj 190 218 cnv 5 5 5 empty empty LEFT 0 0 0 8 #fcfcfc #000000 0
;
#X obj 748 163 lop~ 10;
#X obj -16 737 *~ 1;
#X obj 73 714 *~ 1;
#X obj 128 713 *~ 1;
#N canvas 709 168 552 422 save-state 0;
#X obj 293 114 f;
#X obj 293 157 pack f f f f f;
#X obj 106 241 unpack f f f f f;
#X obj 308 11 r \$0-karplus2-pitch-s;
#X obj 106 394 s \$0-karplus2-pitch-r;
#X obj 316 34 r \$0-karplus2-contour-s;
#X obj 127 370 s \$0-karplus2-contour-r;
#X obj 330 55 r \$0-karplus2-damp-slider-s;
#X obj 148 346 s \$0-karplus2-damp-slider-r;
#X obj 348 80 r \$0-karplus2-resonate-s;
#X obj 169 322 s \$0-karplus2-resonate-r;
#X obj 368 105 r \$0-karplus2-color-s;
#X obj 196 296 s \$0-karplus2-color-r;
#X obj 134 95 savestate;
#X obj 69 75 loadbang;
#X obj 26 205 list store;
#X msg 56 153 1;
#X obj 69 96 t b b;
#X obj 56 132 t b a;
#X obj 3 179 spigot 0;
#X obj 106 179 spigot 1;
#X obj 134 116 t a b;
#X msg 161 153 0;
#X msg 106 205 60 50 50 100 63;
#X connect 0 0 1 0;
#X connect 1 0 13 0;
#X connect 2 0 4 0;
#X connect 2 1 6 0;
#X connect 2 2 8 0;
#X connect 2 3 10 0;
#X connect 2 4 12 0;
#X connect 3 0 0 1;
#X connect 5 0 1 1;
#X connect 7 0 1 2;
#X connect 9 0 1 3;
#X connect 11 0 1 4;
#X connect 13 0 21 0;
#X connect 13 1 0 0;
#X connect 14 0 17 0;
#X connect 15 0 2 0;
#X connect 16 0 19 1;
#X connect 17 0 19 0;
#X connect 17 1 20 0;
#X connect 18 0 16 0;
#X connect 18 1 15 1;
#X connect 19 0 15 0;
#X connect 20 0 23 0;
#X connect 21 0 18 0;
#X connect 21 1 22 0;
#X connect 22 0 20 1;
#X connect 23 0 2 0;
#X restore 616 475 pd save-state;
#N canvas 531 23 367 233 forwarding 0;
#X obj 12 38 route PITCH CONTOUR DAMP RESONATE COLOR;
#X obj 13 184 s \$0-karplus2-pitch-r;
#X obj 50 162 s \$0-karplus2-contour-r;
#X obj 122 140 s \$0-karplus2-damp-slider-r;
#X obj 157 111 s \$0-karplus2-resonate-r;
#X obj 205 84 s \$0-karplus2-color-r;
#X obj 12 12 inlet;
#X connect 0 0 1 0;
#X connect 0 1 2 0;
#X connect 0 2 3 0;
#X connect 0 3 4 0;
#X connect 0 4 5 0;
#X connect 6 0 0 0;
#X restore -160 99 pd forwarding;
#X obj -175 54 inlet~ fwd;
#X text -176 31 (I1) Trigger;
#X connect 0 0 11 0;
#X connect 1 0 88 0;
#X connect 2 0 24 0;
#X connect 5 0 24 0;
#X connect 6 0 12 0;
#X connect 6 0 125 0;
#X connect 6 0 126 0;
#X connect 8 0 9 0;
#X connect 9 0 10 0;
#X connect 10 0 76 0;
#X connect 12 0 74 0;
#X connect 14 0 15 0;
#X connect 15 0 111 0;
#X connect 16 0 17 0;
#X connect 17 0 18 0;
#X connect 18 0 14 0;
#X connect 19 0 31 0;
#X connect 19 0 7 0;
#X connect 20 0 29 0;
#X connect 21 0 8 0;
#X connect 23 0 44 0;
#X connect 25 0 28 0;
#X connect 26 0 36 0;
#X connect 26 0 43 0;
#X connect 26 0 48 0;
#X connect 27 0 25 0;
#X connect 28 0 35 0;
#X connect 29 0 27 0;
#X connect 30 0 16 0;
#X connect 31 0 32 0;
#X connect 31 0 116 0;
#X connect 32 0 31 1;
#X connect 33 0 43 0;
#X connect 35 0 6 0;
#X connect 37 0 2 1;
#X connect 38 0 39 0;
#X connect 39 0 40 0;
#X connect 40 0 108 0;
#X connect 42 0 38 0;
#X connect 43 0 27 1;
#X connect 44 0 37 0;
#X connect 44 1 33 0;
#X connect 47 0 125 0;
#X connect 47 0 127 0;
#X connect 48 0 27 1;
#X connect 48 0 49 0;
#X connect 51 0 48 1;
#X connect 52 0 53 0;
#X connect 53 0 54 0;
#X connect 54 0 55 0;
#X connect 55 0 59 0;
#X connect 57 0 58 0;
#X connect 58 0 55 0;
#X connect 59 0 56 0;
#X connect 60 0 61 0;
#X connect 62 0 54 1;
#X connect 69 0 70 0;
#X connect 70 0 71 1;
#X connect 70 0 72 1;
#X connect 71 1 2 0;
#X connect 72 1 73 0;
#X connect 73 0 71 0;
#X connect 74 0 75 0;
#X connect 75 0 5 0;
#X connect 76 0 74 1;
#X connect 76 1 75 1;
#X connect 77 0 78 0;
#X connect 78 0 79 0;
#X connect 79 0 82 0;
#X connect 80 0 81 0;
#X connect 81 0 79 0;
#X connect 82 0 85 0;
#X connect 83 0 77 0;
#X connect 84 0 78 1;
#X connect 86 0 87 0;
#X connect 88 0 72 0;
#X connect 89 0 90 0;
#X connect 90 0 91 0;
#X connect 91 0 93 0;
#X connect 92 0 95 0;
#X connect 93 0 92 1;
#X connect 93 1 94 0;
#X connect 94 0 96 0;
#X connect 97 0 88 1;
#X connect 98 0 72 0;
#X connect 99 0 92 0;
#X connect 100 0 89 0;
#X connect 100 0 99 0;
#X connect 101 0 26 0;
#X connect 102 0 60 0;
#X connect 103 0 86 0;
#X connect 107 0 70 1;
#X connect 108 0 69 0;
#X connect 109 0 110 0;
#X connect 110 0 124 0;
#X connect 111 0 112 0;
#X connect 112 0 12 1;
#X connect 113 0 22 0;
#X connect 113 1 34 0;
#X connect 113 2 45 0;
#X connect 113 3 46 0;
#X connect 114 0 125 0;
#X connect 114 0 126 0;
#X connect 115 0 125 0;
#X connect 115 0 127 0;
#X connect 116 0 113 0;
#X connect 117 0 109 0;
#X connect 124 0 106 0;
#X connect 125 0 118 0;
#X connect 126 0 119 0;
#X connect 127 0 120 0;
#X connect 130 0 19 0;
#X connect 130 1 129 0;
#X coords 0 -1 1 1 200 125 2 100 100;
