#N canvas 0 23 1310 794 10;
#X obj 108 161 hsl 128 15 0 127 0 1 \$0-ladder-fm-/+-s \$0-ladder-fm-/+-r
FM-/+ 135 7 0 10 #90d4b0 #000000 #000000 6400 1;
#X obj 647 176 pack 0 10;
#X obj 647 198 line~;
#X obj 647 154 / 127;
#X obj 647 220 +~;
#X obj 108 146 hsl 128 15 0 127 0 1 \$0-ladder-q-s \$0-ladder-q-r Q
135 7 0 10 #fcfcfc #000000 #000000 6400 1;
#X obj 444 84 / 127;
#X obj 444 149 pack 0 50;
#X obj 444 171 line~;
#X obj 444 127 * 0.99;
#X obj 612 664 clip~ -1 1;
#X obj 647 264 lop~ 10;
#X obj 507 123 * 2;
#X obj 647 296 s~ \$0-ladder-cutoff;
#X obj 444 106 t f f;
#X obj 612 766 outlet~;
#X obj 507 145 + 1;
#X obj 507 169 s \$0-ladder-q-mess;
#X obj 647 43 r \$0-ladder-freq-s;
#X obj 891 74 inlet~ FREQ CV INPUT;
#X obj 444 64 r \$0-ladder-q-s;
#X obj 414 357 vcf~ 1;
#X obj 429 253 *~;
#X obj 414 285 +~;
#X obj 430 308 r~ \$0-ladder-cutoff;
#X obj 429 231 r~ \$0-ladder-Q;
#X obj 447 330 r \$0-ladder-q-mess;
#X obj 447 401 vcf~ 1;
#X obj 463 352 r~ \$0-ladder-cutoff;
#X obj 480 374 r \$0-ladder-q-mess;
#X obj 480 448 vcf~ 1;
#X obj 496 399 r~ \$0-ladder-cutoff;
#X obj 513 421 r \$0-ladder-q-mess;
#X obj 513 492 vcf~ 1;
#X obj 529 443 r~ \$0-ladder-cutoff;
#X obj 546 465 r \$0-ladder-q-mess;
#X obj 546 536 vcf~ 1;
#X obj 562 487 r~ \$0-ladder-cutoff;
#X obj 579 509 r \$0-ladder-q-mess;
#X obj 579 580 vcf~ 1;
#X obj 595 531 r~ \$0-ladder-cutoff;
#X obj 612 553 r \$0-ladder-q-mess;
#X obj 688 659 s~ \$0-ladder-Q;
#X obj 688 597 *~ 2;
#X obj 612 612 *~ 2;
#X obj 647 65 t f f;
#X obj 950 199 / 127;
#X obj 950 221 * 3;
#X obj 950 243 + 1;
#X floatatom 950 265 5 0 0 0 - - - 0;
#X obj 612 634 *~;
#X obj 950 284 pack 0 50;
#X obj 950 306 line~;
#X obj 647 242 *~ 5000;
#X obj 688 619 *~ -1;
#X obj 791 398 vcf~ 1;
#X obj 824 371 r \$0-ladder-q-mess;
#X obj 824 442 vcf~ 1;
#X obj 857 415 r \$0-ladder-q-mess;
#X obj 857 489 vcf~ 1;
#X obj 890 462 r \$0-ladder-q-mess;
#X obj 890 533 vcf~ 1;
#X obj 923 506 r \$0-ladder-q-mess;
#X obj 923 577 vcf~ 1;
#X obj 956 550 r \$0-ladder-q-mess;
#X obj 956 621 vcf~ 1;
#X obj 989 594 r \$0-ladder-q-mess;
#X obj 807 349 r~ \$0-ladder-cutoff2;
#X obj 840 393 r~ \$0-ladder-cutoff2;
#X obj 873 440 r~ \$0-ladder-cutoff2;
#X obj 906 484 r~ \$0-ladder-cutoff2;
#X obj 939 528 r~ \$0-ladder-cutoff2;
#X obj 972 572 r~ \$0-ladder-cutoff2;
#X obj 802 304 s~ \$0-ladder-cutoff2;
#X obj 989 691 clip~ -1 1;
#X obj 989 645 *~ 2;
#X obj 989 667 *~;
#X obj 612 745 clip~ -1 1;
#X obj 802 282 +~ 10;
#X obj 105 109 cnv 5 5 5 empty empty IN 0 0 0 8 #fcfcfc #404040 0;
#X obj 252 109 cnv 5 5 5 empty empty FREQ 0 0 0 8 #fcfcfc #5ca878 0
;
#X obj 104 120 cnv 5 5 5 empty empty LADDER-FILTER 0 0 0 12 #fcfcfc
#404040 0;
#X obj 108 131 hsl 128 15 1.27 127 1 1 \$0-ladder-freq-s \$0-ladder-freq-r
FREQ 135 7 0 10 #fcfcfc #000000 #000000 10810 1;
#X obj 891 162 *~;
#X obj 1040 37 r \$0-ladder-fm-/+-s;
#X obj 1040 59 / 127;
#X obj 1040 81 * 2;
#X obj 1040 103 - 1;
#X obj 1040 125 pack 0 50;
#X obj 1040 147 line~;
#X floatatom 105 176 5 0 0 0 - \$0-ladder-fm-/+-gui-r \$0-ladder-fm-/+-gui-s
0;
#X obj 1135 118 s \$0-ladder-fm-/+-gui-r;
#X obj 287 101 clip~ -1 1;
#X obj 287 75 *~ 8;
#X obj 612 708 *~ 2;
#N canvas 532 123 256 177 fowarding 0;
#X obj 12 38 route FREQ Q FM-/+;
#X obj 12 116 s \$0-ladder-freq-r;
#X obj 47 90 s \$0-ladder-q-r;
#X obj 82 64 s \$0-ladder-fm-/+-r;
#X obj 12 12 inlet;
#X connect 0 0 1 0;
#X connect 0 1 2 0;
#X connect 0 2 3 0;
#X connect 4 0 0 0;
#X restore 344 79 pd fowarding;
#N canvas 958 408 441 341 save-state 0;
#X obj 234 109 f;
#X obj 234 135 pack f f f f;
#X obj 115 199 unpack f f f f;
#X obj 249 12 r \$0-ladder-freq-s;
#X obj 115 303 s \$0-ladder-freq-r;
#X obj 257 38 r \$0-ladder-q-s;
#X obj 142 277 s \$0-ladder-q-r;
#X obj 280 64 r \$0-ladder-drive-s;
#X obj 169 251 s \$0-ladder-drive-r;
#X obj 303 90 r \$0-ladder-fm-/+-s;
#X obj 196 225 s \$0-ladder-fm-/+-r;
#X obj 143 63 savestate;
#X obj 78 43 loadbang;
#X obj 35 173 list store;
#X msg 65 121 1;
#X obj 78 64 t b b;
#X obj 65 100 t b a;
#X obj 12 147 spigot 0;
#X obj 115 147 spigot 1;
#X obj 143 84 t a b;
#X msg 170 121 0;
#X msg 115 173 64 64 64 64;
#X connect 0 0 1 0;
#X connect 1 0 11 0;
#X connect 2 0 4 0;
#X connect 2 1 6 0;
#X connect 2 2 8 0;
#X connect 2 3 10 0;
#X connect 3 0 0 1;
#X connect 5 0 1 1;
#X connect 7 0 1 2;
#X connect 9 0 1 3;
#X connect 11 0 19 0;
#X connect 11 1 0 0;
#X connect 12 0 15 0;
#X connect 13 0 2 0;
#X connect 14 0 17 1;
#X connect 15 0 17 0;
#X connect 15 1 18 0;
#X connect 16 0 14 0;
#X connect 16 1 13 1;
#X connect 17 0 13 0;
#X connect 18 0 21 0;
#X connect 19 0 16 0;
#X connect 19 1 20 0;
#X connect 20 0 18 1;
#X connect 21 0 2 0;
#X restore 121 267 pd save-state;
#X obj 287 53 inlet~ fwd;
#X connect 1 0 2 0;
#X connect 2 0 4 0;
#X connect 3 0 1 0;
#X connect 4 0 53 0;
#X connect 6 0 14 0;
#X connect 7 0 8 0;
#X connect 8 0 22 1;
#X connect 9 0 7 0;
#X connect 10 0 94 0;
#X connect 11 0 13 0;
#X connect 11 0 78 0;
#X connect 12 0 16 0;
#X connect 14 0 9 0;
#X connect 14 1 12 0;
#X connect 16 0 17 0;
#X connect 18 0 45 0;
#X connect 19 0 83 0;
#X connect 20 0 6 0;
#X connect 21 1 27 0;
#X connect 22 0 23 1;
#X connect 23 0 21 0;
#X connect 23 0 55 0;
#X connect 24 0 21 1;
#X connect 25 0 22 0;
#X connect 26 0 21 2;
#X connect 27 1 30 0;
#X connect 28 0 27 1;
#X connect 29 0 27 2;
#X connect 30 1 33 0;
#X connect 31 0 30 1;
#X connect 32 0 30 2;
#X connect 33 1 36 0;
#X connect 34 0 33 1;
#X connect 35 0 33 2;
#X connect 36 1 39 0;
#X connect 37 0 36 1;
#X connect 38 0 36 2;
#X connect 39 1 43 0;
#X connect 39 1 44 0;
#X connect 40 0 39 1;
#X connect 41 0 39 2;
#X connect 43 0 54 0;
#X connect 44 0 50 0;
#X connect 45 0 3 0;
#X connect 45 1 46 0;
#X connect 46 0 47 0;
#X connect 47 0 48 0;
#X connect 48 0 49 0;
#X connect 49 0 51 0;
#X connect 50 0 10 0;
#X connect 51 0 52 0;
#X connect 52 0 50 1;
#X connect 53 0 11 0;
#X connect 54 0 42 0;
#X connect 55 1 57 0;
#X connect 56 0 55 2;
#X connect 57 1 59 0;
#X connect 58 0 57 2;
#X connect 59 1 61 0;
#X connect 60 0 59 2;
#X connect 61 1 63 0;
#X connect 62 0 61 2;
#X connect 63 1 65 0;
#X connect 64 0 63 2;
#X connect 65 1 75 0;
#X connect 66 0 65 2;
#X connect 67 0 55 1;
#X connect 68 0 57 1;
#X connect 69 0 59 1;
#X connect 70 0 61 1;
#X connect 71 0 63 1;
#X connect 72 0 65 1;
#X connect 74 0 94 0;
#X connect 75 0 76 0;
#X connect 76 0 74 0;
#X connect 77 0 15 0;
#X connect 78 0 73 0;
#X connect 83 0 4 1;
#X connect 84 0 85 0;
#X connect 85 0 86 0;
#X connect 86 0 87 0;
#X connect 87 0 88 0;
#X connect 87 0 91 0;
#X connect 88 0 89 0;
#X connect 89 0 83 1;
#X connect 92 0 23 0;
#X connect 93 0 92 0;
#X connect 94 0 77 0;
#X connect 97 0 93 0;
#X connect 97 1 95 0;
#X coords 0 -1 1 1 175 95 2 100 100;
