#N canvas 0 23 805 658 10;
#N canvas 299 349 585 577 filter-vcf 0;
#X obj 186 106 inlet~;
#X obj 252 473 outlet~;
#X obj 34 159 *~;
#X obj 430 19 inlet;
#X obj 430 120 pack 0 50;
#X obj 430 142 line~;
#X obj 252 449 clip~ -1 1;
#X obj 252 323 *~ 2;
#X obj 337 362 *~ 2;
#X obj 252 421 *~ 0.5;
#X obj 74 438 *~ -1;
#X obj 270 299 vcf~ 1;
#X obj 304 333 vcf~ 1;
#X obj 524 236 pack 0 50;
#X obj 524 258 line;
#X obj 524 192 * 5;
#X obj 524 280 t f f;
#X obj 430 63 t f f f;
#X obj 186 269 vcf~ 1;
#X obj 391 225 pack 0 50;
#X obj 391 247 line;
#X obj 391 269 t f f;
#X obj 219 298 vcf~ 1;
#X obj 391 181 * 3;
#X obj 285 110 inlet~;
#X obj 290 243 +~ 10;
#X obj 74 469 delwrite~ \$0-feedfeed2 1;
#X obj 34 92 delread~ \$0-feedfeed2 1;
#X obj 33 128 lop~ 10000, f 12;
#X obj 430 96 * 0.99;
#X obj 391 203 + 1.5;
#X obj 524 214 + 1.5;
#X obj 186 78 block~ 64;
#X connect 0 0 11 0;
#X connect 0 0 18 0;
#X connect 2 0 18 0;
#X connect 3 0 17 0;
#X connect 4 0 5 0;
#X connect 5 0 2 1;
#X connect 6 0 1 0;
#X connect 7 0 9 0;
#X connect 7 0 10 0;
#X connect 8 0 9 0;
#X connect 8 0 26 0;
#X connect 9 0 6 0;
#X connect 10 0 26 0;
#X connect 11 1 12 0;
#X connect 12 1 8 0;
#X connect 13 0 14 0;
#X connect 14 0 16 0;
#X connect 15 0 31 0;
#X connect 16 0 11 2;
#X connect 16 1 12 2;
#X connect 17 0 29 0;
#X connect 17 1 15 0;
#X connect 17 2 23 0;
#X connect 18 1 22 0;
#X connect 19 0 20 0;
#X connect 20 0 21 0;
#X connect 21 0 18 2;
#X connect 22 1 7 0;
#X connect 23 0 30 0;
#X connect 24 0 18 1;
#X connect 24 0 22 1;
#X connect 24 0 25 0;
#X connect 25 0 11 1;
#X connect 25 0 12 1;
#X connect 27 0 28 0;
#X connect 28 0 2 0;
#X connect 29 0 4 0;
#X connect 30 0 19 0;
#X connect 31 0 13 0;
#X restore 310 399 pd filter-vcf;
#X obj 310 534 outlet~;
#X obj 518 104 inlet~;
#X obj 105 161 hsl 128 15 0 127 0 0 \$0-lp-filter2-fm--/+-s \$0-lp-filter2-fm--/+-r
FM-/+ 133 7 0 10 #90d4b0 #000000 #000000 0 1;
#X obj 346 84 r \$0-lp-filter2-cutoff-s;
#X obj 346 107 / 127;
#X obj 346 154 pack 0 50;
#X obj 346 176 line~;
#X obj 346 198 +~;
#X obj 346 242 +~ 1;
#X obj 518 181 *~;
#X obj 584 23 r \$0-lp-filter2-fm--/+-s;
#X obj 584 45 / 127;
#X obj 584 67 * 2;
#X obj 584 89 - 1;
#X obj 584 142 pack 0 50;
#X obj 584 164 line~;
#X obj 106 132 hsl 128 15 0 127 0 0 \$0-lp-filter2-cutoff-s \$0-lp-filter2-cutoff-r
CUTOFF 133 7 0 10 #fcfcfc #000000 #000000 0 1;
#X obj 384 240 r \$0-lp-filter2-q-s;
#X obj 384 262 / 127;
#X obj 384 312 +;
#X obj 592 251 inlet~;
#X obj 593 273 snapshot~;
#X obj 593 295 t b f;
#X obj 658 234 loadbang;
#X obj 658 256 metro 20;
#X obj 105 109 cnv 5 5 5 empty empty IN 0 0 0 8 #fcfcfc #404040 0;
#X obj 173 109 cnv 5 5 5 empty empty CUTOFF 0 0 0 8 #fcfcfc #5ca878
0;
#X obj 104 123 cnv 5 5 5 empty empty LP-FILTER 0 0 0 12 #fcfcfc #404040
0;
#X obj 258 109 cnv 5 5 5 empty empty Q 0 0 0 8 #fcfcfc #404040 0;
#X floatatom 103 177 5 0 0 0 - - - 0;
#X obj 584 111 t f f;
#X obj 346 220 *~ 5000;
#X obj 309 53 *~ 0.5;
#X obj 106 147 hsl 128 15 0 127 0 0 \$0-lp-filter2-q-s \$0-lp-filter2-q-r
Q 133 7 0 10 #fcfcfc #000000 #000000 0 1;
#X obj 310 497 clip~ -1 1;
#X obj 310 466 *~ 2;
#N canvas 305 49 261 194 forwarding 0;
#X obj 12 38 route CUTOFF Q FM-/+;
#X obj 12 116 s \$0-lp-filter2-cutoff-r;
#X obj 51 90 s \$0-lp-filter2-q-r;
#X obj 90 64 s \$0-lp-filter2-fm--/+-r;
#X obj 12 12 inlet;
#X connect 0 0 1 0;
#X connect 0 1 2 0;
#X connect 0 2 3 0;
#X connect 4 0 0 0;
#X restore 366 53 pd forwarding;
#N canvas 415 182 456 293 save-state 0;
#X obj 223 70 f;
#X obj 223 113 pack f f f;
#X obj 115 168 unpack f f f;
#X obj 238 22 r \$0-lp-filter2-cutoff-s;
#X obj 115 240 s \$0-lp-filter2-cutoff-r;
#X obj 251 60 r \$0-lp-filter2-q-s;
#X obj 149 214 s \$0-lp-filter2-q-r;
#X obj 280 88 r \$0-lp-filter2-fm--/+-s;
#X obj 184 192 s \$0-lp-filter2-fm--/+-r;
#X obj 143 32 savestate;
#X obj 78 12 loadbang;
#X obj 35 142 list store;
#X msg 65 90 1;
#X obj 78 33 t b b;
#X obj 65 69 t b a;
#X obj 12 116 spigot 0;
#X obj 115 116 spigot 1;
#X obj 143 53 t a b;
#X msg 170 90 0;
#X msg 115 142 64 64 64;
#X connect 0 0 1 0;
#X connect 1 0 9 0;
#X connect 2 0 4 0;
#X connect 2 1 6 0;
#X connect 2 2 8 0;
#X connect 3 0 0 1;
#X connect 5 0 1 1;
#X connect 7 0 1 2;
#X connect 9 0 17 0;
#X connect 9 1 0 0;
#X connect 10 0 13 0;
#X connect 11 0 2 0;
#X connect 12 0 15 1;
#X connect 13 0 15 0;
#X connect 13 1 16 0;
#X connect 14 0 12 0;
#X connect 14 1 11 1;
#X connect 15 0 11 0;
#X connect 16 0 19 0;
#X connect 17 0 14 0;
#X connect 17 1 18 0;
#X connect 18 0 16 1;
#X connect 19 0 2 0;
#X restore 42 298 pd save-state;
#X obj 309 27 inlet~ fwd;
#X connect 0 0 36 0;
#X connect 2 0 10 0;
#X connect 4 0 5 0;
#X connect 5 0 6 0;
#X connect 6 0 7 0;
#X connect 7 0 8 0;
#X connect 8 0 32 0;
#X connect 9 0 0 1;
#X connect 10 0 8 1;
#X connect 11 0 12 0;
#X connect 12 0 13 0;
#X connect 13 0 14 0;
#X connect 14 0 31 0;
#X connect 15 0 16 0;
#X connect 16 0 10 1;
#X connect 18 0 19 0;
#X connect 19 0 20 0;
#X connect 20 0 0 2;
#X connect 21 0 22 0;
#X connect 22 0 23 0;
#X connect 23 0 20 0;
#X connect 23 1 20 1;
#X connect 24 0 25 0;
#X connect 25 0 22 0;
#X connect 31 0 15 0;
#X connect 31 1 30 0;
#X connect 32 0 9 0;
#X connect 33 0 0 0;
#X connect 35 0 1 0;
#X connect 36 0 35 0;
#X connect 39 0 33 0;
#X connect 39 1 37 0;
#X coords 0 -1 1 1 175 100 2 100 100;
