#N canvas 189 72 908 646 10;
#X obj 573 91 inlet~;
#X obj 455 164 sig~;
#X obj 455 140 / 127;
#X obj 455 190 +~;
#X obj 573 173 *~;
#X obj 625 134 pack 0 10;
#X obj 625 156 line~;
#X obj 488 225 / 127;
#X text 345 18 SIGNAL IN;
#X text 569 71 CV IN;
#X obj 625 112 / 127;
#X text 499 117 LEVEL;
#X text 524 223 RING/DAMP;
#X obj 109 134 hsl 128 15 0 127 0 1 \$0-lpg-ring/damp-s \$0-lpg-ring/damp-r
RING/DAMP 133 7 0 10 #fcfcfc #000000 #000000 0 1;
#X obj 109 119 hsl 128 15 1.27 127 1 1 \$0-lpg-level-s \$0-lpg-level-r
LEVEL 133 7 0 10 #fcfcfc #000000 #000000 0 1;
#X obj 109 149 hsl 128 15 0 127 0 1 \$0-lpg-cv-att-s \$0-lpg-cv-att-r
CV 133 7 0 10 #9898dc #000000 #000000 7300 1;
#X obj 455 118 - 1.27;
#X obj 152 109 cnv 5 5 5 empty empty LOWPASS 0 0 0 12 #fcfcfc #404040
0;
#X obj 286 109 cnv 5 5 5 empty empty CV 0 0 0 8 #fcfcfc #9898dc 0;
#X obj 105 109 cnv 5 5 5 empty empty IN 0 0 0 8 #fcfcfc #404040 0;
#X obj 204 109 cnv 5 5 5 empty empty GATE 0 0 0 12 #fcfcfc #404040
0;
#X obj 349 391 vcf~ 1;
#X obj 239 109 cnv 5 5 5 empty \$0-instance-num 1 0 0 0 12 #fcfcfc
#404040 0;
#X obj 469 439 *~;
#X obj 382 502 outlet~;
#X obj 382 421 vcf~ 1;
#X obj 382 455 *~ 2;
#X obj 455 296 lop~ 3;
#X obj 382 480 *~ 1;
#X obj 455 323 *~ 22000;
#X obj 476 397 *~ 0.5;
#X obj 488 269 + 2;
#X obj 488 247 * 8;
#N canvas 400 155 271 164 forwarding 0;
#X obj 12 38 route LEVEL RING/DAMP CV;
#X obj 12 116 s \$0-lpg-level-r;
#X obj 59 90 s \$0-lpg-ring/damp-r;
#X obj 106 64 s \$0-lpg-cv-att-r;
#X obj 12 12 inlet;
#X connect 0 0 1 0;
#X connect 0 1 2 0;
#X connect 0 2 3 0;
#X connect 4 0 0 0;
#X restore 402 61 pd forwarding;
#X obj 349 38 inlet~ fwd;
#X obj 455 97 r \$0-lpg-level-s;
#X obj 488 204 r \$0-lpg-ring/damp-s;
#X obj 625 91 r \$0-lpg-cv-att-s;
#N canvas 591 187 419 308 save-state 0;
#X obj 234 60 f;
#X obj 234 90 pack f f f;
#X obj 115 180 unpack f f f;
#X obj 249 12 r \$0-lpg-level-s;
#X obj 262 38 r \$0-lpg-ring/damp-s;
#X obj 291 64 r \$0-lpg-cv-att-s;
#X obj 115 258 s \$0-lpg-level-r;
#X obj 149 232 s \$0-lpg-ring/damp-r;
#X obj 184 206 s \$0-lpg-cv-att-r;
#X obj 143 44 savestate;
#X obj 78 24 loadbang;
#X obj 35 154 list store;
#X msg 65 102 1;
#X obj 78 45 t b b;
#X obj 65 81 t b a;
#X obj 12 128 spigot 0;
#X obj 115 128 spigot 1;
#X obj 143 65 t a b;
#X msg 170 102 0;
#X msg 115 154 64 64 0;
#X connect 0 0 1 0;
#X connect 1 0 9 0;
#X connect 2 0 6 0;
#X connect 2 1 7 0;
#X connect 2 2 8 0;
#X connect 3 0 0 1;
#X connect 4 0 1 1;
#X connect 5 0 1 2;
#X connect 9 0 17 0;
#X connect 9 1 0 0;
#X connect 10 0 13 0;
#X connect 11 0 2 0;
#X connect 12 0 15 1;
#X connect 13 0 15 0;
#X connect 13 1 16 0;
#X connect 14 0 12 0;
#X connect 14 1 11 1;
#X connect 15 0 11 0;
#X connect 16 0 19 0;
#X connect 17 0 14 0;
#X connect 17 1 18 0;
#X connect 18 0 16 1;
#X connect 19 0 2 0;
#X restore 99 235 pd save-state;
#X connect 0 0 4 0;
#X connect 1 0 3 0;
#X connect 2 0 1 0;
#X connect 3 0 27 0;
#X connect 4 0 3 1;
#X connect 5 0 6 0;
#X connect 6 0 4 1;
#X connect 7 0 32 0;
#X connect 10 0 5 0;
#X connect 16 0 2 0;
#X connect 21 1 25 0;
#X connect 23 0 28 0;
#X connect 25 1 26 0;
#X connect 26 0 28 0;
#X connect 27 0 29 0;
#X connect 27 0 30 0;
#X connect 28 0 24 0;
#X connect 29 0 21 1;
#X connect 29 0 25 1;
#X connect 30 0 23 1;
#X connect 31 0 27 1;
#X connect 32 0 31 0;
#X connect 34 0 21 0;
#X connect 34 0 23 0;
#X connect 34 1 33 0;
#X connect 35 0 16 0;
#X connect 36 0 7 0;
#X connect 37 0 10 0;
#X coords 0 -1 1 1 200 70 2 100 100;
