#N canvas 0 23 669 484 10;
#X obj 207 130 bng 30 250 50 0 \$0-manual-trig3!-s \$0-manual-trig3!-r
empty 17 7 0 10 #fcfcfc #dc4c90 #000000;
#X obj 102 130 bng 30 250 50 0 \$0-manual-trig1!-s \$0-manual-trig1!-r
empty 17 7 0 10 #fcfcfc #dc4c90 #000000;
#X obj 156 130 bng 30 250 50 0 \$0-manual-trig2!-s \$0-manual-trig2!-r
empty 17 7 0 10 #fcfcfc #dc4c90 #000000;
#X msg 119 191 1 0 \, 0 1 1;
#X obj 119 213 vline~;
#X obj 119 235 outlet~;
#X msg 189 191 1 0 \, 0 1 1;
#X obj 189 213 vline~;
#X obj 189 235 outlet~;
#X msg 269 192 1 0 \, 0 1 1;
#X obj 269 214 vline~;
#X obj 269 236 outlet~;
#X obj 104 109 cnv 5 5 5 empty empty MANUAL-TRIGGERS 0 0 0 12 #fcfcfc
#404040 0;
#X obj 207 124 cnv 5 5 5 empty empty T3 0 0 0 8 #fcfcfc #dc4c90 0;
#X obj 102 124 cnv 5 5 5 empty empty T1 0 0 0 8 #fcfcfc #dc4c90 0;
#X obj 156 124 cnv 5 5 5 empty empty T2 0 0 0 8 #fcfcfc #dc4c90 0;
#N canvas 242 22 244 175 external-messages 0;
#X obj 12 38 route T1 T2 T3;
#X obj 12 116 s \$0-manual-trig1!-r;
#X obj 39 90 s \$0-manual-trig2!-r;
#X obj 66 64 s \$0-manual-trig3!-r;
#X obj 12 12 inlet;
#X connect 0 0 1 0;
#X connect 0 1 2 0;
#X connect 0 2 3 0;
#X connect 4 0 0 0;
#X restore 379 181 pd external-messages;
#X obj 379 155 inlet;
#X connect 0 0 9 0;
#X connect 1 0 3 0;
#X connect 2 0 6 0;
#X connect 3 0 4 0;
#X connect 4 0 5 0;
#X connect 6 0 7 0;
#X connect 7 0 8 0;
#X connect 9 0 10 0;
#X connect 10 0 11 0;
#X connect 17 0 16 0;
#X coords 0 -1 1 1 140 65 2 100 100;
