#N canvas 0 23 1168 751 10;
#X obj 787 552 line~;
#X obj 734 347 pack 0 50;
#X obj 109 176 hsl 128 15 0 127 0 1 \$0-megaverb-dry/wet-s \$0-megaverb-dry/wet-r
DRY/WET 135 7 0 10 #fcfcfc #000000 #000000 6400 1;
#X obj 787 457 r \$0-megaverb-dry/wet-s;
#X obj 787 479 / 127;
#X obj 787 526 pack 0 50;
#X obj 885 629 r~ \$0-megaverb-dry;
#X obj 885 663 *~;
#X obj 1005 536 r \$0-megaverb-dry/wet-s;
#X msg 1005 558 127 \$1;
#X obj 1005 580 -;
#X obj 1005 602 / 127;
#X obj 1005 624 pack 0 50;
#X obj 1005 646 line~;
#X obj 109 132 hsl 128 15 0 127 0 1 \$0-megaverb-room-s \$0-megaverb-room-r
SIZE 135 7 0 10 #fcfcfc #000000 #000000 6400 1;
#X obj 538 113 r \$0-megaverb-room-s;
#X obj 538 135 / 127;
#X obj 734 369 line~;
#X obj 109 146 hsl 128 15 0 127 0 1 \$0-megaverb-damping-s \$0-megaverb-damping-r
DAMPING 135 7 0 10 #fcfcfc #000000 #000000 6400 1;
#X obj 735 285 / 127;
#X obj 735 262 r \$0-megaverb-damping-s;
#X obj 734 391 +~;
#X obj 190 651 +~;
#X obj 213 550 *~;
#X obj 515 555 *~;
#X obj 314 555 *~;
#X obj 416 555 *~;
#X obj 472 689 -~;
#X obj 393 688 -~;
#X obj 268 691 +~;
#X obj 190 688 +~;
#X obj 191 587 +~;
#X obj 291 583 +~;
#X obj 493 644 -~;
#X obj 416 642 +~;
#X obj 268 654 -~;
#X obj 45 264 delread~ \$0-del1 58.6435;
#X obj 123 286 delread~ \$0-del2 69.4325;
#X obj 205 308 delread~ \$0-del3 74.5234;
#X obj 287 332 delread~ \$0-del4 86.1244;
#X obj 701 765 *~;
#X obj 770 766 *~;
#X obj 190 795 delwrite~ \$0-del1 58.6435;
#X obj 269 771 delwrite~ \$0-del2 69.4325;
#X obj 394 738 delwrite~ \$0-del3 74.5234;
#X obj 473 716 delwrite~ \$0-del4 86.1244;
#N canvas 341 84 355 597 early-reflect 0;
#X obj 84 119 -~;
#X obj 49 119 +~;
#X obj 50 195 +~;
#X obj 85 196 -~;
#X obj 84 275 -~;
#X obj 49 274 +~;
#X obj 82 349 -~;
#X obj 48 350 +~;
#X obj 83 428 -~;
#X obj 49 428 +~;
#X obj 65 7 inlet~;
#X obj 49 508 outlet~;
#X obj 119 505 outlet~;
#X obj 110 66 delwrite~ \$0-ref1 43.5337;
#X obj 110 90 delread~ \$0-ref1 43.5337;
#X obj 107 145 delwrite~ \$0-ref2 25.796;
#X obj 107 169 delread~ \$0-ref2 25.796;
#X obj 106 223 delwrite~ \$0-ref3 19.392;
#X obj 106 247 delread~ \$0-ref3 19.392;
#X obj 102 300 delwrite~ \$0-ref4 16.364;
#X obj 102 324 delread~ \$0-ref4 16.364;
#X obj 119 452 delwrite~ \$0-ref6 4.2546;
#X obj 119 475 delread~ \$0-ref6 4.2546;
#X obj 106 376 delwrite~ \$0-ref5 7.645;
#X obj 106 400 delread~ \$0-ref5 7.645;
#X connect 0 0 15 0;
#X connect 1 0 3 0;
#X connect 1 0 2 0;
#X connect 2 0 5 0;
#X connect 2 0 4 0;
#X connect 3 0 17 0;
#X connect 4 0 19 0;
#X connect 5 0 7 0;
#X connect 5 0 6 0;
#X connect 6 0 23 0;
#X connect 7 0 9 0;
#X connect 7 0 8 0;
#X connect 8 0 21 0;
#X connect 9 0 11 0;
#X connect 10 0 1 0;
#X connect 10 0 0 0;
#X connect 10 0 13 0;
#X connect 14 0 1 1;
#X connect 14 0 0 1;
#X connect 16 0 2 1;
#X connect 16 0 3 1;
#X connect 18 0 5 1;
#X connect 18 0 4 1;
#X connect 20 0 7 1;
#X connect 20 0 6 1;
#X connect 22 0 12 0;
#X connect 24 0 9 1;
#X connect 24 0 8 1;
#X restore 38 559 pd early-reflect;
#X obj 58 412 -~;
#X obj 57 443 *~;
#X obj 45 474 +~;
#X obj 135 417 -~;
#X obj 134 452 *~;
#X obj 124 476 +~;
#X obj 217 416 -~;
#X obj 216 457 *~;
#X obj 205 482 +~;
#X obj 310 417 -~;
#X obj 310 461 *~;
#X obj 287 485 +~;
#X obj 787 576 clip~ 0 0.125;
#X obj 538 210 + 0.25;
#X obj 538 263 pack 0 50;
#X obj 538 285 line~;
#X obj 538 309 +~;
#X obj 538 517 clip~ 0.25 0.5;
#X obj 63 632 s~ \$0-megaverb-dry;
#X obj 703 848 outlet~ LEFT;
#X obj 782 848 outlet~ RIGHT;
#X obj 787 503 * 0.1;
#X obj 538 188 * 0.25;
#X obj 538 236 clip 0.25 0.49;
#X obj 109 161 hsl 128 15 0 127 0 1 \$0-megaverb-lowpass-s \$0-megaverb-lowpass-r
LOWPASS 133 7 0 10 #fcfcfc #000000 #000000 6400 1;
#X obj 951 702 / 127;
#X obj 951 768 + 50;
#X obj 951 790 pack 0 50;
#X obj 951 724 +;
#X obj 686 136 *~ 0.5;
#X obj 686 92 inlet~ SIZE-CV;
#X obj 337 392 lop~ 3000;
#X obj 243 388 lop~ 3000;
#X obj 161 383 lop~ 3000;
#X obj 81 379 lop~ 3000;
#X obj 1011 235 inlet~ LOWPASS;
#X obj 698 716 lop~;
#X obj 698 686 lop~;
#X obj 752 720 lop~;
#X obj 752 690 lop~;
#X obj 952 816 line;
#X obj 1011 257 snapshot~;
#X obj 1011 279 t b f;
#X obj 1069 292 env~;
#X floatatom 1069 336 5 0 0 0 - - - 0;
#X obj 1069 314 > 0;
#X obj 1069 355 sel 1;
#X msg 1069 377 0;
#X obj 1072 194 tgl 15 0 empty empty empty 17 7 0 10 #fcfcfc #000000
#000000 0 1;
#X obj 1072 214 metro 10;
#X obj 1072 167 loadbang;
#X floatatom 1008 715 5 0 0 0 - - - 0;
#X obj 734 430 clip~ 0 0.75;
#X obj 735 307 * 0.75;
#X obj 190 110 cnv 5 5 5 empty empty SIZE 0 0 0 8 #fcfcfc #404040 0
;
#X obj 105 125 cnv 5 5 5 empty empty MEGAVERB 0 0 0 12 #fcfcfc #404040
0;
#X obj 104 111 cnv 5 5 5 empty empty IN 0 0 0 8 #fcfcfc #404040 0;
#X obj 273 111 cnv 5 5 5 empty empty LPASS 0 0 0 8 #fcfcfc #404040
0;
#X obj 951 746 * 9950;
#X obj 701 809 *~ 1;
#X obj 770 810 *~ 1;
#N canvas 326 99 354 202 forwarding 0;
#X obj 12 38 route SIZE DAMPING LOWPASS DRY/WET;
#X obj 12 142 s \$0-megaverb-room-r;
#X obj 62 116 s \$0-megaverb-damping-r;
#X obj 112 90 s \$0-megaverb-lowpass-r;
#X obj 162 64 s \$0-megaverb-dry/wet-r;
#X obj 12 12 inlet;
#X connect 0 0 1 0;
#X connect 0 1 2 0;
#X connect 0 2 3 0;
#X connect 0 3 4 0;
#X connect 5 0 0 0;
#X restore 95 533 pd forwarding;
#X obj 38 507 inlet~ fwd;
#N canvas 476 254 465 344 save-state 0;
#X obj 222 109 f;
#X obj 222 135 pack f f f f;
#X obj 115 183 unpack f f f f;
#X obj 291 90 r \$0-megaverb-dry/wet-s;
#X obj 196 209 s \$0-megaverb-dry/wet-r;
#X obj 268 64 r \$0-megaverb-lowpass-s;
#X obj 169 235 s \$0-megaverb-lowpass-r;
#X obj 245 38 r \$0-megaverb-damping-s;
#X obj 142 261 s \$0-megaverb-damping-r;
#X obj 237 12 r \$0-megaverb-room-s;
#X obj 115 287 s \$0-megaverb-room-r;
#X obj 143 47 savestate;
#X obj 78 27 loadbang;
#X obj 35 157 list store;
#X msg 65 105 1;
#X obj 78 48 t b b;
#X obj 65 84 t b a;
#X obj 12 131 spigot 0;
#X obj 115 131 spigot 1;
#X obj 143 68 t a b;
#X msg 170 105 0;
#X msg 115 157 64 64 64 64;
#X connect 0 0 1 0;
#X connect 1 0 11 0;
#X connect 2 0 10 0;
#X connect 2 1 8 0;
#X connect 2 2 6 0;
#X connect 2 3 4 0;
#X connect 3 0 1 3;
#X connect 5 0 1 2;
#X connect 7 0 1 1;
#X connect 9 0 0 1;
#X connect 11 0 19 0;
#X connect 11 1 0 0;
#X connect 12 0 15 0;
#X connect 13 0 2 0;
#X connect 14 0 17 1;
#X connect 15 0 17 0;
#X connect 15 1 18 0;
#X connect 16 0 14 0;
#X connect 16 1 13 1;
#X connect 17 0 13 0;
#X connect 18 0 21 0;
#X connect 19 0 16 0;
#X connect 19 1 20 0;
#X connect 20 0 18 1;
#X connect 21 0 2 0;
#X restore 328 126 pd save-state;
#X connect 0 0 59 0;
#X connect 1 0 17 0;
#X connect 3 0 4 0;
#X connect 4 0 68 0;
#X connect 5 0 0 0;
#X connect 6 0 7 0;
#X connect 7 0 106 0;
#X connect 7 0 107 0;
#X connect 8 0 9 0;
#X connect 9 0 10 0;
#X connect 10 0 11 0;
#X connect 11 0 12 0;
#X connect 12 0 13 0;
#X connect 13 0 7 1;
#X connect 15 0 16 0;
#X connect 16 0 69 0;
#X connect 17 0 21 0;
#X connect 19 0 100 0;
#X connect 20 0 19 0;
#X connect 21 0 99 0;
#X connect 22 0 30 0;
#X connect 22 0 28 0;
#X connect 23 0 31 1;
#X connect 24 0 33 1;
#X connect 24 0 34 1;
#X connect 25 0 32 1;
#X connect 26 0 34 0;
#X connect 26 0 33 0;
#X connect 27 0 45 0;
#X connect 28 0 44 0;
#X connect 29 0 43 0;
#X connect 30 0 42 0;
#X connect 31 0 35 0;
#X connect 31 0 22 0;
#X connect 31 0 84 0;
#X connect 32 0 22 1;
#X connect 32 0 35 1;
#X connect 32 0 86 0;
#X connect 33 0 29 1;
#X connect 33 0 27 1;
#X connect 34 0 30 1;
#X connect 34 0 28 1;
#X connect 35 0 29 0;
#X connect 35 0 27 0;
#X connect 36 0 47 1;
#X connect 36 0 49 0;
#X connect 36 0 81 0;
#X connect 37 0 50 1;
#X connect 37 0 52 0;
#X connect 37 0 80 0;
#X connect 38 0 55 0;
#X connect 38 0 53 1;
#X connect 38 0 79 0;
#X connect 39 0 58 0;
#X connect 39 0 56 1;
#X connect 39 0 78 0;
#X connect 40 0 106 0;
#X connect 41 0 107 0;
#X connect 46 0 31 0;
#X connect 46 1 32 0;
#X connect 47 0 48 0;
#X connect 48 0 49 1;
#X connect 49 0 23 0;
#X connect 50 0 51 0;
#X connect 51 0 52 1;
#X connect 52 0 25 0;
#X connect 53 0 54 0;
#X connect 54 0 55 1;
#X connect 55 0 26 0;
#X connect 56 0 57 0;
#X connect 57 0 58 1;
#X connect 58 0 24 0;
#X connect 59 0 40 1;
#X connect 59 0 41 1;
#X connect 60 0 70 0;
#X connect 61 0 62 0;
#X connect 62 0 63 0;
#X connect 63 0 64 0;
#X connect 64 0 25 1;
#X connect 64 0 23 1;
#X connect 64 0 26 1;
#X connect 64 0 24 1;
#X connect 68 0 5 0;
#X connect 69 0 60 0;
#X connect 70 0 61 0;
#X connect 71 0 72 0;
#X connect 72 0 75 0;
#X connect 73 0 74 0;
#X connect 73 0 98 0;
#X connect 74 0 87 0;
#X connect 75 0 105 0;
#X connect 76 0 63 1;
#X connect 77 0 76 0;
#X connect 78 0 56 0;
#X connect 79 0 53 0;
#X connect 80 0 50 0;
#X connect 81 0 47 0;
#X connect 82 0 88 0;
#X connect 82 0 90 0;
#X connect 83 0 40 0;
#X connect 84 0 83 0;
#X connect 85 0 41 0;
#X connect 86 0 85 0;
#X connect 87 0 86 1;
#X connect 87 0 85 1;
#X connect 87 0 83 1;
#X connect 87 0 84 1;
#X connect 88 0 89 0;
#X connect 89 0 75 0;
#X connect 89 1 75 1;
#X connect 90 0 92 0;
#X connect 91 0 93 0;
#X connect 92 0 91 0;
#X connect 93 0 94 0;
#X connect 94 0 75 1;
#X connect 95 0 96 0;
#X connect 96 0 88 0;
#X connect 97 0 95 0;
#X connect 99 0 48 1;
#X connect 99 0 51 1;
#X connect 99 0 54 1;
#X connect 99 0 57 1;
#X connect 100 0 1 0;
#X connect 105 0 73 0;
#X connect 106 0 66 0;
#X connect 107 0 67 0;
#X connect 109 0 46 0;
#X connect 109 0 65 0;
#X connect 109 1 108 0;
#X coords 0 -1 1 1 200 100 2 100 100;
