#N canvas 14 26 830 655 10;
#X obj 159 458 / 127;
#X obj 159 480 sig~;
#X obj 248 417 > 0;
#X obj 248 536 pack 0 10;
#X obj 248 558 line~;
#X obj 347 412 / 127;
#X obj 347 434 sig~;
#X obj 167 156 cnv 15 15 15 empty \$0-midi-gui-r empty 20 12 0 14 #fc2828
#fcfcfc 0;
#X obj 275 469 + 12;
#X msg 275 491 color \$1;
#X obj 275 512 s \$0-midi-gui-r;
#X obj 248 448 t f f;
#X obj 159 420 t f f;
#X floatatom 215 156 5 0 0 2 - - - 0;
#X floatatom 103 156 5 0 0 2 - - - 0;
#X obj 103 178 cnv 5 5 5 empty empty NOTE 0 0 0 8 #fcfcfc #404040 0
;
#X obj 165 178 cnv 5 5 5 empty empty GATE 0 0 0 8 #fcfcfc #404040 0
;
#X obj 231 178 cnv 5 5 5 empty empty VEL 0 0 0 8 #fcfcfc #000000 0
;
#X obj 175 110 cnv 5 5 5 empty empty MIDI-IN 0 0 0 12 #fcfcfc #404040
0;
#X obj 248 395 t f f f;
#X obj 106 134 hsl 128 15 0 127 0 0 \$0-midiin-channel-s \$0-midiin-channel-r
MIDI-CHANNEL -2 -8 0 10 #fcfcfc #000000 #000000 0 1;
#X obj 418 93 r \$0-midiin-channel-s;
#X obj 418 115 / 127;
#X obj 418 181 i;
#X obj 418 372 s \$0-midiin-channel-gui-r;
#X floatatom 204 119 5 0 0 0 - \$0-midiin-channel-gui-r - 0;
#X floatatom 418 203 5 0 0 0 - - - 0;
#X obj 418 291 +;
#X obj 601 146 snapshot~;
#X obj 601 173 * 16;
#X obj 601 274 t b f;
#X obj 716 174 env~;
#X obj 716 196 == 0;
#X msg 716 287 0;
#X obj 716 312 t b f;
#X obj 601 218 change;
#X obj 105 109 cnv 5 5 5 empty empty CHANNEL-CV 0 0 0 8 #fcfcfc #404040
0;
#X floatatom 716 240 5 0 0 0 - - - 0;
#X obj 716 259 sel 1;
#X obj 716 218 change;
#X obj 543 46 tgl 15 0 empty empty empty 17 7 0 10 #fcfcfc #000000
#000000 0 1;
#X obj 543 66 metro 20;
#X obj 418 313 i;
#X obj 543 21 loadbang;
#X obj 159 502 outlet~;
#X obj 248 580 outlet~;
#X text 159 522 (O1) Pitch;
#X text 248 600 (O2) Gate;
#X obj 347 456 outlet~;
#X text 347 476 (O3) Velocity;
#X obj 113 212 notein;
#X obj 77 238 pack f f;
#X obj 137 289 list prepend;
#X msg 77 289 0 \$1 \$2;
#X obj 77 259 t l l;
#X obj 418 137 * 16;
#X obj 418 159 + 0.5;
#X obj 418 335 clip 0 16;
#X obj 164 315 r \$0-midiin-channel-gui-r;
#X obj 137 337 route;
#X obj 137 358 unpack f f;
#X obj 137 379 poly 1 1;
#X obj 600 27 inlet~ fwd;
#N canvas 384 159 450 300 forwarding 0;
#X obj 89 56 inlet;
#X obj 89 77 route CHANNEL;
#X obj 89 98 s \$0-midiin-channel-r;
#X connect 0 0 1 0;
#X connect 1 0 2 0;
#X restore 657 53 pd forwarding;
#N canvas 21 22 404 230 save-state 0;
#X obj 224 58 f;
#X obj 239 32 r \$0-midiin-channel-s;
#X obj 115 178 s \$0-midiin-channel-r;
#X obj 143 32 savestate;
#X obj 78 12 loadbang;
#X obj 35 142 list store;
#X msg 65 90 1;
#X obj 78 33 t b b;
#X obj 65 69 t b a;
#X obj 12 116 spigot 0;
#X obj 115 116 spigot 1;
#X obj 143 53 t a b;
#X msg 170 90 0;
#X msg 115 142 0;
#X connect 0 0 3 0;
#X connect 1 0 0 1;
#X connect 3 0 11 0;
#X connect 3 1 0 0;
#X connect 4 0 7 0;
#X connect 5 0 2 0;
#X connect 6 0 9 1;
#X connect 7 0 9 0;
#X connect 7 1 10 0;
#X connect 8 0 6 0;
#X connect 8 1 5 1;
#X connect 9 0 5 0;
#X connect 10 0 13 0;
#X connect 11 0 8 0;
#X connect 11 1 12 0;
#X connect 12 0 10 1;
#X connect 13 0 2 0;
#X restore 279 100 pd save-state;
#X connect 0 0 1 0;
#X connect 1 0 44 0;
#X connect 2 0 11 0;
#X connect 3 0 4 0;
#X connect 4 0 45 0;
#X connect 5 0 6 0;
#X connect 6 0 48 0;
#X connect 8 0 9 0;
#X connect 9 0 10 0;
#X connect 11 0 3 0;
#X connect 11 1 8 0;
#X connect 12 0 0 0;
#X connect 12 1 14 0;
#X connect 19 0 2 0;
#X connect 19 1 5 0;
#X connect 19 2 13 0;
#X connect 21 0 22 0;
#X connect 22 0 55 0;
#X connect 23 0 26 0;
#X connect 26 0 27 0;
#X connect 27 0 42 0;
#X connect 28 0 29 0;
#X connect 29 0 35 0;
#X connect 30 0 27 0;
#X connect 30 1 27 1;
#X connect 31 0 32 0;
#X connect 32 0 39 0;
#X connect 33 0 34 0;
#X connect 34 0 27 0;
#X connect 34 1 27 1;
#X connect 35 0 30 0;
#X connect 37 0 38 0;
#X connect 38 0 33 0;
#X connect 39 0 37 0;
#X connect 40 0 41 0;
#X connect 41 0 28 0;
#X connect 42 0 57 0;
#X connect 43 0 40 0;
#X connect 50 0 51 0;
#X connect 50 1 51 1;
#X connect 50 2 52 1;
#X connect 51 0 54 0;
#X connect 52 0 59 0;
#X connect 53 0 59 0;
#X connect 54 0 53 0;
#X connect 54 1 52 0;
#X connect 55 0 56 0;
#X connect 56 0 23 0;
#X connect 57 0 24 0;
#X connect 58 0 59 1;
#X connect 59 0 60 0;
#X connect 60 0 61 0;
#X connect 60 1 61 1;
#X connect 61 1 12 0;
#X connect 61 2 19 0;
#X connect 62 0 28 0;
#X connect 62 0 31 0;
#X connect 62 1 63 0;
#X coords 0 -1 1 1 150 85 2 100 100;
