#N canvas 415 22 865 550 10;
#X obj 274 117 cnv 15 15 15 empty \$0-midi2-gui-r empty 20 12 0 14
#202020 #fcfcfc 0;
#X floatatom 104 120 5 0 0 2 - - - 0;
#X obj 104 111 cnv 5 5 5 empty empty NOTE 0 0 0 8 #fcfcfc #404040 0
;
#X obj 272 110 cnv 5 5 5 empty empty GATE 0 0 0 8 #fcfcfc #dc4c90 0
;
#X obj 622 121 env~;
#X obj 622 143 > 0;
#X obj 622 166 change;
#X msg 649 248 color \$1;
#X obj 498 36 inlet~ GATE;
#X obj 159 127 cnv 5 5 5 empty empty MIDI-OUT 0 0 0 12 #fcfcfc #404040
0;
#X obj 409 191 snapshot~;
#X obj 409 212 * 127;
#X obj 409 256 clip 0 127;
#X obj 649 270 s \$0-midi2-gui-r;
#X obj 409 307 +;
#X obj 107 156 hsl 128 15 0 127 0 0 \$0-midi-out-offset-s \$0-midi-out-offset-r
PITCH-OFFSET -2 -8 0 10 #90d4b0 #000000 #000000 0 1;
#X obj 427 284 - 64;
#X floatatom 205 142 5 0 0 0 - - - 0;
#X obj 409 234 abs;
#X obj 468 412 f;
#X obj 487 454 * 100;
#X text 248 458 Midi Panic;
#X obj 159 511 ctlout;
#X obj 159 440 until;
#X msg 159 394 16;
#X obj 198 463 + 1;
#X msg 207 440 1;
#X obj 159 462 f;
#X obj 159 417 t f b;
#X msg 159 485 123 123 \$1;
#X obj 622 188 t b f;
#X obj 498 79 threshold~ 0.9 0 0.9 0;
#X obj 649 227 + 12;
#X obj 107 171 hsl 128 15 0 127 0 0 \$0-midiout-channel-s \$0-midiout-channel-r
CHANNEL 135 7 0 10 #fcfcfc #000000 #000000 0 1;
#X obj 159 264 r \$0-midiout-channel-s;
#X obj 159 286 / 127;
#X obj 159 308 * 15;
#X obj 159 330 + 1;
#X obj 159 352 i;
#X floatatom 104 186 5 0 0 0 - - - 0;
#X obj 468 484 noteout;
#X obj 223 127 cnv 5 5 5 empty \$0-instance-num 0 0 0 0 12 #fcfcfc
#404040 0;
#X msg 707 210 0;
#X obj 707 182 loadbang;
#X text 11 17 (The MIDI-OUT module has been updated and improved for
Automatonism v2.0 by Laurent Houdard.);
#N canvas 676 22 463 287 save-state 0;
#X obj 234 60 f;
#X obj 234 103 pack f f;
#X obj 115 180 unpack f f;
#X obj 249 12 r \$0-midi-out-offset-s;
#X obj 115 232 s \$0-midi-out-offset-r;
#X obj 279 59 r \$0-midiout-channel-s;
#X obj 172 208 s \$0-midiout-channel-r;
#X obj 143 44 savestate;
#X obj 78 24 loadbang;
#X obj 35 154 list store;
#X msg 65 102 1;
#X obj 78 45 t b b;
#X obj 65 81 t b a;
#X obj 12 128 spigot 0;
#X obj 115 128 spigot 1;
#X obj 143 65 t a b;
#X msg 170 102 0;
#X msg 115 154 64 0;
#X connect 0 0 1 0;
#X connect 1 0 7 0;
#X connect 2 0 4 0;
#X connect 2 1 6 0;
#X connect 3 0 0 1;
#X connect 5 0 1 1;
#X connect 7 0 15 0;
#X connect 7 1 0 0;
#X connect 8 0 11 0;
#X connect 9 0 2 0;
#X connect 10 0 13 1;
#X connect 11 0 13 0;
#X connect 11 1 14 0;
#X connect 12 0 10 0;
#X connect 12 1 9 1;
#X connect 13 0 9 0;
#X connect 14 0 17 0;
#X connect 15 0 12 0;
#X connect 15 1 16 0;
#X connect 16 0 14 1;
#X connect 17 0 2 0;
#X restore 629 374 pd save-state;
#X obj 408 37 inlet~ fwd;
#N canvas 68 96 288 165 forwarding 0;
#X obj 25 97 s \$0-midi-out-offset-r;
#X obj 83 73 s \$0-midiout-channel-r;
#X obj 25 25 inlet;
#X obj 25 46 route OFFSET CHANNEL;
#X connect 2 0 3 0;
#X connect 3 0 0 0;
#X connect 3 1 1 0;
#X restore 437 80 pd forwarding;
#X connect 4 0 5 0;
#X connect 5 0 6 0;
#X connect 6 0 30 0;
#X connect 7 0 13 0;
#X connect 8 0 4 0;
#X connect 8 0 31 0;
#X connect 10 0 11 0;
#X connect 11 0 18 0;
#X connect 12 0 14 0;
#X connect 12 0 1 0;
#X connect 14 0 19 1;
#X connect 15 0 16 0;
#X connect 16 0 17 0;
#X connect 16 0 14 1;
#X connect 18 0 12 0;
#X connect 19 0 40 0;
#X connect 20 0 40 1;
#X connect 23 0 27 0;
#X connect 24 0 28 0;
#X connect 25 0 27 1;
#X connect 26 0 27 1;
#X connect 27 0 25 0;
#X connect 27 0 29 0;
#X connect 28 0 23 0;
#X connect 28 1 26 0;
#X connect 29 0 22 0;
#X connect 30 0 19 0;
#X connect 30 1 20 0;
#X connect 30 1 32 0;
#X connect 31 0 10 0;
#X connect 32 0 7 0;
#X connect 34 0 35 0;
#X connect 35 0 36 0;
#X connect 36 0 37 0;
#X connect 37 0 38 0;
#X connect 38 0 39 0;
#X connect 39 0 24 0;
#X connect 39 0 40 2;
#X connect 42 0 32 0;
#X connect 43 0 42 0;
#X connect 46 0 10 0;
#X coords 0 -1 1 1 200 105 2 100 100;
