#N canvas 0 23 925 752 10;
#N canvas 170 51 450 300 reverberator-1 0;
#X obj 134 108 inlet~;
#X obj 204 109 inlet~;
#X obj 134 153 +~;
#X obj 189 152 -~;
#X obj 134 204 outlet~;
#X obj 186 223 outlet~;
#X obj 189 174 delwrite~ \$0-echo1 5.43216;
#X obj 186 201 delread~ \$0-echo1 5.43216;
#X connect 0 0 2 0;
#X connect 0 0 3 0;
#X connect 1 0 3 1;
#X connect 1 0 2 1;
#X connect 2 0 4 0;
#X connect 3 0 6 0;
#X connect 7 0 5 0;
#X restore 366 57 pd reverberator-1;
#N canvas 0 22 450 300 reverberator-2 0;
#X obj 134 108 inlet~;
#X obj 204 109 inlet~;
#X obj 134 153 +~;
#X obj 189 152 -~;
#X obj 134 204 outlet~;
#X obj 186 223 outlet~;
#X obj 186 201 delread~ \$0-echo2 8.45346;
#X obj 189 174 delwrite~ \$0-echo2 8.45346;
#X connect 0 0 2 0;
#X connect 0 0 3 0;
#X connect 1 0 3 1;
#X connect 1 0 2 1;
#X connect 2 0 4 0;
#X connect 3 0 7 0;
#X connect 6 0 5 0;
#X restore 366 93 pd reverberator-2;
#N canvas 0 22 450 300 reverberator-3 0;
#X obj 134 108 inlet~;
#X obj 204 109 inlet~;
#X obj 134 153 +~;
#X obj 189 152 -~;
#X obj 134 204 outlet~;
#X obj 186 223 outlet~;
#X obj 186 201 delread~ \$0-echo3 13.4367;
#X obj 189 174 delwrite~ \$0-echo3 13.4367;
#X connect 0 0 2 0;
#X connect 0 0 3 0;
#X connect 1 0 3 1;
#X connect 1 0 2 1;
#X connect 2 0 4 0;
#X connect 3 0 7 0;
#X connect 6 0 5 0;
#X restore 366 124 pd reverberator-3;
#N canvas 0 22 450 300 reverberator-4 0;
#X obj 134 108 inlet~;
#X obj 204 109 inlet~;
#X obj 134 153 +~;
#X obj 189 152 -~;
#X obj 134 204 outlet~;
#X obj 186 223 outlet~;
#X obj 189 174 delwrite~ \$0-echo4 21.5463;
#X obj 186 200 delread~ \$0-echo4 21.5463;
#X connect 0 0 2 0;
#X connect 0 0 3 0;
#X connect 1 0 3 1;
#X connect 1 0 2 1;
#X connect 2 0 4 0;
#X connect 3 0 6 0;
#X connect 7 0 5 0;
#X restore 366 156 pd reverberator-4;
#N canvas 0 22 450 300 reverberator-5 0;
#X obj 134 108 inlet~;
#X obj 204 109 inlet~;
#X obj 134 153 +~;
#X obj 189 152 -~;
#X obj 134 204 outlet~;
#X obj 186 223 outlet~;
#X obj 189 174 delwrite~ \$0-echo5 34.3876;
#X obj 186 201 delread~ \$0-echo5 34.3876;
#X connect 0 0 2 0;
#X connect 0 0 3 0;
#X connect 1 0 3 1;
#X connect 1 0 2 1;
#X connect 2 0 4 0;
#X connect 3 0 6 0;
#X connect 7 0 5 0;
#X restore 366 185 pd reverberator-5;
#N canvas 0 22 450 300 reverberator-6 0;
#X obj 134 108 inlet~;
#X obj 204 109 inlet~;
#X obj 134 153 +~;
#X obj 189 152 -~;
#X obj 134 204 outlet~;
#X obj 186 223 outlet~;
#X obj 189 174 delwrite~ \$0-echo6 55.5437;
#X obj 186 200 delread~ \$0-echo6 55.5437;
#X connect 0 0 2 0;
#X connect 0 0 3 0;
#X connect 1 0 3 1;
#X connect 1 0 2 1;
#X connect 2 0 4 0;
#X connect 3 0 6 0;
#X connect 7 0 5 0;
#X restore 366 217 pd reverberator-6;
#X obj 366 340 +~;
#X obj 465 340 +~;
#X obj 366 421 +~;
#X obj 410 421 -~;
#X obj 465 421 +~;
#X obj 482 459 -~;
#X obj 366 459 +~;
#X obj 410 459 +~;
#X obj 497 421 -~;
#X obj 450 459 -~;
#X obj 410 507 *~;
#X obj 366 507 *~;
#X obj 482 507 *~;
#X obj 450 507 *~;
#X obj 106 131 hsl 128 15 0 127 0 1 \$0-millerverb-reverb-s \$0-millerverb-reverb-r
REVERB 133 7 0 10 #fcfcfc #000000 #000000 6300 1;
#X obj 366 645 delwrite~ \$0-loop1 60;
#X obj 410 622 delwrite~ \$0-loop2 71.9345;
#X obj 492 147 delread~ \$0-loop1 60;
#X obj 499 179 delread~ \$0-loop2 71.9345;
#X obj 450 595 delwrite~ \$0-loop3 86.754;
#X obj 482 565 delwrite~ \$0-loop4 95.945;
#X obj 553 294 delread~ \$0-loop3 86.754;
#X obj 516 261 delread~ \$0-loop4 95.945;
#X obj 586 353 / 127;
#X obj 222 404 lop~;
#X obj 222 434 lop~;
#X obj 289 404 lop~;
#X obj 289 434 lop~;
#X obj 106 147 hsl 128 15 0 127 0 1 \$0-millerverb-lowpass-s \$0-millerverb-lowpass-r
LOWPASS 133 7 0 10 #fcfcfc #000000 #000000 6300 1;
#X obj 132 203 / 127;
#X obj 132 247 * 4950;
#X obj 132 269 + 50;
#X obj 132 291 pack 0 50;
#X obj 132 313 line;
#X obj 132 335 t f f f f;
#X obj 222 357 *~ 0.033;
#X obj 289 357 *~ 0.033;
#X obj 106 124 cnv 5 5 5 empty empty MILLERVERB 0 0 0 12 #fcfcfc #404040
0;
#X obj 259 207 cnv 5 5 5 empty empty RIGHT 0 0 0 8 #fcfcfc #404040
0;
#X obj 257 111 cnv 5 5 5 empty empty LPASS 0 0 0 8 #fcfcfc #404040
0;
#X obj 104 206 cnv 5 5 5 empty empty LEFT 0 0 0 8 #fcfcfc #404040 0
;
#X obj 106 161 hsl 128 15 0 127 0 1 \$0-millerverb-drywet-s \$0-millerverb-drywet-r
DRY/WET 133 7 0 10 #fcfcfc #000000 #000000 6300 1;
#X obj 171 495 *~;
#X text 135 495 DRY;
#X obj 4 309 / 127;
#X msg 4 262 127 \$1;
#X obj 4 284 -;
#X obj 4 334 pack 0 50;
#X obj 4 356 line~;
#X obj 65 296 / 127;
#X obj 65 320 pack 0 50;
#X obj 65 342 line~;
#X obj 222 473 *~;
#X obj 289 472 *~;
#X obj 4 221 t f f;
#X obj 656 380 inlet~;
#X obj 656 402 *~ 0.452;
#X obj 586 402 pack 0 50;
#X obj 586 424 line~;
#X obj 586 446 +~;
#X text 654 361 REVERB CV IN;
#X obj 809 153 inlet~;
#X obj 132 225 +;
#X obj 809 184 snapshot~;
#X obj 809 208 t b f;
#X obj 857 153 bang~;
#X obj 586 490 max~ -0.452;
#X obj 103 111 cnv 5 5 5 empty empty IN 0 0 0 8 #fcfcfc #404040 0;
#X obj 178 111 cnv 5 5 5 empty empty REVERB 0 0 0 8 #fcfcfc #404040
0;
#X obj 222 610 *~ 0.5;
#X obj 288 635 *~;
#X obj 221 635 *~;
#X obj 288 675 clip~ -1 1;
#X obj 222 713 outlet~;
#X obj 288 713 outlet~;
#X obj 106 176 hsl 128 15 0 127 0 1 \$0-millerverb-gain-s \$0-millerverb-gain-r
GAIN 133 7 0 10 #fcfcfc #000000 #000000 6300 1;
#X obj 21 515 r \$0-millerverb-gain-s;
#X obj 21 537 / 127;
#X obj 21 624 pack 0 50;
#X obj 21 646 line~;
#X obj 21 581 + 1;
#X obj 21 559 * 4;
#X obj 290 600 *~ 0.5;
#X obj 180 124 cnv 5 5 5 empty \$0-instance-num 0 0 0 0 12 #fcfcfc
#404040 0;
#X obj 221 662 clip~ -1 1;
#X obj 586 377 * 0.5;
#X obj 586 468 min~ 0.452;
#X obj 366 14 inlet~ fwd;
#N canvas 401 22 366 204 forwarding 0;
#X obj 15 45 route REVERB LOWPASS DRY/WET GAIN;
#X obj 16 151 s \$0-millerverb-reverb-r;
#X obj 53 129 s \$0-millerverb-lowpass-r;
#X obj 109 102 s \$0-millerverb-drywet-r;
#X obj 177 76 s \$0-millerverb-gain-r;
#X obj 15 13 inlet;
#X connect 0 0 1 0;
#X connect 0 1 2 0;
#X connect 0 2 3 0;
#X connect 0 3 4 0;
#X connect 5 0 0 0;
#X restore 423 35 pd forwarding;
#N canvas 539 131 491 373 save-state 0;
#X obj 223 109 f;
#X obj 245 12 r \$0-millerverb-reverb-s;
#X obj 258 50 r \$0-millerverb-lowpass-s;
#X obj 287 78 r \$0-millerverb-drywet-s;
#X obj 115 328 s \$0-millerverb-reverb-r;
#X obj 184 280 s \$0-millerverb-drywet-r;
#X obj 149 302 s \$0-millerverb-lowpass-r;
#X obj 233 152 pack f f f f;
#X obj 317 114 r \$0-millerverb-gain-s;
#X obj 115 229 unpack f f f f;
#X obj 207 256 s \$0-millerverb-gain-r;
#X obj 143 85 savestate;
#X obj 78 65 loadbang;
#X obj 35 195 list store;
#X msg 65 143 1;
#X obj 78 86 t b b;
#X obj 65 122 t b a;
#X obj 12 169 spigot 0;
#X obj 115 169 spigot 1;
#X obj 143 106 t a b;
#X msg 170 143 0;
#X msg 115 195 63 63 63 63;
#X connect 0 0 7 0;
#X connect 1 0 0 1;
#X connect 2 0 7 1;
#X connect 3 0 7 2;
#X connect 7 0 11 0;
#X connect 8 0 7 3;
#X connect 9 0 4 0;
#X connect 9 1 6 0;
#X connect 9 2 5 0;
#X connect 9 3 10 0;
#X connect 11 0 19 0;
#X connect 11 1 0 0;
#X connect 12 0 15 0;
#X connect 13 0 9 0;
#X connect 14 0 17 1;
#X connect 15 0 17 0;
#X connect 15 1 18 0;
#X connect 16 0 14 0;
#X connect 16 1 13 1;
#X connect 17 0 13 0;
#X connect 18 0 21 0;
#X connect 19 0 16 0;
#X connect 19 1 20 0;
#X connect 20 0 18 1;
#X connect 21 0 9 0;
#X restore 782 330 pd save-state;
#X connect 0 0 1 0;
#X connect 0 1 1 1;
#X connect 1 0 2 0;
#X connect 1 1 2 1;
#X connect 2 0 3 0;
#X connect 2 1 3 1;
#X connect 3 0 4 0;
#X connect 3 1 4 1;
#X connect 4 0 5 0;
#X connect 4 1 5 1;
#X connect 5 0 6 0;
#X connect 5 1 7 0;
#X connect 6 0 8 0;
#X connect 6 0 9 0;
#X connect 6 0 41 0;
#X connect 7 0 8 1;
#X connect 7 0 9 1;
#X connect 7 0 42 0;
#X connect 8 0 12 0;
#X connect 8 0 15 0;
#X connect 9 0 13 0;
#X connect 9 0 11 0;
#X connect 10 0 12 1;
#X connect 10 0 15 1;
#X connect 11 0 18 0;
#X connect 12 0 17 0;
#X connect 13 0 16 0;
#X connect 14 0 11 1;
#X connect 14 0 13 1;
#X connect 15 0 19 0;
#X connect 16 0 22 0;
#X connect 17 0 21 0;
#X connect 18 0 26 0;
#X connect 19 0 25 0;
#X connect 20 0 29 0;
#X connect 23 0 6 1;
#X connect 24 0 7 1;
#X connect 27 0 10 0;
#X connect 27 0 14 0;
#X connect 28 0 10 1;
#X connect 28 0 14 1;
#X connect 29 0 91 0;
#X connect 30 0 31 0;
#X connect 31 0 58 0;
#X connect 32 0 33 0;
#X connect 33 0 59 0;
#X connect 34 0 35 0;
#X connect 35 0 68 0;
#X connect 36 0 37 0;
#X connect 37 0 38 0;
#X connect 38 0 39 0;
#X connect 39 0 40 0;
#X connect 40 0 30 1;
#X connect 40 1 31 1;
#X connect 40 2 32 1;
#X connect 40 3 33 1;
#X connect 41 0 30 0;
#X connect 42 0 32 0;
#X connect 47 0 60 0;
#X connect 48 0 75 0;
#X connect 48 0 88 0;
#X connect 50 0 53 0;
#X connect 51 0 52 0;
#X connect 52 0 50 0;
#X connect 53 0 54 0;
#X connect 54 0 48 1;
#X connect 55 0 56 0;
#X connect 56 0 57 0;
#X connect 57 0 58 1;
#X connect 57 0 59 1;
#X connect 58 0 75 0;
#X connect 59 0 88 0;
#X connect 60 0 51 0;
#X connect 60 1 55 0;
#X connect 61 0 62 0;
#X connect 62 0 65 1;
#X connect 63 0 64 0;
#X connect 64 0 65 0;
#X connect 65 0 92 0;
#X connect 67 0 69 0;
#X connect 68 0 36 0;
#X connect 69 0 70 0;
#X connect 70 0 68 0;
#X connect 70 1 68 1;
#X connect 71 0 69 0;
#X connect 72 0 18 1;
#X connect 72 0 19 1;
#X connect 72 0 16 1;
#X connect 72 0 17 1;
#X connect 75 0 77 0;
#X connect 76 0 78 0;
#X connect 77 0 90 0;
#X connect 78 0 80 0;
#X connect 82 0 83 0;
#X connect 83 0 87 0;
#X connect 84 0 85 0;
#X connect 85 0 77 1;
#X connect 85 0 76 1;
#X connect 86 0 84 0;
#X connect 87 0 86 0;
#X connect 88 0 76 0;
#X connect 90 0 79 0;
#X connect 91 0 63 0;
#X connect 92 0 72 0;
#X connect 93 0 0 0;
#X connect 93 0 48 0;
#X connect 93 1 94 0;
#X coords 0 -1 1 1 185 115 2 100 100;
