#N canvas 0 23 780 489 10;
#X obj 348 195 *~;
#X obj 348 364 outlet~;
#X obj 108 134 hsl 128 15 0 127 0 1 \$0-mixer-channel1-s \$0-mixer-channel1-r
CH1 133 7 0 10 #fcfcfc #000000 #000000 12700 1;
#X obj 363 129 / 127;
#X obj 363 151 pack 0 50;
#X obj 363 173 line~;
#X obj 444 80 inlet~;
#X obj 444 191 *~;
#X obj 459 125 / 127;
#X obj 459 147 pack 0 50;
#X obj 459 169 line~;
#X obj 540 81 inlet~;
#X obj 540 192 *~;
#X obj 555 126 / 127;
#X obj 555 148 pack 0 50;
#X obj 555 170 line~;
#X obj 629 81 inlet~;
#X obj 629 192 *~;
#X obj 644 126 / 127;
#X obj 644 148 pack 0 50;
#X obj 644 170 line~;
#X obj 108 149 hsl 128 15 0 127 0 1 \$0-mixer-channel2-s \$0-mixer-channel2-r
CH2 133 7 0 10 #fcfcfc #000000 #000000 12700 1;
#X obj 108 164 hsl 128 15 0 127 0 1 \$0-mixer-channel3-s \$0-mixer-channel3-r
CH3 133 7 0 10 #fcfcfc #000000 #000000 12700 1;
#X obj 108 179 hsl 128 15 0 127 0 1 \$0-mixer-channel4-s \$0-mixer-channel4-r
CH4 133 7 0 10 #fcfcfc #000000 #000000 12700 1;
#X obj 152 125 cnv 5 5 5 empty empty MIXER4 0 0 0 12 #fcfcfc #404040
0;
#X obj 246 203 cnv 5 5 5 empty empty UNITY 0 0 0 8 #fcfcfc #404040
0;
#X obj 255 111 cnv 5 5 5 empty empty CH4 0 0 0 8 #fcfcfc #404040 0
;
#X obj 103 111 cnv 5 5 5 empty empty CH1 0 0 0 8 #fcfcfc #404040 0
;
#X obj 153 111 cnv 5 5 5 empty empty CH2 0 0 0 8 #fcfcfc #404040 0
;
#X obj 208 111 cnv 5 5 5 empty empty CH3 0 0 0 8 #fcfcfc #404040 0
;
#X obj 348 332 *~ 0.25;
#X obj 207 125 cnv 5 5 5 empty \$0-instance-num 0 0 0 0 12 #fcfcfc
#404040 0;
#X obj 542 352 outlet~ UNITY;
#X obj 103 203 cnv 5 5 5 empty empty OUT 0 0 0 8 #fcfcfc #404040 0
;
#N canvas 635 181 494 380 save-state 0;
#X obj 113 180 unpack f f f f;
#X obj 230 117 pack f f f f;
#X obj 230 74 f;
#X obj 245 26 r \$0-mixer-channel1-s;
#X obj 253 50 r \$0-mixer-channel2-s;
#X obj 276 70 r \$0-mixer-channel3-s;
#X obj 299 91 r \$0-mixer-channel4-s;
#X obj 194 215 s \$0-mixer-channel4-r;
#X obj 167 245 s \$0-mixer-channel3-r;
#X obj 140 271 s \$0-mixer-channel2-r;
#X obj 113 294 s \$0-mixer-channel1-r;
#X obj 143 44 savestate;
#X obj 78 24 loadbang;
#X obj 35 154 list store;
#X msg 65 102 1;
#X obj 78 45 t b b;
#X obj 65 81 t b a;
#X obj 12 128 spigot 0;
#X obj 115 128 spigot 1;
#X obj 143 65 t a b;
#X msg 170 102 0;
#X msg 115 154 127 127 127 127;
#X connect 0 0 10 0;
#X connect 0 1 9 0;
#X connect 0 2 8 0;
#X connect 0 3 7 0;
#X connect 1 0 11 0;
#X connect 2 0 1 0;
#X connect 3 0 2 1;
#X connect 4 0 1 1;
#X connect 5 0 1 2;
#X connect 6 0 1 3;
#X connect 11 0 19 0;
#X connect 11 1 2 0;
#X connect 12 0 15 0;
#X connect 13 0 0 0;
#X connect 14 0 17 1;
#X connect 15 0 17 0;
#X connect 15 1 18 0;
#X connect 16 0 14 0;
#X connect 16 1 13 1;
#X connect 17 0 13 0;
#X connect 18 0 21 0;
#X connect 19 0 16 0;
#X connect 19 1 20 0;
#X connect 20 0 18 1;
#X connect 21 0 0 0;
#X restore 40 316 pd save-state;
#N canvas 531 26 342 243 forwarding 0;
#X obj 22 53 route CH1 CH2 CH3 CH4;
#X obj 20 170 s \$0-mixer-channel1-r;
#X obj 62 144 s \$0-mixer-channel2-r;
#X obj 97 121 s \$0-mixer-channel3-r;
#X obj 137 94 s \$0-mixer-channel4-r;
#X obj 22 21 inlet;
#X connect 0 0 1 0;
#X connect 0 1 2 0;
#X connect 0 2 3 0;
#X connect 0 3 4 0;
#X connect 5 0 0 0;
#X restore 409 55 pd forwarding;
#X obj 348 34 inlet~ fwd;
#X connect 0 0 30 0;
#X connect 0 0 32 0;
#X connect 2 0 3 0;
#X connect 3 0 4 0;
#X connect 4 0 5 0;
#X connect 5 0 0 1;
#X connect 6 0 7 0;
#X connect 7 0 30 0;
#X connect 7 0 32 0;
#X connect 8 0 9 0;
#X connect 9 0 10 0;
#X connect 10 0 7 1;
#X connect 11 0 12 0;
#X connect 12 0 30 0;
#X connect 12 0 32 0;
#X connect 13 0 14 0;
#X connect 14 0 15 0;
#X connect 15 0 12 1;
#X connect 16 0 17 0;
#X connect 17 0 30 0;
#X connect 17 0 32 0;
#X connect 18 0 19 0;
#X connect 19 0 20 0;
#X connect 20 0 17 1;
#X connect 21 0 8 0;
#X connect 22 0 13 0;
#X connect 23 0 18 0;
#X connect 30 0 1 0;
#X connect 36 0 0 0;
#X connect 36 1 35 0;
#X coords 0 -1 1 1 175 110 2 100 100;
