#N canvas 135 53 934 711 10;
#X obj 302 373 *~;
#X obj 302 463 clip~ -1 1;
#X obj 302 662 outlet~;
#X obj 108 147 hsl 128 15 0 127 0 1 \$0-overdrive-tone-s \$0-overdrive-tone-r
TONE 135 7 0 10 #fcfcfc #000000 #000000 6400 1;
#X obj 317 305 pack 0 50;
#X obj 317 327 line~;
#X obj 317 349 +~;
#X obj 382 310 inlet~ DRIVE-CV;
#X obj 108 132 hsl 128 15 0 127 0 1 \$0-overdrive-drive-s \$0-overdrive-drive-r
DRIVE 135 7 0 10 #fcfcfc #000000 #000000 6400 1;
#X obj 604 243 * 0.00787402;
#X obj 604 267 * 9900;
#X obj 604 289 + 100;
#X obj 317 217 r \$0-overdrive-drive-s;
#X obj 317 239 * 0.00787402;
#X obj 302 417 lop~;
#X obj 302 439 lop~;
#X obj 302 515 lop~;
#X obj 302 537 lop~;
#X obj 604 333 line;
#X obj 604 400 t f f f f;
#X obj 105 123 cnv 5 5 5 empty empty OVERDRIVE 0 0 0 12 #fcfcfc #404040
0;
#X obj 176 109 cnv 5 5 5 empty empty DRIVE 0 0 0 8 #fcfcfc #404040
0;
#X obj 104 109 cnv 5 5 5 empty empty IN 0 0 0 8 #fcfcfc #404040 0;
#X obj 252 108 cnv 5 5 5 empty empty TONE 0 0 0 8 #fcfcfc #404040 0
;
#X obj 725 56 inlet~ TONE-CV;
#X obj 725 166 snapshot~;
#X obj 604 355 +;
#X obj 604 377 clip 100 10000;
#X obj 833 105 env~;
#X obj 833 127 change;
#X obj 833 149 t b;
#X obj 604 218 r \$0-overdrive-tone-s;
#X obj 303 195 hip~;
#X obj 489 46 / 127;
#X obj 489 68 * 450;
#X obj 489 90 + 50;
#X obj 302 492 expr~ $v1-pow($v1 \, 3)/3;
#X obj 302 615 biquad~ 1.923 -0.92564 0.985317 -1.923 0.940323;
#X obj 489 20 r \$0-overdrive-tone-s;
#X obj 489 134 line;
#X obj 489 156 +;
#X obj 489 178 clip 50 500;
#X obj 674 433 / 127;
#X obj 674 455 * 480;
#X obj 674 477 + 20;
#X obj 725 188 s \$0-overdrive-tone-cv;
#X obj 673 265 r \$0-overdrive-tone-cv;
#X obj 673 288 * 9900;
#X obj 673 338 t b f;
#X obj 556 73 r \$0-overdrive-tone-cv;
#X obj 556 95 * 450;
#X obj 556 139 t b f;
#X obj 674 543 +;
#X obj 674 565 t f f;
#X obj 674 408 r \$0-overdrive-tone-s;
#X obj 746 482 r \$0-overdrive-tone-cv;
#X obj 746 504 * 480;
#X obj 746 526 t b f;
#X obj 302 640 clip~ -1 1;
#X obj 317 283 + 2;
#X obj 489 112 pack 0 50;
#X obj 604 311 pack 0 50;
#X obj 674 499 pack 0 50;
#X obj 302 565 hip~;
#X obj 302 587 hip~;
#X obj 674 521 t f f;
#X obj 674 587 sig~;
#X obj 674 609 lop~ 10;
#X obj 674 631 snapshot~;
#X obj 674 653 t f f;
#X obj 769 614 bang~;
#X msg 871 213 0;
#X obj 871 187 sel 0;
#X obj 871 235 s \$0-cv-rst;
#X obj 719 289 r \$0-cv-rst;
#X obj 796 539 r \$0-cv-rst;
#X obj 599 95 r \$0-cv-rst;
#X obj 725 78 lop~ 100;
#X obj 317 261 * 499;
#X obj 382 332 *~ 499;
#X obj 302 395 +~ 0.1;
#N canvas 477 22 445 292 save-state 0;
#X obj 233 80 f;
#X obj 233 123 pack f f;
#X obj 115 190 unpack f f;
#X obj 248 32 r \$0-overdrive-drive-s;
#X obj 115 242 s \$0-overdrive-drive-r;
#X obj 278 79 r \$0-overdrive-tone-s;
#X obj 172 218 s \$0-overdrive-tone-r;
#X obj 143 44 savestate;
#X obj 78 24 loadbang;
#X obj 35 154 list store;
#X msg 65 102 1;
#X obj 78 45 t b b;
#X obj 65 81 t b a;
#X obj 12 128 spigot 0;
#X obj 115 128 spigot 1;
#X obj 143 65 t a b;
#X msg 170 102 0;
#X msg 115 154 64 64;
#X connect 0 0 1 0;
#X connect 1 0 7 0;
#X connect 2 0 4 0;
#X connect 2 1 6 0;
#X connect 3 0 0 1;
#X connect 5 0 1 1;
#X connect 7 0 15 0;
#X connect 7 1 0 0;
#X connect 8 0 11 0;
#X connect 9 0 2 0;
#X connect 10 0 13 1;
#X connect 11 0 13 0;
#X connect 11 1 14 0;
#X connect 12 0 10 0;
#X connect 12 1 9 1;
#X connect 13 0 9 0;
#X connect 14 0 17 0;
#X connect 15 0 12 0;
#X connect 15 1 16 0;
#X connect 16 0 14 1;
#X connect 17 0 2 0;
#X restore 22 382 pd save-state;
#N canvas 531 26 244 159 forwarding 0;
#X obj 21 50 route DRIVE TONE;
#X obj 22 96 s \$0-overdrive-drive-r;
#X obj 59 74 s \$0-overdrive-tone-r;
#X obj 21 18 inlet;
#X connect 0 0 1 0;
#X connect 0 1 2 0;
#X connect 3 0 0 0;
#X restore 360 141 pd forwarding;
#X obj 303 115 inlet~ fwd;
#X connect 0 0 80 0;
#X connect 1 0 36 0;
#X connect 4 0 5 0;
#X connect 5 0 6 0;
#X connect 6 0 0 1;
#X connect 7 0 79 0;
#X connect 9 0 10 0;
#X connect 10 0 11 0;
#X connect 11 0 61 0;
#X connect 12 0 13 0;
#X connect 13 0 78 0;
#X connect 14 0 15 0;
#X connect 15 0 1 0;
#X connect 16 0 17 0;
#X connect 17 0 63 0;
#X connect 18 0 26 0;
#X connect 19 0 14 1;
#X connect 19 1 15 1;
#X connect 19 2 16 1;
#X connect 19 3 17 1;
#X connect 24 0 28 0;
#X connect 24 0 77 0;
#X connect 25 0 45 0;
#X connect 26 0 27 0;
#X connect 27 0 19 0;
#X connect 28 0 29 0;
#X connect 29 0 30 0;
#X connect 29 0 72 0;
#X connect 30 0 25 0;
#X connect 31 0 9 0;
#X connect 32 0 0 0;
#X connect 33 0 34 0;
#X connect 34 0 35 0;
#X connect 35 0 60 0;
#X connect 36 0 16 0;
#X connect 37 0 58 0;
#X connect 38 0 33 0;
#X connect 39 0 40 0;
#X connect 40 0 41 0;
#X connect 41 0 32 1;
#X connect 42 0 43 0;
#X connect 43 0 44 0;
#X connect 44 0 62 0;
#X connect 46 0 47 0;
#X connect 47 0 48 0;
#X connect 48 0 26 0;
#X connect 48 1 26 1;
#X connect 49 0 50 0;
#X connect 50 0 51 0;
#X connect 51 0 40 0;
#X connect 51 1 40 1;
#X connect 52 0 53 0;
#X connect 53 0 66 0;
#X connect 54 0 42 0;
#X connect 55 0 56 0;
#X connect 56 0 57 0;
#X connect 57 0 52 0;
#X connect 57 1 52 1;
#X connect 58 0 2 0;
#X connect 59 0 4 0;
#X connect 60 0 39 0;
#X connect 61 0 18 0;
#X connect 62 0 65 0;
#X connect 63 0 64 0;
#X connect 64 0 37 0;
#X connect 65 0 52 0;
#X connect 66 0 67 0;
#X connect 67 0 68 0;
#X connect 68 0 69 0;
#X connect 69 0 63 1;
#X connect 69 1 64 1;
#X connect 70 0 68 0;
#X connect 71 0 73 0;
#X connect 72 0 71 0;
#X connect 74 0 48 0;
#X connect 75 0 57 0;
#X connect 76 0 51 0;
#X connect 77 0 25 0;
#X connect 78 0 59 0;
#X connect 79 0 6 1;
#X connect 80 0 14 0;
#X connect 83 0 32 0;
#X connect 83 1 82 0;
#X coords 0 -1 1 1 175 75 2 100 100;
