#N canvas 0 23 1168 643 10;
#X obj 320 338 +~;
#X obj 346 154 rzero_rev~;
#X obj 346 176 rpole~;
#X obj 346 198 rzero_rev~;
#X obj 346 220 rpole~;
#X obj 346 245 rzero_rev~;
#X obj 346 267 rpole~;
#X obj 346 289 rzero_rev~;
#X obj 346 311 rpole~;
#X obj 453 69 phasor~ 0.3;
#X obj 453 91 expr~ abs ($v1-0.5);
#X obj 453 113 expr~ 0.97 - 0.6*$v1*$v1;
#X obj 320 508 outlet~;
#X obj 106 128 hsl 128 15 0 127 0 1 \$0-phasor-phasor-s \$0-phasor-phasor-r
PHASOR 133 7 0 10 #fcfcfc #000000 #000000 6400 1;
#X obj 123 490 mtof~;
#X obj 641 392 inlet~;
#X obj 123 458 +~;
#X obj 641 414 *~ 127;
#X obj 122 224 t f f;
#X obj 122 246 sig~;
#X obj 122 268 lop~ 10;
#X obj 320 360 *~ 0.5;
#X obj 318 89 hip~ 10;
#X obj 320 382 hip~ 5;
#X obj 320 404 max~ -1;
#X obj 320 426 min~ 1;
#X obj 122 203 - 96;
#X text 635 373 PHASOR CV IN;
#X obj 244 108 cnv 5 5 5 empty empty PHASOR 0 0 0 8 #fcfcfc #7474a4
0;
#X obj 103 108 cnv 5 5 5 empty empty IN 0 0 0 8 #fcfcfc #404040 0;
#X obj 103 167 cnv 5 5 5 empty empty LEFT 0 0 0 8 #fcfcfc #404040 0
;
#X obj 532 494 *~ -1;
#X obj 532 516 outlet~;
#X obj 532 333 +~;
#X obj 558 149 rzero_rev~;
#X obj 558 171 rpole~;
#X obj 558 193 rzero_rev~;
#X obj 558 215 rpole~;
#X obj 558 240 rzero_rev~;
#X obj 558 262 rpole~;
#X obj 558 284 rzero_rev~;
#X obj 558 306 rpole~;
#X obj 665 64 phasor~ 0.3;
#X obj 665 86 expr~ abs ($v1-0.5);
#X obj 665 108 expr~ 0.97 - 0.6*$v1*$v1;
#X obj 532 357 *~ 0.5;
#X obj 532 379 hip~ 5;
#X obj 532 401 max~ -1;
#X obj 532 423 min~ 1;
#X obj 665 35 +~ 0.1;
#X obj 249 167 cnv 5 5 5 empty empty RIGHT 0 0 0 8 #fcfcfc #404040
0;
#X obj 106 143 hsl 128 15 0 127 0 1 \$0-phasor-cv-att-s \$0-phasor-cv-att-r
CV 133 7 0 10 #9898dc #fcfcfc #000000 0 1;
#X obj 215 259 / 127;
#X obj 641 448 *~;
#X obj 215 281 pack 0 50;
#X obj 215 303 line~;
#X obj 104 119 cnv 5 5 5 empty empty STEREO-PHASER 0 0 0 12 #fcfcfc
#404040 0;
#X obj 198 119 cnv 5 5 5 empty \$0-instance-num 0 0 0 0 12 #fcfcfc
#404040 0;
#N canvas 531 26 270 172 forwarding 0;
#X obj 26 54 route PHASOR CV;
#X obj 27 100 s \$0-phasor-phasor-r;
#X obj 70 78 s \$0-phasor-cv-att-r;
#X obj 26 22 inlet;
#X connect 0 0 1 0;
#X connect 0 1 2 0;
#X connect 3 0 0 0;
#X restore 373 47 pd forwarding;
#N canvas 616 255 420 303 save-state 0;
#X obj 221 82 f;
#X obj 221 125 pack f f;
#X obj 115 189 unpack f f;
#X obj 236 34 r \$0-phasor-phasor-s;
#X obj 115 251 s \$0-phasor-phasor-r;
#X obj 266 81 r \$0-phasor-cv-att-s;
#X obj 172 217 s \$0-phasor-cv-att-r;
#X obj 143 44 savestate;
#X obj 78 24 loadbang;
#X obj 35 154 list store;
#X msg 65 102 1;
#X obj 78 45 t b b;
#X obj 65 81 t b a;
#X obj 12 128 spigot 0;
#X obj 115 128 spigot 1;
#X obj 143 65 t a b;
#X msg 170 102 0;
#X msg 115 154 64 0;
#X connect 0 0 1 0;
#X connect 1 0 7 0;
#X connect 2 0 4 0;
#X connect 2 1 6 0;
#X connect 3 0 0 1;
#X connect 5 0 1 1;
#X connect 7 0 15 0;
#X connect 7 1 0 0;
#X connect 8 0 11 0;
#X connect 9 0 2 0;
#X connect 10 0 13 1;
#X connect 11 0 13 0;
#X connect 11 1 14 0;
#X connect 12 0 10 0;
#X connect 12 1 9 1;
#X connect 13 0 9 0;
#X connect 14 0 17 0;
#X connect 15 0 12 0;
#X connect 15 1 16 0;
#X connect 16 0 14 1;
#X connect 17 0 2 0;
#X restore 766 207 pd save-state;
#X obj 318 27 inlet~ fwd;
#X connect 0 0 21 0;
#X connect 1 0 2 0;
#X connect 2 0 3 0;
#X connect 3 0 4 0;
#X connect 4 0 5 0;
#X connect 5 0 6 0;
#X connect 6 0 7 0;
#X connect 7 0 8 0;
#X connect 8 0 0 1;
#X connect 9 0 10 0;
#X connect 10 0 11 0;
#X connect 11 0 1 1;
#X connect 11 0 3 1;
#X connect 11 0 5 1;
#X connect 11 0 7 1;
#X connect 11 0 2 1;
#X connect 11 0 4 1;
#X connect 11 0 6 1;
#X connect 11 0 8 1;
#X connect 13 0 26 0;
#X connect 14 0 9 0;
#X connect 14 0 49 0;
#X connect 15 0 17 0;
#X connect 16 0 14 0;
#X connect 17 0 53 0;
#X connect 18 0 19 0;
#X connect 19 0 20 0;
#X connect 20 0 16 0;
#X connect 21 0 23 0;
#X connect 22 0 1 0;
#X connect 22 0 0 0;
#X connect 22 0 34 0;
#X connect 22 0 33 0;
#X connect 23 0 24 0;
#X connect 24 0 25 0;
#X connect 25 0 12 0;
#X connect 26 0 18 0;
#X connect 31 0 32 0;
#X connect 33 0 45 0;
#X connect 34 0 35 0;
#X connect 35 0 36 0;
#X connect 36 0 37 0;
#X connect 37 0 38 0;
#X connect 38 0 39 0;
#X connect 39 0 40 0;
#X connect 40 0 41 0;
#X connect 41 0 33 1;
#X connect 42 0 43 0;
#X connect 43 0 44 0;
#X connect 44 0 34 1;
#X connect 44 0 36 1;
#X connect 44 0 38 1;
#X connect 44 0 40 1;
#X connect 44 0 35 1;
#X connect 44 0 37 1;
#X connect 44 0 39 1;
#X connect 44 0 41 1;
#X connect 45 0 46 0;
#X connect 46 0 47 0;
#X connect 47 0 48 0;
#X connect 48 0 31 0;
#X connect 49 0 42 0;
#X connect 51 0 52 0;
#X connect 52 0 54 0;
#X connect 53 0 16 1;
#X connect 54 0 55 0;
#X connect 55 0 53 1;
#X connect 60 0 22 0;
#X connect 60 1 58 0;
#X coords 0 -1 1 1 175 75 2 100 100;
