#N canvas 0 23 982 752 10;
#X floatatom 424 236 0 0 0 0 - - - 0;
#X obj 487 507 *~;
#X obj 672 444 line~;
#X text 473 158 PITCH SHIFTER;
#X obj 672 418 pack 0 200;
#X obj 424 292 exp;
#X floatatom 424 318 6 0 0 0 - - - 0;
#X obj 424 408 /;
#X obj 551 338 * 0.001;
#X obj 781 514 line~;
#X obj 781 489 pack 0 200;
#X floatatom 781 438 0 0 0 0 - - - 0;
#X obj 487 533 +~;
#X obj 424 559 cos~;
#X obj 424 586 *~;
#X obj 424 615 +~;
#X obj 511 466 wrap~;
#X obj 718 509 *~;
#X obj 718 542 +~;
#X obj 655 569 cos~;
#X obj 655 596 *~;
#X obj 551 365 t b f;
#X floatatom 424 434 6 0 0 0 - - - 0;
#X obj 511 439 +~ 0.5;
#X obj 424 507 -~ 0.5;
#X obj 424 533 *~ 0.5;
#X obj 655 508 -~ 0.5;
#X obj 655 541 *~ 0.5;
#X obj 424 345 - 1;
#X obj 424 266 * 0.05776;
#X obj 424 371 * -1;
#X text 458 235 <-- transposition;
#X text 357 197 (halftones);
#X text 493 309 speed;
#X text 486 326 change;
#X text 686 260 <--window (msec);
#X text 459 401 tape head;
#X obj 424 465 phasor~;
#X obj 781 465 max 1.5;
#X obj 642 288 max 1;
#X text 460 414 rotation freq;
#X obj 424 722 outlet~;
#X obj 324 101 / 127;
#X obj 324 175 * 48;
#X obj 324 197 - 24;
#X floatatom 642 310 5 0 0 0 - - - 0;
#X obj 324 219 i;
#X floatatom 324 241 5 0 0 0 - - - 0;
#X obj 641 238 loadbang;
#X msg 641 260 100;
#X obj 781 392 loadbang;
#X msg 781 414 0;
#X obj 108 163 hsl 128 15 0 127 0 1 \$0-pitchshifter-dry/wet-s \$0-pitchshifter-dry/wet-r
DRY/WET 135 7 0 10 #fcfcfc #000000 #000000 6400 1;
#X obj 324 69 r \$0-pitchshifter-pitch-/+-s;
#X obj 324 123 +;
#X obj 88 60 delwrite~ \$0-pitchshifter-INPUT 5000;
#X obj 487 559 vd~ \$0-pitchshifter-INPUT;
#X obj 548 18 inlet~ PITCH-/+-CV;
#X obj 548 92 snapshot~;
#X obj 680 69 env~;
#X obj 680 91 change;
#X obj 680 113 t b;
#X obj 679 165 bng 15 250 50 0 empty empty empty 17 7 0 10 #fcfcfc
#000000 #000000;
#X obj 548 114 t b f;
#X floatatom 738 122 5 0 0 0 - - - 0;
#X obj 738 96 == 0;
#X obj 738 141 sel 1;
#X msg 738 163 0;
#X floatatom 206 119 5 0 0 0 - - - 0;
#X obj 285 109 cnv 5 5 5 empty empty CV 0 0 0 8 #fcfcfc #7474a4 0;
#X obj 105 109 cnv 5 5 5 empty empty IN 0 0 0 8 #fcfcfc #404040 0;
#X obj 105 125 cnv 5 5 5 empty empty PITCHSHIFTER 0 0 0 12 #fcfcfc
#404040 0;
#X obj 108 148 hsl 128 15 0 127 0 1 \$0-pitchshifter-cv-att-s \$0-pitchshifter-cv-att-r
CV 135 7 0 10 #9898dc #000000 #000000 0 1;
#X obj 775 13 r \$0-pitchshifter-cv-att-s;
#X obj 718 571 vd~ \$0-pitchshifter-INPUT;
#X obj 548 40 *~;
#X obj 775 35 / 127;
#X obj 775 57 pack 0 50;
#X obj 775 79 line~;
#X obj 108 133 hsl 128 15 0 127 0 1 \$0-pitchshifter-pitch-/+-s \$0-pitchshifter-pitch-/+-r
PITCH-/+ 135 7 0 10 #fcfcfc #000000 #000000 6400 1;
#X obj 87 435 r \$0-pitchshifter-dry/wet-s;
#X obj 424 637 *~;
#X obj 87 457 / 127;
#X obj 87 479 t f f;
#X obj 152 507 pack 0 50;
#X obj 152 529 line~;
#X obj 68 627 *~;
#X msg 87 501 1 \$1;
#X obj 87 523 -;
#X obj 87 545 pack 0 50;
#X obj 87 567 line~;
#X obj 196 125 cnv 5 5 5 empty \$0-instance-num 0 0 0 0 12 #fcfcfc
#404040 0;
#X obj 252 195 * 48;
#X obj 252 217 - 24;
#X obj 252 239 i;
#N canvas 531 26 334 224 forwarding 0;
#X obj 16 39 route PITCH-/+ CV DRY/WET;
#X obj 17 145 s \$0-pitchshifter-pitch-/+-r;
#X obj 54 113 s \$0-pitchshifter-cv-att-r;
#X obj 113 82 s \$0-pitchshifter-dry/wet-r;
#X obj 16 7 inlet;
#X connect 0 0 1 0;
#X connect 0 1 2 0;
#X connect 0 2 3 0;
#X connect 4 0 0 0;
#X restore 125 27 pd forwarding;
#X obj 68 3 inlet~ fwd;
#N canvas 493 153 459 297 save-state 0;
#X obj 214 96 f;
#X obj 214 139 pack f f f;
#X obj 112 186 unpack f f f;
#X obj 229 48 r \$0-pitchshifter-pitch-/+-s;
#X obj 112 258 s \$0-pitchshifter-pitch-/+-r;
#X obj 242 86 r \$0-pitchshifter-cv-att-s;
#X obj 146 232 s \$0-pitchshifter-cv-att-r;
#X obj 271 114 r \$0-pitchshifter-dry/wet-s;
#X obj 181 210 s \$0-pitchshifter-dry/wet-r;
#X obj 143 44 savestate;
#X obj 78 24 loadbang;
#X obj 35 154 list store;
#X msg 65 102 1;
#X obj 78 45 t b b;
#X obj 65 81 t b a;
#X obj 12 128 spigot 0;
#X obj 115 128 spigot 1;
#X obj 143 65 t a b;
#X msg 170 102 0;
#X msg 115 154 64 0 64;
#X connect 0 0 1 0;
#X connect 1 0 9 0;
#X connect 2 0 4 0;
#X connect 2 1 6 0;
#X connect 2 2 8 0;
#X connect 3 0 0 1;
#X connect 5 0 1 1;
#X connect 7 0 1 2;
#X connect 9 0 17 0;
#X connect 9 1 0 0;
#X connect 10 0 13 0;
#X connect 11 0 2 0;
#X connect 12 0 15 1;
#X connect 13 0 15 0;
#X connect 13 1 16 0;
#X connect 14 0 12 0;
#X connect 14 1 11 1;
#X connect 15 0 11 0;
#X connect 16 0 19 0;
#X connect 17 0 14 0;
#X connect 17 1 18 0;
#X connect 18 0 16 1;
#X connect 19 0 2 0;
#X restore 93 314 pd save-state;
#X connect 0 0 29 0;
#X connect 1 0 12 0;
#X connect 2 0 1 1;
#X connect 2 0 17 1;
#X connect 4 0 2 0;
#X connect 5 0 6 0;
#X connect 6 0 28 0;
#X connect 7 0 22 0;
#X connect 8 0 21 0;
#X connect 9 0 12 1;
#X connect 9 0 18 1;
#X connect 10 0 9 0;
#X connect 11 0 38 0;
#X connect 12 0 56 0;
#X connect 13 0 14 0;
#X connect 14 0 15 0;
#X connect 15 0 81 0;
#X connect 16 0 17 0;
#X connect 16 0 26 0;
#X connect 17 0 18 0;
#X connect 18 0 74 0;
#X connect 19 0 20 0;
#X connect 20 0 15 1;
#X connect 21 0 7 0;
#X connect 21 1 7 1;
#X connect 22 0 37 0;
#X connect 23 0 16 0;
#X connect 24 0 25 0;
#X connect 25 0 13 0;
#X connect 26 0 27 0;
#X connect 27 0 19 0;
#X connect 28 0 30 0;
#X connect 29 0 5 0;
#X connect 30 0 7 0;
#X connect 37 0 1 0;
#X connect 37 0 24 0;
#X connect 37 0 23 0;
#X connect 38 0 10 0;
#X connect 39 0 8 0;
#X connect 39 0 4 0;
#X connect 39 0 45 0;
#X connect 42 0 54 0;
#X connect 42 0 92 0;
#X connect 43 0 44 0;
#X connect 44 0 46 0;
#X connect 46 0 47 0;
#X connect 46 0 0 0;
#X connect 48 0 49 0;
#X connect 49 0 39 0;
#X connect 50 0 51 0;
#X connect 51 0 11 0;
#X connect 53 0 42 0;
#X connect 54 0 43 0;
#X connect 56 0 14 1;
#X connect 57 0 75 0;
#X connect 58 0 63 0;
#X connect 59 0 60 0;
#X connect 59 0 65 0;
#X connect 60 0 61 0;
#X connect 61 0 62 0;
#X connect 61 0 58 0;
#X connect 63 0 54 0;
#X connect 63 1 54 1;
#X connect 64 0 66 0;
#X connect 65 0 64 0;
#X connect 66 0 67 0;
#X connect 67 0 54 1;
#X connect 73 0 76 0;
#X connect 74 0 20 1;
#X connect 75 0 59 0;
#X connect 75 0 58 0;
#X connect 76 0 77 0;
#X connect 77 0 78 0;
#X connect 78 0 75 1;
#X connect 80 0 82 0;
#X connect 81 0 41 0;
#X connect 82 0 83 0;
#X connect 83 0 87 0;
#X connect 83 1 84 0;
#X connect 84 0 85 0;
#X connect 85 0 81 1;
#X connect 86 0 41 0;
#X connect 87 0 88 0;
#X connect 88 0 89 0;
#X connect 89 0 90 0;
#X connect 90 0 86 1;
#X connect 92 0 93 0;
#X connect 93 0 94 0;
#X connect 94 0 68 0;
#X connect 96 0 55 0;
#X connect 96 0 86 0;
#X connect 96 1 95 0;
#X coords 0 -1 1 1 200 85 2 100 100;
