#N canvas 0 23 808 527 10;
#X obj 418 248 *~;
#X obj 106 137 hsl 128 15 0 127 0 1 \$0-polarizer-pol-/+-s \$0-polarizer-pol-/+-r
POL-/+ 133 7 0 10 #90d4b0 #000000 #000000 6400 1;
#X obj 433 61 / 127;
#X obj 433 83 * 2;
#X obj 433 105 - 1;
#X obj 433 127 t f f;
#X obj 433 149 pack 0 50;
#X obj 433 171 line~;
#X floatatom 204 123 5 0 0 0 - - - 0;
#X obj 419 475 outlet~;
#X obj 155 109 cnv 5 5 5 empty empty POLARIZER 0 0 0 12 #fcfcfc #404040
0;
#X obj 103 111 cnv 5 5 5 empty empty IN 0 0 0 8 #fcfcfc #404040 0;
#X obj 106 152 hsl 128 15 0 127 0 0 \$0-polarizer-offset-s \$0-polarizer-offset-r
OFFSET 133 7 0 10 #fcfcfc #000000 #000000 0 1;
#X obj 434 275 / 127;
#X obj 419 412 +~;
#X obj 419 434 clip~ -1 1;
#X obj 434 297 * 2;
#X obj 434 319 - 1;
#X obj 434 341 t f f;
#X obj 434 363 pack 0 50;
#X obj 434 385 line~;
#X floatatom 103 167 5 0 0 0 - - - 0;
#X obj 553 177 inlet~;
#X obj 433 193 +~;
#X obj 433 215 clip~ -1 1;
#X obj 415 30 inlet~ fwd;
#N canvas 531 26 319 219 forwarding 0;
#X obj 25 59 route POL-/+ OFFSET;
#X obj 25 118 s \$0-polarizer-pol-/+-r;
#X obj 72 96 s \$0-polarizer-offset-r;
#X obj 25 27 inlet;
#X connect 0 0 1 0;
#X connect 0 1 2 0;
#X connect 3 0 0 0;
#X restore 472 56 pd forwarding;
#N canvas 387 156 444 301 save-state 0;
#X obj 204 78 f;
#X obj 219 29 r \$0-polarizer-pol-/+-s;
#X obj 115 229 s \$0-polarizer-pol-/+-r;
#X obj 204 121 pack f f;
#X obj 115 179 unpack f f;
#X obj 172 206 s \$0-polarizer-offset-r;
#X obj 253 83 r \$0-polarizer-offset-s;
#X obj 143 44 savestate;
#X obj 78 24 loadbang;
#X obj 35 154 list store;
#X msg 65 102 1;
#X obj 78 45 t b b;
#X obj 65 81 t b a;
#X obj 12 128 spigot 0;
#X obj 115 128 spigot 1;
#X obj 143 65 t a b;
#X msg 170 102 0;
#X msg 115 154 64 64;
#X connect 0 0 3 0;
#X connect 1 0 0 1;
#X connect 3 0 7 0;
#X connect 4 0 2 0;
#X connect 4 1 5 0;
#X connect 6 0 3 1;
#X connect 7 0 15 0;
#X connect 7 1 0 0;
#X connect 8 0 11 0;
#X connect 9 0 4 0;
#X connect 10 0 13 1;
#X connect 11 0 13 0;
#X connect 11 1 14 0;
#X connect 12 0 10 0;
#X connect 12 1 9 1;
#X connect 13 0 9 0;
#X connect 14 0 17 0;
#X connect 15 0 12 0;
#X connect 15 1 16 0;
#X connect 16 0 14 1;
#X connect 17 0 4 0;
#X restore 520 371 pd save-state;
#X connect 0 0 14 0;
#X connect 1 0 2 0;
#X connect 2 0 3 0;
#X connect 3 0 4 0;
#X connect 4 0 5 0;
#X connect 5 0 6 0;
#X connect 5 1 8 0;
#X connect 6 0 7 0;
#X connect 7 0 23 0;
#X connect 12 0 13 0;
#X connect 13 0 16 0;
#X connect 14 0 15 0;
#X connect 15 0 9 0;
#X connect 16 0 17 0;
#X connect 17 0 18 0;
#X connect 18 0 19 0;
#X connect 18 1 21 0;
#X connect 19 0 20 0;
#X connect 20 0 14 1;
#X connect 22 0 23 1;
#X connect 23 0 24 0;
#X connect 24 0 0 1;
#X connect 25 0 0 0;
#X connect 25 1 26 0;
#X coords 0 -1 1 1 180 85 2 100 100;
