#N canvas 0 23 1102 752 10;
#X obj 108 146 hsl 128 15 0 127 0 1 \$0-polysaw-pitch-s \$0-polysaw-pitch-r
PITCH 135 7 0 10 #fcfcfc #000000 #000000 6400 1;
#X obj 320 467 pack f f f;
#X obj 320 303 f;
#X floatatom 320 325 5 0 0 0 - - - 0;
#X msg 365 174 100;
#X obj 320 370 unpack f f;
#X floatatom 320 392 5 0 0 0 - - - 0;
#X floatatom 377 394 5 0 0 0 - - - 0;
#X obj 320 443 poly 4 1;
#X obj 320 492 route 1 2 3 4;
#X obj 108 161 hsl 128 15 0 127 0 1 \$0-polysaw-saw->pulse-s \$0-polysaw-saw->pulse-r
SAW->PULSE 135 7 0 10 #fcfcfc #000000 #000000 0 1;
#X obj 108 196 hsl 128 15 1.27 127 1 1 \$0-polysaw-attack-s \$0-polysaw-attack-r
ATTACK 135 7 0 10 #fcfcfc #000000 #000000 0 1;
#X obj 108 211 hsl 128 15 0 127 0 1 \$0-polysaw-hold-s \$0-polysaw-hold-r
HOLD 135 7 0 10 #fcfcfc #000000 #000000 12700 1;
#X obj 108 225 hsl 128 15 0 127 0 1 \$0-polysaw-release-s \$0-polysaw-release-r
RELEASE 135 7 0 10 #fcfcfc #000000 #000000 6400 1;
#X obj 320 346 pack f f;
#X obj 335 203 r \$0-polysaw-pitch-s;
#X obj 320 83 threshold~ 0.9 0 0.9 0;
#X floatatom 206 131 5 0 0 0 - - - 0;
#X obj 471 15 inlet~ PITCH CV;
#X obj 320 121 t b b b;
#X obj 471 152 snapshot~;
#X obj 471 174 * 127;
#X obj 335 225 +;
#X obj 335 247 clip 0 127;
#X obj 471 208 t b f;
#X obj 320 632 *~ 0.25;
#X obj 591 91 env~;
#X obj 591 113 change;
#X obj 591 135 t b;
#X floatatom 416 294 5 0 0 0 - - - 0;
#X obj 677 585 catch~ \$0-polysaw-eg;
#X obj 677 649 outlet~ EG OUT;
#X obj 677 607 *~ 0.25;
#X obj 108 176 hsl 128 15 0 127 0 1 \$0-polysaw-dtune-s \$0-polysaw-dtune-r
DTUNE 135 7 0 10 #fcfcfc #000000 #000000 6400 1;
#N canvas 224 22 962 575 voice2-ahr 0;
#X obj 43 6 inlet;
#X obj 43 28 unpack f f;
#X obj 100 51 sel 0;
#X obj 43 117 +~;
#X obj 43 147 mtof~;
#X obj 43 178 tabosc4~ \$0-saw;
#X obj 43 495 *~;
#X obj 43 517 outlet~;
#X obj 609 145 * 0.00787402;
#X obj 608 189 + 1;
#X obj 609 121 - 1.27;
#X obj 593 385 vline~;
#X obj 781 217 r \$0-polysaw-release-s;
#X obj 781 265 * 0.00787402;
#X obj 781 309 + 1;
#X obj 781 241 - 1.27;
#X obj 593 434 *~;
#X obj 593 478 *~;
#X obj 609 99 r \$0-polysaw-attack-s;
#X obj 593 219 f;
#X obj 43 50 sig~;
#X obj 609 167 * 1999;
#X obj 127 74 t b;
#X obj 654 188 r \$0-polysaw-hold-s;
#X obj 654 210 * 0.00787402;
#X obj 654 232 * 999;
#X obj 654 254 + 1;
#X msg 593 353 1 \$1 \, 0 \$3 \$2;
#X obj 593 241 t f f;
#X obj 593 326 pack f f f;
#X obj 620 293 +;
#X obj 593 508 throw~ \$0-polysaw-eg;
#X obj 155 164 tabosc4~ \$0-square;
#X obj 155 463 *~;
#X obj 43 464 *~;
#X obj 58 218 r \$0-polysaw-saw->pulse-s;
#X obj 58 240 / 127;
#X obj 58 262 t f f;
#X obj 170 327 pack 0 50;
#X obj 170 349 line~;
#X msg 58 284 1 \$1;
#X obj 58 306 -;
#X obj 58 328 pack 0 50;
#X obj 58 350 line~;
#X obj 376 12 r \$0-polysaw-dtune-s;
#X obj 376 34 * 0.00787402;
#X obj 376 78 pack 0 50;
#X obj 376 100 line~;
#X obj 376 56 * 0.33;
#X obj 58 372 +~;
#X obj 170 371 +~;
#X obj 170 393 clip~ 0 1;
#X obj 58 394 clip~ 0 1;
#X obj 378 192 inlet~;
#X obj 378 353 *~ -1;
#X obj 781 287 * 3999;
#X connect 0 0 1 0;
#X connect 1 0 20 0;
#X connect 1 1 2 0;
#X connect 2 1 22 0;
#X connect 3 0 4 0;
#X connect 4 0 5 0;
#X connect 4 0 32 0;
#X connect 5 0 34 0;
#X connect 6 0 7 0;
#X connect 8 0 21 0;
#X connect 9 0 19 1;
#X connect 10 0 8 0;
#X connect 11 0 16 0;
#X connect 11 0 16 1;
#X connect 12 0 15 0;
#X connect 13 0 55 0;
#X connect 14 0 29 2;
#X connect 15 0 13 0;
#X connect 16 0 17 0;
#X connect 16 0 17 1;
#X connect 17 0 6 1;
#X connect 17 0 31 0;
#X connect 18 0 10 0;
#X connect 19 0 28 0;
#X connect 20 0 3 0;
#X connect 21 0 9 0;
#X connect 22 0 19 0;
#X connect 23 0 24 0;
#X connect 24 0 25 0;
#X connect 25 0 26 0;
#X connect 26 0 30 1;
#X connect 27 0 11 0;
#X connect 28 0 29 0;
#X connect 28 1 30 0;
#X connect 29 0 27 0;
#X connect 30 0 29 1;
#X connect 32 0 33 0;
#X connect 33 0 6 0;
#X connect 34 0 6 0;
#X connect 35 0 36 0;
#X connect 36 0 37 0;
#X connect 37 0 40 0;
#X connect 37 1 38 0;
#X connect 38 0 39 0;
#X connect 39 0 50 0;
#X connect 40 0 41 0;
#X connect 41 0 42 0;
#X connect 42 0 43 0;
#X connect 43 0 49 0;
#X connect 44 0 45 0;
#X connect 45 0 48 0;
#X connect 46 0 47 0;
#X connect 47 0 3 1;
#X connect 48 0 46 0;
#X connect 49 0 52 0;
#X connect 50 0 51 0;
#X connect 51 0 33 1;
#X connect 52 0 34 1;
#X connect 53 0 50 1;
#X connect 53 0 54 0;
#X connect 54 0 49 1;
#X connect 55 0 14 0;
#X restore 338 547 pd voice2-ahr;
#N canvas 0 22 599 463 wavetables 0;
#X obj 44 36 loadbang;
#X obj 44 58 f \$0;
#X obj 44 89 t f f;
#X text 102 40 SAW WAVE;
#X msg 43 193 \; \$1-saw normalize 1;
#X obj 41 233 table \$0-saw;
#X msg 71 116 \; \$1-saw sinesum 512 1 0.5 0.33 0.25 0.2 0.16 0.14
0.125 0.111111 0.1 0.090909 0.083333 0.076923 0.0714285 0.066666 0.0625
0.058823 0.055555 0.052631 0.05 0.047619 0.045454 0.043478 0.041666
;
#X obj 42 263 loadbang;
#X obj 43 379 t f f;
#X obj 42 285 f \$0;
#X msg 43 466 \; \$1-square normalize 1;
#X obj 41 506 table \$0-square;
#X obj 95 345 bng 15 250 50 0 empty empty empty 17 7 0 10 #fcfcfc #000000
#000000;
#X msg 111 395 \; \$1-square sinesum 512 1 0 0.33 0 0.2 0 0.142857
0 0.111111 0 0.090909 0 0.076923 0 0.066666 0 0.058823 0 0.0526315
0 0.047619 0 0.04347 0 0.04 0;
#X connect 0 0 1 0;
#X connect 1 0 2 0;
#X connect 2 0 4 0;
#X connect 2 1 6 0;
#X connect 7 0 9 0;
#X connect 8 0 10 0;
#X connect 8 1 13 0;
#X connect 9 0 8 0;
#X connect 12 0 9 0;
#X restore 52 281 pd wavetables;
#N canvas 224 23 962 575 voice1-ahr 0;
#X obj 43 6 inlet;
#X obj 43 28 unpack f f;
#X obj 100 51 sel 0;
#X obj 43 149 +~;
#X obj 43 179 mtof~;
#X obj 43 210 tabosc4~ \$0-saw;
#X obj 43 495 *~;
#X obj 43 517 outlet~;
#X obj 609 145 * 0.00787402;
#X obj 608 189 + 1;
#X obj 609 121 - 1.27;
#X obj 593 385 vline~;
#X obj 781 217 r \$0-polysaw-release-s;
#X obj 781 265 * 0.00787402;
#X obj 781 309 + 1;
#X obj 781 241 - 1.27;
#X obj 593 434 *~;
#X obj 593 478 *~;
#X obj 609 99 r \$0-polysaw-attack-s;
#X obj 593 219 f;
#X obj 43 50 sig~;
#X obj 609 167 * 1999;
#X obj 127 74 t b;
#X obj 654 188 r \$0-polysaw-hold-s;
#X obj 654 210 * 0.00787402;
#X obj 654 232 * 999;
#X obj 654 254 + 1;
#X msg 593 353 1 \$1 \, 0 \$3 \$2;
#X obj 593 241 t f f;
#X obj 593 326 pack f f f;
#X obj 620 293 +;
#X obj 593 508 throw~ \$0-polysaw-eg;
#X obj 155 196 tabosc4~ \$0-square;
#X obj 155 463 *~;
#X obj 43 464 *~;
#X obj 58 235 r \$0-polysaw-saw->pulse-s;
#X obj 58 257 / 127;
#X obj 58 279 t f f;
#X obj 170 344 pack 0 50;
#X obj 170 366 line~;
#X msg 58 301 1 \$1;
#X obj 58 323 -;
#X obj 58 345 pack 0 50;
#X obj 58 367 line~;
#X obj 361 69 inlet~;
#X obj 58 389 +~;
#X obj 170 388 +~;
#X obj 170 410 clip~ 0 1;
#X obj 58 411 clip~ 0 1;
#X obj 361 190 *~ -1;
#X obj 781 287 * 3999;
#X connect 0 0 1 0;
#X connect 1 0 20 0;
#X connect 1 1 2 0;
#X connect 2 1 22 0;
#X connect 3 0 4 0;
#X connect 4 0 5 0;
#X connect 4 0 32 0;
#X connect 5 0 34 0;
#X connect 6 0 7 0;
#X connect 8 0 21 0;
#X connect 9 0 19 1;
#X connect 10 0 8 0;
#X connect 11 0 16 0;
#X connect 11 0 16 1;
#X connect 12 0 15 0;
#X connect 13 0 50 0;
#X connect 14 0 29 2;
#X connect 15 0 13 0;
#X connect 16 0 17 0;
#X connect 16 0 17 1;
#X connect 17 0 6 1;
#X connect 17 0 31 0;
#X connect 18 0 10 0;
#X connect 19 0 28 0;
#X connect 20 0 3 0;
#X connect 21 0 9 0;
#X connect 22 0 19 0;
#X connect 23 0 24 0;
#X connect 24 0 25 0;
#X connect 25 0 26 0;
#X connect 26 0 30 1;
#X connect 27 0 11 0;
#X connect 28 0 29 0;
#X connect 28 1 30 0;
#X connect 29 0 27 0;
#X connect 30 0 29 1;
#X connect 32 0 33 0;
#X connect 33 0 6 0;
#X connect 34 0 6 0;
#X connect 35 0 36 0;
#X connect 36 0 37 0;
#X connect 37 0 40 0;
#X connect 37 1 38 0;
#X connect 38 0 39 0;
#X connect 39 0 46 0;
#X connect 40 0 41 0;
#X connect 41 0 42 0;
#X connect 42 0 43 0;
#X connect 43 0 45 0;
#X connect 44 0 46 1;
#X connect 44 0 49 0;
#X connect 45 0 48 0;
#X connect 46 0 47 0;
#X connect 47 0 33 1;
#X connect 48 0 34 1;
#X connect 49 0 45 1;
#X connect 50 0 14 0;
#X restore 320 522 pd voice1-ahr;
#X obj 215 629 *~ 0.5;
#X obj 103 108 cnv 5 5 5 empty empty TRIG 0 0 0 8 #fcfcfc #dc4c90 0
;
#X obj 106 137 cnv 5 5 5 empty empty POLYSYNTH 0 0 0 12 #fcfcfc #404040
0;
#X obj 175 137 cnv 5 5 5 empty \$0-instance-num 0 0 0 0 12 #fcfcfc
#404040 0;
#X obj 106 113 bng 15 50 50 0 empty empty empty 17 7 0 10 #fcfcfc #dc4c90
#000000;
#X obj 281 109 cnv 5 5 5 empty empty S->P 0 0 0 8 #fcfcfc #404040 0
;
#X obj 286 257 cnv 5 5 5 empty empty ENV 0 0 0 8 #fcfcfc #000000 0
;
#X obj 105 257 cnv 5 5 5 empty empty LEFT 0 0 0 8 #fcfcfc #000000 0
;
#X obj 188 257 cnv 5 5 5 empty empty RIGHT 0 0 0 8 #fcfcfc #000000
0;
#X obj 548 410 inlet~ SAW-PULSE;
#N canvas 224 22 962 575 voice3-ahr 0;
#X obj 43 6 inlet;
#X obj 43 28 unpack f f;
#X obj 100 51 sel 0;
#X obj 43 117 +~;
#X obj 43 147 mtof~;
#X obj 43 178 tabosc4~ \$0-saw;
#X obj 43 495 *~;
#X obj 43 517 outlet~;
#X obj 609 145 * 0.00787402;
#X obj 608 189 + 1;
#X obj 609 121 - 1.27;
#X obj 593 385 vline~;
#X obj 781 217 r \$0-polysaw-release-s;
#X obj 781 265 * 0.00787402;
#X obj 781 309 + 1;
#X obj 781 241 - 1.27;
#X obj 593 434 *~;
#X obj 593 478 *~;
#X obj 609 99 r \$0-polysaw-attack-s;
#X obj 593 219 f;
#X obj 43 50 sig~;
#X obj 609 167 * 1999;
#X obj 127 74 t b;
#X obj 654 188 r \$0-polysaw-hold-s;
#X obj 654 210 * 0.00787402;
#X obj 654 232 * 999;
#X obj 654 254 + 1;
#X msg 593 353 1 \$1 \, 0 \$3 \$2;
#X obj 593 241 t f f;
#X obj 593 326 pack f f f;
#X obj 620 293 +;
#X obj 593 508 throw~ \$0-polysaw-eg;
#X obj 155 164 tabosc4~ \$0-square;
#X obj 155 463 *~;
#X obj 43 464 *~;
#X obj 58 218 r \$0-polysaw-saw->pulse-s;
#X obj 58 240 / 127;
#X obj 58 262 t f f;
#X obj 170 327 pack 0 50;
#X obj 170 349 line~;
#X msg 58 284 1 \$1;
#X obj 58 306 -;
#X obj 58 328 pack 0 50;
#X obj 58 350 line~;
#X obj 376 12 r \$0-polysaw-dtune-s;
#X obj 376 34 * 0.00787402;
#X obj 376 78 pack 0 50;
#X obj 376 100 line~;
#X obj 58 372 +~;
#X obj 170 371 +~;
#X obj 170 393 clip~ 0 1;
#X obj 58 394 clip~ 0 1;
#X obj 378 192 inlet~;
#X obj 378 353 *~ -1;
#X obj 376 56 * 0.166;
#X obj 781 287 * 3999;
#X connect 0 0 1 0;
#X connect 1 0 20 0;
#X connect 1 1 2 0;
#X connect 2 1 22 0;
#X connect 3 0 4 0;
#X connect 4 0 5 0;
#X connect 4 0 32 0;
#X connect 5 0 34 0;
#X connect 6 0 7 0;
#X connect 8 0 21 0;
#X connect 9 0 19 1;
#X connect 10 0 8 0;
#X connect 11 0 16 0;
#X connect 11 0 16 1;
#X connect 12 0 15 0;
#X connect 13 0 55 0;
#X connect 14 0 29 2;
#X connect 15 0 13 0;
#X connect 16 0 17 0;
#X connect 16 0 17 1;
#X connect 17 0 6 1;
#X connect 17 0 31 0;
#X connect 18 0 10 0;
#X connect 19 0 28 0;
#X connect 20 0 3 0;
#X connect 21 0 9 0;
#X connect 22 0 19 0;
#X connect 23 0 24 0;
#X connect 24 0 25 0;
#X connect 25 0 26 0;
#X connect 26 0 30 1;
#X connect 27 0 11 0;
#X connect 28 0 29 0;
#X connect 28 1 30 0;
#X connect 29 0 27 0;
#X connect 30 0 29 1;
#X connect 32 0 33 0;
#X connect 33 0 6 0;
#X connect 34 0 6 0;
#X connect 35 0 36 0;
#X connect 36 0 37 0;
#X connect 37 0 40 0;
#X connect 37 1 38 0;
#X connect 38 0 39 0;
#X connect 39 0 49 0;
#X connect 40 0 41 0;
#X connect 41 0 42 0;
#X connect 42 0 43 0;
#X connect 43 0 48 0;
#X connect 44 0 45 0;
#X connect 45 0 54 0;
#X connect 46 0 47 0;
#X connect 47 0 3 1;
#X connect 48 0 51 0;
#X connect 49 0 50 0;
#X connect 50 0 33 1;
#X connect 51 0 34 1;
#X connect 52 0 49 1;
#X connect 52 0 53 0;
#X connect 53 0 48 1;
#X connect 54 0 46 0;
#X connect 55 0 14 0;
#X restore 357 573 pd voice3-ahr;
#N canvas 224 22 962 575 voice4-ahr 0;
#X obj 43 6 inlet;
#X obj 43 28 unpack f f;
#X obj 100 51 sel 0;
#X obj 43 147 mtof~;
#X obj 43 178 tabosc4~ \$0-saw;
#X obj 43 495 *~;
#X obj 43 517 outlet~;
#X obj 609 145 * 0.00787402;
#X obj 608 189 + 1;
#X obj 609 121 - 1.27;
#X obj 593 385 vline~;
#X obj 781 217 r \$0-polysaw-release-s;
#X obj 781 265 * 0.00787402;
#X obj 781 309 + 1;
#X obj 781 241 - 1.27;
#X obj 593 434 *~;
#X obj 593 478 *~;
#X obj 609 99 r \$0-polysaw-attack-s;
#X obj 593 219 f;
#X obj 43 50 sig~;
#X obj 609 167 * 1999;
#X obj 127 74 t b;
#X obj 654 188 r \$0-polysaw-hold-s;
#X obj 654 210 * 0.00787402;
#X obj 654 232 * 999;
#X obj 654 254 + 1;
#X msg 593 353 1 \$1 \, 0 \$3 \$2;
#X obj 593 241 t f f;
#X obj 593 326 pack f f f;
#X obj 620 293 +;
#X obj 593 508 throw~ \$0-polysaw-eg;
#X obj 155 164 tabosc4~ \$0-square;
#X obj 155 463 *~;
#X obj 43 464 *~;
#X obj 58 218 r \$0-polysaw-saw->pulse-s;
#X obj 58 240 / 127;
#X obj 58 262 t f f;
#X obj 170 327 pack 0 50;
#X obj 170 349 line~;
#X msg 58 284 1 \$1;
#X obj 58 306 -;
#X obj 58 328 pack 0 50;
#X obj 58 350 line~;
#X obj 376 12 r \$0-polysaw-dtune-s;
#X obj 376 34 * 0.00787402;
#X obj 376 78 pack 0 50;
#X obj 376 100 line~;
#X obj 58 372 +~;
#X obj 170 371 +~;
#X obj 170 393 clip~ 0 1;
#X obj 58 394 clip~ 0 1;
#X obj 378 192 inlet~;
#X obj 378 353 *~ -1;
#X obj 376 56 * 0.166;
#X obj 43 117 -~;
#X obj 781 287 * 3999;
#X connect 0 0 1 0;
#X connect 1 0 19 0;
#X connect 1 1 2 0;
#X connect 2 1 21 0;
#X connect 3 0 4 0;
#X connect 3 0 31 0;
#X connect 4 0 33 0;
#X connect 5 0 6 0;
#X connect 7 0 20 0;
#X connect 8 0 18 1;
#X connect 9 0 7 0;
#X connect 10 0 15 0;
#X connect 10 0 15 1;
#X connect 11 0 14 0;
#X connect 12 0 55 0;
#X connect 13 0 28 2;
#X connect 14 0 12 0;
#X connect 15 0 16 0;
#X connect 15 0 16 1;
#X connect 16 0 5 1;
#X connect 16 0 30 0;
#X connect 17 0 9 0;
#X connect 18 0 27 0;
#X connect 19 0 54 0;
#X connect 20 0 8 0;
#X connect 21 0 18 0;
#X connect 22 0 23 0;
#X connect 23 0 24 0;
#X connect 24 0 25 0;
#X connect 25 0 29 1;
#X connect 26 0 10 0;
#X connect 27 0 28 0;
#X connect 27 1 29 0;
#X connect 28 0 26 0;
#X connect 29 0 28 1;
#X connect 31 0 32 0;
#X connect 32 0 5 0;
#X connect 33 0 5 0;
#X connect 34 0 35 0;
#X connect 35 0 36 0;
#X connect 36 0 39 0;
#X connect 36 1 37 0;
#X connect 37 0 38 0;
#X connect 38 0 48 0;
#X connect 39 0 40 0;
#X connect 40 0 41 0;
#X connect 41 0 42 0;
#X connect 42 0 47 0;
#X connect 43 0 44 0;
#X connect 44 0 53 0;
#X connect 45 0 46 0;
#X connect 46 0 54 1;
#X connect 47 0 50 0;
#X connect 48 0 49 0;
#X connect 49 0 32 1;
#X connect 50 0 33 1;
#X connect 51 0 48 1;
#X connect 51 0 52 0;
#X connect 52 0 47 1;
#X connect 53 0 45 0;
#X connect 54 0 3 0;
#X connect 55 0 13 0;
#X restore 376 601 pd voice4-ahr;
#X obj 190 108 cnv 5 5 5 empty empty PITCH 0 0 0 8 #fcfcfc #404040
0;
#X obj 321 707 outlet~ LEFT;
#X obj 488 703 outlet~ RIGHT;
#X obj 320 674 *~ 0.33;
#X obj 488 677 *~ 0.33;
#X obj 488 640 *~ 0.5;
#N canvas 481 145 497 387 save-state 0;
#X obj 213 122 f;
#X obj 115 191 unpack f f f f f f;
#X obj 213 165 pack f f f f f f;
#X obj 228 19 r \$0-polysaw-pitch-s;
#X obj 115 344 s \$0-polysaw-pitch-r;
#X obj 236 42 r \$0-polysaw-saw->pulse-s;
#X obj 136 320 s \$0-polysaw-saw->pulse-r;
#X obj 250 63 r \$0-polysaw-dtune-s;
#X obj 157 296 s \$0-polysaw-dtune-r;
#X obj 268 88 r \$0-polysaw-attack-s;
#X obj 178 272 s \$0-polysaw-attack-r;
#X obj 293 117 r \$0-polysaw-hold-s;
#X obj 206 246 s \$0-polysaw-hold-r;
#X obj 314 140 r \$0-polysaw-release-s;
#X obj 221 216 s \$0-polysaw-release-r;
#X obj 143 44 savestate;
#X obj 78 24 loadbang;
#X obj 35 154 list store;
#X msg 65 102 1;
#X obj 78 45 t b b;
#X obj 65 81 t b a;
#X obj 12 128 spigot 0;
#X obj 115 128 spigot 1;
#X obj 143 65 t a b;
#X msg 170 102 0;
#X msg 115 154 64 0 64 0 127 64;
#X connect 0 0 2 0;
#X connect 1 0 4 0;
#X connect 1 1 6 0;
#X connect 1 2 8 0;
#X connect 1 3 10 0;
#X connect 1 4 12 0;
#X connect 1 5 14 0;
#X connect 2 0 15 0;
#X connect 3 0 0 1;
#X connect 5 0 2 1;
#X connect 7 0 2 2;
#X connect 9 0 2 3;
#X connect 11 0 2 4;
#X connect 13 0 2 5;
#X connect 15 0 23 0;
#X connect 15 1 0 0;
#X connect 16 0 19 0;
#X connect 17 0 1 0;
#X connect 18 0 21 1;
#X connect 19 0 21 0;
#X connect 19 1 22 0;
#X connect 20 0 18 0;
#X connect 20 1 17 1;
#X connect 21 0 17 0;
#X connect 22 0 25 0;
#X connect 23 0 20 0;
#X connect 23 1 24 0;
#X connect 24 0 22 1;
#X connect 25 0 1 0;
#X restore 52 350 pd save-state;
#N canvas 313 23 414 335 forwarding 0;
#X obj 20 69 route PITCH SAW->PULSE DTUNE ATTACK HOLD RELEASE;
#X obj 21 265 s \$0-polysaw-pitch-r;
#X obj 58 233 s \$0-polysaw-saw->pulse-r;
#X obj 122 188 s \$0-polysaw-dtune-r;
#X obj 159 156 s \$0-polysaw-attack-r;
#X obj 193 126 s \$0-polysaw-hold-r;
#X obj 246 103 s \$0-polysaw-release-r;
#X obj 20 17 inlet;
#X connect 0 0 1 0;
#X connect 0 1 2 0;
#X connect 0 2 3 0;
#X connect 0 3 4 0;
#X connect 0 4 5 0;
#X connect 0 5 6 0;
#X connect 7 0 0 0;
#X restore 377 48 pd forwarding;
#X obj 320 27 inlet~ fwd;
#X connect 0 0 17 0;
#X connect 1 0 9 0;
#X connect 2 0 3 0;
#X connect 3 0 14 0;
#X connect 4 0 14 1;
#X connect 5 0 6 0;
#X connect 5 1 7 0;
#X connect 6 0 8 0;
#X connect 7 0 8 1;
#X connect 8 0 1 0;
#X connect 8 1 1 1;
#X connect 8 2 1 2;
#X connect 9 0 36 0;
#X connect 9 1 34 0;
#X connect 9 2 47 0;
#X connect 9 3 48 0;
#X connect 14 0 5 0;
#X connect 15 0 22 0;
#X connect 16 0 19 0;
#X connect 18 0 20 0;
#X connect 18 0 26 0;
#X connect 19 0 2 0;
#X connect 19 1 4 0;
#X connect 20 0 21 0;
#X connect 21 0 24 0;
#X connect 22 0 23 0;
#X connect 23 0 2 1;
#X connect 23 0 29 0;
#X connect 24 0 22 0;
#X connect 24 1 22 1;
#X connect 25 0 52 0;
#X connect 25 0 53 0;
#X connect 26 0 27 0;
#X connect 27 0 28 0;
#X connect 28 0 20 0;
#X connect 30 0 32 0;
#X connect 32 0 31 0;
#X connect 34 0 25 0;
#X connect 34 0 54 0;
#X connect 36 0 25 0;
#X connect 36 0 37 0;
#X connect 37 0 52 0;
#X connect 46 0 36 1;
#X connect 46 0 34 1;
#X connect 46 0 47 1;
#X connect 46 0 48 1;
#X connect 47 0 25 0;
#X connect 47 0 37 0;
#X connect 48 0 25 0;
#X connect 48 0 54 0;
#X connect 52 0 50 0;
#X connect 53 0 51 0;
#X connect 54 0 53 0;
#X connect 57 0 16 0;
#X connect 57 1 56 0;
#X coords 0 -1 1 1 205 165 2 100 100;
