#N canvas 0 23 1102 752 10;
#X obj 108 131 hsl 128 15 0 127 0 1 \$0-polyfm-pitch-s \$0-polyfm-pitch-r
PITCH 135 7 0 10 #fcfcfc #000000 #000000 6000 1;
#X obj 320 467 pack f f f;
#X obj 320 328 f;
#X floatatom 320 350 5 0 0 0 - - - 0;
#X msg 365 184 100;
#X obj 320 393 unpack f f;
#X floatatom 320 415 5 0 0 0 - - - 0;
#X floatatom 377 417 5 0 0 0 - - - 0;
#X obj 320 443 poly 4 1;
#X obj 320 492 route 1 2 3 4;
#X obj 108 161 hsl 128 15 0 127 0 1 \$0-polyfm-ratio-s \$0-polyfm-ratio-r
RATIO 135 7 0 10 #fcfcfc #000000 #000000 6400 1;
#X obj 108 211 hsl 128 15 1.27 127 1 1 \$0-polyfm-attack-s \$0-polyfm-attack-r
ATTACK 135 7 0 10 #fcfcfc #000000 #000000 0 1;
#X obj 108 226 hsl 128 15 0 127 0 1 \$0-polyfm-hold-s \$0-polyfm-hold-r
HOLD 135 7 0 10 #fcfcfc #000000 #000000 6400 1;
#X obj 108 240 hsl 128 15 0 127 0 1 \$0-polyfm-release-s \$0-polyfm-release-r
RELEASE 135 7 0 10 #fcfcfc #000000 #000000 3200 1;
#X obj 320 371 pack f f;
#X obj 320 133 threshold~ 0.9 0 0.9 0;
#X floatatom 206 116 5 0 0 0 - - - 0;
#X obj 471 15 inlet~ PITCH CV;
#X obj 320 152 t b b b;
#X obj 471 152 snapshot~;
#X obj 471 174 * 127;
#X obj 335 225 +;
#X obj 335 247 clip 0 127;
#X obj 471 208 t b f;
#X obj 320 632 *~ 0.25;
#X obj 591 91 env~;
#X obj 591 113 change;
#X obj 591 135 t b;
#X floatatom 416 294 5 0 0 0 - - - 0;
#X obj 678 697 outlet~ EG OUT;
#X obj 678 655 *~ 0.25;
#X obj 108 146 hsl 128 15 0 127 0 1 \$0-polyfm-index-s \$0-polyfm-index-r
INDEX 135 7 0 10 #fcfcfc #000000 #000000 0 1;
#N canvas 224 22 962 575 voice1-ahr 0;
#X obj 43 6 inlet;
#X obj 43 28 unpack f f;
#X obj 100 51 sel 0;
#X obj 43 149 +~;
#X obj 43 179 mtof~;
#X obj 43 495 *~;
#X obj 43 517 outlet~;
#X obj 609 145 * 0.00787402;
#X obj 608 189 + 1;
#X obj 609 121 - 1.27;
#X obj 593 385 vline~;
#X obj 781 265 * 0.00787402;
#X obj 781 309 + 1;
#X obj 781 241 - 1.27;
#X obj 593 434 *~;
#X obj 593 478 *~;
#X obj 593 219 f;
#X obj 43 50 sig~;
#X obj 609 167 * 1999;
#X obj 654 210 * 0.00787402;
#X obj 654 232 * 999;
#X obj 654 254 + 1;
#X msg 593 353 1 \$1 \, 0 \$3 \$2;
#X obj 593 241 t f f;
#X obj 593 326 pack f f f;
#X obj 620 293 +;
#X obj 781 287 * 3999;
#X obj 43 210 phasor~;
#X obj 43 328 +~;
#X obj 43 350 cos~;
#X obj 255 60 r \$0-polyfm-ratio-s;
#X obj 240 196 *~;
#X obj 255 82 * 0.00787402;
#X obj 255 104 * 7;
#X obj 255 126 + 1;
#X obj 255 148 pack 0 50;
#X obj 255 170 line~;
#X obj 240 218 osc~;
#X obj 240 240 *~;
#X obj 384 91 r \$0-polyfm-index-s;
#X obj 384 113 * 0.00787402;
#X obj 384 157 pack 0 50;
#X obj 384 179 line~;
#X obj 609 99 r \$0-polyfm-attack-s;
#X obj 654 188 r \$0-polyfm-hold-s;
#X obj 781 217 r \$0-polyfm-release-s;
#X obj 593 508 throw~ \$0-polyfm-eg;
#X obj 384 135 * 1;
#N canvas 0 22 942 604 eg2 0;
#X obj 246 99 * 0.00787402;
#X obj 245 143 + 1;
#X obj 246 75 - 1.27;
#X obj 230 339 vline~;
#X obj 418 219 * 0.00787402;
#X obj 418 263 + 1;
#X obj 418 195 - 1.27;
#X obj 230 388 *~;
#X obj 230 432 *~;
#X obj 230 173 f;
#X obj 246 121 * 1999;
#X obj 291 164 * 0.00787402;
#X obj 291 186 * 999;
#X obj 291 208 + 1;
#X msg 230 307 1 \$1 \, 0 \$3 \$2;
#X obj 230 195 t f f;
#X obj 230 280 pack f f f;
#X obj 257 247 +;
#X obj 418 241 * 3999;
#X obj 246 53 r \$0-polyfm-attack2-s;
#X obj 291 142 r \$0-polyfm-hold2-s;
#X obj 418 171 r \$0-polyfm-release2-s;
#X obj 230 18 inlet;
#X obj 230 454 outlet~;
#X connect 0 0 10 0;
#X connect 1 0 9 1;
#X connect 2 0 0 0;
#X connect 3 0 7 0;
#X connect 3 0 7 1;
#X connect 4 0 18 0;
#X connect 5 0 16 2;
#X connect 6 0 4 0;
#X connect 7 0 8 0;
#X connect 7 0 8 1;
#X connect 8 0 23 0;
#X connect 9 0 15 0;
#X connect 10 0 1 0;
#X connect 11 0 12 0;
#X connect 12 0 13 0;
#X connect 13 0 17 1;
#X connect 14 0 3 0;
#X connect 15 0 16 0;
#X connect 15 1 17 0;
#X connect 16 0 14 0;
#X connect 17 0 16 1;
#X connect 18 0 5 0;
#X connect 19 0 2 0;
#X connect 20 0 11 0;
#X connect 21 0 6 0;
#X connect 22 0 9 0;
#X restore 154 156 pd eg2;
#X obj 127 74 t b b;
#X obj 139 276 *~;
#X obj 384 201 +~;
#X obj 384 223 clip~ 0 1;
#X obj 450 184 r~ \$0-polyfm-index-cv;
#X connect 0 0 1 0;
#X connect 1 0 17 0;
#X connect 1 1 2 0;
#X connect 2 1 49 0;
#X connect 3 0 4 0;
#X connect 4 0 27 0;
#X connect 4 0 31 0;
#X connect 5 0 6 0;
#X connect 7 0 18 0;
#X connect 8 0 16 1;
#X connect 9 0 7 0;
#X connect 10 0 14 0;
#X connect 10 0 14 1;
#X connect 11 0 26 0;
#X connect 12 0 24 2;
#X connect 13 0 11 0;
#X connect 14 0 15 0;
#X connect 14 0 15 1;
#X connect 15 0 5 1;
#X connect 15 0 46 0;
#X connect 16 0 23 0;
#X connect 17 0 3 0;
#X connect 18 0 8 0;
#X connect 19 0 20 0;
#X connect 20 0 21 0;
#X connect 21 0 25 1;
#X connect 22 0 10 0;
#X connect 23 0 24 0;
#X connect 23 1 25 0;
#X connect 24 0 22 0;
#X connect 25 0 24 1;
#X connect 26 0 12 0;
#X connect 27 0 28 0;
#X connect 28 0 29 0;
#X connect 29 0 5 0;
#X connect 30 0 32 0;
#X connect 31 0 37 0;
#X connect 32 0 33 0;
#X connect 33 0 34 0;
#X connect 34 0 35 0;
#X connect 35 0 36 0;
#X connect 36 0 31 1;
#X connect 37 0 38 0;
#X connect 38 0 50 0;
#X connect 39 0 40 0;
#X connect 40 0 47 0;
#X connect 41 0 42 0;
#X connect 42 0 51 0;
#X connect 43 0 9 0;
#X connect 44 0 19 0;
#X connect 45 0 13 0;
#X connect 47 0 41 0;
#X connect 48 0 50 1;
#X connect 49 0 16 0;
#X connect 49 1 48 0;
#X connect 50 0 28 1;
#X connect 51 0 52 0;
#X connect 52 0 38 1;
#X connect 53 0 51 1;
#X restore 320 518 pd voice1-ahr;
#X obj 103 108 cnv 5 5 5 empty empty TRIG 0 0 0 8 #fcfcfc #dc4c90 0
;
#X obj 105 265 cnv 5 5 5 empty empty modulator-EG 0 0 0 12 #fcfcfc
#404040 0;
#X obj 178 121 cnv 5 5 5 empty \$0-instance-num 0 0 0 0 12 #fcfcfc
#404040 0;
#X obj 106 113 bng 15 50 50 0 empty empty empty 17 7 0 10 #fcfcfc #dc4c90
#000000;
#X obj 270 330 cnv 5 5 5 empty empty ENV 0 0 0 8 #fcfcfc #000000 0
;
#X obj 104 330 cnv 5 5 5 empty empty LEFT 0 0 0 8 #fcfcfc #000000 0
;
#X obj 184 330 cnv 5 5 5 empty empty RIGHT 0 0 0 8 #fcfcfc #000000
0;
#X obj 261 108 cnv 5 5 5 empty empty INDEX 0 0 0 8 #fcfcfc #404040
0;
#X obj 320 707 outlet~ LEFT;
#X obj 678 633 catch~ \$0-polyfm-eg;
#X obj 335 203 r \$0-polyfm-pitch-s;
#X obj 108 274 hsl 128 15 1.27 127 1 1 \$0-polyfm-attack2-s \$0-polyfm-attack2-r
ATTACK 135 7 0 10 #fcfcfc #000000 #000000 0 1;
#X obj 108 289 hsl 128 15 0 127 0 1 \$0-polyfm-hold2-s \$0-polyfm-hold2-r
HOLD 135 7 0 10 #fcfcfc #000000 #000000 3200 1;
#X obj 108 303 hsl 128 15 0 127 0 1 \$0-polyfm-release2-s \$0-polyfm-release2-r
RELEASE 135 7 0 10 #fcfcfc #000000 #000000 6400 1;
#X obj 128 121 cnv 5 5 5 empty empty polyFM 0 0 0 12 #fcfcfc #404040
0;
#X obj 105 202 cnv 5 5 5 empty empty carrier-EG 0 0 0 12 #fcfcfc #404040
0;
#X obj 651 18 inlet~ INDEX CV;
#X obj 651 40 s~ \$0-polyfm-index-cv;
#N canvas 224 22 962 575 voice2-ahr 0;
#X obj 43 6 inlet;
#X obj 43 28 unpack f f;
#X obj 100 51 sel 0;
#X obj 43 149 +~;
#X obj 43 179 mtof~;
#X obj 43 495 *~;
#X obj 43 517 outlet~;
#X obj 609 145 * 0.00787402;
#X obj 608 189 + 1;
#X obj 609 121 - 1.27;
#X obj 593 385 vline~;
#X obj 781 265 * 0.00787402;
#X obj 781 309 + 1;
#X obj 781 241 - 1.27;
#X obj 593 434 *~;
#X obj 593 478 *~;
#X obj 593 219 f;
#X obj 43 50 sig~;
#X obj 609 167 * 1999;
#X obj 654 210 * 0.00787402;
#X obj 654 232 * 999;
#X obj 654 254 + 1;
#X msg 593 353 1 \$1 \, 0 \$3 \$2;
#X obj 593 241 t f f;
#X obj 593 326 pack f f f;
#X obj 620 293 +;
#X obj 781 287 * 3999;
#X obj 43 210 phasor~;
#X obj 43 328 +~;
#X obj 43 350 cos~;
#X obj 255 60 r \$0-polyfm-ratio-s;
#X obj 240 196 *~;
#X obj 255 82 * 0.00787402;
#X obj 255 104 * 7;
#X obj 255 126 + 1;
#X obj 255 148 pack 0 50;
#X obj 255 170 line~;
#X obj 240 218 osc~;
#X obj 240 240 *~;
#X obj 384 91 r \$0-polyfm-index-s;
#X obj 384 113 * 0.00787402;
#X obj 384 157 pack 0 50;
#X obj 384 179 line~;
#X obj 609 99 r \$0-polyfm-attack-s;
#X obj 654 188 r \$0-polyfm-hold-s;
#X obj 781 217 r \$0-polyfm-release-s;
#X obj 593 508 throw~ \$0-polyfm-eg;
#X obj 384 135 * 1;
#N canvas 0 22 942 604 eg2 0;
#X obj 246 99 * 0.00787402;
#X obj 245 143 + 1;
#X obj 246 75 - 1.27;
#X obj 230 339 vline~;
#X obj 418 219 * 0.00787402;
#X obj 418 263 + 1;
#X obj 418 195 - 1.27;
#X obj 230 388 *~;
#X obj 230 432 *~;
#X obj 230 173 f;
#X obj 246 121 * 1999;
#X obj 291 164 * 0.00787402;
#X obj 291 186 * 999;
#X obj 291 208 + 1;
#X msg 230 307 1 \$1 \, 0 \$3 \$2;
#X obj 230 195 t f f;
#X obj 230 280 pack f f f;
#X obj 257 247 +;
#X obj 418 241 * 3999;
#X obj 246 53 r \$0-polyfm-attack2-s;
#X obj 291 142 r \$0-polyfm-hold2-s;
#X obj 418 171 r \$0-polyfm-release2-s;
#X obj 230 18 inlet;
#X obj 230 454 outlet~;
#X connect 0 0 10 0;
#X connect 1 0 9 1;
#X connect 2 0 0 0;
#X connect 3 0 7 0;
#X connect 3 0 7 1;
#X connect 4 0 18 0;
#X connect 5 0 16 2;
#X connect 6 0 4 0;
#X connect 7 0 8 0;
#X connect 7 0 8 1;
#X connect 8 0 23 0;
#X connect 9 0 15 0;
#X connect 10 0 1 0;
#X connect 11 0 12 0;
#X connect 12 0 13 0;
#X connect 13 0 17 1;
#X connect 14 0 3 0;
#X connect 15 0 16 0;
#X connect 15 1 17 0;
#X connect 16 0 14 0;
#X connect 17 0 16 1;
#X connect 18 0 5 0;
#X connect 19 0 2 0;
#X connect 20 0 11 0;
#X connect 21 0 6 0;
#X connect 22 0 9 0;
#X restore 154 156 pd eg2;
#X obj 127 74 t b b;
#X obj 139 276 *~;
#X obj 384 201 +~;
#X obj 384 223 clip~ 0 1;
#X obj 450 184 r~ \$0-polyfm-index-cv;
#X connect 0 0 1 0;
#X connect 1 0 17 0;
#X connect 1 1 2 0;
#X connect 2 1 49 0;
#X connect 3 0 4 0;
#X connect 4 0 27 0;
#X connect 4 0 31 0;
#X connect 5 0 6 0;
#X connect 7 0 18 0;
#X connect 8 0 16 1;
#X connect 9 0 7 0;
#X connect 10 0 14 0;
#X connect 10 0 14 1;
#X connect 11 0 26 0;
#X connect 12 0 24 2;
#X connect 13 0 11 0;
#X connect 14 0 15 0;
#X connect 14 0 15 1;
#X connect 15 0 5 1;
#X connect 15 0 46 0;
#X connect 16 0 23 0;
#X connect 17 0 3 0;
#X connect 18 0 8 0;
#X connect 19 0 20 0;
#X connect 20 0 21 0;
#X connect 21 0 25 1;
#X connect 22 0 10 0;
#X connect 23 0 24 0;
#X connect 23 1 25 0;
#X connect 24 0 22 0;
#X connect 25 0 24 1;
#X connect 26 0 12 0;
#X connect 27 0 28 0;
#X connect 28 0 29 0;
#X connect 29 0 5 0;
#X connect 30 0 32 0;
#X connect 31 0 37 0;
#X connect 32 0 33 0;
#X connect 33 0 34 0;
#X connect 34 0 35 0;
#X connect 35 0 36 0;
#X connect 36 0 31 1;
#X connect 37 0 38 0;
#X connect 38 0 50 0;
#X connect 39 0 40 0;
#X connect 40 0 47 0;
#X connect 41 0 42 0;
#X connect 42 0 51 0;
#X connect 43 0 9 0;
#X connect 44 0 19 0;
#X connect 45 0 13 0;
#X connect 47 0 41 0;
#X connect 48 0 50 1;
#X connect 49 0 16 0;
#X connect 49 1 48 0;
#X connect 50 0 28 1;
#X connect 51 0 52 0;
#X connect 52 0 38 1;
#X connect 53 0 51 1;
#X restore 338 545 pd voice2-ahr;
#N canvas 224 22 962 575 voice3-ahr 0;
#X obj 43 6 inlet;
#X obj 43 28 unpack f f;
#X obj 100 51 sel 0;
#X obj 43 149 +~;
#X obj 43 179 mtof~;
#X obj 43 495 *~;
#X obj 43 517 outlet~;
#X obj 609 145 * 0.00787402;
#X obj 608 189 + 1;
#X obj 609 121 - 1.27;
#X obj 593 385 vline~;
#X obj 781 265 * 0.00787402;
#X obj 781 309 + 1;
#X obj 781 241 - 1.27;
#X obj 593 434 *~;
#X obj 593 478 *~;
#X obj 593 219 f;
#X obj 43 50 sig~;
#X obj 609 167 * 1999;
#X obj 654 210 * 0.00787402;
#X obj 654 232 * 999;
#X obj 654 254 + 1;
#X msg 593 353 1 \$1 \, 0 \$3 \$2;
#X obj 593 241 t f f;
#X obj 593 326 pack f f f;
#X obj 620 293 +;
#X obj 781 287 * 3999;
#X obj 43 210 phasor~;
#X obj 43 328 +~;
#X obj 43 350 cos~;
#X obj 255 60 r \$0-polyfm-ratio-s;
#X obj 240 196 *~;
#X obj 255 82 * 0.00787402;
#X obj 255 104 * 7;
#X obj 255 126 + 1;
#X obj 255 148 pack 0 50;
#X obj 255 170 line~;
#X obj 240 218 osc~;
#X obj 240 240 *~;
#X obj 384 91 r \$0-polyfm-index-s;
#X obj 384 113 * 0.00787402;
#X obj 384 157 pack 0 50;
#X obj 384 179 line~;
#X obj 609 99 r \$0-polyfm-attack-s;
#X obj 654 188 r \$0-polyfm-hold-s;
#X obj 781 217 r \$0-polyfm-release-s;
#X obj 593 508 throw~ \$0-polyfm-eg;
#X obj 384 135 * 1;
#N canvas 0 22 942 604 eg2 0;
#X obj 246 99 * 0.00787402;
#X obj 245 143 + 1;
#X obj 246 75 - 1.27;
#X obj 230 339 vline~;
#X obj 418 219 * 0.00787402;
#X obj 418 263 + 1;
#X obj 418 195 - 1.27;
#X obj 230 388 *~;
#X obj 230 432 *~;
#X obj 230 173 f;
#X obj 246 121 * 1999;
#X obj 291 164 * 0.00787402;
#X obj 291 186 * 999;
#X obj 291 208 + 1;
#X msg 230 307 1 \$1 \, 0 \$3 \$2;
#X obj 230 195 t f f;
#X obj 230 280 pack f f f;
#X obj 257 247 +;
#X obj 418 241 * 3999;
#X obj 246 53 r \$0-polyfm-attack2-s;
#X obj 291 142 r \$0-polyfm-hold2-s;
#X obj 418 171 r \$0-polyfm-release2-s;
#X obj 230 18 inlet;
#X obj 230 454 outlet~;
#X connect 0 0 10 0;
#X connect 1 0 9 1;
#X connect 2 0 0 0;
#X connect 3 0 7 0;
#X connect 3 0 7 1;
#X connect 4 0 18 0;
#X connect 5 0 16 2;
#X connect 6 0 4 0;
#X connect 7 0 8 0;
#X connect 7 0 8 1;
#X connect 8 0 23 0;
#X connect 9 0 15 0;
#X connect 10 0 1 0;
#X connect 11 0 12 0;
#X connect 12 0 13 0;
#X connect 13 0 17 1;
#X connect 14 0 3 0;
#X connect 15 0 16 0;
#X connect 15 1 17 0;
#X connect 16 0 14 0;
#X connect 17 0 16 1;
#X connect 18 0 5 0;
#X connect 19 0 2 0;
#X connect 20 0 11 0;
#X connect 21 0 6 0;
#X connect 22 0 9 0;
#X restore 154 156 pd eg2;
#X obj 127 74 t b b;
#X obj 139 276 *~;
#X obj 384 201 +~;
#X obj 384 223 clip~ 0 1;
#X obj 450 184 r~ \$0-polyfm-index-cv;
#X connect 0 0 1 0;
#X connect 1 0 17 0;
#X connect 1 1 2 0;
#X connect 2 1 49 0;
#X connect 3 0 4 0;
#X connect 4 0 27 0;
#X connect 4 0 31 0;
#X connect 5 0 6 0;
#X connect 7 0 18 0;
#X connect 8 0 16 1;
#X connect 9 0 7 0;
#X connect 10 0 14 0;
#X connect 10 0 14 1;
#X connect 11 0 26 0;
#X connect 12 0 24 2;
#X connect 13 0 11 0;
#X connect 14 0 15 0;
#X connect 14 0 15 1;
#X connect 15 0 5 1;
#X connect 15 0 46 0;
#X connect 16 0 23 0;
#X connect 17 0 3 0;
#X connect 18 0 8 0;
#X connect 19 0 20 0;
#X connect 20 0 21 0;
#X connect 21 0 25 1;
#X connect 22 0 10 0;
#X connect 23 0 24 0;
#X connect 23 1 25 0;
#X connect 24 0 22 0;
#X connect 25 0 24 1;
#X connect 26 0 12 0;
#X connect 27 0 28 0;
#X connect 28 0 29 0;
#X connect 29 0 5 0;
#X connect 30 0 32 0;
#X connect 31 0 37 0;
#X connect 32 0 33 0;
#X connect 33 0 34 0;
#X connect 34 0 35 0;
#X connect 35 0 36 0;
#X connect 36 0 31 1;
#X connect 37 0 38 0;
#X connect 38 0 50 0;
#X connect 39 0 40 0;
#X connect 40 0 47 0;
#X connect 41 0 42 0;
#X connect 42 0 51 0;
#X connect 43 0 9 0;
#X connect 44 0 19 0;
#X connect 45 0 13 0;
#X connect 47 0 41 0;
#X connect 48 0 50 1;
#X connect 49 0 16 0;
#X connect 49 1 48 0;
#X connect 50 0 28 1;
#X connect 51 0 52 0;
#X connect 52 0 38 1;
#X connect 53 0 51 1;
#X restore 357 574 pd voice3-ahr;
#N canvas 224 22 962 575 voice4-ahr 0;
#X obj 43 6 inlet;
#X obj 43 28 unpack f f;
#X obj 100 51 sel 0;
#X obj 43 149 +~;
#X obj 43 179 mtof~;
#X obj 43 495 *~;
#X obj 43 517 outlet~;
#X obj 609 145 * 0.00787402;
#X obj 608 189 + 1;
#X obj 609 121 - 1.27;
#X obj 593 385 vline~;
#X obj 781 265 * 0.00787402;
#X obj 781 309 + 1;
#X obj 781 241 - 1.27;
#X obj 593 434 *~;
#X obj 593 478 *~;
#X obj 593 219 f;
#X obj 43 50 sig~;
#X obj 609 167 * 1999;
#X obj 654 210 * 0.00787402;
#X obj 654 232 * 999;
#X obj 654 254 + 1;
#X msg 593 353 1 \$1 \, 0 \$3 \$2;
#X obj 593 241 t f f;
#X obj 593 326 pack f f f;
#X obj 620 293 +;
#X obj 781 287 * 3999;
#X obj 43 210 phasor~;
#X obj 43 328 +~;
#X obj 43 350 cos~;
#X obj 255 60 r \$0-polyfm-ratio-s;
#X obj 240 196 *~;
#X obj 255 82 * 0.00787402;
#X obj 255 104 * 7;
#X obj 255 126 + 1;
#X obj 255 148 pack 0 50;
#X obj 255 170 line~;
#X obj 240 218 osc~;
#X obj 240 240 *~;
#X obj 384 91 r \$0-polyfm-index-s;
#X obj 384 113 * 0.00787402;
#X obj 384 157 pack 0 50;
#X obj 384 179 line~;
#X obj 609 99 r \$0-polyfm-attack-s;
#X obj 654 188 r \$0-polyfm-hold-s;
#X obj 781 217 r \$0-polyfm-release-s;
#X obj 593 508 throw~ \$0-polyfm-eg;
#X obj 384 135 * 1;
#N canvas 0 22 942 604 eg2 0;
#X obj 246 99 * 0.00787402;
#X obj 245 143 + 1;
#X obj 246 75 - 1.27;
#X obj 230 339 vline~;
#X obj 418 219 * 0.00787402;
#X obj 418 263 + 1;
#X obj 418 195 - 1.27;
#X obj 230 388 *~;
#X obj 230 432 *~;
#X obj 230 173 f;
#X obj 246 121 * 1999;
#X obj 291 164 * 0.00787402;
#X obj 291 186 * 999;
#X obj 291 208 + 1;
#X msg 230 307 1 \$1 \, 0 \$3 \$2;
#X obj 230 195 t f f;
#X obj 230 280 pack f f f;
#X obj 257 247 +;
#X obj 418 241 * 3999;
#X obj 246 53 r \$0-polyfm-attack2-s;
#X obj 291 142 r \$0-polyfm-hold2-s;
#X obj 418 171 r \$0-polyfm-release2-s;
#X obj 230 18 inlet;
#X obj 230 454 outlet~;
#X connect 0 0 10 0;
#X connect 1 0 9 1;
#X connect 2 0 0 0;
#X connect 3 0 7 0;
#X connect 3 0 7 1;
#X connect 4 0 18 0;
#X connect 5 0 16 2;
#X connect 6 0 4 0;
#X connect 7 0 8 0;
#X connect 7 0 8 1;
#X connect 8 0 23 0;
#X connect 9 0 15 0;
#X connect 10 0 1 0;
#X connect 11 0 12 0;
#X connect 12 0 13 0;
#X connect 13 0 17 1;
#X connect 14 0 3 0;
#X connect 15 0 16 0;
#X connect 15 1 17 0;
#X connect 16 0 14 0;
#X connect 17 0 16 1;
#X connect 18 0 5 0;
#X connect 19 0 2 0;
#X connect 20 0 11 0;
#X connect 21 0 6 0;
#X connect 22 0 9 0;
#X restore 154 156 pd eg2;
#X obj 127 74 t b b;
#X obj 139 276 *~;
#X obj 384 201 +~;
#X obj 384 223 clip~ 0 1;
#X obj 450 184 r~ \$0-polyfm-index-cv;
#X connect 0 0 1 0;
#X connect 1 0 17 0;
#X connect 1 1 2 0;
#X connect 2 1 49 0;
#X connect 3 0 4 0;
#X connect 4 0 27 0;
#X connect 4 0 31 0;
#X connect 5 0 6 0;
#X connect 7 0 18 0;
#X connect 8 0 16 1;
#X connect 9 0 7 0;
#X connect 10 0 14 0;
#X connect 10 0 14 1;
#X connect 11 0 26 0;
#X connect 12 0 24 2;
#X connect 13 0 11 0;
#X connect 14 0 15 0;
#X connect 14 0 15 1;
#X connect 15 0 5 1;
#X connect 15 0 46 0;
#X connect 16 0 23 0;
#X connect 17 0 3 0;
#X connect 18 0 8 0;
#X connect 19 0 20 0;
#X connect 20 0 21 0;
#X connect 21 0 25 1;
#X connect 22 0 10 0;
#X connect 23 0 24 0;
#X connect 23 1 25 0;
#X connect 24 0 22 0;
#X connect 25 0 24 1;
#X connect 26 0 12 0;
#X connect 27 0 28 0;
#X connect 28 0 29 0;
#X connect 29 0 5 0;
#X connect 30 0 32 0;
#X connect 31 0 37 0;
#X connect 32 0 33 0;
#X connect 33 0 34 0;
#X connect 34 0 35 0;
#X connect 35 0 36 0;
#X connect 36 0 31 1;
#X connect 37 0 38 0;
#X connect 38 0 50 0;
#X connect 39 0 40 0;
#X connect 40 0 47 0;
#X connect 41 0 42 0;
#X connect 42 0 51 0;
#X connect 43 0 9 0;
#X connect 44 0 19 0;
#X connect 45 0 13 0;
#X connect 47 0 41 0;
#X connect 48 0 50 1;
#X connect 49 0 16 0;
#X connect 49 1 48 0;
#X connect 50 0 28 1;
#X connect 51 0 52 0;
#X connect 52 0 38 1;
#X connect 53 0 51 1;
#X restore 376 601 pd voice4-ahr;
#X obj 431 708 outlet~ RIGHT;
#X obj 320 674 *~ 0.33;
#X obj 431 675 *~ 0.33;
#X obj 258 630 *~ 0.5;
#X obj 482 610 *~ 0.5;
#X floatatom 105 176 5 0 0 0 - \$0-polyfm-ratio-gui-r - 0;
#X obj 530 290 r \$0-polyfm-ratio-s;
#X obj 530 312 / 127;
#X obj 530 334 * 7;
#X obj 530 356 + 1;
#X obj 530 400 s \$0-polyfm-ratio-gui-r;
#X obj 185 108 cnv 5 5 5 empty empty PITCH 0 0 0 8 #fcfcfc #404040
0;
#N canvas 315 35 551 624 save-state 0;
#X obj 237 213 f;
#X obj 247 256 pack f f f f f f f f f;
#X obj 115 338 unpack f f f f f f f f f;
#X obj 254 12 r \$0-polyfm-pitch-s;
#X obj 106 567 s \$0-polyfm-pitch-r;
#X obj 262 35 r \$0-polyfm-index-s;
#X obj 127 543 s \$0-polyfm-index-r;
#X obj 276 56 r \$0-polyfm-ratio-s;
#X obj 148 519 s \$0-polyfm-ratio-r;
#X obj 294 81 r \$0-polyfm-attack-s;
#X obj 169 495 s \$0-polyfm-attack-r;
#X obj 319 110 r \$0-polyfm-hold-s;
#X obj 197 469 s \$0-polyfm-hold-r;
#X obj 340 133 r \$0-polyfm-release-s;
#X obj 212 439 s \$0-polyfm-release-r;
#X obj 352 161 r \$0-polyfm-attack2-s;
#X obj 228 411 s \$0-polyfm-attack2-r;
#X obj 377 190 r \$0-polyfm-hold2-s;
#X obj 256 385 s \$0-polyfm-hold2-r;
#X obj 398 213 r \$0-polyfm-release2-s;
#X obj 271 355 s \$0-polyfm-release2-r;
#X obj 143 192 savestate;
#X obj 78 172 loadbang;
#X obj 35 302 list store;
#X msg 65 250 1;
#X obj 78 193 t b b;
#X obj 65 229 t b a;
#X obj 12 276 spigot 0;
#X obj 115 276 spigot 1;
#X obj 143 213 t a b;
#X msg 170 250 0;
#X msg 115 302 60 0 64 0 64 32 0 32 64;
#X connect 0 0 1 0;
#X connect 1 0 21 0;
#X connect 2 0 4 0;
#X connect 2 1 6 0;
#X connect 2 2 8 0;
#X connect 2 3 10 0;
#X connect 2 4 12 0;
#X connect 2 5 14 0;
#X connect 2 6 16 0;
#X connect 2 7 18 0;
#X connect 2 8 20 0;
#X connect 3 0 0 1;
#X connect 5 0 1 1;
#X connect 7 0 1 2;
#X connect 9 0 1 3;
#X connect 11 0 1 4;
#X connect 13 0 1 5;
#X connect 15 0 1 6;
#X connect 17 0 1 7;
#X connect 19 0 1 8;
#X connect 21 0 29 0;
#X connect 21 1 0 0;
#X connect 22 0 25 0;
#X connect 23 0 2 0;
#X connect 24 0 27 1;
#X connect 25 0 27 0;
#X connect 25 1 28 0;
#X connect 26 0 24 0;
#X connect 26 1 23 1;
#X connect 27 0 23 0;
#X connect 28 0 31 0;
#X connect 29 0 26 0;
#X connect 29 1 30 0;
#X connect 30 0 28 1;
#X connect 31 0 2 0;
#X restore 52 482 pd save-state;
#N canvas 297 22 499 353 forwarding 0;
#X obj 18 71 route PITCH INDEX RATIO ATTACK HOLD RELEASE ATTACK2 HOLD2
RELEASE2;
#X obj 20 304 s \$0-polyfm-pitch-r;
#X obj 71 283 s \$0-polyfm-index-r;
#X obj 103 257 s \$0-polyfm-ratio-r;
#X obj 139 234 s \$0-polyfm-attack-r;
#X obj 163 208 s \$0-polyfm-hold-r;
#X obj 205 187 s \$0-polyfm-release-r;
#X obj 236 165 s \$0-polyfm-attack2-r;
#X obj 274 141 s \$0-polyfm-hold2-r;
#X obj 326 109 s \$0-polyfm-release2-r;
#X obj 18 19 inlet;
#X connect 0 0 1 0;
#X connect 0 1 2 0;
#X connect 0 2 3 0;
#X connect 0 3 4 0;
#X connect 0 4 5 0;
#X connect 0 5 6 0;
#X connect 0 6 7 0;
#X connect 0 7 8 0;
#X connect 0 8 9 0;
#X connect 10 0 0 0;
#X restore 357 87 pd forwarding;
#X obj 320 61 inlet~ fwd;
#X connect 0 0 16 0;
#X connect 1 0 9 0;
#X connect 2 0 3 0;
#X connect 3 0 14 0;
#X connect 4 0 14 1;
#X connect 5 0 6 0;
#X connect 5 1 7 0;
#X connect 6 0 8 0;
#X connect 7 0 8 1;
#X connect 8 0 1 0;
#X connect 8 1 1 1;
#X connect 8 2 1 2;
#X connect 9 0 32 0;
#X connect 9 1 51 0;
#X connect 9 2 52 0;
#X connect 9 3 53 0;
#X connect 14 0 5 0;
#X connect 15 0 18 0;
#X connect 17 0 19 0;
#X connect 17 0 25 0;
#X connect 18 0 2 0;
#X connect 18 1 4 0;
#X connect 19 0 20 0;
#X connect 20 0 23 0;
#X connect 21 0 22 0;
#X connect 22 0 2 1;
#X connect 22 0 28 0;
#X connect 23 0 21 0;
#X connect 23 1 21 1;
#X connect 24 0 55 0;
#X connect 24 0 56 0;
#X connect 25 0 26 0;
#X connect 26 0 27 0;
#X connect 27 0 19 0;
#X connect 30 0 29 0;
#X connect 32 0 24 0;
#X connect 32 0 57 0;
#X connect 42 0 30 0;
#X connect 43 0 21 0;
#X connect 49 0 50 0;
#X connect 51 0 24 0;
#X connect 51 0 58 0;
#X connect 52 0 24 0;
#X connect 52 0 57 0;
#X connect 53 0 24 0;
#X connect 53 0 58 0;
#X connect 55 0 41 0;
#X connect 56 0 54 0;
#X connect 57 0 55 0;
#X connect 58 0 56 0;
#X connect 60 0 61 0;
#X connect 61 0 62 0;
#X connect 62 0 63 0;
#X connect 63 0 64 0;
#X connect 68 0 15 0;
#X connect 68 1 67 0;
#X coords 0 -1 1 1 190 240 2 100 100;
