#N canvas 0 23 835 546 10;
#X obj 107 124 hsl 128 15 0 127 0 1 \$0-probability-prob-s \$0-probability-prob-r
PROB 133 7 0 10 #fcfcfc #000000 #000000 7100 1;
#X obj 136 110 cnv 5 5 5 empty empty PROBABILITY 0 0 0 12 #fcfcfc #404040
0;
#X obj 251 109 cnv 5 5 5 empty empty CV 0 0 0 8 #fcfcfc #000000 0;
#X obj 105 109 cnv 5 5 5 empty empty IN 0 0 0 8 #fcfcfc #dc4c90 0;
#X obj 411 150 random 127;
#X obj 412 251 moses;
#X obj 412 328 t b b;
#X msg 412 351 1 0 \, 0 1 1;
#X obj 412 373 vline~;
#X obj 327 353 t b b;
#X msg 327 376 1 0 \, 0 1 1;
#X obj 327 398 vline~;
#X obj 242 146 bng 15 100 50 0 empty empty empty 17 7 0 10 #fcfcfc
#dc4c90 #000000;
#X obj 106 146 bng 15 100 50 0 empty empty empty 17 7 0 10 #fcfcfc
#dc4c90 #000000;
#X obj 106 168 cnv 5 5 5 empty empty OUT1 0 0 0 8 #fcfcfc #dc4c90 0
;
#X obj 242 168 cnv 5 5 5 empty empty OUT2 0 0 0 8 #fcfcfc #dc4c90 0
;
#X obj 412 395 outlet~;
#X obj 327 420 outlet~;
#X obj 614 129 inlet~;
#X obj 614 160 snapshot~;
#X obj 614 211 t b f;
#X obj 439 228 +;
#X obj 675 128 bang~;
#X obj 614 182 * 127;
#X obj 411 128 threshold~ 0.9 0 0.9 0;
#N canvas 531 26 215 199 forwarding 0;
#X obj 18 74 route PROB;
#X obj 18 110 s \$0-probability-prob-r;
#X obj 18 22 inlet;
#X connect 0 0 1 0;
#X connect 2 0 0 0;
#X restore 468 98 pd forwarding;
#N canvas 21 22 424 276 save-state 0;
#X obj 230 76 f;
#X obj 230 102 pack f;
#X obj 105 189 unpack f;
#X obj 245 27 r \$0-probability-prob-s;
#X obj 105 211 s \$0-probability-prob-r;
#X obj 143 44 savestate;
#X obj 78 24 loadbang;
#X obj 35 154 list store;
#X msg 65 102 1;
#X obj 78 45 t b b;
#X obj 65 81 t b a;
#X obj 12 128 spigot 0;
#X obj 115 128 spigot 1;
#X obj 143 65 t a b;
#X msg 170 102 0;
#X msg 115 154 64;
#X connect 0 0 1 0;
#X connect 1 0 5 0;
#X connect 2 0 4 0;
#X connect 3 0 0 1;
#X connect 5 0 13 0;
#X connect 5 1 0 0;
#X connect 6 0 9 0;
#X connect 7 0 2 0;
#X connect 8 0 11 1;
#X connect 9 0 11 0;
#X connect 9 1 12 0;
#X connect 10 0 8 0;
#X connect 10 1 7 1;
#X connect 11 0 7 0;
#X connect 12 0 15 0;
#X connect 13 0 10 0;
#X connect 13 1 14 0;
#X connect 14 0 12 1;
#X connect 15 0 2 0;
#X restore 54 401 pd save-state;
#X obj 411 72 inlet~ fwd;
#X connect 0 0 21 0;
#X connect 4 0 5 0;
#X connect 5 0 6 0;
#X connect 5 1 9 0;
#X connect 6 0 7 0;
#X connect 6 1 12 0;
#X connect 7 0 8 0;
#X connect 8 0 16 0;
#X connect 9 0 10 0;
#X connect 9 1 13 0;
#X connect 10 0 11 0;
#X connect 11 0 17 0;
#X connect 18 0 19 0;
#X connect 19 0 23 0;
#X connect 20 0 21 0;
#X connect 20 1 21 1;
#X connect 21 0 5 1;
#X connect 22 0 19 0;
#X connect 23 0 20 0;
#X connect 24 0 4 0;
#X connect 27 0 24 0;
#X connect 27 1 25 0;
#X coords 0 -1 1 1 165 75 2 100 100;
