#N canvas 34 23 1246 669 10;
#X obj 361 150 *~;
#X obj 376 59 r \$0-channel1-s;
#X obj 376 81 / 127;
#X obj 376 103 pack 0 50;
#X obj 376 125 line~;
#X obj 361 218 *~;
#X obj 243 117 bng 15 250 50 0 \$0-random-solo! \$0-random-solo!-r
RANDOM-SOLO 17 7 0 10 #fcfcfc #dc4c90 #000000;
#X obj 243 134 bng 15 250 50 0 \$0-random-mute! \$0-random-mute!-r
RANDOM-MUTE 17 7 0 10 #fcfcfc #dc4c90 #000000;
#X obj 108 248 tgl 33 1 \$0-solo1-s \$0-solo1-r empty 17 7 0 10 #90d4b0
#000000 #000000 1 1;
#X obj 398 157 r \$0-solo1-s;
#X obj 398 201 line~;
#X obj 108 165 vsl 15 80 0 127 0 1 \$0-channel1-s \$0-channel1-r CH1
-1 -9 0 10 #fcfcfc #000000 #000000 3981 1;
#X obj 125 165 vu 15 80 \$0-ch1-meter-r empty -1 -8 0 10 #404040 #000000
0 0;
#X obj 141 248 tgl 33 1 \$0-solo2-s \$0-solo2-r empty 17 7 0 10 #90d4b0
#000000 #000000 1 1;
#X obj 141 165 vsl 15 80 0 127 0 1 \$0-channel2-s \$0-channel2-r CH2
-1 -9 0 10 #fcfcfc #000000 #000000 3981 1;
#X obj 158 165 vu 15 80 \$0-ch2-meter-r empty -1 -8 0 10 #404040 #000000
0 0;
#X obj 174 248 tgl 33 1 \$0-solo3-s \$0-solo3-r empty 17 7 0 10 #90d4b0
#000000 #000000 1 1;
#X obj 174 165 vsl 15 80 0 127 0 1 \$0-channel3-s \$0-channel3-r CH3
-1 -9 0 10 #fcfcfc #000000 #000000 3981 1;
#X obj 191 165 vu 15 80 \$0-ch3-meter-r empty -1 -8 0 10 #404040 #000000
0 0;
#X obj 207 248 tgl 33 1 \$0-solo4-s \$0-solo4-r empty 17 7 0 10 #90d4b0
#000000 #000000 1 1;
#X obj 224 165 vu 15 80 \$0-ch4-meter-r empty -1 -8 0 10 #404040 #000000
0 0;
#N canvas 0 22 450 300 random-solo 0;
#X obj 59 17 r \$0-random-solo!;
#X obj 59 39 random 4;
#X obj 59 260 s \$0-solo1-r;
#X obj 59 61 t f f f f;
#X obj 76 215 s \$0-solo2-r;
#X obj 93 169 s \$0-solo3-r;
#X obj 110 124 s \$0-solo4-r;
#X obj 59 235 == 0;
#X obj 76 190 == 1;
#X obj 93 144 == 2;
#X obj 110 99 == 3;
#X floatatom 136 56 5 0 0 0 - - - 0;
#X connect 0 0 1 0;
#X connect 1 0 3 0;
#X connect 1 0 11 0;
#X connect 3 0 7 0;
#X connect 3 1 8 0;
#X connect 3 2 9 0;
#X connect 3 3 10 0;
#X connect 7 0 2 0;
#X connect 8 0 4 0;
#X connect 9 0 5 0;
#X connect 10 0 6 0;
#X restore 99 50 pd random-solo;
#N canvas 0 22 502 355 random-mute 0;
#X obj 206 81 t b b b b;
#X obj 206 270 s \$0-solo1-r;
#X obj 223 226 s \$0-solo2-r;
#X obj 240 179 s \$0-solo3-r;
#X obj 257 129 s \$0-solo4-r;
#X obj 206 59 r \$0-random-mute!;
#X obj 257 107 random 2;
#X obj 240 157 random 2;
#X obj 223 204 random 2;
#X obj 206 248 random 2;
#X connect 0 0 9 0;
#X connect 0 1 8 0;
#X connect 0 2 7 0;
#X connect 0 3 6 0;
#X connect 5 0 0 0;
#X connect 6 0 4 0;
#X connect 7 0 3 0;
#X connect 8 0 2 0;
#X connect 9 0 1 0;
#X restore 99 72 pd random-mute;
#X obj 459 235 env~;
#X obj 459 267 - 96;
#X obj 459 289 s \$0-ch1-meter-r;
#X obj 361 291 throw~ \$0-SUM;
#X obj 571 29 inlet~;
#X obj 571 145 *~;
#X obj 586 76 / 127;
#X obj 586 98 pack 0 50;
#X obj 586 120 line~;
#X obj 571 213 *~;
#X obj 608 196 line~;
#X obj 669 230 env~;
#X obj 669 262 - 96;
#X obj 571 286 throw~ \$0-SUM;
#X obj 586 54 r \$0-channel2-s;
#X obj 608 152 r \$0-solo2-s;
#X obj 669 284 s \$0-ch2-meter-r;
#X obj 791 27 inlet~;
#X obj 791 143 *~;
#X obj 806 74 / 127;
#X obj 806 96 pack 0 50;
#X obj 806 118 line~;
#X obj 791 211 *~;
#X obj 828 194 line~;
#X obj 889 228 env~;
#X obj 889 260 - 96;
#X obj 791 284 throw~ \$0-SUM;
#X obj 806 52 r \$0-channel3-s;
#X obj 828 150 r \$0-solo3-s;
#X obj 889 282 s \$0-ch3-meter-r;
#X obj 997 27 inlet~;
#X obj 997 143 *~;
#X obj 1012 74 / 127;
#X obj 1012 96 pack 0 50;
#X obj 1012 118 line~;
#X obj 997 211 *~;
#X obj 1034 194 line~;
#X obj 1095 228 env~;
#X obj 1095 260 - 96;
#X obj 997 284 throw~ \$0-SUM;
#X obj 1012 52 r \$0-channel4-s;
#X obj 1034 150 r \$0-solo4-s;
#X obj 1095 282 s \$0-ch4-meter-r;
#X obj 207 165 vsl 15 80 0 127 0 1 \$0-channel4-s \$0-channel4-r CH4
-1 -9 0 10 #fcfcfc #000000 #000000 3981 1;
#X obj 240 165 vsl 33 80 0 127 0 1 \$0-fx1-s \$0-fx1-r FXSEND -1 -9
0 10 #9898dc #000000 #000000 3981 1;
#X obj 240 248 bng 33 250 50 1 \$0-fx-bang! \$0-fx-bang!-r REVERB 38
16 0 10 #fcfcfc #dc4c90 #000000;
#X obj 361 326 r \$0-fx-bang!;
#X obj 361 348 f;
#X obj 387 348 + 1;
#X obj 361 370 % 4;
#X obj 361 392 sel 0 1 2 3;
#X obj 361 541 s \$0-fx-bang!-r;
#X msg 361 519 label REVERB;
#X msg 376 498 label DELAY;
#X msg 392 474 label OVERDRIVE;
#X obj 107 141 cnv 5 5 5 empty empty RANDOM-MIXER 0 0 0 12 #fcfcfc
#404040 0;
#X obj 104 109 cnv 5 5 5 empty empty CH1 0 0 0 8 #fcfcfc #404040 0
;
#X obj 130 109 cnv 5 5 5 empty empty CH2 0 0 0 8 #fcfcfc #404040 0
;
#X obj 161 109 cnv 5 5 5 empty empty CH3 0 0 0 8 #fcfcfc #404040 0
;
#X obj 313 109 cnv 5 5 5 empty empty MUTE 0 0 0 8 #fcfcfc #dc4c90 0
;
#X obj 260 109 cnv 5 5 5 empty empty FX 0 0 0 8 #fcfcfc #dc4c90 0;
#X obj 287 109 cnv 5 5 5 empty empty SOLO 0 0 0 8 #fcfcfc #dc4c90 0
;
#X obj 1382 30 inlet~ RDM-SOLO;
#X obj 1118 33 inlet~ FX-SEND;
#X obj 1213 33 inlet~ FX-CHANGE;
#X obj 1482 29 inlet~ RDM-MUTE;
#X obj 194 109 cnv 5 5 5 empty empty CH4 0 0 0 8 #fcfcfc #404040 0
;
#X obj 229 109 cnv 5 5 5 empty empty FX 0 0 0 8 #fcfcfc #404040 0;
#X obj 1382 52 threshold~ 0.9 0 0.9 0;
#X obj 1382 74 t b;
#X obj 1382 96 s \$0-random-solo!-r;
#X obj 1483 128 threshold~ 0.9 0 0.9 0;
#X obj 1483 150 t b;
#X obj 1483 172 s \$0-random-mute!-r;
#X obj 545 372 catch~ \$0-SUM;
#X obj 661 371 outlet~ CH1;
#X obj 751 371 outlet~ CH2;
#X obj 845 371 outlet~ CH3;
#X obj 935 371 outlet~ CH4;
#X obj 105 292 cnv 5 5 5 empty empty LEFT 0 0 0 8 #fcfcfc #404040 0
;
#X obj 230 292 cnv 5 5 5 empty empty CH2 0 0 0 8 #fcfcfc #404040 0
;
#X obj 188 292 cnv 5 5 5 empty empty CH1 0 0 0 8 #fcfcfc #404040 0
;
#X obj 316 292 cnv 5 5 5 empty empty CH4 0 0 0 8 #fcfcfc #404040 0
;
#X obj 278 292 cnv 5 5 5 empty empty CH3 0 0 0 8 #fcfcfc #404040 0
;
#X obj 398 179 pack 0 10;
#X obj 608 174 pack 0 10;
#X obj 828 172 pack 0 10;
#X obj 1034 172 pack 0 10;
#X obj 683 588 *~;
#X obj 673 398 r \$0-fx1-s;
#X obj 673 420 / 127;
#X msg 700 463 1 \$1;
#X obj 700 485 -;
#X obj 700 507 pack 0 50;
#X obj 700 529 line~;
#X obj 673 442 t f f;
#X obj 505 552 *~;
#X obj 590 459 pack 0 50;
#X obj 591 511 line~;
#N canvas 0 22 699 339 fx-sends 0;
#N canvas 106 70 450 300 delay 0;
#X obj 128 76 inlet~;
#X obj 128 111 delwrite~ \$0-delay 200;
#X obj 75 40 delread~ \$0-delay 200;
#X obj 78 252 outlet~;
#X obj 75 75 *~ 0.75;
#X obj 192 182 *~ 0.75;
#X obj 192 147 delread~ \$0-delay2 199;
#X obj 245 218 delwrite~ \$0-delay2 199;
#X obj 193 248 outlet~;
#X obj 79 177 *~ 0.5;
#X obj 198 219 *~ 0.5;
#X connect 0 0 1 0;
#X connect 0 0 7 0;
#X connect 2 0 4 0;
#X connect 2 0 9 0;
#X connect 4 0 1 0;
#X connect 5 0 7 0;
#X connect 6 0 5 0;
#X connect 6 0 10 0;
#X connect 9 0 3 0;
#X connect 10 0 8 0;
#X restore 96 149 pd delay;
#X obj 40 13 inlet~;
#X obj 348 15 r \$0-fx-bang!;
#X obj 348 37 f;
#X obj 374 37 + 1;
#X obj 348 59 % 4;
#N canvas 0 22 450 300 overdrive 0;
#X obj 147 122 inlet~;
#X obj 146 245 outlet~;
#X obj 147 180 clip~ -1 1;
#X obj 147 201 lop~ 2200;
#X obj 147 158 *~ 50;
#X obj 147 223 *~ 0.25;
#X connect 0 0 4 0;
#X connect 2 0 3 0;
#X connect 3 0 5 0;
#X connect 4 0 2 0;
#X connect 5 0 1 0;
#X restore 158 185 pd overdrive;
#X obj 348 81 t f f f f;
#X obj 348 177 == 0;
#X obj 365 156 == 1;
#X obj 382 132 == 2;
#X obj 399 111 == 3;
#X obj 348 218 pack 0 50;
#X obj 348 240 line~;
#X obj 40 76 *~;
#X obj 348 262 s~ \$0-REVERB;
#X obj 78 59 r~ \$0-REVERB;
#X obj 431 218 pack 0 50;
#X obj 431 240 line~;
#X obj 431 262 s~ \$0-DELAY;
#X obj 512 217 pack 0 50;
#X obj 512 239 line~;
#X obj 512 261 s~ \$0-OVERDRIVE;
#X obj 612 218 pack 0 50;
#X obj 612 240 line~;
#X obj 111 101 r~ \$0-DELAY;
#X obj 96 124 *~;
#X obj 158 155 *~;
#X obj 173 126 r~ \$0-OVERDRIVE;
#X obj 249 231 *~;
#N canvas 0 22 450 300 reverb 0;
#X obj 132 55 inlet~;
#X obj 132 219 outlet~;
#X obj 132 130 rev3~ 100 95 2200 90;
#X obj 187 220 outlet~;
#X connect 0 0 2 0;
#X connect 2 0 1 0;
#X connect 2 1 3 0;
#X restore 40 98 pd reverb;
#X obj 35 301 outlet~ LEFT;
#X obj 134 304 outlet~ RIGHT;
#N canvas 0 22 1207 689 bitcrush 0;
#X obj 318 393 lop~ 2000;
#X obj 318 419 lop~ 2000;
#X obj 318 446 samphold~;
#X obj 453 245 mtof~;
#X obj 453 213 +~;
#X obj 453 267 phasor~;
#X obj 453 153 sig~;
#X obj 453 175 lop~ 10;
#X obj 453 311 *~ 2;
#X obj 453 333 -~ 1;
#X obj 318 178 inlet~;
#X obj 453 130 -;
#X msg 453 108 127 \$1;
#X obj 453 289 expr~ $v1 > 0.5;
#X text 310 155 SIGNAL IN;
#X obj 318 468 lop~ 2000;
#X obj 318 490 lop~ 2000;
#X obj 318 598 outlet~;
#X obj 318 570 *~ 0.5;
#X obj 453 82 t f;
#X obj 454 29 loadbang;
#X msg 453 53 50;
#X connect 0 0 1 0;
#X connect 1 0 2 0;
#X connect 2 0 15 0;
#X connect 3 0 5 0;
#X connect 4 0 3 0;
#X connect 5 0 13 0;
#X connect 6 0 7 0;
#X connect 7 0 4 0;
#X connect 8 0 9 0;
#X connect 9 0 2 1;
#X connect 10 0 0 0;
#X connect 11 0 6 0;
#X connect 12 0 11 0;
#X connect 13 0 8 0;
#X connect 15 0 16 0;
#X connect 16 0 18 0;
#X connect 18 0 17 0;
#X connect 19 0 12 0;
#X connect 20 0 21 0;
#X connect 21 0 19 0;
#X restore 249 254 pd bitcrush;
#X obj 611 262 s~ \$0-BITCRUSH;
#X obj 264 206 r~ \$0-BITCRUSH;
#X obj 465 19 r \$0-random-fx;
#X connect 0 0 31 0;
#X connect 0 1 32 0;
#X connect 1 0 14 0;
#X connect 1 0 26 0;
#X connect 1 0 27 0;
#X connect 1 0 29 0;
#X connect 2 0 3 0;
#X connect 3 0 4 0;
#X connect 3 0 5 0;
#X connect 4 0 3 1;
#X connect 5 0 7 0;
#X connect 6 0 31 0;
#X connect 6 0 32 0;
#X connect 7 0 8 0;
#X connect 7 1 9 0;
#X connect 7 2 10 0;
#X connect 7 3 11 0;
#X connect 8 0 12 0;
#X connect 9 0 17 0;
#X connect 10 0 20 0;
#X connect 11 0 23 0;
#X connect 12 0 13 0;
#X connect 13 0 15 0;
#X connect 14 0 30 0;
#X connect 16 0 14 1;
#X connect 17 0 18 0;
#X connect 18 0 19 0;
#X connect 20 0 21 0;
#X connect 21 0 22 0;
#X connect 23 0 24 0;
#X connect 24 0 34 0;
#X connect 25 0 26 1;
#X connect 26 0 0 0;
#X connect 27 0 6 0;
#X connect 28 0 27 1;
#X connect 29 0 33 0;
#X connect 30 0 31 0;
#X connect 30 1 32 0;
#X connect 33 0 31 0;
#X connect 33 0 32 0;
#X connect 35 0 29 1;
#X connect 36 0 7 0;
#X restore 496 443 pd fx-sends;
#X obj 532 643 outlet~ LEFT;
#X obj 648 644 outlet~ RIGHT;
#X obj 139 292 cnv 5 5 5 empty empty RIGHT 0 0 0 8 #fcfcfc #404040
0;
#X obj 578 578 *~;
#X msg 408 449 label BITCRUSH;
#X obj 1213 61 threshold~ 0.9 0 0.9 0;
#X obj 1213 83 t b;
#X obj 1213 105 random 4;
#X obj 1213 127 s \$0-random-fx;
#X obj 421 346 r \$0-random-fx;
#X obj 1118 55 *~ -1;
#X obj 521 508 +~;
#X obj 521 530 clip~ 0 1;
#X obj 589 534 +~;
#X obj 589 556 clip~ 0 1;
#X obj 700 551 +~;
#X obj 1118 77 +~ 0;
#N canvas 299 349 463 320 forwarding 0;
#X obj 8 46 route CH1 CH2 CH3 CH4 FXSEND RANDOM-SOLO RANDOM-MUTE;
#X obj 9 222 s \$0-channel1-r;
#X obj 46 200 s \$0-channel2-r;
#X obj 95 178 s \$0-channel3-r;
#X obj 144 151 s \$0-channel4-r;
#X obj 197 126 s \$0-fx1-r;
#X obj 229 101 s \$0-random-solo!-r;
#X obj 269 75 s \$0-random-mute!-r;
#X obj 8 14 inlet;
#X connect 0 0 1 0;
#X connect 0 1 2 0;
#X connect 0 2 3 0;
#X connect 0 3 4 0;
#X connect 0 4 5 0;
#X connect 0 5 6 0;
#X connect 0 6 7 0;
#X connect 8 0 0 0;
#X restore 418 29 pd forwarding;
#N canvas 315 39 965 739 save-state 0;
#X obj 242 121 f;
#X obj 253 237 pack f f f f f f f f f;
#X obj 414 226 r \$0-fx1-s;
#X obj 338 124 r \$0-solo1-s;
#X obj 354 152 r \$0-solo2-s;
#X obj 376 176 r \$0-solo3-s;
#X obj 394 201 r \$0-solo4-s;
#X obj 257 18 r \$0-channel1-s;
#X obj 286 48 r \$0-channel2-s;
#X obj 300 74 r \$0-channel3-s;
#X obj 318 99 r \$0-channel4-s;
#X obj 75 249 unpack f f f f f f f f f;
#X obj 251 268 s \$0-fx1-r;
#X obj 224 294 s \$0-solo4-r;
#X obj 203 318 s \$0-solo3-r;
#X obj 182 342 s \$0-solo2-r;
#X obj 165 371 s \$0-solo1-r;
#X obj 138 397 s \$0-channel4-r;
#X obj 117 421 s \$0-channel3-r;
#X obj 96 445 s \$0-channel2-r;
#X obj 75 469 s \$0-channel1-r;
#X obj 103 44 savestate;
#X obj 38 24 loadbang;
#X obj -5 154 list store;
#X msg 25 102 1;
#X obj 38 45 t b b;
#X obj 25 81 t b a;
#X obj -28 128 spigot 0;
#X obj 75 128 spigot 1;
#X obj 103 65 t a b;
#X msg 130 102 0;
#X msg 75 154 64 64 64 64 1 1 1 1 64;
#X connect 0 0 1 0;
#X connect 1 0 21 0;
#X connect 2 0 1 8;
#X connect 3 0 1 4;
#X connect 4 0 1 5;
#X connect 5 0 1 6;
#X connect 6 0 1 7;
#X connect 7 0 0 1;
#X connect 8 0 1 1;
#X connect 9 0 1 2;
#X connect 10 0 1 3;
#X connect 11 0 20 0;
#X connect 11 1 19 0;
#X connect 11 2 18 0;
#X connect 11 3 17 0;
#X connect 11 4 16 0;
#X connect 11 5 15 0;
#X connect 11 6 14 0;
#X connect 11 7 13 0;
#X connect 11 8 12 0;
#X connect 21 0 29 0;
#X connect 21 1 0 0;
#X connect 22 0 25 0;
#X connect 23 0 11 0;
#X connect 24 0 27 1;
#X connect 25 0 27 0;
#X connect 25 1 28 0;
#X connect 26 0 24 0;
#X connect 26 1 23 1;
#X connect 27 0 23 0;
#X connect 28 0 31 0;
#X connect 29 0 26 0;
#X connect 29 1 30 0;
#X connect 30 0 28 1;
#X connect 31 0 11 0;
#X restore 98 393 pd save-state;
#X obj 361 4 inlet~ fwd;
#X connect 0 0 5 0;
#X connect 0 0 23 0;
#X connect 1 0 2 0;
#X connect 2 0 3 0;
#X connect 3 0 4 0;
#X connect 4 0 0 1;
#X connect 5 0 26 0;
#X connect 5 0 98 0;
#X connect 9 0 107 0;
#X connect 10 0 5 1;
#X connect 23 0 24 0;
#X connect 24 0 25 0;
#X connect 27 0 28 0;
#X connect 28 0 32 0;
#X connect 28 0 34 0;
#X connect 29 0 30 0;
#X connect 30 0 31 0;
#X connect 31 0 28 1;
#X connect 32 0 36 0;
#X connect 32 0 99 0;
#X connect 33 0 32 1;
#X connect 34 0 35 0;
#X connect 35 0 39 0;
#X connect 37 0 29 0;
#X connect 38 0 108 0;
#X connect 40 0 41 0;
#X connect 41 0 45 0;
#X connect 41 0 47 0;
#X connect 42 0 43 0;
#X connect 43 0 44 0;
#X connect 44 0 41 1;
#X connect 45 0 49 0;
#X connect 45 0 100 0;
#X connect 46 0 45 1;
#X connect 47 0 48 0;
#X connect 48 0 52 0;
#X connect 50 0 42 0;
#X connect 51 0 109 0;
#X connect 53 0 54 0;
#X connect 54 0 58 0;
#X connect 54 0 60 0;
#X connect 55 0 56 0;
#X connect 56 0 57 0;
#X connect 57 0 54 1;
#X connect 58 0 62 0;
#X connect 58 0 101 0;
#X connect 59 0 58 1;
#X connect 60 0 61 0;
#X connect 61 0 65 0;
#X connect 63 0 55 0;
#X connect 64 0 110 0;
#X connect 69 0 70 0;
#X connect 70 0 71 0;
#X connect 70 0 72 0;
#X connect 71 0 70 1;
#X connect 72 0 73 0;
#X connect 73 0 75 0;
#X connect 73 1 76 0;
#X connect 73 2 77 0;
#X connect 73 3 127 0;
#X connect 75 0 74 0;
#X connect 76 0 74 0;
#X connect 77 0 74 0;
#X connect 85 0 91 0;
#X connect 86 0 133 0;
#X connect 86 0 134 1;
#X connect 86 0 136 1;
#X connect 87 0 128 0;
#X connect 88 0 94 0;
#X connect 91 0 92 0;
#X connect 92 0 93 0;
#X connect 94 0 95 0;
#X connect 95 0 96 0;
#X connect 97 0 111 0;
#X connect 97 0 122 0;
#X connect 107 0 10 0;
#X connect 108 0 33 0;
#X connect 109 0 46 0;
#X connect 110 0 59 0;
#X connect 111 0 123 0;
#X connect 111 0 124 0;
#X connect 112 0 113 0;
#X connect 113 0 118 0;
#X connect 114 0 115 0;
#X connect 115 0 116 0;
#X connect 116 0 117 0;
#X connect 117 0 138 0;
#X connect 118 0 120 0;
#X connect 118 1 114 0;
#X connect 119 0 123 0;
#X connect 120 0 121 0;
#X connect 121 0 134 0;
#X connect 121 0 136 0;
#X connect 122 0 119 0;
#X connect 122 1 126 0;
#X connect 126 0 124 0;
#X connect 127 0 74 0;
#X connect 128 0 129 0;
#X connect 129 0 130 0;
#X connect 130 0 131 0;
#X connect 132 0 73 0;
#X connect 133 0 139 0;
#X connect 134 0 135 0;
#X connect 135 0 119 1;
#X connect 136 0 137 0;
#X connect 137 0 126 1;
#X connect 138 0 111 1;
#X connect 139 0 138 1;
#X connect 142 0 0 0;
#X connect 142 1 140 0;
#X coords 0 -1 1 1 235 200 2 100 100;
