#N canvas 323 23 957 605 10;
#X obj 514 195 noise~;
#X obj 514 290 lop~;
#X obj 105 136 hsl 128 15 0 127 0 1 \$0-random-bi-random-s \$0-random-bi-random-r
RANDOM 133 7 0 10 #fcfcfc #000000 #000000 6400 1;
#X obj 535 262 mtof;
#X obj 514 327 samphold~;
#X obj 103 116 bng 15 50 50 0 empty empty empty 17 7 0 10 #fcfcfc #dc4c90
#000000;
#X obj 121 125 cnv 5 5 5 empty empty RANDOM-VOLTAGES 0 0 0 12 #fcfcfc
#404040 0;
#X obj 105 109 cnv 5 5 5 empty empty CLOCK-IN 0 0 0 8 #fcfcfc #dc4c90
0;
#X obj 408 437 lop~ 1;
#X msg 102 209 127 \$1;
#X obj 102 231 -;
#X obj 102 253 * 0.5;
#X obj 105 151 hsl 128 15 0 127 0 1 \$0-random-bi-slew-s \$0-random-bi-slew-r
SLEW 133 7 0 10 #fcfcfc #000000 #000000 0 1;
#X obj 774 118 threshold~ 0.99 0 1 0;
#X obj 774 140 t b b;
#X msg 774 312 reset;
#X obj 514 555 abs~;
#X obj 514 577 outlet~ UNI-POLAR;
#X obj 408 577 outlet~ BI-POLAR;
#X obj 248 178 cnv 5 5 5 empty empty UNI-P 0 0 0 8 #fcfcfc #404040
0;
#X obj 103 178 cnv 5 5 5 empty empty BI-P 0 0 0 8 #fcfcfc #404040 0
;
#X obj 102 275 + 0.1;
#X floatatom 102 297 5 0 0 0 - - - 0;
#N canvas 531 23 228 194 forwarding 0;
#X obj 19 61 route RANDOM SLEW;
#X obj 20 117 s \$0-random-bi-random-r;
#X obj 57 85 s \$0-random-bi-slew-r;
#X obj 19 29 inlet;
#X connect 0 0 1 0;
#X connect 0 1 2 0;
#X connect 3 0 0 0;
#X restore 831 91 pd forwarding;
#X obj 774 66 inlet~ fwd;
#N canvas 209 434 475 344 save-state 0;
#X obj 251 85 f;
#X obj 251 128 pack f f;
#X obj 115 186 unpack f f;
#X obj 266 37 r \$0-random-bi-random-s;
#X obj 115 238 s \$0-random-bi-random-r;
#X obj 296 83 r \$0-random-bi-slew-s;
#X obj 172 214 s \$0-random-bi-slew-r;
#X obj 143 44 savestate;
#X obj 78 24 loadbang;
#X obj 35 154 list store;
#X msg 65 102 1;
#X obj 78 45 t b b;
#X obj 65 81 t b a;
#X obj 12 128 spigot 0;
#X obj 115 128 spigot 1;
#X obj 143 65 t a b;
#X msg 170 102 0;
#X msg 115 154 64 0;
#X connect 0 0 1 0;
#X connect 1 0 7 0;
#X connect 2 0 4 0;
#X connect 2 1 6 0;
#X connect 3 0 0 1;
#X connect 5 0 1 1;
#X connect 7 0 15 0;
#X connect 7 1 0 0;
#X connect 8 0 11 0;
#X connect 9 0 2 0;
#X connect 10 0 13 1;
#X connect 11 0 13 0;
#X connect 11 1 14 0;
#X connect 12 0 10 0;
#X connect 12 1 9 1;
#X connect 13 0 9 0;
#X connect 14 0 17 0;
#X connect 15 0 12 0;
#X connect 15 1 16 0;
#X connect 16 0 14 1;
#X connect 17 0 2 0;
#X restore 317 97 pd save-state;
#X connect 0 0 1 0;
#X connect 1 0 4 0;
#X connect 2 0 3 0;
#X connect 3 0 1 1;
#X connect 4 0 8 0;
#X connect 8 0 16 0;
#X connect 8 0 18 0;
#X connect 9 0 10 0;
#X connect 10 0 11 0;
#X connect 11 0 21 0;
#X connect 12 0 9 0;
#X connect 13 0 14 0;
#X connect 14 0 15 0;
#X connect 14 1 5 0;
#X connect 15 0 4 0;
#X connect 16 0 17 0;
#X connect 21 0 8 1;
#X connect 21 0 22 0;
#X connect 24 0 13 0;
#X connect 24 1 23 0;
#X coords 0 -1 1 1 175 85 2 100 100;
