#N canvas 0 23 783 603 10;
#X obj 108 120 hsl 128 15 0 127 0 1 \$0-random-gates-intensity-s \$0-random-gates-intensity-r
INTENSITY 133 7 0 10 #fcfcfc #000000 #000000 0 1;
#X obj 108 134 hsl 128 15 0 127 0 1 \$0-random-gates-prob-s \$0-random-gates-prob-r
PROB. 133 7 0 10 #fcfcfc #000000 #000000 0 1;
#X obj 459 324 + 50;
#X obj 459 302 random 950;
#X obj 440 126 metro 500;
#X obj 440 79 loadbang;
#X obj 459 346 t f;
#X obj 440 516 vline~;
#X obj 440 551 outlet~;
#X obj 105 154 bng 15 50 50 0 empty empty empty 17 7 0 10 #fcfcfc #dc4c90
#000000;
#X obj 512 227 random 950;
#X obj 512 249 + 50;
#X obj 440 148 t b b b;
#X obj 108 261 / 127;
#X obj 108 283 * 950;
#X obj 108 305 + 50;
#X obj 108 327 t f f;
#X msg 108 213 127 \$1;
#X obj 108 235 -;
#X obj 440 408 random 127;
#X obj 440 430 moses;
#X obj 440 386 t b;
#X obj 440 459 t b b;
#X obj 154 111 cnv 5 5 5 empty empty GATES 0 0 0 12 #fcfcfc #404040
0;
#X obj 105 176 cnv 5 5 5 empty empty OUT 0 0 0 8 #fcfcfc #dc4c90 0
;
#X obj 106 111 cnv 5 5 5 empty empty RANDOM 0 0 0 12 #fcfcfc #404040
0;
#X msg 440 494 1 0 \, 0 1 1;
#X msg 440 101 1;
#N canvas 403 31 443 307 save-state 0;
#X obj 223 99 f;
#X obj 223 142 pack f f;
#X obj 115 190 unpack f f;
#X obj 238 51 r \$0-random-gates-intensity-s;
#X obj 268 97 r \$0-random-gates-prob-s;
#X obj 115 242 s \$0-random-gates-intensity-r;
#X obj 172 218 s \$0-random-gates-prob-r;
#X obj 143 44 savestate;
#X obj 78 24 loadbang;
#X obj 35 154 list store;
#X msg 65 102 1;
#X obj 78 45 t b b;
#X obj 65 81 t b a;
#X obj 12 128 spigot 0;
#X obj 115 128 spigot 1;
#X obj 143 65 t a b;
#X msg 170 102 0;
#X msg 115 154 64 64;
#X connect 0 0 1 0;
#X connect 1 0 7 0;
#X connect 2 0 5 0;
#X connect 2 1 6 0;
#X connect 3 0 0 1;
#X connect 4 0 1 1;
#X connect 7 0 15 0;
#X connect 7 1 0 0;
#X connect 8 0 11 0;
#X connect 9 0 2 0;
#X connect 10 0 13 1;
#X connect 11 0 13 0;
#X connect 11 1 14 0;
#X connect 12 0 10 0;
#X connect 12 1 9 1;
#X connect 13 0 9 0;
#X connect 14 0 17 0;
#X connect 15 0 12 0;
#X connect 15 1 16 0;
#X connect 16 0 14 1;
#X connect 17 0 2 0;
#X restore 99 414 pd save-state;
#N canvas 531 26 270 182 forwarding 0;
#X obj 23 61 route INTENSITY PROB.;
#X obj 24 117 s \$0-random-gates-intensity-r;
#X obj 61 95 s \$0-random-gates-prob-r;
#X obj 23 29 inlet;
#X connect 0 0 1 0;
#X connect 0 1 2 0;
#X connect 3 0 0 0;
#X restore 550 92 pd forwarding;
#X obj 550 72 inlet;
#X connect 0 0 17 0;
#X connect 1 0 20 1;
#X connect 2 0 6 0;
#X connect 3 0 2 0;
#X connect 4 0 12 0;
#X connect 5 0 27 0;
#X connect 6 0 4 1;
#X connect 7 0 8 0;
#X connect 10 0 11 0;
#X connect 11 0 3 1;
#X connect 12 0 21 0;
#X connect 12 1 3 0;
#X connect 12 2 10 0;
#X connect 13 0 14 0;
#X connect 14 0 15 0;
#X connect 15 0 16 0;
#X connect 16 0 10 1;
#X connect 17 0 18 0;
#X connect 18 0 13 0;
#X connect 19 0 20 0;
#X connect 20 0 22 0;
#X connect 21 0 19 0;
#X connect 22 0 26 0;
#X connect 22 1 9 0;
#X connect 26 0 7 0;
#X connect 27 0 4 0;
#X connect 30 0 29 0;
#X coords 0 -1 1 1 200 85 2 100 100;
