#N canvas 0 23 1050 738 10;
#X obj 117 143 vsl 15 96 0 127 0 1 \$0-sinebank-1-s \$0-sinebank-1-r
1 5 -9 0 10 #fcfcfc #000000 #000000 748 1;
#X obj 132 143 vsl 15 96 0 127 0 1 \$0-sinebank-2-s \$0-sinebank-2-r
2 5 -9 0 10 #fcfcfc #000000 #000000 1496 1;
#X obj 147 143 vsl 15 96 0 127 0 1 \$0-sinebank-3-s \$0-sinebank-3-r
3 5 -9 0 10 #fcfcfc #000000 #000000 2244 1;
#X obj 162 143 vsl 15 96 0 127 0 1 \$0-sinebank-4-s \$0-sinebank-4-r
4 5 -9 0 10 #fcfcfc #000000 #000000 2992 1;
#X obj 286 703 outlet~;
#N canvas 396 231 135 469 sine1 0;
#N canvas 592 252 450 300 sine 0;
#X obj 81 16 inlet;
#X obj 81 180 mtof~;
#X obj 81 202 osc~;
#X obj 81 224 outlet~;
#X obj 81 87 line~;
#X obj 81 144 +~;
#X obj 96 119 r~ \$0-sinebank-cv1;
#X obj 81 44 pack f 10;
#X connect 0 0 7 0;
#X connect 1 0 2 0;
#X connect 2 0 3 0;
#X connect 4 0 5 0;
#X connect 5 0 1 0;
#X connect 6 0 5 1;
#X connect 7 0 4 0;
#X restore 37 94 pd sine;
#X obj 38 444 outlet~;
#X obj 37 8 inlet;
#X connect 0 0 1 0;
#X connect 2 0 0 0;
#X restore 229 524 pd sine1;
#X obj 227 129 r \$0-sinebank-1-s;
#X obj 285 279 r \$0-sinebank-2-s;
#X obj 358 347 r \$0-sinebank-3-s;
#X obj 418 426 r \$0-sinebank-4-s;
#X obj 271 81 *~ 127;
#X obj 24 682 outlet~;
#X obj 80 682 outlet~;
#X obj 135 682 outlet~;
#X obj 191 682 outlet~;
#X obj 271 103 s~ \$0-sinebank-cv1;
#X obj 403 55 inlet~;
#X obj 403 77 *~ 127;
#X obj 403 99 s~ \$0-sinebank-cv2;
#X obj 521 54 inlet~;
#X obj 521 76 *~ 127;
#X obj 521 98 s~ \$0-sinebank-cv3;
#X obj 641 53 inlet~;
#X obj 641 75 *~ 127;
#X obj 641 97 s~ \$0-sinebank-cv4;
#X obj 117 242 tgl 15 1 \$0-sinebank-lfo1-s \$0-sinebank-lfo1-r empty
17 7 1 10 #fcfcfc #000000 #000000 0 1;
#X obj 132 242 tgl 15 1 \$0-sinebank-lfo2-s \$0-sinebank-lfo2-r empty
17 7 1 10 #fcfcfc #000000 #000000 0 1;
#X obj 147 242 tgl 15 1 \$0-sinebank-lfo3-s \$0-sinebank-lfo3-r empty
17 7 1 10 #fcfcfc #000000 #000000 0 1;
#X obj 162 242 tgl 15 1 \$0-sinebank-lfo4-s \$0-sinebank-lfo4-r LFO
17 7 0 10 #fcfcfc #000000 #000000 0 1;
#X obj 343 130 r \$0-sinebank-lfo1-s;
#X obj 227 285 -;
#X obj 343 162 sel 0 1;
#X obj 240 250 t b f;
#X obj 291 455 -;
#X obj 407 243 sel 0 1;
#X obj 304 331 t b f;
#X obj 407 211 r \$0-sinebank-lfo2-s;
#X obj 481 314 sel 0 1;
#X obj 378 402 t b f;
#X obj 352 488 -;
#X obj 481 282 r \$0-sinebank-lfo3-s;
#X obj 418 491 -;
#X obj 548 372 sel 0 1;
#X obj 474 474 t b f;
#X obj 548 340 r \$0-sinebank-lfo4-s;
#X msg 343 201 0;
#X msg 362 233 96;
#X msg 407 271 0;
#X msg 426 314 96;
#X msg 481 342 0;
#X msg 500 385 96;
#X msg 548 402 0;
#X msg 567 457 96;
#N canvas 396 231 155 480 sine2 0;
#N canvas 592 252 450 300 sine 0;
#X obj 81 16 inlet;
#X obj 81 180 mtof~;
#X obj 81 202 osc~;
#X obj 81 224 outlet~;
#X obj 81 87 line~;
#X obj 81 144 +~;
#X obj 81 44 pack f 10;
#X obj 96 119 r~ \$0-sinebank-cv2;
#X connect 0 0 6 0;
#X connect 1 0 2 0;
#X connect 2 0 3 0;
#X connect 4 0 5 0;
#X connect 5 0 1 0;
#X connect 6 0 4 0;
#X connect 7 0 5 1;
#X restore 37 94 pd sine;
#X obj 38 444 outlet~;
#X obj 37 8 inlet;
#X connect 0 0 1 0;
#X connect 2 0 0 0;
#X restore 291 523 pd sine2;
#X obj 286 644 *~ 0.25;
#X obj 103 104 cnv 5 10 10 empty empty CV1 0 5 0 8 #fcfcfc #404040
0;
#X obj 129 104 cnv 5 10 10 empty empty CV2 0 5 0 8 #fcfcfc #404040
0;
#X obj 158 104 cnv 5 10 10 empty empty CV3 0 5 0 8 #fcfcfc #404040
0;
#X obj 183 104 cnv 5 10 10 empty empty CV4 0 5 0 8 #fcfcfc #404040
0;
#X obj 104 263 cnv 5 10 10 empty empty S1 0 5 0 8 #fcfcfc #404040 0
;
#X obj 123 263 cnv 5 10 10 empty empty S2 0 5 0 8 #fcfcfc #404040 0
;
#X obj 146 263 cnv 5 10 10 empty empty S3 0 5 0 8 #fcfcfc #404040 0
;
#X obj 169 263 cnv 5 10 10 empty empty S4 0 5 0 8 #fcfcfc #404040 0
;
#X obj 183 263 cnv 5 10 10 empty empty SUM 0 5 0 8 #fcfcfc #404040
0;
#N canvas 396 231 650 469 sine4 0;
#N canvas 592 252 450 300 sine 0;
#X obj 81 16 inlet;
#X obj 81 180 mtof~;
#X obj 81 202 osc~;
#X obj 81 224 outlet~;
#X obj 81 87 line~;
#X obj 81 144 +~;
#X obj 81 44 pack f 10;
#X obj 96 119 r~ \$0-sinebank-cv4;
#X connect 0 0 6 0;
#X connect 1 0 2 0;
#X connect 2 0 3 0;
#X connect 4 0 5 0;
#X connect 5 0 1 0;
#X connect 6 0 4 0;
#X connect 7 0 5 1;
#X restore 37 94 pd sine;
#X obj 38 444 outlet~;
#X obj 37 8 inlet;
#X connect 0 0 1 0;
#X connect 2 0 0 0;
#X restore 418 521 pd sine4;
#N canvas 396 231 650 469 sine3 0;
#N canvas 592 252 450 300 sine 0;
#X obj 81 16 inlet;
#X obj 81 180 mtof~;
#X obj 81 202 osc~;
#X obj 81 224 outlet~;
#X obj 81 87 line~;
#X obj 81 144 +~;
#X obj 81 44 pack f 10;
#X obj 96 119 r~ \$0-sinebank-cv3;
#X connect 0 0 6 0;
#X connect 1 0 2 0;
#X connect 2 0 3 0;
#X connect 4 0 5 0;
#X connect 5 0 1 0;
#X connect 6 0 4 0;
#X connect 7 0 5 1;
#X restore 37 94 pd sine;
#X obj 38 444 outlet~;
#X obj 37 8 inlet;
#X connect 0 0 1 0;
#X connect 2 0 0 0;
#X restore 352 522 pd sine3;
#X obj 113 122 cnv 5 5 5 empty empty SINEBANK 0 0 0 12 #fcfcfc #404040
0;
#N canvas 531 26 458 413 forwarding 0;
#X obj 26 79 route ONE TWO THREE FOUR;
#X obj 27 334 s \$0-sinebank-1-r;
#X obj 64 223 s \$0-sinebank-2-r;
#X obj 228 268 s \$0-sinebank-3-r;
#X obj 265 155 s \$0-sinebank-4-r;
#X obj 64 291 s \$0-sinebank-lfo1-r;
#X obj 84 196 s \$0-sinebank-lfo2-r;
#X obj 260 237 s \$0-sinebank-lfo3-r;
#X obj 285 120 s \$0-sinebank-lfo4-r;
#X obj 29 262 unpack f f;
#X obj 69 169 unpack f f;
#X obj 226 212 unpack f f;
#X obj 264 93 unpack f f;
#X obj 26 27 inlet;
#X connect 0 0 9 0;
#X connect 0 1 10 0;
#X connect 0 2 11 0;
#X connect 0 3 12 0;
#X connect 9 0 1 0;
#X connect 9 1 5 0;
#X connect 10 0 2 0;
#X connect 10 1 6 0;
#X connect 11 0 3 0;
#X connect 11 1 7 0;
#X connect 12 0 4 0;
#X connect 12 1 8 0;
#X connect 13 0 0 0;
#X restore 328 35 pd forwarding;
#N canvas 315 35 524 608 save-state 1;
#X obj 233 205 f;
#X obj 233 248 pack f f f f f f f f;
#X obj 119 309 unpack f f f f f f f f;
#X obj 220 16 r \$0-sinebank-1-s;
#X obj 118 558 s \$0-sinebank-1-r;
#X obj 228 39 r \$0-sinebank-2-s;
#X obj 139 534 s \$0-sinebank-2-r;
#X obj 242 60 r \$0-sinebank-3-s;
#X obj 160 510 s \$0-sinebank-3-r;
#X obj 260 85 r \$0-sinebank-4-s;
#X obj 181 486 s \$0-sinebank-4-r;
#X obj 280 110 r \$0-sinebank-lfo1-s;
#X obj 202 460 s \$0-sinebank-lfo1-r;
#X obj 298 131 r \$0-sinebank-lfo2-s;
#X obj 223 436 s \$0-sinebank-lfo2-r;
#X obj 328 156 r \$0-sinebank-lfo3-s;
#X obj 233 401 s \$0-sinebank-lfo3-r;
#X obj 348 181 r \$0-sinebank-lfo4-s;
#X obj 254 375 s \$0-sinebank-lfo4-r;
#X obj 143 164 savestate;
#X obj 78 144 loadbang;
#X obj 35 274 list store;
#X msg 65 222 1;
#X obj 78 165 t b b;
#X obj 65 201 t b a;
#X obj 12 248 spigot 0;
#X obj 115 248 spigot 1;
#X obj 143 185 t a b;
#X msg 170 222 0;
#X msg 115 274 10 20 30 40 0 0 0 0;
#X connect 0 0 1 0;
#X connect 1 0 19 0;
#X connect 2 0 4 0;
#X connect 2 1 6 0;
#X connect 2 2 8 0;
#X connect 2 3 10 0;
#X connect 2 4 12 0;
#X connect 2 5 14 0;
#X connect 2 6 16 0;
#X connect 2 7 18 0;
#X connect 3 0 0 1;
#X connect 5 0 1 1;
#X connect 7 0 1 2;
#X connect 9 0 1 3;
#X connect 11 0 1 4;
#X connect 13 0 1 5;
#X connect 15 0 1 6;
#X connect 17 0 1 7;
#X connect 19 0 27 0;
#X connect 19 1 0 0;
#X connect 20 0 23 0;
#X connect 21 0 2 0;
#X connect 22 0 25 1;
#X connect 23 0 25 0;
#X connect 23 1 26 0;
#X connect 24 0 22 0;
#X connect 24 1 21 1;
#X connect 25 0 21 0;
#X connect 26 0 29 0;
#X connect 27 0 24 0;
#X connect 27 1 28 0;
#X connect 28 0 26 1;
#X connect 29 0 2 0;
#X restore 30 359 pd save-state;
#X obj 271 9 inlet~ fwd;
#X connect 5 0 11 0;
#X connect 5 0 54 0;
#X connect 6 0 30 0;
#X connect 7 0 33 0;
#X connect 8 0 39 0;
#X connect 9 0 41 0;
#X connect 10 0 15 0;
#X connect 16 0 17 0;
#X connect 17 0 18 0;
#X connect 19 0 20 0;
#X connect 20 0 21 0;
#X connect 22 0 23 0;
#X connect 23 0 24 0;
#X connect 29 0 31 0;
#X connect 30 0 5 0;
#X connect 31 0 45 0;
#X connect 31 1 46 0;
#X connect 32 0 30 0;
#X connect 32 1 30 1;
#X connect 33 0 53 0;
#X connect 34 0 47 0;
#X connect 34 1 48 0;
#X connect 35 0 33 0;
#X connect 35 1 33 1;
#X connect 36 0 34 0;
#X connect 37 0 49 0;
#X connect 37 1 50 0;
#X connect 38 0 39 0;
#X connect 38 1 39 1;
#X connect 39 0 65 0;
#X connect 40 0 37 0;
#X connect 41 0 64 0;
#X connect 42 0 51 0;
#X connect 42 1 52 0;
#X connect 43 0 41 0;
#X connect 43 1 41 1;
#X connect 44 0 42 0;
#X connect 45 0 32 0;
#X connect 46 0 32 0;
#X connect 47 0 35 0;
#X connect 48 0 35 0;
#X connect 49 0 38 0;
#X connect 50 0 38 0;
#X connect 51 0 43 0;
#X connect 52 0 43 0;
#X connect 53 0 54 0;
#X connect 53 0 12 0;
#X connect 54 0 4 0;
#X connect 64 0 54 0;
#X connect 64 0 14 0;
#X connect 65 0 54 0;
#X connect 65 0 13 0;
#X connect 69 0 10 0;
#X connect 69 1 67 0;
#X coords 0 -1 1 1 100 175 2 100 100;
