#N canvas 0 23 909 583 10;
#X obj 348 266 outlet~;
#X obj 106 130 hsl 128 15 0 127 0 1 \$0-slew-slew-s \$0-slew-slew-r
SLEW 133 7 0 10 #fcfcfc #000000 #000000 0 1;
#X floatatom 204 116 5 0 0 0 - - - 0;
#X msg 131 177 127 \$1;
#X obj 131 199 -;
#X obj 131 221 / 127;
#X obj 131 265 + 1;
#X obj 131 287 t f f;
#X obj 315 235 vcf~ 1;
#X obj 131 309 sig~;
#X obj 131 331 lop~ 10;
#X obj 131 243 * 29;
#X obj 331 207 +~;
#X obj 462 128 inlet~;
#X obj 462 190 *~ 30;
#X obj 462 150 *~ -1;
#X obj 104 122 cnv 5 5 5 empty empty SLEW 0 0 0 12 #fcfcfc #404040
0;
#X obj 262 109 cnv 5 5 5 empty empty CV 0 0 0 8 #fcfcfc #000000 0;
#X obj 105 109 cnv 5 5 5 empty empty IN 0 0 0 8 #fcfcfc #000000 0;
#X obj 103 156 cnv 5 5 5 empty empty OUT 0 0 0 8 #fcfcfc #404040 0
;
#N canvas 531 26 193 180 forwarding 0;
#X obj 24 74 route SLEW;
#X obj 19 110 s \$0-slew-slew-r;
#X obj 24 22 inlet;
#X connect 0 0 1 0;
#X connect 2 0 0 0;
#X restore 359 168 pd forwarding;
#N canvas 421 22 385 286 save-state 0;
#X obj 241 69 f;
#X obj 114 171 unpack f;
#X obj 256 20 r \$0-slew-slew-s;
#X obj 114 203 s \$0-slew-slew-r;
#X obj 142 38 savestate;
#X obj 77 18 loadbang;
#X obj 34 148 list store;
#X msg 64 96 1;
#X obj 77 39 t b b;
#X obj 64 75 t b a;
#X obj 11 122 spigot 0;
#X obj 114 122 spigot 1;
#X obj 142 59 t a b;
#X msg 169 96 0;
#X msg 114 148 0;
#X connect 0 0 4 0;
#X connect 1 0 3 0;
#X connect 2 0 0 1;
#X connect 4 0 12 0;
#X connect 4 1 0 0;
#X connect 5 0 8 0;
#X connect 6 0 1 0;
#X connect 7 0 10 1;
#X connect 8 0 10 0;
#X connect 8 1 11 0;
#X connect 9 0 7 0;
#X connect 9 1 6 1;
#X connect 10 0 6 0;
#X connect 11 0 14 0;
#X connect 12 0 9 0;
#X connect 12 1 13 0;
#X connect 13 0 11 1;
#X connect 14 0 1 0;
#X restore 269 360 pd save-state;
#X obj 315 136 inlet~ fwd;
#X connect 1 0 3 0;
#X connect 3 0 4 0;
#X connect 4 0 5 0;
#X connect 5 0 11 0;
#X connect 6 0 7 0;
#X connect 7 0 9 0;
#X connect 7 1 2 0;
#X connect 8 1 0 0;
#X connect 9 0 10 0;
#X connect 10 0 12 0;
#X connect 11 0 6 0;
#X connect 12 0 8 1;
#X connect 13 0 15 0;
#X connect 14 0 12 1;
#X connect 15 0 14 0;
#X connect 22 0 8 0;
#X connect 22 1 20 0;
#X coords 0 -1 1 1 175 65 2 100 100;
