#N canvas 147 51 1133 727 10;
#X msg 344 531 1 \$1 \, 0 \$2 \$1;
#X obj 344 553 vline~;
#X obj 344 484 f;
#X obj 344 508 pack f f;
#X obj 359 226 / 127;
#X obj 404 234 / 127;
#X obj 359 287 * 1999;
#X obj 404 287 * 1999;
#X obj 448 330 t f f;
#X obj 474 499 delay;
#X obj 624 396 +;
#X obj 624 371 t b f;
#X obj 247 369 bng 15 250 50 0 empty empty empty 17 7 0 10 #fcfcfc
#000000 #000000;
#X obj 475 580 spigot;
#X text 582 579 CYCLE ON/OFF;
#X obj 294 196 tgl 15 1 \$0-slope-cycle-s \$0-slope-cycle-r CYCLE 17
7 0 10 #fcfcfc #000000 #000000 0 1;
#X obj 106 115 bng 15 100 50 0 empty empty empty 17 7 0 10 #fcfcfc
#dc4c90 #000000;
#X obj 344 704 outlet~;
#X obj 508 557 t f f;
#X obj 535 579 sel 1;
#X obj 535 604 t b;
#X obj 165 125 cnv 5 5 5 empty empty GENERATOR 0 0 0 12 #fcfcfc #404040
0;
#X obj 104 109 cnv 5 5 5 empty empty TRIG 0 0 0 8 #fcfcfc #dc4c90 0
;
#X obj 294 136 vradio 15 1 1 3 \$0-slope-fast-med-slow-s \$0-slope-fast-med-slow-r
empty 0 -8 0 10 #fcfcfc #000000 #000000 0;
#X obj 311 176 cnv 5 5 5 empty empty SLOW 0 0 0 8 #fcfcfc #000000 0
;
#X obj 258 231 cnv 5 5 5 empty empty EOR 0 0 0 8 #fcfcfc #dc4c90 0
;
#X obj 312 144 cnv 5 5 5 empty empty FAST 0 0 0 8 #fcfcfc #000000 0
;
#X obj 312 160 cnv 5 5 5 empty empty MEDIUM 0 0 0 8 #fcfcfc #000000
0;
#X obj 585 171 sel 0 1 2;
#X msg 585 247 1999;
#X obj 585 270 t b b f f;
#X msg 602 223 4999;
#X msg 619 196 9999;
#X obj 718 26 inlet~;
#X obj 107 165 hsl 128 15 1.27 127 1 1 \$0-slope-fall-s \$0-slope-fall-r
FALL 133 7 0 10 #fcfcfc #000000 #000000 0 1;
#X obj 107 133 hsl 128 15 1.27 127 1 1 \$0-slope-rise-s \$0-slope-rise-r
RISE 133 7 0 10 #fcfcfc #000000 #000000 0 1;
#X obj 107 196 hsl 128 15 0 127 0 1 \$0-slope-depth-s \$0-slope-depth-r
DEPTH-/+ 133 7 0 10 #90d4b0 #000000 #000000 6400 1;
#X obj 107 149 hsl 128 15 0 127 0 1 \$0-slope-rise-cv-att-s \$0-slope-rise-cv-att-r
RISE(CV) 133 7 0 10 #9898dc #000000 #000000 0 1;
#X obj 107 181 hsl 128 15 0 127 0 1 \$0-slope-fall-cv-att-s \$0-slope-fall-cv-att-r
FALL(CV) 133 7 0 10 #9898dc #000000 #000000 0 1;
#X obj 126 125 cnv 5 5 5 empty empty SLOPE 0 0 0 12 #fcfcfc #404040
0;
#X obj 717 185 snapshot~;
#X obj 717 238 t b f;
#X obj 717 157 *~;
#X obj 732 83 / 127;
#X obj 732 105 pack 0 50;
#X obj 732 127 line~;
#X obj 359 255 +;
#X obj 853 27 inlet~;
#X obj 852 206 snapshot~;
#X obj 852 238 t b f;
#X obj 852 178 *~;
#X obj 867 104 / 127;
#X obj 867 126 pack 0 50;
#X obj 867 148 line~;
#X text 715 6 RISE CV;
#X text 852 6 FALL CV;
#X obj 404 255 +;
#X obj 218 109 cnv 5 5 5 empty empty RISE 0 0 0 8 #fcfcfc #9898dc 0
;
#X obj 325 109 cnv 5 5 5 empty empty FALL 0 0 0 8 #fcfcfc #9898dc 0
;
#X obj 105 232 cnv 5 5 5 empty empty UNI-P 0 0 0 8 #fcfcfc #000000
0;
#X obj 330 232 cnv 5 5 5 empty empty EOC 0 0 0 8 #fcfcfc #dc4c90 0
;
#X obj 344 683 *~;
#X obj 743 501 * 2;
#X obj 743 523 - 1;
#X obj 743 569 pack 0 50;
#X obj 743 591 line~;
#X floatatom 104 211 5 0 0 0 - - - 0;
#X obj 743 474 / 127;
#X obj 743 545 t f f;
#X obj 558 150 t b f;
#X obj 836 512 delay;
#X obj 359 335 t f f f;
#X msg 836 534 1 0 \, 0 1 1;
#X obj 836 556 vline~;
#X obj 836 641 outlet~;
#X text 827 659 END OF RISE;
#X obj 473 521 t b b;
#X obj 927 610 vline~;
#X obj 927 683 outlet~;
#X text 982 682 END OF CYCLE;
#X obj 294 181 tgl 15 1 \$0-slope-curve-s \$0-slope-curve-r CURVE 17
7 0 10 #fcfcfc #000000 #000000 0 1;
#X obj 128 563 t f f;
#X obj 192 539 == 0;
#X obj 128 622 line~;
#X obj 128 585 pack 0 10;
#X obj 192 586 line~;
#X obj 192 564 pack 0 10;
#X obj 344 639 *~;
#X obj 419 603 *~;
#X obj 344 585 *~;
#X obj 359 187 r \$0-slope-rise-s;
#X obj 732 50 r \$0-slope-rise-cv-att-s;
#X obj 404 210 r \$0-slope-fall-s;
#X obj 867 78 r \$0-slope-fall-cv-att-s;
#X obj 743 395 r \$0-slope-depth-s;
#X obj 558 123 r \$0-slope-fast-med-slow-s;
#X obj 128 494 r \$0-slope-curve-s;
#X obj 508 535 r \$0-slope-cycle-s;
#X obj 344 607 *~;
#X obj 232 125 cnv 5 5 5 empty \$0-instance-num 0 0 0 0 12 #fcfcfc
#404040 0;
#X obj 359 313 - 18;
#X obj 404 313 - 18;
#X obj 344 57 threshold~ 0.99 0 1 0;
#X msg 927 588 1 0 \, 0 1 1;
#X obj 836 578 *~ 2;
#X obj 836 600 -~ 1;
#X obj 344 384 t b b b b b;
#X obj 796 151 tgl 15 0 empty empty empty 17 7 0 10 #fcfcfc #000000
#000000 0 1;
#X obj 796 77 env~;
#X obj 796 99 > 0;
#X obj 796 121 change;
#X obj 796 169 metro 5;
#X obj 174 232 cnv 5 5 5 empty empty BI-P 0 0 0 8 #fcfcfc #000000 0
;
#X obj 529 653 *~ 2;
#X obj 529 675 -~ 1;
#X obj 529 697 outlet~;
#X obj 863 465 clip 1 9999;
#X obj 624 419 clip 1 9999;
#X obj 624 347 clip 1 9999;
#X obj 503 362 clip 1 9999;
#X obj 449 462 clip 1 9999;
#X obj 166 410 clip 1 9999;
#X msg 408 413 0 1;
#X obj 414 91 bng 15 250 50 0 \$0-slope-trig-gui!-s \$0-slope-trig-gui!-r
empty 17 7 0 10 #fcfcfc #000000 #000000;
#N canvas 644 92 521 565 save-state 0;
#X obj 236 155 f;
#X obj 236 198 pack f f f f f f f f;
#X obj 115 298 unpack f f f f f f f f;
#X obj 251 12 r \$0-slope-rise-s;
#X obj 115 517 s \$0-slope-rise-r;
#X obj 259 33 r \$0-slope-rise-cv-att-s;
#X obj 133 493 s \$0-slope-rise-cv-att-r;
#X obj 269 56 r \$0-slope-fall-s;
#X obj 151 469 s \$0-slope-fall-r;
#X obj 286 81 r \$0-slope-fall-cv-att-s;
#X obj 170 445 s \$0-slope-fall-cv-att-r;
#X obj 302 106 r \$0-slope-depth-s;
#X obj 188 423 s \$0-slope-depth-r;
#X obj 321 129 r \$0-slope-fast-med-slow-s;
#X obj 207 400 s \$0-slope-fast-med-slow-r;
#X obj 336 150 r \$0-slope-curve-s;
#X obj 225 374 s \$0-slope-curve-r;
#X obj 368 173 r \$0-slope-cycle-s;
#X obj 244 347 s \$0-slope-cycle-r;
#X obj 143 142 savestate;
#X obj 78 122 loadbang;
#X obj 35 252 list store;
#X msg 65 200 1;
#X obj 78 143 t b b;
#X obj 65 179 t b a;
#X obj 12 226 spigot 0;
#X obj 115 226 spigot 1;
#X obj 143 163 t a b;
#X msg 170 200 0;
#X msg 115 252 0 0 0 0 64 0 0;
#X connect 0 0 1 0;
#X connect 1 0 19 0;
#X connect 2 0 4 0;
#X connect 2 1 6 0;
#X connect 2 2 8 0;
#X connect 2 3 10 0;
#X connect 2 4 12 0;
#X connect 2 5 14 0;
#X connect 2 6 16 0;
#X connect 2 7 18 0;
#X connect 3 0 0 1;
#X connect 5 0 1 1;
#X connect 7 0 1 2;
#X connect 9 0 1 3;
#X connect 11 0 1 4;
#X connect 13 0 1 5;
#X connect 15 0 1 6;
#X connect 17 0 1 7;
#X connect 19 0 27 0;
#X connect 19 1 0 0;
#X connect 20 0 23 0;
#X connect 21 0 2 0;
#X connect 22 0 25 1;
#X connect 23 0 25 0;
#X connect 23 1 26 0;
#X connect 24 0 22 0;
#X connect 24 1 21 1;
#X connect 25 0 21 0;
#X connect 26 0 29 0;
#X connect 27 0 24 0;
#X connect 27 1 28 0;
#X connect 28 0 26 1;
#X connect 29 0 2 0;
#X restore 864 313 pd save-state;
#N canvas 241 22 1039 756 forwarding 0;
#X obj 21 362 route RISE RISE(CV) FALL FALL(CV) DEPTH-/+ CURVE CYCLE
RADIO TRIG;
#X obj 22 725 s \$0-slope-rise-r;
#X obj 59 613 s \$0-slope-rise-cv-att-r;
#X obj 194 759 s \$0-slope-fall-r;
#X obj 224 631 s \$0-slope-fall-cv-att-r;
#X obj 367 755 s \$0-slope-depth-r;
#X obj 391 606 s \$0-slope-curve-r;
#X obj 546 728 s \$0-slope-cycle-r;
#X obj 572 595 s \$0-slope-fast-med-slow-r;
#X obj 635 468 s \$0-slope-trig-gui!-r;
#X obj 21 327 inlet;
#X connect 0 0 1 0;
#X connect 0 1 2 0;
#X connect 0 2 3 0;
#X connect 0 3 4 0;
#X connect 0 4 5 0;
#X connect 0 5 6 0;
#X connect 0 6 7 0;
#X connect 0 7 8 0;
#X connect 0 8 9 0;
#X connect 10 0 0 0;
#X restore 417 34 pd forwarding;
#X obj 344 15 inlet~ fwd;
#X connect 0 0 1 0;
#X connect 1 0 88 0;
#X connect 1 0 89 0;
#X connect 1 0 89 1;
#X connect 2 0 3 0;
#X connect 3 0 0 0;
#X connect 4 0 46 0;
#X connect 5 0 56 0;
#X connect 6 0 100 0;
#X connect 7 0 101 0;
#X connect 8 0 120 0;
#X connect 8 1 118 0;
#X connect 9 0 76 0;
#X connect 10 0 117 0;
#X connect 11 0 10 0;
#X connect 11 1 10 1;
#X connect 12 0 106 0;
#X connect 13 0 12 0;
#X connect 18 0 13 1;
#X connect 18 1 19 0;
#X connect 19 0 20 0;
#X connect 20 0 12 0;
#X connect 28 0 29 0;
#X connect 28 1 31 0;
#X connect 28 2 32 0;
#X connect 29 0 30 0;
#X connect 30 0 6 0;
#X connect 30 1 7 0;
#X connect 30 2 6 1;
#X connect 30 3 7 1;
#X connect 31 0 30 0;
#X connect 32 0 30 0;
#X connect 33 0 42 0;
#X connect 33 0 108 0;
#X connect 40 0 41 0;
#X connect 41 0 46 0;
#X connect 41 1 46 1;
#X connect 42 0 40 0;
#X connect 43 0 44 0;
#X connect 44 0 45 0;
#X connect 45 0 42 1;
#X connect 46 0 6 0;
#X connect 47 0 50 0;
#X connect 47 0 108 0;
#X connect 48 0 49 0;
#X connect 49 0 56 0;
#X connect 49 1 56 1;
#X connect 50 0 48 0;
#X connect 51 0 52 0;
#X connect 52 0 53 0;
#X connect 53 0 50 1;
#X connect 56 0 7 0;
#X connect 61 0 17 0;
#X connect 61 0 113 0;
#X connect 62 0 63 0;
#X connect 63 0 68 0;
#X connect 64 0 65 0;
#X connect 65 0 61 1;
#X connect 67 0 62 0;
#X connect 68 0 64 0;
#X connect 68 1 66 0;
#X connect 69 0 106 0;
#X connect 69 1 28 0;
#X connect 70 0 72 0;
#X connect 71 0 121 0;
#X connect 71 1 119 0;
#X connect 71 2 116 0;
#X connect 72 0 73 0;
#X connect 73 0 104 0;
#X connect 76 0 13 0;
#X connect 76 1 103 0;
#X connect 77 0 78 0;
#X connect 81 0 84 0;
#X connect 81 1 82 0;
#X connect 82 0 86 0;
#X connect 83 0 87 1;
#X connect 84 0 83 0;
#X connect 85 0 88 1;
#X connect 86 0 85 0;
#X connect 87 0 61 0;
#X connect 88 0 61 0;
#X connect 89 0 98 0;
#X connect 89 0 98 1;
#X connect 90 0 4 0;
#X connect 91 0 43 0;
#X connect 92 0 5 0;
#X connect 93 0 51 0;
#X connect 94 0 67 0;
#X connect 95 0 69 0;
#X connect 96 0 81 0;
#X connect 97 0 18 0;
#X connect 98 0 87 0;
#X connect 100 0 71 0;
#X connect 101 0 8 0;
#X connect 102 0 106 0;
#X connect 102 0 123 0;
#X connect 103 0 77 0;
#X connect 104 0 105 0;
#X connect 105 0 74 0;
#X connect 106 0 2 0;
#X connect 106 1 9 0;
#X connect 106 2 16 0;
#X connect 106 3 70 0;
#X connect 106 4 122 0;
#X connect 107 0 111 0;
#X connect 108 0 109 0;
#X connect 109 0 110 0;
#X connect 110 0 107 0;
#X connect 111 0 40 0;
#X connect 111 0 48 0;
#X connect 113 0 114 0;
#X connect 114 0 115 0;
#X connect 116 0 70 1;
#X connect 117 0 9 1;
#X connect 118 0 11 0;
#X connect 119 0 10 0;
#X connect 120 0 3 1;
#X connect 121 0 2 1;
#X connect 122 0 1 0;
#X connect 123 0 106 0;
#X connect 126 0 102 0;
#X connect 126 1 125 0;
#X coords 0 -1 1 1 250 140 2 100 100;
