#N canvas 24 23 1256 715 10;
#X obj 104 225 cnv 15 225 90 empty empty empty 20 12 0 14 #8480d4 #404040
0;
#X obj 344 225 cnv 15 225 90 empty empty empty 20 12 0 14 #7ccca0 #404040
0;
#X obj 344 134 cnv 15 225 90 empty empty empty 20 12 0 14 #d0307c #404040
0;
#X obj 104 134 cnv 15 225 90 empty empty empty 20 12 0 14 #d0307c #404040
0;
#X obj 112 157 hsl 128 15 0 127 0 1 \$0-gt-delay-s \$0-gt-delay-r DELAY1(1008)ms
133 7 0 10 #fcfcfc #000000 #fcfcfc 6400 1;
#X obj 112 171 hsl 128 15 0 127 0 1 \$0-gt-pitch-s \$0-gt-pitch-r PITCH1
133 7 0 10 #7ccca0 #000000 #fcfcfc 6400 1;
#X obj 375 658 outlet~ LEFT;
#X obj 462 653 outlet~ RIGHT;
#X floatatom 285 172 5 0 0 0 - \$0-gt-pitch-gui-r \$0-gt-pitch-gui-s
0;
#X obj 112 186 hsl 128 15 0 127 0 1 \$0-dly1-fb-s \$0-dly1-fb-r FEEDBACK1
133 7 0 10 #fcfcfc #000000 #fcfcfc 6400 1;
#X floatatom -87 522 5 0 0 0 - - - 0;
#X obj -90 542 makefilename %d;
#X obj -90 587 s \$0-gt-delay-r;
#X obj -91 497 r \$0-gt-delay-gui-r;
#X msg -90 565 label DELAY1(\$1)ms;
#X obj 112 201 hsl 128 15 0 127 0 1 \$0-dly1-level-s \$0-dly1-level-r
DLY1-MIX 133 7 0 10 #fcfcfc #000000 #fcfcfc 6400 1;
#X obj 351 158 hsl 128 15 0 127 0 1 \$0-gt-delay2-s \$0-gt-delay2-r
DELAY2(1008)ms 133 7 0 10 #fcfcfc #000000 #fcfcfc 6400 1;
#X obj 351 172 hsl 128 15 0 127 0 1 \$0-gt-pitch2-s \$0-gt-pitch2-r
PITCH2 133 7 0 10 #7ccca0 #000000 #fcfcfc 6400 1;
#X floatatom 524 173 5 0 0 0 - \$0-gt-pitch2-gui-r \$0-gt-pitch2-gui-s
0;
#X obj 351 187 hsl 128 15 0 127 0 1 \$0-dly1-fb2-s \$0-dly1-fb2-r FEEDBACK2
133 7 0 10 #fcfcfc #000000 #fcfcfc 6400 1;
#X obj 351 202 hsl 128 15 0 127 0 1 \$0-dly2-level-s \$0-dly2-level-r
DLY2-MIX 133 7 0 10 #fcfcfc #000000 #fcfcfc 6400 1;
#N canvas 514 29 926 727 pitch-delay1 0;
#X obj 187 33 hsl 128 15 0 127 0 0 empty empty empty -2 -8 0 10 #fcfcfc
#000000 #000000 0 1;
#X obj 185 56 / 127;
#X floatatom 185 146 10 0 0 0 - - - 0;
#X obj 185 213 t b f;
#X obj 454 57 hsl 128 15 0 127 0 0 empty empty empty -2 -8 0 10 #fcfcfc
#000000 #000000 0 1;
#X obj 451 77 / 127;
#X obj 451 160 * 72;
#X obj 451 181 - 36;
#X floatatom 374 213 5 0 0 0 - - - 0;
#X obj 373 247 t b f;
#X floatatom 262 279 5 0 0 0 - - - 0;
#X obj 262 299 expr (pow(2 \, ($f2/12)) - 1) * (44100/$f1);
#X floatatom 262 319 5 0 0 0 - - - 0;
#X obj 262 340 phasor~;
#X obj 449 383 / 44.1;
#X floatatom 449 404 5 0 0 0 - - - 0;
#X obj 262 405 *~ -1;
#X obj 262 426 +~ 1;
#X obj 263 456 *~;
#X obj 321 419 sig~;
#X obj 321 440 samphold~;
#X obj 376 496 cos~;
#X obj 323 490 sig~ 1;
#X obj 323 511 -~;
#X obj 323 532 *~ 0.5;
#X obj 263 548 *~;
#X obj 5 66 inlet~;
#X obj 265 672 outlet~;
#X obj 605 410 *~ -1;
#X obj 605 431 +~ 1;
#X obj 606 461 *~;
#X obj 664 424 sig~;
#X obj 664 445 samphold~;
#X obj 768 476 cos~;
#X obj 682 486 sig~ 1;
#X obj 682 507 -~;
#X obj 682 528 *~ 0.5;
#X obj 606 553 *~;
#X obj 613 347 +~ 0.5;
#X obj 613 368 wrap~;
#X obj 605 661 outlet~;
#X floatatom 443 212 5 0 0 0 - - - 0;
#X obj 185 98 + 50;
#X obj 185 77 * 88150;
#X obj 449 433 s \$0-gt-delay-gui-r;
#X obj 443 232 s \$0-gt-pitch-gui-r;
#X obj 36 386 delwrite~ \$0-dly 5000;
#X obj 263 477 vd~ \$0-dly;
#X obj 606 482 vd~ \$0-dly;
#X obj 185 9 r \$0-gt-delay-s;
#X obj 451 35 r \$0-gt-pitch-s;
#X obj 265 632 *~;
#X obj 412 465 r \$0-dly1-level-s;
#X obj 412 487 / 127;
#X obj 412 514 pack 0 10;
#X obj 605 636 *~;
#X obj 55 113 r \$0-dly1-fb-s;
#X obj 352 647 s~ \$0-dly1-fb;
#X obj 36 91 r~ \$0-dly1-fb;
#X obj 37 340 *~;
#X obj 55 134 / 127;
#X obj 55 223 pack 0 10;
#X obj 55 244 line~;
#X floatatom 55 197 5 0 0 0 - - - 0;
#X obj 55 155 * 0.95;
#X obj 55 176 clip 0 0.95;
#X obj 256 67 r~ \$0-D1-CV;
#X obj 256 88 *~ 88150;
#X obj 256 109 +~ 50;
#X obj 256 130 snapshot~;
#X obj 333 144 loadbang;
#X obj 333 163 tgl 15 0 empty empty empty 17 7 0 10 #fcfcfc #000000
#000000 0 1;
#X obj 333 183 metro 20;
#X obj 185 167 +;
#X obj 256 151 t b f;
#X obj 185 188 clip 0 88200;
#X obj 598 11 r~ \$0-P1-CV;
#X obj 451 101 +;
#X obj 451 122 clip 0 1;
#X obj 598 57 snapshot~;
#X obj 598 86 t b f;
#X obj 673 -18 env~;
#X floatatom 673 3 5 0 0 0 - - - 0;
#X obj 673 59 sel 0;
#X msg 673 80 bang;
#X msg 673 101 0;
#X obj 673 122 t b f;
#X obj 730 36 loadbang;
#X obj 730 55 tgl 15 0 empty empty empty 17 7 0 10 #fcfcfc #000000
#000000 0 1;
#X obj 730 75 metro 20;
#X obj 335 -8 env~;
#X obj 334 115 t b f;
#X obj 102 248 r~ \$0-F1-CV;
#X obj 55 265 +~;
#X obj 55 286 clip~ 0 0.95;
#X obj 481 515 r~ \$0-MIX1-CV;
#X obj 412 535 line~;
#X obj 409 585 clip~ 0 1;
#X obj 412 556 +~;
#X floatatom 335 34 5 0 0 0 - - - 0;
#X obj 335 54 change;
#X obj 335 13 > 0;
#X obj 673 23 change;
#X obj 335 75 sel 0;
#X msg 335 96 0;
#X connect 0 0 1 0;
#X connect 1 0 43 0;
#X connect 2 0 73 0;
#X connect 3 0 8 0;
#X connect 3 1 10 0;
#X connect 4 0 5 0;
#X connect 5 0 77 0;
#X connect 6 0 7 0;
#X connect 7 0 8 0;
#X connect 7 0 41 0;
#X connect 8 0 9 0;
#X connect 9 0 10 0;
#X connect 9 1 11 1;
#X connect 10 0 11 0;
#X connect 10 0 14 0;
#X connect 11 0 12 0;
#X connect 12 0 13 0;
#X connect 13 0 16 0;
#X connect 13 0 20 1;
#X connect 13 0 21 0;
#X connect 13 0 38 0;
#X connect 14 0 15 0;
#X connect 15 0 19 0;
#X connect 15 0 31 0;
#X connect 15 0 44 0;
#X connect 16 0 17 0;
#X connect 17 0 18 0;
#X connect 18 0 47 0;
#X connect 19 0 20 0;
#X connect 20 0 18 1;
#X connect 21 0 23 1;
#X connect 22 0 23 0;
#X connect 23 0 24 0;
#X connect 24 0 25 1;
#X connect 25 0 51 0;
#X connect 26 0 46 0;
#X connect 28 0 29 0;
#X connect 29 0 30 0;
#X connect 30 0 48 0;
#X connect 31 0 32 0;
#X connect 32 0 30 1;
#X connect 33 0 35 1;
#X connect 34 0 35 0;
#X connect 35 0 36 0;
#X connect 36 0 37 1;
#X connect 37 0 55 0;
#X connect 38 0 39 0;
#X connect 39 0 28 0;
#X connect 39 0 32 1;
#X connect 39 0 33 0;
#X connect 41 0 45 0;
#X connect 42 0 2 0;
#X connect 43 0 42 0;
#X connect 47 0 25 0;
#X connect 48 0 37 0;
#X connect 49 0 0 0;
#X connect 50 0 4 0;
#X connect 51 0 27 0;
#X connect 51 0 57 0;
#X connect 52 0 53 0;
#X connect 53 0 54 0;
#X connect 54 0 96 0;
#X connect 55 0 40 0;
#X connect 56 0 60 0;
#X connect 58 0 59 0;
#X connect 59 0 46 0;
#X connect 60 0 64 0;
#X connect 61 0 62 0;
#X connect 62 0 93 0;
#X connect 63 0 61 0;
#X connect 64 0 65 0;
#X connect 65 0 63 0;
#X connect 66 0 67 0;
#X connect 66 0 90 0;
#X connect 67 0 68 0;
#X connect 68 0 69 0;
#X connect 69 0 74 0;
#X connect 70 0 71 0;
#X connect 71 0 72 0;
#X connect 72 0 69 0;
#X connect 73 0 75 0;
#X connect 74 0 73 0;
#X connect 74 1 73 1;
#X connect 75 0 3 0;
#X connect 76 0 79 0;
#X connect 76 0 81 0;
#X connect 77 0 78 0;
#X connect 78 0 6 0;
#X connect 79 0 80 0;
#X connect 80 0 77 0;
#X connect 80 1 77 1;
#X connect 81 0 82 0;
#X connect 82 0 102 0;
#X connect 83 0 84 0;
#X connect 84 0 85 0;
#X connect 85 0 86 0;
#X connect 86 0 77 0;
#X connect 86 1 77 1;
#X connect 87 0 88 0;
#X connect 88 0 89 0;
#X connect 89 0 79 0;
#X connect 90 0 101 0;
#X connect 91 0 73 0;
#X connect 91 1 73 1;
#X connect 92 0 93 1;
#X connect 93 0 94 0;
#X connect 94 0 59 1;
#X connect 95 0 98 1;
#X connect 96 0 98 0;
#X connect 97 0 51 1;
#X connect 97 0 55 1;
#X connect 98 0 97 0;
#X connect 99 0 100 0;
#X connect 100 0 103 0;
#X connect 101 0 99 0;
#X connect 102 0 83 0;
#X connect 103 0 104 0;
#X connect 104 0 91 0;
#X restore -105 139 pd pitch-delay1;
#N canvas 0 23 845 720 pitch-delay 0;
#X obj 187 67 hsl 128 15 0 127 0 0 empty empty empty -2 -8 0 10 #fcfcfc
#000000 #000000 0 1;
#X obj 185 90 / 127;
#X floatatom 185 153 10 0 0 0 - - - 0;
#X obj 185 228 t b f;
#X obj 585 75 hsl 128 15 0 127 0 0 empty empty empty -2 -8 0 10 #fcfcfc
#000000 #000000 0 1;
#X obj 582 95 / 127;
#X obj 582 165 * 72;
#X obj 582 186 - 36;
#X floatatom 582 212 5 0 0 0 - - - 0;
#X obj 581 246 t b f;
#X floatatom 262 279 5 0 0 0 - - - 0;
#X obj 262 299 expr (pow(2 \, ($f2/12)) - 1) * (44100/$f1);
#X floatatom 262 319 5 0 0 0 - - - 0;
#X obj 262 340 phasor~;
#X obj 449 383 / 44.1;
#X floatatom 449 404 5 0 0 0 - - - 0;
#X obj 262 405 *~ -1;
#X obj 262 426 +~ 1;
#X obj 263 456 *~;
#X obj 321 419 sig~;
#X obj 321 440 samphold~;
#X obj 376 496 cos~;
#X obj 323 490 sig~ 1;
#X obj 323 511 -~;
#X obj 323 532 *~ 0.5;
#X obj 263 548 *~;
#X obj 5 66 inlet~;
#X obj 265 672 outlet~;
#X obj 605 410 *~ -1;
#X obj 605 431 +~ 1;
#X obj 606 461 *~;
#X obj 664 424 sig~;
#X obj 664 445 samphold~;
#X obj 768 476 cos~;
#X obj 682 486 sig~ 1;
#X obj 682 507 -~;
#X obj 682 528 *~ 0.5;
#X obj 606 553 *~;
#X obj 613 347 +~ 0.5;
#X obj 613 368 wrap~;
#X obj 605 661 outlet~;
#X floatatom 651 211 5 0 0 0 - - - 0;
#X obj 185 132 + 50;
#X obj 185 111 * 88150;
#X obj 265 632 *~;
#X obj 412 511 / 127;
#X obj 412 532 pack 0 10;
#X obj 412 553 line~;
#X obj 605 636 *~;
#X obj 37 350 *~;
#X obj 78 174 / 127;
#X obj 78 263 pack 0 10;
#X obj 78 284 line~;
#X floatatom 78 237 5 0 0 0 - - - 0;
#X obj 78 195 * 0.95;
#X obj 78 216 clip 0 0.95;
#X obj 185 43 r \$0-gt-delay2-s;
#X obj 582 53 r \$0-gt-pitch2-s;
#X obj 651 231 s \$0-gt-pitch2-gui-r;
#X obj 36 386 delwrite~ \$0-dly2 5000;
#X obj 38 133 r~ \$0-dly2-fb;
#X obj 78 153 r \$0-dly2-fb-s;
#X obj 352 647 s~ \$0-dly2-fb;
#X obj 412 490 r \$0-dly2-level-s;
#X obj 263 477 vd~ \$0-dly2;
#X obj 451 433 s \$0-gt-delay2-gui-r;
#X obj 606 482 vd~ \$0-dly2;
#X obj 370 90 *~ 88150;
#X obj 370 111 +~ 50;
#X obj 370 132 snapshot~;
#X obj 447 146 loadbang;
#X obj 447 165 tgl 15 0 empty empty empty 17 7 0 10 #fcfcfc #000000
#000000 0 1;
#X obj 447 185 metro 20;
#X obj 370 153 t b f;
#X obj 449 -6 env~;
#X obj 448 117 t b f;
#X floatatom 449 36 5 0 0 0 - - - 0;
#X obj 449 56 change;
#X obj 449 15 > 0;
#X obj 449 77 sel 0;
#X msg 449 98 0;
#X obj 370 69 r~ \$0-D2-CV;
#X obj 185 173 +;
#X obj 185 194 clip 0 88200;
#X obj 116 317 +~;
#X obj 116 338 clip~ 0 0.95;
#X obj 163 300 r~ \$0-F2-CV;
#X obj 411 607 clip~ 0 1;
#X obj 413 582 +~;
#X obj 503 556 r~ \$0-MIX2-CV;
#X obj 582 116 +;
#X obj 582 137 clip 0 1;
#X obj 718 126 snapshot~;
#X obj 718 155 t b f;
#X obj 793 51 env~;
#X floatatom 793 72 5 0 0 0 - - - 0;
#X obj 793 128 sel 0;
#X msg 793 149 bang;
#X msg 793 170 0;
#X obj 793 191 t b f;
#X obj 850 105 loadbang;
#X obj 850 124 tgl 15 0 empty empty empty 17 7 0 10 #fcfcfc #000000
#000000 0 1;
#X obj 850 144 metro 20;
#X obj 793 92 change;
#X obj 718 80 r~ \$0-P2-CV;
#X connect 0 0 1 0;
#X connect 1 0 43 0;
#X connect 2 0 82 0;
#X connect 3 0 8 0;
#X connect 3 1 10 0;
#X connect 4 0 5 0;
#X connect 5 0 90 0;
#X connect 6 0 7 0;
#X connect 7 0 8 0;
#X connect 7 0 41 0;
#X connect 8 0 9 0;
#X connect 9 0 10 0;
#X connect 9 1 11 1;
#X connect 10 0 11 0;
#X connect 10 0 14 0;
#X connect 11 0 12 0;
#X connect 12 0 13 0;
#X connect 13 0 16 0;
#X connect 13 0 20 1;
#X connect 13 0 21 0;
#X connect 13 0 38 0;
#X connect 14 0 15 0;
#X connect 15 0 19 0;
#X connect 15 0 31 0;
#X connect 15 0 65 0;
#X connect 16 0 17 0;
#X connect 17 0 18 0;
#X connect 18 0 64 0;
#X connect 19 0 20 0;
#X connect 20 0 18 1;
#X connect 21 0 23 1;
#X connect 22 0 23 0;
#X connect 23 0 24 0;
#X connect 24 0 25 1;
#X connect 25 0 44 0;
#X connect 26 0 59 0;
#X connect 28 0 29 0;
#X connect 29 0 30 0;
#X connect 30 0 66 0;
#X connect 31 0 32 0;
#X connect 32 0 30 1;
#X connect 33 0 35 1;
#X connect 34 0 35 0;
#X connect 35 0 36 0;
#X connect 36 0 37 1;
#X connect 37 0 48 0;
#X connect 38 0 39 0;
#X connect 39 0 28 0;
#X connect 39 0 32 1;
#X connect 39 0 33 0;
#X connect 41 0 58 0;
#X connect 42 0 2 0;
#X connect 43 0 42 0;
#X connect 44 0 27 0;
#X connect 44 0 62 0;
#X connect 45 0 46 0;
#X connect 46 0 47 0;
#X connect 47 0 88 0;
#X connect 48 0 40 0;
#X connect 49 0 59 0;
#X connect 50 0 54 0;
#X connect 51 0 52 0;
#X connect 52 0 84 0;
#X connect 53 0 51 0;
#X connect 54 0 55 0;
#X connect 55 0 53 0;
#X connect 56 0 0 0;
#X connect 57 0 4 0;
#X connect 60 0 49 0;
#X connect 61 0 50 0;
#X connect 63 0 45 0;
#X connect 64 0 25 0;
#X connect 66 0 37 0;
#X connect 67 0 68 0;
#X connect 68 0 69 0;
#X connect 69 0 73 0;
#X connect 70 0 71 0;
#X connect 71 0 72 0;
#X connect 72 0 69 0;
#X connect 73 0 82 0;
#X connect 73 1 82 1;
#X connect 74 0 78 0;
#X connect 75 0 82 0;
#X connect 75 1 82 1;
#X connect 76 0 77 0;
#X connect 77 0 79 0;
#X connect 78 0 76 0;
#X connect 79 0 80 0;
#X connect 80 0 75 0;
#X connect 81 0 67 0;
#X connect 81 0 74 0;
#X connect 82 0 83 0;
#X connect 83 0 3 0;
#X connect 84 0 85 0;
#X connect 85 0 49 1;
#X connect 86 0 84 1;
#X connect 87 0 44 1;
#X connect 87 0 48 1;
#X connect 88 0 87 0;
#X connect 89 0 88 1;
#X connect 90 0 91 0;
#X connect 91 0 6 0;
#X connect 92 0 93 0;
#X connect 93 0 90 0;
#X connect 93 1 90 1;
#X connect 94 0 95 0;
#X connect 95 0 103 0;
#X connect 96 0 97 0;
#X connect 97 0 98 0;
#X connect 98 0 99 0;
#X connect 99 0 90 0;
#X connect 99 1 90 1;
#X connect 100 0 101 0;
#X connect 101 0 102 0;
#X connect 102 0 92 0;
#X connect 103 0 96 0;
#X connect 104 0 92 0;
#X connect 104 0 94 0;
#X restore -104 241 pd pitch-delay 2;
#X obj -105 182 throw~ \$0-LEFT;
#X obj -18 162 throw~ \$0-RIGHT;
#X obj -106 80 s~ \$0-INPUT;
#X obj -105 111 r~ \$0-INPUT;
#X obj -104 215 r~ \$0-INPUT;
#X obj -104 282 throw~ \$0-LEFT;
#X obj -11 267 throw~ \$0-RIGHT;
#X floatatom 49 521 5 0 0 0 - - - 0;
#X obj 49 541 makefilename %d;
#X obj 48 496 r \$0-gt-delay2-gui-r;
#X msg 49 564 label DELAY2(\$1)ms;
#X obj 49 586 s \$0-gt-delay2-r;
#N canvas 62 23 1174 729 reverse-delay 0;
#X obj 617 411 r \$0-gt-rev-revmix-s;
#X obj 617 432 / 127;
#X obj 617 453 pack 0 10;
#X floatatom 137 204 5 0 0 0 - - - 0;
#X obj 138 173 / 2;
#X obj 481 132 phasor~;
#X obj 424 259 *~;
#X obj 576 131 phasor~;
#X msg 520 109 0;
#X msg 615 105 0.5;
#X obj 576 274 *~;
#X obj 138 262 s \$0-t;
#X obj 137 236 expr (60000/$f1)/60;
#X obj 481 17 r \$0-t;
#X obj 441 351 cos~;
#X obj 576 376 *~;
#X obj 424 444 *~;
#X obj 658 299 cos~;
#X obj 658 333 +~ 1;
#X obj 658 360 /~ 2;
#X obj 441 378 +~ 1;
#X obj 441 405 /~ 2;
#X obj 591 201 r \$0-length;
#X obj 520 61 loadbang;
#X obj 321 608 s~ \$0-fb;
#X obj 27 386 inlet~;
#X text 1147 247 gör egen feedback. strunta i mode 0 och använd bara
mode 1;
#X obj 576 439 *~ 1;
#X obj 141 17 hsl 128 15 0 127 0 0 empty empty empty -2 -8 0 10 #fcfcfc
#000000 #000000 0 1;
#X obj 138 37 / 127;
#X obj 138 104 * 3999;
#X obj 138 125 + 1;
#X floatatom 138 146 5 0 0 0 - - - 0;
#X obj 190 161 s \$0-length;
#X obj 76 383 r~ \$0-fb;
#X obj 138 289 r \$0-gt-rev-feedback-s;
#X obj 138 310 / 127;
#X obj 138 373 pack 0 10;
#X obj 80 457 *~;
#X obj 138 331 * 0.95;
#X obj 138 352 clip 0 0.95;
#X obj 26 530 delwrite~ \$0-del3 4000;
#X obj 424 307 vd~ \$0-del3;
#X obj 576 316 vd~ \$0-del3;
#X obj 138 -6 r \$0-gt-rev-delay-s;
#X obj 32 219 s \$0-rev-gui-s;
#X obj 481 40 pack 0 10;
#X obj 481 61 line~;
#X obj 591 222 pack 0 10;
#X obj 591 243 line~;
#X obj 420 604 *~;
#X obj 572 604 *~;
#X obj 572 625 outlet~;
#X obj 420 625 outlet~;
#X obj 298 19 r~ \$0-D3-CV;
#X obj 220 385 r~ \$0-F3-CV;
#X obj 675 510 r~ \$0-MIX3-CV;
#X obj 587 571 clip~ 0 1;
#X obj 617 474 line~;
#X obj 659 538 +~;
#X obj 134 440 clip~ 0 0.95;
#X obj 138 394 line~;
#X obj 138 415 +~;
#X obj 138 58 +;
#X obj 138 79 clip 0 1;
#X obj 298 71 snapshot~;
#X obj 380 12 loadbang;
#X obj 380 35 tgl 15 0 empty empty empty 17 7 0 10 #fcfcfc #000000
#000000 0 1;
#X obj 380 55 metro 20;
#X floatatom 298 92 5 0 0 0 - - - 0;
#X obj 298 112 t b f;
#X obj 351 114 > 0;
#X floatatom 351 135 5 0 0 0 - - - 0;
#X obj 351 155 change;
#X obj 351 176 sel 0;
#X msg 351 197 0;
#X obj 351 218 t b f;
#X connect 0 0 1 0;
#X connect 1 0 2 0;
#X connect 2 0 58 0;
#X connect 3 0 12 0;
#X connect 3 0 45 0;
#X connect 4 0 3 0;
#X connect 5 0 6 0;
#X connect 5 0 17 0;
#X connect 6 0 42 0;
#X connect 7 0 10 0;
#X connect 7 0 14 0;
#X connect 8 0 5 1;
#X connect 9 0 7 1;
#X connect 10 0 43 0;
#X connect 12 0 11 0;
#X connect 13 0 46 0;
#X connect 14 0 20 0;
#X connect 15 0 27 0;
#X connect 16 0 24 0;
#X connect 16 0 50 0;
#X connect 17 0 18 0;
#X connect 18 0 19 0;
#X connect 19 0 15 1;
#X connect 20 0 21 0;
#X connect 21 0 16 1;
#X connect 22 0 48 0;
#X connect 23 0 8 0;
#X connect 23 0 9 0;
#X connect 25 0 41 0;
#X connect 27 0 24 0;
#X connect 27 0 51 0;
#X connect 28 0 29 0;
#X connect 29 0 63 0;
#X connect 30 0 31 0;
#X connect 31 0 32 0;
#X connect 32 0 33 0;
#X connect 32 0 4 0;
#X connect 34 0 38 0;
#X connect 35 0 36 0;
#X connect 36 0 39 0;
#X connect 37 0 61 0;
#X connect 38 0 41 0;
#X connect 39 0 40 0;
#X connect 40 0 37 0;
#X connect 42 0 16 0;
#X connect 43 0 15 0;
#X connect 44 0 28 0;
#X connect 46 0 47 0;
#X connect 47 0 5 0;
#X connect 47 0 7 0;
#X connect 48 0 49 0;
#X connect 49 0 6 1;
#X connect 49 0 10 1;
#X connect 50 0 53 0;
#X connect 51 0 52 0;
#X connect 54 0 65 0;
#X connect 55 0 62 1;
#X connect 56 0 59 1;
#X connect 57 0 51 1;
#X connect 57 0 50 1;
#X connect 58 0 59 0;
#X connect 59 0 57 0;
#X connect 60 0 38 1;
#X connect 61 0 62 0;
#X connect 62 0 60 0;
#X connect 63 0 64 0;
#X connect 64 0 30 0;
#X connect 65 0 69 0;
#X connect 65 0 71 0;
#X connect 66 0 67 0;
#X connect 67 0 68 0;
#X connect 68 0 65 0;
#X connect 69 0 70 0;
#X connect 70 0 63 0;
#X connect 70 1 63 1;
#X connect 71 0 72 0;
#X connect 72 0 73 0;
#X connect 73 0 74 0;
#X connect 74 0 75 0;
#X connect 75 0 76 0;
#X connect 76 0 63 0;
#X connect 76 1 63 1;
#X restore -102 343 pd reverse-delay;
#X obj -101 317 r~ \$0-INPUT;
#X obj -102 381 throw~ \$0-LEFT;
#X obj -9 381 throw~ \$0-RIGHT;
#X obj 112 273 hsl 128 15 0 127 0 1 \$0-gt-rev-revmix-s \$0-gt-rev-revmix-r
REVERSE-MIX 133 7 0 10 #fcfcfc #000000 #000000 6400 1;
#X obj 112 243 hsl 128 15 0 127 0 1 \$0-gt-rev-delay-s \$0-gt-rev-delay-r
REVDLY(1008)ms 133 7 0 10 #fcfcfc #000000 #000000 6400 1;
#X obj 112 258 hsl 128 15 0 127 0 1 \$0-gt-rev-feedback-s \$0-gt-rev-feedback-r
FEEDBACK 133 7 0 10 #fcfcfc #000000 #000000 6400 1;
#X obj 187 501 r \$0-rev-gui-s;
#X floatatom 187 523 5 0 0 0 - - - 0;
#X obj 187 543 makefilename %d;
#X obj 187 588 s \$0-gt-rev-delay-r;
#X obj 351 273 hsl 128 15 0 127 0 1 \$0-gt-roomsize-s \$0-gt-roomsize-r
ROOMSIZE 133 7 0 10 #fcfcfc #000000 #000000 6400 1;
#X obj 351 243 hsl 128 15 0 127 0 1 \$0-gt-lofi-output-s \$0-gt-lofi-output-r
LOFI-FREQ 133 7 0 10 #fcfcfc #000000 #000000 6400 1;
#X obj 376 370 catch~ \$0-LEFT;
#X obj 463 401 catch~ \$0-RIGHT;
#N canvas 218 23 878 637 lo-fi-OUTPUT 0;
#X obj 179 332 samphold~;
#X obj 230 302 phasor~;
#X floatatom 230 232 5 0 0 0 - - - 0;
#X obj 266 6 loadbang;
#X obj 266 27 t b b;
#X msg 267 48 0;
#X msg 300 53 0.5;
#X obj 462 289 phasor~;
#X obj 411 333 samphold~;
#X obj 230 252 pack 0 10;
#X obj 230 273 line~;
#X obj 231 110 / 127;
#X obj 230 187 * 1940;
#X obj 230 208 + 60;
#X obj 178 472 *~;
#X obj 411 480 *~;
#X obj 286 349 pack 0 10;
#X obj 286 325 / 127;
#X obj 231 89 r \$0-gt-lofi-output-s;
#X obj 286 304 r \$0-gt-output-mix-s;
#X obj 175 17 inlet~;
#X obj 179 531 outlet~;
#X obj 411 531 outlet~;
#X obj 404 30 inlet~;
#X obj 45 477 *~;
#X obj 559 474 *~;
#X obj 592 203 r \$0-gt-output-mix-s;
#X obj 592 241 / 127;
#X obj 592 262 t f f;
#X msg 592 285 1 \$1;
#X obj 592 306 -;
#X floatatom 592 327 5 0 0 0 - - - 0;
#X obj 592 347 pack 0 10;
#X obj 592 368 line~;
#X obj 71 185 r \$0-gt-output-mix-s;
#X obj 71 223 / 127;
#X obj 71 244 t f f;
#X msg 71 267 1 \$1;
#X obj 71 288 -;
#X floatatom 71 309 5 0 0 0 - - - 0;
#X obj 71 329 pack 0 10;
#X obj 71 350 line~;
#X obj 509 77 r notes;
#X floatatom 509 98 5 0 0 0 - - - 0;
#X obj 509 118 mtof;
#X floatatom 509 139 5 0 0 0 - - - 0;
#X obj 699 4 r~ \$0-LFREQ-CV;
#X obj 436 376 r~ \$0-LMIX-CV;
#X obj 592 425 +~;
#X obj 592 450 clip~ 0 1;
#X obj 297 460 clip~ 0 1;
#X obj 286 370 line~;
#X obj 287 435 +~;
#X obj 71 405 +~;
#X obj 71 434 clip~ 0 1;
#X obj 231 131 +;
#X obj 231 152 clip 0 1;
#X obj 700 83 snapshot~;
#X obj 782 24 loadbang;
#X obj 782 47 tgl 15 0 empty empty empty 17 7 0 10 #fcfcfc #000000
#000000 0 1;
#X obj 782 67 metro 20;
#X floatatom 700 104 5 0 0 0 - - - 0;
#X obj 700 124 t b f;
#X obj 753 126 > 0;
#X floatatom 753 147 5 0 0 0 - - - 0;
#X obj 753 167 change;
#X obj 753 188 sel 0;
#X msg 753 209 0;
#X obj 753 230 t b f;
#X obj 436 397 *~ -1;
#X obj 436 418 +~ 1;
#X connect 0 0 14 0;
#X connect 1 0 0 1;
#X connect 2 0 9 0;
#X connect 3 0 4 0;
#X connect 4 0 5 0;
#X connect 4 1 6 0;
#X connect 5 0 1 1;
#X connect 6 0 7 1;
#X connect 7 0 8 1;
#X connect 8 0 15 0;
#X connect 9 0 10 0;
#X connect 10 0 1 0;
#X connect 10 0 7 0;
#X connect 11 0 55 0;
#X connect 12 0 13 0;
#X connect 13 0 2 0;
#X connect 14 0 21 0;
#X connect 15 0 22 0;
#X connect 16 0 51 0;
#X connect 17 0 16 0;
#X connect 18 0 11 0;
#X connect 19 0 17 0;
#X connect 20 0 0 0;
#X connect 20 0 24 0;
#X connect 23 0 8 0;
#X connect 23 0 25 0;
#X connect 24 0 21 0;
#X connect 25 0 22 0;
#X connect 26 0 27 0;
#X connect 27 0 28 0;
#X connect 28 0 29 0;
#X connect 29 0 30 0;
#X connect 30 0 31 0;
#X connect 31 0 32 0;
#X connect 32 0 33 0;
#X connect 33 0 48 0;
#X connect 34 0 35 0;
#X connect 35 0 36 0;
#X connect 36 0 37 0;
#X connect 37 0 38 0;
#X connect 38 0 39 0;
#X connect 39 0 40 0;
#X connect 40 0 41 0;
#X connect 41 0 53 0;
#X connect 42 0 43 0;
#X connect 43 0 44 0;
#X connect 44 0 45 0;
#X connect 45 0 9 0;
#X connect 46 0 57 0;
#X connect 47 0 52 1;
#X connect 47 0 69 0;
#X connect 48 0 49 0;
#X connect 49 0 25 1;
#X connect 50 0 14 1;
#X connect 50 0 15 1;
#X connect 51 0 52 0;
#X connect 52 0 50 0;
#X connect 53 0 54 0;
#X connect 54 0 24 1;
#X connect 55 0 56 0;
#X connect 56 0 12 0;
#X connect 57 0 61 0;
#X connect 57 0 63 0;
#X connect 58 0 59 0;
#X connect 59 0 60 0;
#X connect 60 0 57 0;
#X connect 61 0 62 0;
#X connect 62 0 55 0;
#X connect 62 1 55 1;
#X connect 63 0 64 0;
#X connect 64 0 65 0;
#X connect 65 0 66 0;
#X connect 66 0 67 0;
#X connect 67 0 68 0;
#X connect 68 0 55 0;
#X connect 68 1 55 1;
#X connect 69 0 70 0;
#X connect 70 0 48 1;
#X connect 70 0 53 1;
#X restore 376 462 pd lo-fi-OUTPUT;
#X obj 351 258 hsl 128 15 0 127 0 1 \$0-gt-output-mix-s \$0-gt-output-mix-r
LOFI-MIX 133 7 0 10 #fcfcfc #000000 #000000 6400 1;
#N canvas 0 23 945 540 ambience 0;
#X obj 132 55 inlet~;
#X obj 132 327 outlet~;
#X obj 187 328 outlet~;
#X obj 184 55 inlet~;
#X obj 370 -1 / 127;
#X obj 370 20 t f f;
#X msg 370 43 1 \$1;
#X obj 370 64 -;
#X floatatom 370 85 5 0 0 0 - - - 0;
#X obj 361 104 pack 0 10;
#X obj 370 -39 r \$0-gt-ambience-s;
#X obj 41 230 *~;
#X obj 340 208 *~;
#X obj 421 210 pack 0 10;
#X obj 197 176 *~;
#X obj 137 176 *~;
#X obj 289 213 *~;
#X obj 229 213 *~;
#X obj 248 -7 r \$0-gt-roomsize-s;
#X obj 248 14 / 127;
#X obj 252 111 + 1;
#X obj 252 90 * 99;
#X obj 132 131 rev3~ 100 95 2200 90;
#X obj 485 6 r~ \$0-RSIZE-CV;
#X obj 434 41 r~ \$0-MIX4-CV;
#X obj 248 35 +;
#X obj 248 56 clip 0 1;
#X obj 493 143 snapshot~;
#X obj 575 84 loadbang;
#X obj 575 107 tgl 15 0 empty empty empty 17 7 0 10 #fcfcfc #000000
#000000 0 1;
#X obj 575 127 metro 20;
#X floatatom 493 164 5 0 0 0 - - - 0;
#X obj 493 184 t b f;
#X obj 546 186 > 0;
#X floatatom 546 207 5 0 0 0 - - - 0;
#X obj 546 227 change;
#X obj 546 248 sel 0;
#X msg 546 269 0;
#X obj 546 290 t b f;
#X obj 353 175 clip~ 0 1;
#X obj 353 128 line~;
#X obj 356 155 +~;
#X obj 409 276 clip~ 0 1;
#X obj 421 231 line~;
#X obj 408 252 +~;
#X obj 634 331 scope;
#X obj 776 206 *~ -1;
#X obj 776 227 +~ 1;
#X connect 0 0 11 0;
#X connect 0 0 22 0;
#X connect 3 0 12 0;
#X connect 3 0 22 1;
#X connect 4 0 5 0;
#X connect 5 0 6 0;
#X connect 5 1 13 0;
#X connect 6 0 7 0;
#X connect 7 0 8 0;
#X connect 8 0 9 0;
#X connect 9 0 40 0;
#X connect 10 0 4 0;
#X connect 11 0 1 0;
#X connect 12 0 2 0;
#X connect 13 0 43 0;
#X connect 14 0 2 0;
#X connect 15 0 1 0;
#X connect 16 0 2 0;
#X connect 17 0 1 0;
#X connect 18 0 19 0;
#X connect 19 0 25 0;
#X connect 20 0 22 3;
#X connect 21 0 20 0;
#X connect 22 0 15 0;
#X connect 22 1 14 0;
#X connect 22 2 17 0;
#X connect 22 3 16 0;
#X connect 23 0 27 0;
#X connect 24 0 44 1;
#X connect 24 0 46 0;
#X connect 25 0 26 0;
#X connect 26 0 21 0;
#X connect 27 0 31 0;
#X connect 27 0 33 0;
#X connect 28 0 29 0;
#X connect 29 0 30 0;
#X connect 30 0 27 0;
#X connect 31 0 32 0;
#X connect 32 0 25 0;
#X connect 32 1 25 1;
#X connect 33 0 34 0;
#X connect 34 0 35 0;
#X connect 35 0 36 0;
#X connect 36 0 37 0;
#X connect 37 0 38 0;
#X connect 38 0 25 0;
#X connect 38 1 25 1;
#X connect 39 0 12 1;
#X connect 39 0 11 1;
#X connect 40 0 41 0;
#X connect 41 0 39 0;
#X connect 42 0 16 1;
#X connect 42 0 17 1;
#X connect 42 0 14 1;
#X connect 42 0 15 1;
#X connect 43 0 44 0;
#X connect 44 0 42 0;
#X connect 46 0 47 0;
#X connect 47 0 41 1;
#X restore 383 513 pd ambience;
#X obj 272 323 hsl 127 20 0 127 0 1 \$0-gt-dry/wet-s \$0-gt-dry/wet-r
DRY/WET 133 7 0 10 #8480d4 #000000 #000000 6350 1;
#X obj 351 288 hsl 128 15 0 127 0 1 \$0-gt-ambience-s \$0-gt-ambience-r
LOFI+VERB-MIX 133 7 0 10 #fcfcfc #000000 #000000 6400 1;
#X obj 751 309 r \$0-gt-dry/wet-s;
#X obj -17 80 s~ \$0-DRY;
#X obj 675 482 r~ \$0-DRY;
#X obj 675 510 *~;
#X obj 751 330 / 127;
#X obj 751 351 t f f;
#X msg 751 372 1 \$1;
#X obj 751 393 -;
#X obj 751 414 pack 0 10;
#X obj 387 569 *~;
#X obj 442 572 *~;
#X obj 502 433 r \$0-gt-dry/wet-s;
#X obj 502 454 / 127;
#X obj 502 478 pack 0 10;
#X obj 184 416 r~ \$0-DRY;
#X obj 184 444 *~;
#X obj 260 383 / 127;
#X obj 260 407 pack 0 10;
#X obj 260 428 line~;
#X obj 260 362 r \$0-gt-ambience-s;
#X obj 257 456 *~;
#X obj 998 353 r \$0-dly1-level-s;
#X obj 1123 360 r \$0-dly2-level-s;
#X obj 1113 470 r \$0-gt-rev-revmix-s;
#X obj 1026 465 +;
#X obj 1123 381 t b f;
#X obj 1025 516 +;
#X obj 1113 491 t b f;
#X floatatom 1025 537 5 0 0 0 - - - 0;
#X obj 1025 557 == 0;
#X floatatom 1025 578 5 0 0 0 - - - 0;
#X obj 1025 598 pack 0 10;
#X obj 1025 619 line~;
#X obj 106 124 cnv 5 5 5 empty empty STARLIGHT 0 0 0 12 #fcfcfc #404040
0;
#X obj 110 150 cnv 5 5 5 empty empty DLY1 0 0 0 12 #d0307c #fcfcfc
0;
#X obj 552 343 cnv 5 5 5 empty empty RIGHT 0 0 0 8 #fcfcfc #404040
0;
#X obj 105 342 cnv 5 5 5 empty empty LEFT 0 0 0 8 #fcfcfc #404040 0
;
#X obj 105 109 cnv 5 5 5 empty empty IN 0 0 0 8 #fcfcfc #404040 0;
#X obj 180 124 cnv 5 5 5 empty \$0-instance-num 0 0 0 0 12 #fcfcfc
#404040 0;
#X obj 349 152 cnv 5 5 5 empty empty DLY2 0 0 0 12 #d0307c #fcfcfc
0;
#X obj 110 237 cnv 5 5 5 empty empty REVERSE-3 0 0 0 12 #8480d4 #fcfcfc
0;
#X obj 348 236 cnv 5 5 5 empty empty LOFI+VERB-4 0 0 0 12 #7ccca0 #fcfcfc
0;
#X obj 67 34 s~ \$0-D1-CV;
#X obj 135 54 s~ \$0-P1-CV;
#X obj 202 31 s~ \$0-F1-CV;
#X obj 271 57 s~ \$0-MIX1-CV;
#X obj 355 33 s~ \$0-D2-CV;
#X obj 423 59 s~ \$0-P2-CV;
#X obj 490 39 s~ \$0-F2-CV;
#X obj 559 61 s~ \$0-MIX2-CV;
#X obj 643 36 s~ \$0-D3-CV;
#X obj 709 62 s~ \$0-F3-CV;
#X obj 774 36 s~ \$0-MIX3-CV;
#X obj 853 63 s~ \$0-LFREQ-CV;
#X obj 938 36 s~ \$0-LMIX-CV;
#X obj 1018 61 s~ \$0-RSIZE-CV;
#X obj 1099 33 s~ \$0-MIX4-CV;
#X obj 1180 64 s~ \$0-D/W-CV;
#X msg 187 566 label REVDLY(\$1)ms;
#X obj 503 549 clip~ 0 1;
#X obj 502 499 line~;
#X obj 502 522 +~;
#X obj 632 417 r~ \$0-D/W-CV;
#X obj 632 438 *~ -1;
#X obj 632 459 +~ 1;
#X obj 751 493 clip~ 0 1;
#X obj 751 435 line~;
#X obj 751 456 +~;
#N canvas 0 22 1280 756 forwarding 0;
#X obj 23 458 s \$0-gt-delay-r;
#X obj 75 404 s \$0-gt-pitch-r;
#X obj 155 432 s \$0-dly1-fb-r;
#X obj 192 404 s \$0-dly1-level-r;
#X obj 249 474 s \$0-gt-delay2-r;
#X obj 314 448 s \$0-gt-pitch2-r;
#X obj 357 500 s \$0-dly1-fb2-r;
#X obj 415 463 s \$0-dly2-level-r;
#X obj 462 409 s \$0-gt-rev-delay-r;
#X obj 515 431 s \$0-gt-rev-feedback-r;
#X obj 582 469 s \$0-gt-rev-revmix-r;
#X obj 632 404 s \$0-gt-lofi-output-r;
#X obj 684 441 s \$0-gt-output-mix-r;
#X obj 751 470 s \$0-gt-roomsize-r;
#X obj 814 416 s \$0-gt-ambience-r;
#X obj 35 364 route DELAY1 PITCH1 FEEDBACK1 DLY1-MIX DELAY2 PITCH2
FEEDBACK2 DLY2-MIX REVDLY FEEDBACK REVERSE-MIX LOFI-FREQ LOFI-MIX ROOMSIZE
REVERB-MIX DRY/WET, f 147;
#X obj 862 393 s \$0-gt-dry/wet-r;
#X obj 33 335 inlet;
#X connect 15 0 0 0;
#X connect 15 1 1 0;
#X connect 15 2 2 0;
#X connect 15 3 3 0;
#X connect 15 4 4 0;
#X connect 15 5 5 0;
#X connect 15 6 6 0;
#X connect 15 7 7 0;
#X connect 15 8 8 0;
#X connect 15 9 9 0;
#X connect 15 10 10 0;
#X connect 15 11 11 0;
#X connect 15 12 12 0;
#X connect 15 13 13 0;
#X connect 15 14 14 0;
#X connect 15 15 16 0;
#X connect 17 0 15 0;
#X restore -49 28 pd forwarding;
#N canvas 0 22 1280 756 save-state 0;
#X obj 299 116 f;
#X obj 299 319 pack f f f f f f f f f f f f f f f f;
#X obj 311 -12 r \$0-gt-delay-s;
#X obj 324 17 r \$0-gt-pitch-s;
#X obj 353 45 r \$0-dly1-fb-s;
#X obj 381 70 r \$0-dly1-level-s;
#X obj 390 97 r \$0-gt-delay2-s;
#X obj 403 126 r \$0-gt-pitch2-s;
#X obj 432 154 r \$0-dly1-fb2-s;
#X obj 460 179 r \$0-dly2-level-s;
#X obj 494 212 r \$0-gt-rev-delay-s;
#X obj 507 241 r \$0-gt-rev-feedback-s;
#X obj 536 269 r \$0-gt-rev-revmix-s;
#X obj 598 66 r \$0-gt-lofi-output-s;
#X obj 632 99 r \$0-gt-output-mix-s;
#X obj 645 128 r \$0-gt-roomsize-s;
#X obj 678 182 r \$0-gt-ambience-s;
#X obj 674 233 r \$0-gt-dry/wet-s;
#X obj 161 383 unpack f f f f f f f f f f f f f f f f;
#X obj 64 743 s \$0-gt-delay-r;
#X obj 98 717 s \$0-gt-pitch-r;
#X obj 133 687 s \$0-dly1-fb-r;
#X obj 161 653 s \$0-dly1-level-r;
#X obj 183 750 s \$0-gt-delay2-r;
#X obj 217 724 s \$0-gt-pitch2-r;
#X obj 252 694 s \$0-dly1-fb2-r;
#X obj 280 660 s \$0-dly2-level-r;
#X obj 341 618 s \$0-gt-rev-delay-r;
#X obj 376 588 s \$0-gt-rev-feedback-r;
#X obj 404 554 s \$0-gt-rev-revmix-r;
#X obj 401 735 s \$0-gt-lofi-output-r;
#X obj 435 709 s \$0-gt-output-mix-r;
#X obj 470 679 s \$0-gt-roomsize-r;
#X obj 493 598 s \$0-gt-ambience-r;
#X obj 482 496 s \$0-gt-dry/wet-r;
#X obj 212 98 savestate;
#X obj 147 78 loadbang;
#X obj 104 208 list store;
#X msg 134 156 1;
#X obj 147 99 t b b;
#X obj 134 135 t b a;
#X obj 81 182 spigot 0;
#X obj 184 182 spigot 1;
#X obj 212 119 t a b;
#X msg 239 156 0;
#X msg 184 208 64 64 64 64 64 64 64 64 64 64 64 64 64 64 64 64;
#X connect 0 0 1 0;
#X connect 1 0 35 0;
#X connect 2 0 0 1;
#X connect 3 0 1 1;
#X connect 4 0 1 2;
#X connect 5 0 1 3;
#X connect 6 0 1 4;
#X connect 7 0 1 5;
#X connect 8 0 1 6;
#X connect 9 0 1 7;
#X connect 10 0 1 8;
#X connect 11 0 1 9;
#X connect 12 0 1 10;
#X connect 13 0 1 11;
#X connect 14 0 1 12;
#X connect 15 0 1 13;
#X connect 16 0 1 14;
#X connect 17 0 1 15;
#X connect 18 0 19 0;
#X connect 18 1 20 0;
#X connect 18 2 21 0;
#X connect 18 3 22 0;
#X connect 18 4 23 0;
#X connect 18 5 24 0;
#X connect 18 6 25 0;
#X connect 18 7 26 0;
#X connect 18 8 27 0;
#X connect 18 9 28 0;
#X connect 18 10 29 0;
#X connect 18 11 30 0;
#X connect 18 12 31 0;
#X connect 18 13 32 0;
#X connect 18 14 33 0;
#X connect 18 15 34 0;
#X connect 35 0 43 0;
#X connect 35 1 0 0;
#X connect 36 0 39 0;
#X connect 37 0 18 0;
#X connect 38 0 41 1;
#X connect 39 0 41 0;
#X connect 39 1 42 0;
#X connect 40 0 38 0;
#X connect 40 1 37 1;
#X connect 41 0 37 0;
#X connect 42 0 45 0;
#X connect 43 0 40 0;
#X connect 43 1 44 0;
#X connect 44 0 42 1;
#X connect 45 0 18 0;
#X restore 1039 177 pd save-state;
#X obj -106 2 inlet~ fwd;
#X connect 10 0 11 0;
#X connect 11 0 14 0;
#X connect 13 0 10 0;
#X connect 14 0 12 0;
#X connect 21 0 23 0;
#X connect 21 1 24 0;
#X connect 22 0 28 0;
#X connect 22 1 29 0;
#X connect 26 0 21 0;
#X connect 27 0 22 0;
#X connect 30 0 31 0;
#X connect 31 0 33 0;
#X connect 32 0 30 0;
#X connect 33 0 34 0;
#X connect 35 0 37 0;
#X connect 35 1 38 0;
#X connect 36 0 35 0;
#X connect 42 0 43 0;
#X connect 43 0 44 0;
#X connect 44 0 113 0;
#X connect 48 0 50 0;
#X connect 49 0 50 1;
#X connect 50 0 52 0;
#X connect 50 1 52 1;
#X connect 52 0 64 0;
#X connect 52 1 65 0;
#X connect 55 0 59 0;
#X connect 57 0 58 0;
#X connect 58 0 6 0;
#X connect 58 0 7 0;
#X connect 59 0 60 0;
#X connect 60 0 61 0;
#X connect 61 0 62 0;
#X connect 62 0 63 0;
#X connect 63 0 121 0;
#X connect 64 0 6 0;
#X connect 65 0 7 0;
#X connect 66 0 67 0;
#X connect 67 0 68 0;
#X connect 68 0 115 0;
#X connect 69 0 70 0;
#X connect 70 0 75 0;
#X connect 71 0 72 0;
#X connect 72 0 73 0;
#X connect 73 0 70 1;
#X connect 74 0 71 0;
#X connect 75 0 50 0;
#X connect 75 0 50 1;
#X connect 76 0 79 0;
#X connect 77 0 80 0;
#X connect 78 0 82 0;
#X connect 79 0 81 0;
#X connect 80 0 79 0;
#X connect 80 1 79 1;
#X connect 81 0 83 0;
#X connect 82 0 81 0;
#X connect 82 1 81 1;
#X connect 83 0 84 0;
#X connect 84 0 85 0;
#X connect 85 0 86 0;
#X connect 86 0 87 0;
#X connect 87 0 75 1;
#X connect 113 0 45 0;
#X connect 114 0 65 1;
#X connect 114 0 64 1;
#X connect 115 0 116 0;
#X connect 116 0 114 0;
#X connect 117 0 116 1;
#X connect 117 0 118 0;
#X connect 118 0 119 0;
#X connect 120 0 58 1;
#X connect 121 0 122 0;
#X connect 122 0 120 0;
#X connect 125 0 25 0;
#X connect 125 0 56 0;
#X connect 125 1 123 0;
#X coords 0 -1 1 1 480 250 2 100 100;
