#N canvas 0 23 1127 694 10;
#X obj 106 128 hsl 128 15 0 127 0 1 \$0-stereo-delay-rate-left-s \$0-stereo-delay-rate-left-r
RATE-LEFT 133 7 0 10 #fcfcfc #000000 #000000 8400 1;
#X obj 106 158 hsl 128 15 0 127 0 1 \$0-stereo-delay-feedback-s \$0-stereo-delay-feedback-r
FEEDBACK 133 7 0 10 #fcfcfc #000000 #000000 6000 1;
#X obj 438 506 *~ -1;
#X obj 81 486 *~;
#X obj 438 482 *~;
#X obj 106 187 hsl 128 15 0 127 0 1 \$0-stereo-delay-dry/wet-s \$0-stereo-delay-dry/wet-r
DRY/WET 133 7 0 10 #fcfcfc #000000 #000000 4800 1;
#X obj 96 276 t f f;
#X msg 96 298 127 \$1;
#X obj 96 320 -;
#X obj 96 342 / 127;
#X obj 96 364 pack 0 50;
#X obj 96 386 line~;
#X obj 248 421 / 127;
#X obj 248 443 pack 0 50;
#X obj 248 465 line~;
#X obj 81 516 hip~ 5;
#X obj 439 534 min~ 1;
#X obj 439 556 max~ -1;
#X obj 439 643 outlet~;
#X obj 140 108 cnv 5 5 5 empty empty RATE-L 0 0 0 8 #fcfcfc #404040
0;
#X obj 103 121 cnv 5 5 5 empty empty STEREO-DELAY 0 0 0 12 #fcfcfc
#404040 0;
#X obj 102 108 cnv 5 5 5 empty empty IN 0 0 0 8 #fcfcfc #404040 0;
#N canvas 0 22 793 555 delay1 0;
#X obj 195 112 inlet~;
#X obj 365 109 inlet;
#X obj 365 131 / 127;
#X obj 365 197 sig~;
#X obj 365 461 outlet~;
#X obj 456 311 *~;
#X obj 472 113 inlet;
#X obj 472 137 / 127;
#X obj 472 208 pack 0 50;
#X obj 472 230 line~;
#X text 454 96 FEEDBACK;
#X text 365 89 DELAY;
#X text 193 90 SIGNAL IN;
#X obj 472 181 + 0.5;
#X obj 472 159 * 0.48;
#X obj 365 286 vd~ \$0-dly1;
#X obj 365 175 + 10;
#X obj 365 153 * 499;
#X obj 472 282 min~ 0.98;
#X obj 365 219 +~;
#X obj 410 158 inlet~;
#X obj 410 180 *~ 499;
#X obj 410 202 +~ 10;
#X text 415 139 CV IN;
#X obj 472 252 +~;
#X obj 546 235 inlet~;
#X obj 197 465 delwrite~ \$0-dly1 500;
#X obj 365 241 lop~ 1;
#X connect 0 0 26 0;
#X connect 1 0 2 0;
#X connect 2 0 17 0;
#X connect 3 0 19 0;
#X connect 5 0 26 0;
#X connect 6 0 7 0;
#X connect 7 0 14 0;
#X connect 8 0 9 0;
#X connect 9 0 24 0;
#X connect 13 0 8 0;
#X connect 14 0 13 0;
#X connect 15 0 4 0;
#X connect 15 0 5 0;
#X connect 16 0 3 0;
#X connect 17 0 16 0;
#X connect 18 0 5 1;
#X connect 19 0 27 0;
#X connect 20 0 21 0;
#X connect 21 0 22 0;
#X connect 22 0 19 1;
#X connect 24 0 18 0;
#X connect 25 0 24 1;
#X connect 27 0 15 0;
#X restore 438 199 pd delay1;
#X obj 106 143 hsl 128 15 0 127 0 1 \$0-stereo-delay-rate-right-s \$0-stereo-delay-rate-right-r
RATE-RIGHT 133 7 0 10 #fcfcfc #000000 #000000 8800 1;
#X obj 562 504 *~ -1;
#X obj 562 482 *~;
#X obj 563 532 min~ 1;
#X obj 563 554 max~ -1;
#X obj 563 643 outlet~;
#X obj 188 108 cnv 5 5 5 empty empty RATE-R 0 0 0 8 #fcfcfc #404040
0;
#X obj 234 108 cnv 5 5 5 empty empty FBACK 0 0 0 8 #fcfcfc #404040
0;
#X obj 105 212 cnv 5 5 5 empty empty LEFT 0 0 0 8 #fcfcfc #404040 0
;
#X obj 272 212 cnv 5 5 5 empty empty RIGHT 0 0 0 8 #fcfcfc #404040
0;
#X obj 452 64 r \$0-stereo-delay-rate-left-s;
#X obj 476 132 r \$0-stereo-delay-feedback-s;
#X obj 562 430 lop~;
#X obj 562 452 lop~;
#X obj 106 172 hsl 128 15 0 127 0 1 \$0-stereo-delay-lowpass-s \$0-stereo-delay-lowpass-r
LOWPASS 133 7 0 10 #fcfcfc #000000 #000000 7800 1;
#X obj 803 288 / 127;
#X obj 803 337 * 4950;
#X obj 803 359 + 50;
#X obj 803 381 pack 0 50;
#X obj 803 403 line;
#X obj 803 266 r \$0-stereo-delay-lowpass-s;
#X obj 438 417 lop~;
#X obj 438 439 lop~;
#X obj 803 452 t f f f f;
#X obj 273 108 cnv 5 5 5 empty empty LPASS 0 0 0 8 #fcfcfc #404040
0;
#X obj 463 105 inlet~;
#X text 460 88 RATE-LEFT CV INPUT;
#X text 657 277 FEEDBACK CV INPUT;
#X obj 600 243 r \$0-stereo-delay-feedback-s;
#X obj 588 216 inlet~;
#X obj 576 175 r \$0-stereo-delay-rate-right-s;
#N canvas 0 22 793 555 delay2 0;
#X obj 195 112 inlet~;
#X obj 365 109 inlet;
#X obj 365 131 / 127;
#X obj 365 197 sig~;
#X obj 365 461 outlet~;
#X obj 456 311 *~;
#X obj 472 113 inlet;
#X obj 472 137 / 127;
#X obj 472 208 pack 0 50;
#X obj 472 230 line~;
#X text 454 96 FEEDBACK;
#X text 365 89 DELAY;
#X text 193 90 SIGNAL IN;
#X obj 472 181 + 0.5;
#X obj 472 159 * 0.48;
#X obj 365 175 + 10;
#X obj 365 153 * 499;
#X obj 472 282 min~ 0.98;
#X obj 365 219 +~;
#X obj 410 158 inlet~;
#X obj 410 180 *~ 499;
#X obj 410 202 +~ 10;
#X text 415 139 CV IN;
#X obj 472 252 +~;
#X obj 546 235 inlet~;
#X obj 365 286 vd~ \$0-dly2;
#X obj 197 465 delwrite~ \$0-dly2 500;
#X obj 365 241 lop~ 1;
#X connect 0 0 26 0;
#X connect 1 0 2 0;
#X connect 2 0 16 0;
#X connect 3 0 18 0;
#X connect 5 0 26 0;
#X connect 6 0 7 0;
#X connect 7 0 14 0;
#X connect 8 0 9 0;
#X connect 9 0 23 0;
#X connect 13 0 8 0;
#X connect 14 0 13 0;
#X connect 15 0 3 0;
#X connect 16 0 15 0;
#X connect 17 0 5 1;
#X connect 18 0 27 0;
#X connect 19 0 20 0;
#X connect 20 0 21 0;
#X connect 21 0 18 1;
#X connect 23 0 17 0;
#X connect 24 0 23 1;
#X connect 25 0 4 0;
#X connect 25 0 5 0;
#X connect 27 0 25 0;
#X restore 562 310 pd delay2;
#X text 585 199 RATE-RIGHT CV INPUT;
#X obj 803 310 +;
#X obj 982 236 inlet~;
#X obj 982 271 snapshot~;
#X obj 982 293 t b f;
#X obj 1026 236 bang~;
#X text 978 218 LPASS CV INPUT;
#X obj 613 278 inlet~;
#N canvas 315 35 516 416 save-state 0;
#X obj 248 116 f;
#X obj 248 159 pack f f f f f;
#X obj 109 203 unpack f f f f f;
#X obj 263 13 r \$0-stereo-delay-rate-left-s;
#X obj 109 356 s \$0-stereo-delay-rate-left-r;
#X obj 271 36 r \$0-stereo-delay-rate-right-s;
#X obj 130 332 s \$0-stereo-delay-rate-right-r;
#X obj 285 57 r \$0-stereo-delay-feedback-s;
#X obj 151 308 s \$0-stereo-delay-feedback-r;
#X obj 303 82 r \$0-stereo-delay-lowpass-s;
#X obj 172 284 s \$0-stereo-delay-lowpass-r;
#X obj 323 107 r \$0-stereo-delay-dry/wet-s;
#X obj 200 258 s \$0-stereo-delay-dry/wet-r;
#X obj 137 67 savestate;
#X obj 72 47 loadbang;
#X obj 29 177 list store;
#X msg 59 125 1;
#X obj 72 68 t b b;
#X obj 59 104 t b a;
#X obj 6 151 spigot 0;
#X obj 109 151 spigot 1;
#X obj 137 88 t a b;
#X msg 164 125 0;
#X msg 109 177 64 64 64 64 64;
#X connect 0 0 1 0;
#X connect 1 0 13 0;
#X connect 2 0 4 0;
#X connect 2 1 6 0;
#X connect 2 2 8 0;
#X connect 2 3 10 0;
#X connect 2 4 12 0;
#X connect 3 0 0 1;
#X connect 5 0 1 1;
#X connect 7 0 1 2;
#X connect 9 0 1 3;
#X connect 11 0 1 4;
#X connect 13 0 21 0;
#X connect 13 1 0 0;
#X connect 14 0 17 0;
#X connect 15 0 2 0;
#X connect 16 0 19 1;
#X connect 17 0 19 0;
#X connect 17 1 20 0;
#X connect 18 0 16 0;
#X connect 18 1 15 1;
#X connect 19 0 15 0;
#X connect 20 0 23 0;
#X connect 21 0 18 0;
#X connect 21 1 22 0;
#X connect 22 0 20 1;
#X connect 23 0 2 0;
#X restore 839 133 pd save-state;
#N canvas 531 26 476 261 forwarding 0;
#X obj 13 46 route RATE-LEFT RATE-RIGHT FEEDBACK LOWPASS DRY/WET;
#X obj 14 213 s \$0-stereo-delay-rate-left-r;
#X obj 51 171 s \$0-stereo-delay-rate-right-r;
#X obj 125 146 s \$0-stereo-delay-feedback-r;
#X obj 192 114 s \$0-stereo-delay-lowpass-r;
#X obj 256 74 s \$0-stereo-delay-dry/wet-r;
#X obj 13 15 inlet;
#X connect 0 0 1 0;
#X connect 0 1 2 0;
#X connect 0 2 3 0;
#X connect 0 3 4 0;
#X connect 0 4 5 0;
#X connect 6 0 0 0;
#X restore 495 32 pd forwarding;
#X obj 438 6 inlet~ fwd;
#X connect 2 0 16 0;
#X connect 3 0 15 0;
#X connect 4 0 2 0;
#X connect 5 0 6 0;
#X connect 6 0 7 0;
#X connect 6 1 12 0;
#X connect 7 0 8 0;
#X connect 8 0 9 0;
#X connect 9 0 10 0;
#X connect 10 0 11 0;
#X connect 11 0 3 1;
#X connect 12 0 13 0;
#X connect 13 0 14 0;
#X connect 14 0 4 1;
#X connect 14 0 25 1;
#X connect 15 0 16 0;
#X connect 15 0 26 0;
#X connect 16 0 17 0;
#X connect 17 0 18 0;
#X connect 22 0 44 0;
#X connect 24 0 26 0;
#X connect 25 0 24 0;
#X connect 26 0 27 0;
#X connect 27 0 28 0;
#X connect 33 0 22 1;
#X connect 34 0 22 3;
#X connect 35 0 36 0;
#X connect 36 0 25 0;
#X connect 38 0 56 0;
#X connect 39 0 40 0;
#X connect 40 0 41 0;
#X connect 41 0 42 0;
#X connect 42 0 46 0;
#X connect 43 0 38 0;
#X connect 44 0 45 0;
#X connect 45 0 4 0;
#X connect 46 0 44 1;
#X connect 46 1 45 1;
#X connect 46 2 35 1;
#X connect 46 3 36 1;
#X connect 48 0 22 2;
#X connect 51 0 54 3;
#X connect 52 0 54 2;
#X connect 53 0 54 1;
#X connect 54 0 35 0;
#X connect 56 0 39 0;
#X connect 57 0 58 0;
#X connect 58 0 59 0;
#X connect 59 0 56 0;
#X connect 59 1 56 1;
#X connect 60 0 58 0;
#X connect 62 0 54 4;
#X connect 62 0 22 4;
#X connect 65 0 22 0;
#X connect 65 0 3 0;
#X connect 65 0 54 0;
#X connect 65 1 64 0;
#X coords 0 -1 1 1 200 120 2 100 100;
