#N canvas 369 49 911 729 10;
#X obj 105 158 hsl 128 15 0 127 0 0 \$0-rate-cv-att-s \$0-rate-cv-att-r
CV 133 7 0 10 #8480d4 #000000 #000000 0 1;
#X obj 105 173 hsl 128 15 0 127 0 0 \$0-frequency-s \$0-frequency-r
FREQ 133 7 0 10 #fcfcfc #000000 #000000 0 1;
#X obj 252 108 cnv 5 5 5 empty empty RATE 0 0 0 8 #fcfcfc #7474a4 0
;
#X obj 103 108 cnv 5 5 5 empty empty IN 0 0 0 8 #fcfcfc #404040 0;
#X obj 102 136 cnv 5 5 5 empty empty TREMOLO 0 0 0 12 #fcfcfc #404040
0;
#X obj 105 143 hsl 128 15 0 127 0 0 \$0-rate-s \$0-rate-r RATE 133
7 0 10 #fcfcfc #000000 #000000 0 1;
#X obj 105 188 hsl 128 15 0 127 0 0 \$0-depth-s \$0-depth-r DEPTH 133
7 0 10 #fcfcfc #000000 #000000 0 1;
#X obj 190 128 hradio 15 1 0 3 \$0-radio-gui-s \$0-radio-gui-r HARMONIC
0 -8 0 10 #fcfcfc #000000 #000000 0;
#X obj 21 238 r \$0-radio-gui-s;
#X obj 21 376 s \$0-radio-gui-r;
#X obj 21 259 sel 0 1 2;
#X msg 38 315 label TUBE;
#X msg 21 338 label HARMONIC;
#X msg 55 290 label PHOTOCELL;
#N canvas 0 23 937 729 HARMONIC-TREMOLO 0;
#X obj 347 145 inlet~;
#X obj 354 665 outlet~;
#X obj 351 384 lop~;
#X obj 518 380 hip~;
#X obj 353 504 *~;
#X obj 589 279 phasor~;
#X obj 590 302 +~;
#X obj 590 323 cos~;
#X obj 785 335 / 127;
#X obj 785 356 pack 0 10;
#X obj 785 377 line~;
#X obj 589 113 / 127;
#X obj 589 156 pack 0 10;
#X obj 589 177 line~;
#X obj 589 257 +~;
#X obj 521 538 *~;
#X obj 590 430 *~;
#X obj 737 416 +~ 0.5;
#X obj 737 438 wrap~;
#X obj 737 459 +~;
#X obj 737 480 cos~;
#X obj 770 577 *~;
#X obj 590 450 *~ 1;
#X obj 770 598 *~ 1;
#X obj 170 419 pack 0 10;
#X obj 170 440 line~;
#X obj 368 467 +~;
#X obj 547 507 +~;
#X obj 590 383 *~ 0.5;
#X obj 590 404 +~ 0.5;
#X obj 737 501 *~ 0.5;
#X obj 737 522 +~ 0.5;
#X obj 170 355 / 127;
#X msg 170 376 1 \$1;
#X obj 170 397 -;
#X obj 155 469 *~;
#X obj 589 134 * 12;
#X obj 372 313 t f f;
#X obj 785 309 r \$0-depth-s;
#X obj 170 334 r \$0-depth-s;
#X obj 589 92 r \$0-rate-s;
#X obj 668 93 inlet~;
#X obj 668 120 *~ 12;
#X obj 668 141 clip~ -12 12;
#X obj 700 162 r \$0-rate-cv-att-s;
#X obj 668 241 *~;
#X obj 700 183 / 127;
#X obj 700 204 pack 0 10;
#X obj 700 225 line~;
#X obj 427 56 mtof;
#X floatatom 427 77 5 0 0 0 - - - 0;
#X obj 362 418 lop~;
#X obj 518 428 hip~;
#X obj 285 434 s~ \$0-Q1;
#X obj 270 329 r~ \$0-Q1;
#X obj 512 298 r~ \$0-Q2;
#X obj 435 445 s~ \$0-Q2;
#X obj 457 250 snapshot~;
#X floatatom 455 276 5 0 0 0 - - - 0;
#X obj 427 97 pack 0 1;
#X obj 427 118 line~;
#X obj 427 139 lop~ 10;
#X obj 427 160 +~;
#X obj 511 138 bang~;
#X obj 270 350 *~ 0.5;
#X obj 512 319 *~ 0.5;
#X obj 427 32 r \$0-frequency-s;
#X connect 0 0 2 0;
#X connect 0 0 3 0;
#X connect 0 0 35 0;
#X connect 2 0 51 0;
#X connect 3 0 52 0;
#X connect 4 0 1 0;
#X connect 5 0 6 0;
#X connect 5 0 17 0;
#X connect 6 0 7 0;
#X connect 7 0 28 0;
#X connect 8 0 9 0;
#X connect 9 0 10 0;
#X connect 10 0 16 1;
#X connect 10 0 21 1;
#X connect 11 0 36 0;
#X connect 12 0 13 0;
#X connect 13 0 14 0;
#X connect 14 0 5 0;
#X connect 15 0 1 0;
#X connect 16 0 22 0;
#X connect 17 0 18 0;
#X connect 18 0 19 0;
#X connect 19 0 20 0;
#X connect 20 0 30 0;
#X connect 21 0 23 0;
#X connect 22 0 26 1;
#X connect 23 0 27 1;
#X connect 24 0 25 0;
#X connect 25 0 35 1;
#X connect 26 0 4 1;
#X connect 27 0 15 1;
#X connect 28 0 29 0;
#X connect 29 0 16 0;
#X connect 30 0 31 0;
#X connect 31 0 21 0;
#X connect 32 0 33 0;
#X connect 33 0 34 0;
#X connect 34 0 24 0;
#X connect 35 0 1 0;
#X connect 36 0 12 0;
#X connect 37 0 2 1;
#X connect 37 0 51 1;
#X connect 37 1 52 1;
#X connect 37 1 3 1;
#X connect 38 0 8 0;
#X connect 39 0 32 0;
#X connect 40 0 11 0;
#X connect 41 0 42 0;
#X connect 42 0 43 0;
#X connect 43 0 45 0;
#X connect 44 0 46 0;
#X connect 45 0 14 1;
#X connect 46 0 47 0;
#X connect 47 0 48 0;
#X connect 48 0 45 1;
#X connect 49 0 50 0;
#X connect 50 0 59 0;
#X connect 51 0 53 0;
#X connect 51 0 4 0;
#X connect 52 0 56 0;
#X connect 54 0 64 0;
#X connect 55 0 65 0;
#X connect 57 0 58 0;
#X connect 58 0 37 0;
#X connect 59 0 60 0;
#X connect 60 0 61 0;
#X connect 61 0 62 0;
#X connect 62 0 57 0;
#X connect 63 0 57 0;
#X connect 64 0 2 0;
#X connect 65 0 3 0;
#X connect 66 0 49 0;
#X restore 379 408 pd HARMONIC-TREMOLO;
#X obj 490 34 inlet~ CV-RATE-IN;
#X obj 379 385 *~;
#X obj 394 282 r \$0-radio-gui-s;
#X obj 394 303 == 0;
#X floatatom 394 324 5 0 0 0 - - - 0;
#X obj 394 344 pack 0 10;
#X obj 394 365 line~;
#X obj 350 197 s~ \$0-AUDIO-IN;
#X obj 490 55 s~ \$0-CV-RATE-IN;
#X obj 379 262 r~ \$0-AUDIO-IN;
#X obj 490 386 r~ \$0-CV-RATE-IN;
#X obj 645 651 outlet~;
#N canvas 124 22 1156 756 TUBE-TREMOLO 0;
#X obj 164 481 *~;
#X obj 638 441 *~;
#X obj 527 202 osc~;
#X obj 528 4 / 127;
#X obj 528 47 pack 0 10;
#X obj 528 68 line~;
#X obj 528 25 * 12;
#X obj 526 585 *~;
#X obj 651 618 *~;
#X obj 655 245 / 127;
#X obj 655 266 t f f;
#X obj 655 287 pack 0 10;
#X obj 655 308 line~;
#X msg 717 351 1 \$1;
#X obj 717 372 -;
#X obj 717 393 pack 0 10;
#X obj 717 414 line~;
#X obj 537 682 clip~ -1 1;
#X obj 527 266 *~;
#X obj 598 208 / 127;
#X obj 598 229 pack 0 10;
#X obj 598 250 line~;
#X obj 365 -5 inlet~;
#X obj 528 -21 r \$0-rate-s;
#X obj 598 187 r \$0-depth-s;
#X obj 225 375 clip~ -1 0;
#X obj 633 379 clip~ 0 1;
#X obj 537 703 outlet~;
#X obj 655 222 r \$0-frequency-s;
#X obj 619 -18 inlet~;
#X obj 619 9 *~ 12;
#X obj 619 30 clip~ -12 12;
#X obj 651 51 r \$0-rate-cv-att-s;
#X obj 612 150 *~;
#X obj 651 72 / 127;
#X obj 651 93 pack 0 10;
#X obj 645 124 line~;
#X obj 528 152 +~;
#X connect 0 0 8 0;
#X connect 1 0 8 0;
#X connect 2 0 18 0;
#X connect 3 0 6 0;
#X connect 4 0 5 0;
#X connect 5 0 37 0;
#X connect 6 0 4 0;
#X connect 7 0 17 0;
#X connect 8 0 17 0;
#X connect 9 0 10 0;
#X connect 10 0 11 0;
#X connect 10 1 13 0;
#X connect 11 0 12 0;
#X connect 12 0 8 1;
#X connect 13 0 14 0;
#X connect 14 0 15 0;
#X connect 15 0 16 0;
#X connect 16 0 7 1;
#X connect 17 0 27 0;
#X connect 18 0 0 1;
#X connect 18 0 1 1;
#X connect 19 0 20 0;
#X connect 20 0 21 0;
#X connect 21 0 18 1;
#X connect 22 0 7 0;
#X connect 22 0 25 0;
#X connect 22 0 26 0;
#X connect 23 0 3 0;
#X connect 24 0 19 0;
#X connect 25 0 0 0;
#X connect 26 0 1 0;
#X connect 28 0 9 0;
#X connect 29 0 30 0;
#X connect 30 0 31 0;
#X connect 31 0 33 0;
#X connect 32 0 34 0;
#X connect 33 0 37 1;
#X connect 34 0 35 0;
#X connect 35 0 36 0;
#X connect 36 0 33 1;
#X connect 37 0 2 0;
#X restore 644 277 pd TUBE-TREMOLO;
#X obj 644 228 *~;
#X obj 659 125 r \$0-radio-gui-s;
#X floatatom 659 167 5 0 0 0 - - - 0;
#X obj 659 187 pack 0 10;
#X obj 659 208 line~;
#X obj 644 105 r~ \$0-AUDIO-IN;
#X obj 731 233 r~ \$0-CV-RATE-IN;
#X obj 659 146 == 1;
#X obj 986 416 r \$0-radio-gui-s;
#X obj 986 439 sel 0 1 2;
#X obj 987 658 s \$0-rate-r;
#X msg 987 637 label RATE;
#X msg 1004 596 label FREQ;
#X obj 1004 617 s \$0-frequency-r;
#X obj 1021 575 s \$0-depth-r;
#X msg 1021 554 label DEPTH;
#X obj 1116 656 s \$0-rate-r;
#X msg 1116 635 label RATE;
#X obj 1133 615 s \$0-frequency-r;
#X obj 1150 573 s \$0-depth-r;
#X msg 1150 552 label DEPTH;
#X msg 1133 594 label TIMING;
#X obj 1229 657 s \$0-rate-r;
#X msg 1229 636 label RATE;
#X obj 1246 616 s \$0-frequency-r;
#X obj 1263 574 s \$0-depth-r;
#X msg 1263 553 label DEPTH;
#X msg 1246 595 label SLOPE;
#N canvas 0 23 1027 681 PHOTOCELL-TREMOLO 0;
#X obj 336 28 inlet~;
#X obj 442 639 outlet~;
#X obj 469 53 / 127;
#X obj 469 96 pack 0 10;
#X obj 469 117 line~;
#X obj 469 74 * 12;
#X obj 525 487 *~;
#X obj 642 430 / 127;
#X obj 642 451 pack 0 10;
#X obj 642 472 line~;
#X obj 469 28 r \$0-rate-s;
#X obj 642 409 r \$0-depth-s;
#X obj 560 31 inlet~;
#X obj 560 58 *~ 12;
#X obj 560 79 clip~ -12 12;
#X obj 592 100 r \$0-rate-cv-att-s;
#X obj 553 199 *~;
#X obj 592 121 / 127;
#X obj 592 142 pack 0 10;
#X obj 586 173 line~;
#X obj 469 144 +~;
#X obj 511 521 *~;
#X obj 606 236 hsl 128 15 0 127 0 0 empty empty empty -2 -8 0 10 #fcfcfc
#000000 #000000 0 1;
#X obj 603 212 r \$0-frequency-s;
#X obj 145 308 pack 0 10;
#X obj 145 329 line~;
#X obj 145 244 / 127;
#X msg 145 265 1 \$1;
#X obj 145 286 -;
#X obj 130 358 *~;
#X obj 145 223 r \$0-depth-s;
#X obj 511 562 *~;
#X obj 750 480 pack 0 10;
#X obj 750 501 line~;
#X obj 750 459 / 127;
#X obj 750 438 r \$0-depth-s;
#X obj 468 190 phasor~;
#X obj 510 402 lop~ 100;
#X obj 468 272 expr~ $v1 < $v2;
#X obj 603 256 / 127;
#X obj 603 277 * 0.8;
#X obj 603 298 + 0.1;
#X obj 603 319 pack 0 10;
#X obj 603 340 line~;
#X connect 0 0 21 0;
#X connect 0 0 29 0;
#X connect 2 0 5 0;
#X connect 3 0 4 0;
#X connect 4 0 20 0;
#X connect 5 0 3 0;
#X connect 6 0 21 1;
#X connect 7 0 8 0;
#X connect 8 0 9 0;
#X connect 9 0 6 1;
#X connect 10 0 2 0;
#X connect 11 0 7 0;
#X connect 12 0 13 0;
#X connect 13 0 14 0;
#X connect 14 0 16 0;
#X connect 15 0 17 0;
#X connect 16 0 20 1;
#X connect 17 0 18 0;
#X connect 18 0 19 0;
#X connect 19 0 16 1;
#X connect 20 0 36 0;
#X connect 21 0 31 0;
#X connect 22 0 39 0;
#X connect 23 0 22 0;
#X connect 24 0 25 0;
#X connect 25 0 29 1;
#X connect 26 0 27 0;
#X connect 27 0 28 0;
#X connect 28 0 24 0;
#X connect 29 0 1 0;
#X connect 30 0 26 0;
#X connect 31 0 1 0;
#X connect 32 0 33 0;
#X connect 33 0 31 1;
#X connect 34 0 32 0;
#X connect 35 0 34 0;
#X connect 36 0 38 0;
#X connect 37 0 6 0;
#X connect 38 0 37 0;
#X connect 39 0 40 0;
#X connect 40 0 41 0;
#X connect 41 0 42 0;
#X connect 42 0 43 0;
#X connect 43 0 38 1;
#X restore 848 281 pd PHOTOCELL-TREMOLO;
#X obj 848 258 *~;
#X obj 863 155 r \$0-radio-gui-s;
#X floatatom 863 197 5 0 0 0 - - - 0;
#X obj 863 217 pack 0 10;
#X obj 863 238 line~;
#X obj 848 132 r~ \$0-AUDIO-IN;
#X obj 965 254 r~ \$0-CV-RATE-IN;
#X obj 863 176 == 2;
#N canvas 265 23 391 226 forwarding 0;
#X obj 31 185 s \$0-rate-r;
#X obj 68 143 s \$0-rate-cv-att-r;
#X obj 101 117 s \$0-depth-r;
#X obj 251 97 s \$0-radio-gui-r;
#X obj 217 125 s \$0-frequency-r;
#X obj 30 59 route RATE CV DEPTH FREQ TIMING SLOPE RADIO;
#X obj 30 27 inlet;
#X connect 5 0 0 0;
#X connect 5 1 1 0;
#X connect 5 2 2 0;
#X connect 5 3 4 0;
#X connect 5 4 4 0;
#X connect 5 5 4 0;
#X connect 5 6 3 0;
#X connect 6 0 5 0;
#X restore 397 72 pd forwarding;
#N canvas 670 22 471 361 save-state 0;
#X obj 235 59 f;
#X obj 250 12 r \$0-rate-s;
#X obj 115 317 s \$0-rate-r;
#X obj 263 41 r \$0-rate-cv-att-s;
#X obj 142 294 s \$0-rate-cv-att-r;
#X obj 292 69 r \$0-depth-s;
#X obj 169 272 s \$0-depth-r;
#X obj 308 96 r \$0-frequency-s;
#X obj 189 243 s \$0-frequency-r;
#X obj 143 52 savestate;
#X obj 78 32 loadbang;
#X obj 35 162 list store;
#X msg 65 110 1;
#X obj 78 53 t b b;
#X obj 65 89 t b a;
#X obj 12 136 spigot 0;
#X obj 115 136 spigot 1;
#X obj 143 73 t a b;
#X msg 170 110 0;
#X obj 235 152 pack f f f f f;
#X obj 115 187 unpack f f f f f;
#X obj 331 124 r \$0-radio-gui-s;
#X obj 218 214 s \$0-radio-gui-r;
#X msg 115 162 64 0 64 64 0;
#X connect 0 0 19 0;
#X connect 1 0 0 1;
#X connect 3 0 19 1;
#X connect 5 0 19 2;
#X connect 7 0 19 3;
#X connect 9 0 17 0;
#X connect 9 1 0 0;
#X connect 10 0 13 0;
#X connect 11 0 20 0;
#X connect 12 0 15 1;
#X connect 13 0 15 0;
#X connect 13 1 16 0;
#X connect 14 0 12 0;
#X connect 14 1 11 1;
#X connect 15 0 11 0;
#X connect 16 0 23 0;
#X connect 17 0 14 0;
#X connect 17 1 18 0;
#X connect 18 0 16 1;
#X connect 19 0 9 0;
#X connect 20 0 2 0;
#X connect 20 1 4 0;
#X connect 20 2 6 0;
#X connect 20 3 8 0;
#X connect 20 4 22 0;
#X connect 21 0 19 4;
#X connect 23 0 20 0;
#X restore 13 616 pd save-state;
#X obj 350 36 inlet~ fwd;
#X connect 8 0 10 0;
#X connect 10 0 12 0;
#X connect 10 1 11 0;
#X connect 10 2 13 0;
#X connect 11 0 9 0;
#X connect 12 0 9 0;
#X connect 13 0 9 0;
#X connect 14 0 26 0;
#X connect 15 0 23 0;
#X connect 16 0 14 0;
#X connect 17 0 18 0;
#X connect 18 0 19 0;
#X connect 19 0 20 0;
#X connect 20 0 21 0;
#X connect 21 0 16 1;
#X connect 24 0 16 0;
#X connect 25 0 14 1;
#X connect 27 0 26 0;
#X connect 28 0 27 0;
#X connect 29 0 35 0;
#X connect 30 0 31 0;
#X connect 31 0 32 0;
#X connect 32 0 28 1;
#X connect 33 0 28 0;
#X connect 34 0 27 1;
#X connect 35 0 30 0;
#X connect 36 0 37 0;
#X connect 37 0 39 0;
#X connect 37 0 40 0;
#X connect 37 0 43 0;
#X connect 37 1 45 0;
#X connect 37 1 49 0;
#X connect 37 1 48 0;
#X connect 37 2 51 0;
#X connect 37 2 55 0;
#X connect 37 2 54 0;
#X connect 39 0 38 0;
#X connect 40 0 41 0;
#X connect 43 0 42 0;
#X connect 45 0 44 0;
#X connect 48 0 47 0;
#X connect 49 0 46 0;
#X connect 51 0 50 0;
#X connect 54 0 53 0;
#X connect 55 0 52 0;
#X connect 56 0 26 0;
#X connect 57 0 56 0;
#X connect 58 0 64 0;
#X connect 59 0 60 0;
#X connect 60 0 61 0;
#X connect 61 0 57 1;
#X connect 62 0 57 0;
#X connect 63 0 56 1;
#X connect 64 0 59 0;
#X connect 67 0 22 0;
#X connect 67 1 65 0;
#X coords 0 -1 1 1 175 115 2 100 100;
