#N canvas 0 23 1280 752 10;
#X obj 106 308 mtof~;
#X obj 106 286 +~;
#X obj 185 269 *~ 127;
#X obj 106 202 t f f;
#X obj 106 244 sig~;
#X obj 106 266 lop~ 5;
#X obj 883 126 inlet~;
#X obj 883 287 *~;
#X obj 898 240 pack 0 50;
#X obj 898 262 line~;
#X text 880 107 FM IN;
#X obj 898 218 / 127;
#X obj 883 309 *~ 2000;
#X obj 106 330 +~;
#X obj 109 131 hsl 128 15 0 127 0 1 \$0-trisaw-pitch-s \$0-trisaw-pitch-r
PITCH 135 7 0 10 #fcfcfc #000000 #000000 6400 1;
#X floatatom 207 117 5 0 0 0 - - - 0;
#X obj 106 506 *~;
#X obj 280 417 *~;
#X obj 295 303 / 127;
#X obj 295 325 t f f;
#X obj 295 347 pack 0 50;
#X obj 295 369 line~;
#X obj 295 391 +~;
#X msg 322 398 1 \$1;
#X obj 322 420 -;
#X obj 322 442 pack 0 50;
#X obj 322 464 line~;
#X obj 324 489 +~;
#X obj 473 472 *~ -1;
#X obj 473 374 *~ 1;
#X obj 473 233 abs~;
#X obj 473 205 inlet~ XAFDE;
#X obj 106 689 wrap~;
#X obj 356 560 t f f;
#X obj 356 583 pack 0 50;
#X obj 356 605 line~;
#X msg 440 577 1 \$1;
#X obj 440 599 -;
#X obj 440 621 pack 0 50;
#X obj 440 643 line~;
#X obj 440 665 +~;
#X obj 106 666 *~;
#X obj 356 538 / 127;
#X obj 640 626 *~;
#X obj 106 733 *~;
#X obj 356 627 +~;
#X obj 356 649 +~ 1;
#X obj 640 650 *~ 1;
#X obj 641 566 abs~;
#X obj 641 588 *~ -1;
#X obj 106 711 -~ 0.5;
#X obj 640 703 clip~ -1 1;
#X obj 208 109 cnv 5 5 5 empty empty HARM. 0 0 0 8 #fcfcfc #404040
0;
#X obj 262 109 cnv 5 5 5 empty empty FM 0 0 0 8 #fcfcfc #7474a4 0;
#X obj 105 123 cnv 5 5 5 empty empty TRIGONS 0 0 0 12 #fcfcfc #404040
0;
#X obj 109 146 hsl 128 15 0 127 0 1 \$0-trisaw-xfade-s \$0-trisaw-xfade-r
WAVE 135 7 0 10 #fcfcfc #000000 #000000 6400 1;
#X obj 295 282 r \$0-trisaw-xfade-s;
#X obj 109 161 hsl 128 15 0 127 0 1 \$0-trisaw-harmonics-s \$0-trisaw-harmonics-r
HARM. 135 7 0 10 #fcfcfc #000000 #000000 6400 1;
#X obj 356 513 r \$0-trisaw-harmonics-s;
#X obj 640 725 outlet~;
#X obj 641 542 inlet~ HARMONICS;
#X obj 105 109 cnv 5 5 5 empty empty PITCH 0 0 0 8 #fcfcfc #404040
0;
#X obj 155 109 cnv 5 5 5 empty empty WAVE 0 0 0 8 #fcfcfc #404040 0
;
#X obj 109 175 hsl 128 15 0 127 0 1 \$0-trisaw-fm-att-s \$0-trisaw-fm-att-r
FM 133 7 0 10 #9898dc #000000 #000000 0 1;
#X obj 898 181 r \$0-trisaw-fm-att-s;
#X obj 744 503 loadbang;
#X obj 744 525 f \$0;
#X obj 744 556 t f f;
#X text 745 485 SAW WAVE;
#X msg 743 660 \; \$1-saw normalize 1;
#X obj 741 699 table \$0-saw;
#X obj 280 259 tabosc4~ \$0-saw;
#X obj 809 369 loadbang;
#X text 781 349 TRIANGLE WAVE;
#X msg 809 505 \; \$1-triangle normalize 1;
#X obj 809 391 f \$0;
#X obj 809 422 t f f;
#X obj 807 545 table \$0-triangle;
#X obj 106 352 tabosc4~ \$0-triangle;
#X obj 106 224 clip 0 90;
#X msg 836 449 \; \$1-triangle sinesum 512 1 0 -0.111111 0 0.04 0 -0.0204082
0 0.0123457 0 -0.00826446;
#X msg 771 583 \; \$1-saw sinesum 512 1 0.5 0.33 0.25 0.2 0.16 0.14
0.125 0.111111 0.1 0.090909 0.083333 0.076923 0.0714285 0.066666 0.0625
0.058823 0.055555 0.052631 0.05 0.047619 0.045454 0.043478 0.041666
;
#X obj 544 413 r \$0-trisaw-harmonics-s;
#X obj 544 435 / 127;
#X obj 544 457 + 1;
#X obj 544 479 pack 0 50;
#X obj 544 501 line~;
#X obj 544 523 +~;
#X obj 544 545 clip~ 0 2;
#X obj 640 672 *~;
#N canvas 531 26 278 214 forwarding 0;
#X obj 14 48 route PITCH WAVE HARM. FM;
#X obj 17 152 s \$0-trisaw-pitch-r;
#X obj 52 122 s \$0-trisaw-xfade-r;
#X obj 92 99 s \$0-trisaw-harmonics-r;
#X obj 124 76 s \$0-trisaw-fm-att-r;
#X obj 14 16 inlet;
#X connect 0 0 1 0;
#X connect 0 1 2 0;
#X connect 0 2 3 0;
#X connect 0 3 4 0;
#X connect 5 0 0 0;
#X restore 240 231 pd forwarding;
#X obj 185 207 inlet~ fwd;
#N canvas 267 22 423 357 save-sate 0;
#X obj 115 185 unpack f f f f;
#X obj 211 125 pack f f f f;
#X obj 211 82 f;
#X obj 226 34 r \$0-trisaw-pitch-s;
#X obj 115 299 s \$0-trisaw-pitch-r;
#X obj 234 57 r \$0-trisaw-xfade-s;
#X obj 142 276 s \$0-trisaw-xfade-r;
#X obj 257 78 r \$0-trisaw-harmonics-s;
#X obj 169 250 s \$0-trisaw-harmonics-r;
#X obj 280 99 r \$0-trisaw-fm-att-s;
#X obj 196 220 s \$0-trisaw-fm-att-r;
#X obj 143 52 savestate;
#X obj 78 32 loadbang;
#X obj 35 162 list store;
#X msg 65 110 1;
#X obj 78 53 t b b;
#X obj 65 89 t b a;
#X obj 12 136 spigot 0;
#X obj 115 136 spigot 1;
#X obj 143 73 t a b;
#X msg 170 110 0;
#X msg 115 162 64 64 64 0;
#X connect 0 0 4 0;
#X connect 0 1 6 0;
#X connect 0 2 8 0;
#X connect 0 3 10 0;
#X connect 1 0 11 0;
#X connect 2 0 1 0;
#X connect 3 0 2 1;
#X connect 5 0 1 1;
#X connect 7 0 1 2;
#X connect 9 0 1 3;
#X connect 11 0 19 0;
#X connect 11 1 2 0;
#X connect 12 0 15 0;
#X connect 13 0 0 0;
#X connect 14 0 17 1;
#X connect 15 0 17 0;
#X connect 15 1 18 0;
#X connect 16 0 14 0;
#X connect 16 1 13 1;
#X connect 17 0 13 0;
#X connect 18 0 21 0;
#X connect 19 0 16 0;
#X connect 19 1 20 0;
#X connect 20 0 18 1;
#X connect 21 0 0 0;
#X restore 317 76 pd save-sate;
#X connect 0 0 13 0;
#X connect 1 0 0 0;
#X connect 2 0 1 1;
#X connect 3 0 79 0;
#X connect 3 1 15 0;
#X connect 4 0 5 0;
#X connect 5 0 1 0;
#X connect 6 0 7 0;
#X connect 7 0 12 0;
#X connect 8 0 9 0;
#X connect 9 0 7 1;
#X connect 11 0 8 0;
#X connect 12 0 13 1;
#X connect 13 0 71 0;
#X connect 13 0 78 0;
#X connect 14 0 3 0;
#X connect 16 0 41 0;
#X connect 16 0 43 0;
#X connect 17 0 41 0;
#X connect 17 0 43 0;
#X connect 18 0 19 0;
#X connect 19 0 20 0;
#X connect 19 1 23 0;
#X connect 20 0 21 0;
#X connect 21 0 22 0;
#X connect 22 0 17 1;
#X connect 23 0 24 0;
#X connect 24 0 25 0;
#X connect 25 0 26 0;
#X connect 26 0 27 0;
#X connect 27 0 16 1;
#X connect 28 0 27 1;
#X connect 29 0 22 1;
#X connect 29 0 28 0;
#X connect 30 0 29 0;
#X connect 31 0 30 0;
#X connect 32 0 50 0;
#X connect 33 0 34 0;
#X connect 33 1 36 0;
#X connect 34 0 35 0;
#X connect 35 0 45 0;
#X connect 36 0 37 0;
#X connect 37 0 38 0;
#X connect 38 0 39 0;
#X connect 39 0 40 0;
#X connect 40 0 43 1;
#X connect 41 0 32 0;
#X connect 42 0 33 0;
#X connect 43 0 47 0;
#X connect 44 0 47 0;
#X connect 45 0 46 0;
#X connect 45 0 44 1;
#X connect 46 0 41 1;
#X connect 47 0 89 0;
#X connect 48 0 49 0;
#X connect 48 0 45 1;
#X connect 49 0 40 1;
#X connect 50 0 44 0;
#X connect 51 0 59 0;
#X connect 56 0 18 0;
#X connect 58 0 42 0;
#X connect 60 0 48 0;
#X connect 60 0 87 1;
#X connect 64 0 11 0;
#X connect 65 0 66 0;
#X connect 66 0 67 0;
#X connect 67 0 69 0;
#X connect 67 1 81 0;
#X connect 71 0 17 0;
#X connect 72 0 75 0;
#X connect 75 0 76 0;
#X connect 76 0 74 0;
#X connect 76 1 80 0;
#X connect 78 0 16 0;
#X connect 79 0 4 0;
#X connect 82 0 83 0;
#X connect 83 0 84 0;
#X connect 84 0 85 0;
#X connect 85 0 86 0;
#X connect 86 0 87 0;
#X connect 87 0 88 0;
#X connect 88 0 89 1;
#X connect 89 0 51 0;
#X connect 91 0 2 0;
#X connect 91 1 90 0;
#X coords 0 -1 1 1 175 100 2 100 100;
