#N canvas 0 23 807 607 10;
#X msg 388 203 bang;
#X obj 388 225 t b b;
#X msg 387 409 1 0 \, 0 1 1;
#X obj 387 438 vline~;
#X obj 415 270 t b b;
#X obj 442 313 t b b;
#X obj 415 248 delay 10;
#X obj 442 291 delay 10;
#X obj 469 344 delay 10;
#X obj 387 460 outlet~;
#X obj 388 120 threshold~ 0.9 0 0.9 0;
#X obj 107 134 hsl 128 15 0 127 0 1 \$0-trigger-train-delay-s \$0-trigger-train-delay-r
DELAY 135 7 0 10 #fcfcfc #000000 #000000 6400 1;
#X obj 573 62 r \$0-trigger-train-delay-s;
#X obj 573 84 * 0.00787402;
#X obj 573 106 * 190;
#X obj 573 128 + 10;
#X obj 573 208 i;
#X obj 573 231 t f f f f;
#X floatatom 104 149 5 0 0 0 - - - 0;
#X obj 105 116 bng 15 50 50 0 empty empty empty 17 7 0 10 #fcfcfc #dc4c90
#000000;
#X obj 388 142 t b b;
#X obj 125 124 cnv 5 5 5 empty empty TRIGGER-TRAIN 0 0 0 12 #fcfcfc
#404040 0;
#X obj 105 167 bng 15 50 50 0 empty empty empty 17 7 0 10 #fcfcfc #dc4c90
#000000;
#X obj 573 150 +;
#X obj 725 91 inlet~;
#X obj 726 113 snapshot~;
#X obj 726 135 * 190;
#X obj 726 157 + 10;
#X obj 726 201 t b f;
#X obj 650 105 loadbang;
#X obj 650 145 metro 20;
#X obj 573 172 clip 10 200;
#X obj 650 127 tgl 15 0 empty empty empty 17 7 0 10 #fcfcfc #000000
#000000 0 1;
#X obj 262 109 cnv 5 5 5 empty empty CV 0 0 0 8 #fcfcfc #000000 0;
#X obj 105 109 cnv 5 5 5 empty empty IN 0 0 0 8 #fcfcfc #000000 0;
#N canvas 21 22 422 293 save-state 0;
#X obj 218 98 f;
#X obj 111 197 unpack f;
#X obj 233 49 r \$0-trigger-train-delay-s;
#X obj 111 229 s \$0-trigger-train-delay-r;
#X obj 143 52 savestate;
#X obj 78 32 loadbang;
#X obj 35 162 list store;
#X msg 65 110 1;
#X obj 78 53 t b b;
#X obj 65 89 t b a;
#X obj 12 136 spigot 0;
#X obj 115 136 spigot 1;
#X obj 143 73 t a b;
#X msg 170 110 0;
#X msg 115 162 64;
#X connect 0 0 4 0;
#X connect 1 0 3 0;
#X connect 2 0 0 1;
#X connect 4 0 12 0;
#X connect 4 1 0 0;
#X connect 5 0 8 0;
#X connect 6 0 1 0;
#X connect 7 0 10 1;
#X connect 8 0 10 0;
#X connect 8 1 11 0;
#X connect 9 0 7 0;
#X connect 9 1 6 1;
#X connect 10 0 6 0;
#X connect 11 0 14 0;
#X connect 12 0 9 0;
#X connect 12 1 13 0;
#X connect 13 0 11 1;
#X connect 14 0 1 0;
#X restore 62 314 pd save-state;
#N canvas 531 26 218 132 forwarding 0;
#X obj 12 46 route DELAY;
#X obj 12 72 s \$0-trigger-train-delay-r;
#X obj 12 14 inlet;
#X connect 0 0 1 0;
#X connect 2 0 0 0;
#X restore 444 86 pd forwarding;
#X obj 388 58 inlet~ fwd;
#X connect 0 0 1 0;
#X connect 0 0 22 0;
#X connect 1 0 2 0;
#X connect 1 1 6 0;
#X connect 2 0 3 0;
#X connect 3 0 9 0;
#X connect 4 0 2 0;
#X connect 4 0 22 0;
#X connect 4 1 7 0;
#X connect 5 0 2 0;
#X connect 5 0 22 0;
#X connect 5 1 8 0;
#X connect 6 0 4 0;
#X connect 7 0 5 0;
#X connect 8 0 2 0;
#X connect 8 0 22 0;
#X connect 10 0 20 0;
#X connect 12 0 13 0;
#X connect 13 0 14 0;
#X connect 14 0 15 0;
#X connect 15 0 23 0;
#X connect 16 0 17 0;
#X connect 17 0 6 1;
#X connect 17 1 7 1;
#X connect 17 2 8 1;
#X connect 17 3 18 0;
#X connect 20 0 0 0;
#X connect 20 1 19 0;
#X connect 23 0 31 0;
#X connect 24 0 25 0;
#X connect 25 0 26 0;
#X connect 26 0 27 0;
#X connect 27 0 28 0;
#X connect 28 0 23 0;
#X connect 28 1 23 1;
#X connect 29 0 32 0;
#X connect 30 0 25 0;
#X connect 31 0 16 0;
#X connect 32 0 30 0;
#X connect 37 0 10 0;
#X connect 37 1 36 0;
#X coords 0 -1 1 1 175 85 2 100 100;
