#N canvas 0 23 743 490 10;
#X obj 128 144 hsl 128 15 0 127 0 1 \$0-trigger-delay-delay-s \$0-trigger-delay-delay-r
DELAY 133 7 0 10 #fcfcfc #000000 #000000 587 1;
#X obj 103 168 cnv 5 5 5 empty empty OUT 0 0 0 8 #fcfcfc #dc4c90 0
;
#X obj 105 109 cnv 5 5 5 empty empty IN 0 0 0 8 #fcfcfc #dc4c90 0;
#X obj 122 124 cnv 5 5 5 empty empty TRIGGER-DELAY 0 0 0 12 #fcfcfc
#404040 0;
#X obj 103 144 bng 15 50 50 0 empty empty empty 17 7 0 10 #fcfcfc #dc4c90
#000000;
#X obj 103 118 bng 15 50 50 0 empty empty empty 17 7 0 10 #fcfcfc #dc4c90
#000000;
#X floatatom 225 130 5 0 0 0 - - - 0;
#X obj 407 197 t b b;
#X obj 407 219 delay;
#X obj 407 241 t b b;
#X obj 127 185 / 127;
#X obj 127 207 * 1950;
#X obj 127 251 t f f;
#X obj 407 285 vline~;
#X obj 407 307 outlet~;
#X obj 217 124 cnv 5 5 5 empty \$0-instance-num 0 0 0 0 12 #fcfcfc
#404040 0;
#X obj 127 229 + 10;
#X msg 407 263 1 1 \, 0 1 1;
#X obj 407 175 threshold~ 0.9 0 0.9 0;
#N canvas 21 22 434 338 save-state 0;
#X obj 215 98 f;
#X obj 230 69 r \$0-trigger-delay-delay-s;
#X obj 85 242 s \$0-trigger-delay-delay-r;
#X obj 143 52 savestate;
#X obj 78 32 loadbang;
#X obj 35 162 list store;
#X msg 65 110 1;
#X obj 78 53 t b b;
#X obj 65 89 t b a;
#X obj 12 136 spigot 0;
#X obj 115 136 spigot 1;
#X obj 143 73 t a b;
#X msg 170 110 0;
#X msg 115 162 64;
#X obj 85 213 unpack f;
#X connect 0 0 3 0;
#X connect 1 0 0 1;
#X connect 3 0 11 0;
#X connect 3 1 0 0;
#X connect 4 0 7 0;
#X connect 5 0 14 0;
#X connect 6 0 9 1;
#X connect 7 0 9 0;
#X connect 7 1 10 0;
#X connect 8 0 6 0;
#X connect 8 1 5 1;
#X connect 9 0 5 0;
#X connect 10 0 13 0;
#X connect 11 0 8 0;
#X connect 11 1 12 0;
#X connect 12 0 10 1;
#X connect 13 0 14 0;
#X connect 14 0 2 0;
#X restore 34 391 pd save-state;
#N canvas 531 26 220 137 forwarding 0;
#X obj 18 48 route DELAY;
#X obj 18 74 s \$0-trigger-delay-delay-r;
#X obj 18 16 inlet;
#X connect 0 0 1 0;
#X connect 2 0 0 0;
#X restore 464 149 pd forwarding;
#X obj 407 123 inlet~ fwd;
#X connect 0 0 10 0;
#X connect 7 0 8 0;
#X connect 7 1 5 0;
#X connect 8 0 9 0;
#X connect 9 0 17 0;
#X connect 9 1 4 0;
#X connect 10 0 11 0;
#X connect 11 0 16 0;
#X connect 12 0 8 1;
#X connect 12 1 6 0;
#X connect 13 0 14 0;
#X connect 16 0 12 0;
#X connect 17 0 13 0;
#X connect 18 0 7 0;
#X connect 21 0 18 0;
#X connect 21 1 20 0;
#X coords 0 -1 1 1 200 75 2 100 100;
