#N canvas 0 23 824 549 10;
#X obj 321 122 f;
#X obj 349 122 + 1;
#X obj 321 145 %;
#X obj 321 207 sel 0;
#X msg 321 257 1 0 \, 0 1 1;
#X obj 321 279 vline~;
#X obj 321 301 outlet~;
#X obj 132 132 hsl 128 15 0 127 0 1 \$0-vc-counter-count-s \$0-vc-counter-count-r
COUNT 133 7 0 10 #fcfcfc #000000 #000000 12700 1;
#X obj 129 360 i;
#X obj 129 435 t f f;
#X floatatom 230 118 5 0 0 0 - - - 0;
#X obj 129 313 * 63;
#X obj 129 335 + 1;
#X obj 106 116 bng 15 50 50 0 empty empty empty 17 7 0 10 #fcfcfc #dc4c90
#000000;
#X floatatom 129 147 5 0 0 0 - - - 0;
#X obj 321 167 t f f;
#X obj 321 229 t b b;
#X obj 105 156 bng 15 50 50 0 empty empty empty 17 7 0 10 #fcfcfc #dc4c90
#000000;
#X obj 363 184 + 1;
#X obj 127 126 cnv 5 5 5 empty empty VC-COUNTER 0 0 0 12 #fcfcfc #404040
0;
#X obj 287 109 cnv 5 5 5 empty empty CV 0 0 0 8 #fcfcfc #000000 0;
#X obj 105 109 cnv 5 5 5 empty empty IN 0 0 0 8 #fcfcfc #dc4c90 0;
#X obj 129 231 +;
#X obj 485 82 inlet~;
#X obj 485 104 snapshot~;
#X obj 485 126 t b f;
#X obj 129 383 min 64;
#X obj 129 405 max 0;
#X obj 321 87 t b b b;
#X obj 203 126 cnv 5 5 5 empty \$0-instance-num 0 0 0 0 12 #fcfcfc
#404040 0;
#X obj 549 99 env~;
#X obj 549 121 change;
#X obj 549 143 t b;
#X obj 129 209 * 0.00787402;
#X obj 321 65 threshold~ 0.9 0 0.9 0;
#X obj 321 13 inlet~ fwd;
#N canvas 21 22 403 255 save-state 0;
#X obj 225 106 f;
#X obj 115 190 unpack f;
#X obj 240 58 r \$0-vc-counter-count-s;
#X obj 115 212 s \$0-vc-counter-count-r;
#X obj 143 52 savestate;
#X obj 78 32 loadbang;
#X obj 35 162 list store;
#X msg 65 110 1;
#X obj 78 53 t b b;
#X obj 65 89 t b a;
#X obj 12 136 spigot 0;
#X obj 115 136 spigot 1;
#X obj 143 73 t a b;
#X msg 170 110 0;
#X msg 115 162 64;
#X connect 0 0 4 0;
#X connect 1 0 3 0;
#X connect 2 0 0 1;
#X connect 4 0 12 0;
#X connect 4 1 0 0;
#X connect 5 0 8 0;
#X connect 6 0 1 0;
#X connect 7 0 10 1;
#X connect 8 0 10 0;
#X connect 8 1 11 0;
#X connect 9 0 7 0;
#X connect 9 1 6 1;
#X connect 10 0 6 0;
#X connect 11 0 14 0;
#X connect 12 0 9 0;
#X connect 12 1 13 0;
#X connect 13 0 11 1;
#X connect 14 0 1 0;
#X restore 462 381 pd save-state;
#N canvas 531 26 197 120 forwarding 0;
#X obj 13 46 route COUNT;
#X obj 14 72 s \$0-vc-counter-count-r;
#X obj 13 14 inlet;
#X connect 0 0 1 0;
#X connect 2 0 0 0;
#X restore 377 40 pd forwarding;
#X connect 0 0 1 0;
#X connect 0 0 2 0;
#X connect 1 0 0 1;
#X connect 2 0 15 0;
#X connect 3 0 16 0;
#X connect 4 0 5 0;
#X connect 5 0 6 0;
#X connect 7 0 33 0;
#X connect 8 0 26 0;
#X connect 9 0 2 1;
#X connect 9 1 10 0;
#X connect 11 0 12 0;
#X connect 12 0 8 0;
#X connect 15 0 3 0;
#X connect 15 1 18 0;
#X connect 16 0 4 0;
#X connect 16 1 17 0;
#X connect 18 0 14 0;
#X connect 22 0 11 0;
#X connect 23 0 24 0;
#X connect 23 0 30 0;
#X connect 24 0 25 0;
#X connect 25 0 22 0;
#X connect 25 1 22 1;
#X connect 26 0 27 0;
#X connect 27 0 9 0;
#X connect 28 0 0 0;
#X connect 28 1 13 0;
#X connect 28 2 24 0;
#X connect 30 0 31 0;
#X connect 31 0 32 0;
#X connect 32 0 24 0;
#X connect 33 0 22 0;
#X connect 34 0 28 0;
#X connect 35 0 34 0;
#X connect 35 1 37 0;
#X coords 0 -1 1 1 200 75 2 100 100;
