#N canvas 0 23 917 526 10;
#X obj 305 281 *~;
#X obj 305 343 outlet~;
#X obj 320 211 pack 0 50;
#X obj 320 233 line~;
#X obj 320 256 +~;
#X text 301 39 SIGNAL IN;
#X text 437 94 CV IN, f 7;
#X obj 110 144 hsl 128 15 0 127 0 1 \$0-vca-cv-att-s \$0-vca-cv-att-r
CV 133 7 0 10 #9898dc #000000 #000000 0 1;
#X obj 110 129 hsl 128 15 0 127 0 1 \$0-vca-vca-s \$0-vca-vca-r VCA
133 7 0 10 #fcfcfc #000000 #000000 12700 1;
#X obj 108 122 cnv 5 5 5 empty empty VCA 0 0 0 12 #fcfcfc #404040 0
;
#X obj 252 108 cnv 5 5 5 empty empty CV 0 0 0 8 #fcfcfc #9898dc 0;
#X obj 103 108 cnv 5 5 5 empty empty IN 0 0 0 8 #fcfcfc #404040 0;
#X obj 443 116 inlet~;
#X obj 494 175 / 127;
#X obj 494 197 pack 0 50;
#X obj 494 219 line~;
#X obj 443 239 *~;
#X obj 320 189 / 127;
#N canvas 531 23 208 183 forwarding 0;
#X obj 16 111 s \$0-vca-vca-r;
#X obj 50 89 s \$0-vca-cv-att-r;
#X obj 16 55 route VCA CV;
#X obj 16 33 inlet;
#X connect 2 0 0 0;
#X connect 2 1 1 0;
#X connect 3 0 2 0;
#X restore 338 93 pd forwarding;
#N canvas 450 22 418 294 save-state 0;
#X obj 226 100 f;
#X obj 226 143 pack f f;
#X obj 115 198 unpack f f;
#X obj 241 52 r \$0-vca-vca-s;
#X obj 115 250 s \$0-vca-vca-r;
#X obj 271 89 r \$0-vca-cv-att-s;
#X obj 172 226 s \$0-vca-cv-att-r;
#X obj 143 52 savestate;
#X obj 78 32 loadbang;
#X obj 35 162 list store;
#X msg 65 110 1;
#X obj 78 53 t b b;
#X obj 65 89 t b a;
#X obj 12 136 spigot 0;
#X obj 115 136 spigot 1;
#X obj 143 73 t a b;
#X msg 170 110 0;
#X msg 115 162 127 0;
#X connect 0 0 1 0;
#X connect 1 0 7 0;
#X connect 2 0 4 0;
#X connect 2 1 6 0;
#X connect 3 0 0 1;
#X connect 5 0 1 1;
#X connect 7 0 15 0;
#X connect 7 1 0 0;
#X connect 8 0 11 0;
#X connect 9 0 2 0;
#X connect 10 0 13 1;
#X connect 11 0 13 0;
#X connect 11 1 14 0;
#X connect 12 0 10 0;
#X connect 12 1 9 1;
#X connect 13 0 9 0;
#X connect 14 0 17 0;
#X connect 15 0 12 0;
#X connect 15 1 16 0;
#X connect 16 0 14 1;
#X connect 17 0 2 0;
#X restore 38 306 pd save-state;
#X obj 305 58 inlet~ fwd;
#X connect 0 0 1 0;
#X connect 2 0 3 0;
#X connect 3 0 4 0;
#X connect 4 0 0 1;
#X connect 7 0 13 0;
#X connect 8 0 17 0;
#X connect 12 0 16 0;
#X connect 13 0 14 0;
#X connect 14 0 15 0;
#X connect 15 0 16 1;
#X connect 16 0 4 1;
#X connect 17 0 2 0;
#X connect 20 0 0 0;
#X connect 20 1 18 0;
#X coords 0 -1 1 1 165 65 2 100 100;
