#N canvas 0 23 1055 733 10;
#X obj 332 403 *~;
#X obj 332 425 cos~;
#X obj 332 471 outlet~;
#X obj 107 146 hsl 128 15 0 127 0 1 \$0-wavefold-cv-att-s \$0-wavefold-cv-att-r
CV 133 7 0 10 #9898dc #fcfcfc #000000 0 1;
#X obj 103 122 cnv 5 5 5 empty empty WAVEFOLD 0 0 0 12 #fcfcfc #404040
0;
#X obj 251 110 cnv 5 5 5 empty empty FOLD 0 0 0 8 #fcfcfc #7474a4 0
;
#X obj 103 111 cnv 5 5 5 empty empty IN 0 0 0 8 #fcfcfc #404040 0;
#X obj 127 351 line~;
#X obj 127 305 + 0.5;
#X obj 127 329 pack 0 50;
#X obj 461 73 inlet~;
#X text 457 52 FOLD CV IN;
#X obj 461 174 *~;
#X obj 347 369 +~;
#X obj 107 131 hsl 128 15 0 127 0 1 \$0-wavefold-fold-s \$0-wavefold-fold-r
FOLD 133 7 0 10 #fcfcfc #000000 #000000 0 1;
#X obj 512 103 / 127;
#X obj 512 125 pack 0 50;
#X obj 512 147 line~;
#X obj 127 278 / 127;
#X obj 104 166 hradio 15 1 1 3 \$0-wavefold-stages-s \$0-wavefold-stages-r
STAGES 50 8 0 10 #fcfcfc #000000 #000000 0;
#X obj 214 211 sel 0 1 2;
#X obj 214 304 t b f f;
#X obj 462 259 *~ 127;
#X obj 462 351 /~ 127;
#X msg 214 235 127;
#X msg 231 257 64;
#X msg 248 280 8;
#N canvas 600 284 450 350 save-state 0;
#X obj 227 85 f;
#X obj 255 64 r \$0-wavefold-cv-att-s;
#X obj 149 265 s \$0-wavefold-cv-att-r;
#X obj 242 37 r \$0-wavefold-fold-s;
#X obj 115 290 s \$0-wavefold-fold-r;
#X obj 227 128 pack f f f;
#X obj 284 90 r \$0-wavefold-stages-s;
#X obj 115 198 unpack f f f;
#X obj 184 236 s \$0-wavefold-stages-r;
#X obj 143 52 savestate;
#X obj 78 32 loadbang;
#X obj 35 162 list store;
#X msg 65 110 1;
#X obj 78 53 t b b;
#X obj 65 89 t b a;
#X obj 12 136 spigot 0;
#X obj 115 136 spigot 1;
#X obj 143 73 t a b;
#X msg 170 110 0;
#X msg 115 162 0 0 0;
#X connect 0 0 5 0;
#X connect 1 0 5 1;
#X connect 3 0 0 1;
#X connect 5 0 9 0;
#X connect 6 0 5 2;
#X connect 7 0 4 0;
#X connect 7 1 2 0;
#X connect 7 2 8 0;
#X connect 9 0 17 0;
#X connect 9 1 0 0;
#X connect 10 0 13 0;
#X connect 11 0 7 0;
#X connect 12 0 15 1;
#X connect 13 0 15 0;
#X connect 13 1 16 0;
#X connect 14 0 12 0;
#X connect 14 1 11 1;
#X connect 15 0 11 0;
#X connect 16 0 19 0;
#X connect 17 0 14 0;
#X connect 17 1 18 0;
#X connect 18 0 16 1;
#X connect 19 0 7 0;
#X restore 683 86 pd save-state;
#N canvas 531 26 261 173 forwarding 0;
#X obj 16 27 route FOLD CV;
#X obj 17 93 s \$0-wavefold-fold-r;
#X obj 54 61 s \$0-wavefold-cv-att-r;
#X obj 16 5 inlet;
#X connect 0 0 1 0;
#X connect 0 1 2 0;
#X connect 3 0 0 0;
#X restore 382 129 pd forwarding;
#X obj 332 98 inlet~ fwd;
#X connect 0 0 1 0;
#X connect 1 0 2 0;
#X connect 3 0 15 0;
#X connect 7 0 13 0;
#X connect 8 0 9 0;
#X connect 9 0 7 0;
#X connect 10 0 12 0;
#X connect 12 0 22 0;
#X connect 13 0 0 1;
#X connect 14 0 18 0;
#X connect 15 0 16 0;
#X connect 16 0 17 0;
#X connect 17 0 12 1;
#X connect 18 0 8 0;
#X connect 19 0 20 0;
#X connect 20 0 24 0;
#X connect 20 1 25 0;
#X connect 20 2 26 0;
#X connect 21 0 18 0;
#X connect 21 1 18 1;
#X connect 21 2 23 1;
#X connect 22 0 23 0;
#X connect 23 0 13 1;
#X connect 24 0 21 0;
#X connect 25 0 21 0;
#X connect 26 0 21 0;
#X connect 29 0 0 0;
#X connect 29 1 28 0;
#X coords 0 -1 1 1 175 90 2 100 100;
