#N canvas 0 23 910 678 10;
#X obj 248 109 cnv 5 5 5 empty empty XFADE 0 0 0 8 #fcfcfc #404040
0;
#X obj 105 119 cnv 5 5 5 empty empty XFADE 0 0 0 12 #fcfcfc #404040
0;
#X obj 106 128 hsl 128 15 0 127 0 1 \$0-xfade-xfade-s \$0-xfade-xfade-r
XFADE 133 7 0 10 #fcfcfc #000000 #000000 6400 1;
#X obj 239 153 cnv 5 5 5 empty empty INV.OUT 0 0 0 8 #fcfcfc #404040
0;
#X obj 105 109 cnv 5 5 5 empty empty IN-1 0 0 0 8 #fcfcfc #404040 0
;
#X obj 395 238 inlet~;
#X obj 276 464 *~;
#X obj 395 441 *~;
#X text 277 242 IN-1;
#X text 396 218 IN-2;
#X obj 127 228 t f f;
#X msg 127 250 127 \$1;
#X obj 127 272 -;
#X obj 127 294 / 127;
#X obj 127 316 pack 0 50;
#X obj 127 338 line~;
#X obj 201 295 / 127;
#X obj 201 317 pack 0 50;
#X obj 201 339 line~;
#X obj 291 400 +~;
#X obj 410 385 +~;
#X obj 474 229 inlet~;
#X text 473 210 XFADE CV INPUT;
#X obj 410 412 min~ 1;
#X obj 306 374 *~ -1;
#X obj 149 119 cnv 5 5 5 empty \$0-instance-num 0 0 0 0 12 #fcfcfc
#404040 0;
#X obj 276 486 min~ 1;
#X obj 395 463 min~ 1;
#X obj 277 531 clip~ -1 1;
#X obj 499 456 *~;
#X obj 618 433 *~;
#X obj 514 392 +~;
#X obj 633 377 +~;
#X obj 633 404 min~ 1;
#X obj 529 366 *~ -1;
#X obj 499 478 min~ 1;
#X obj 618 455 min~ 1;
#X obj 500 523 clip~ -1 1;
#X obj 277 553 outlet~ OUT;
#X obj 500 545 outlet~ INV.OUT;
#X obj 178 109 cnv 5 5 5 empty empty IN-2 0 0 0 8 #fcfcfc #404040 0
;
#X obj 104 153 cnv 5 5 5 empty empty OUT 0 0 0 8 #fcfcfc #404040 0
;
#N canvas 531 26 223 147 forwarding 0;
#X obj 15 54 route XFADE;
#X obj 16 86 s \$0-xfade-xfade-r;
#X obj 15 22 inlet;
#X connect 0 0 1 0;
#X connect 2 0 0 0;
#X restore 334 285 pd forwarding;
#N canvas 686 22 414 277 save-state 0;
#X obj 249 99 f;
#X obj 264 51 r \$0-xfade-xfade-s;
#X obj 115 230 s \$0-xfade-xfade-r;
#X obj 249 142 pack f;
#X obj 115 198 unpack f;
#X obj 143 52 savestate;
#X obj 78 32 loadbang;
#X obj 35 162 list store;
#X msg 65 110 1;
#X obj 78 53 t b b;
#X obj 65 89 t b a;
#X obj 12 136 spigot 0;
#X obj 115 136 spigot 1;
#X obj 143 73 t a b;
#X msg 170 110 0;
#X msg 115 162 64;
#X connect 0 0 3 0;
#X connect 1 0 0 1;
#X connect 3 0 5 0;
#X connect 4 0 2 0;
#X connect 5 0 13 0;
#X connect 5 1 0 0;
#X connect 6 0 9 0;
#X connect 7 0 4 0;
#X connect 8 0 11 1;
#X connect 9 0 11 0;
#X connect 9 1 12 0;
#X connect 10 0 8 0;
#X connect 10 1 7 1;
#X connect 11 0 7 0;
#X connect 12 0 15 0;
#X connect 13 0 10 0;
#X connect 13 1 14 0;
#X connect 14 0 12 1;
#X connect 15 0 4 0;
#X restore 317 97 pd save-state;
#X obj 277 263 inlet~ fwd;
#X connect 2 0 10 0;
#X connect 5 0 7 0;
#X connect 5 0 29 0;
#X connect 6 0 26 0;
#X connect 7 0 27 0;
#X connect 10 0 11 0;
#X connect 10 1 16 0;
#X connect 11 0 12 0;
#X connect 12 0 13 0;
#X connect 13 0 14 0;
#X connect 14 0 15 0;
#X connect 15 0 19 0;
#X connect 15 0 31 0;
#X connect 16 0 17 0;
#X connect 17 0 18 0;
#X connect 18 0 20 0;
#X connect 18 0 32 0;
#X connect 19 0 6 1;
#X connect 20 0 23 0;
#X connect 21 0 20 1;
#X connect 21 0 24 0;
#X connect 21 0 34 0;
#X connect 21 0 32 1;
#X connect 23 0 7 1;
#X connect 24 0 19 1;
#X connect 26 0 28 0;
#X connect 27 0 28 0;
#X connect 28 0 38 0;
#X connect 29 0 35 0;
#X connect 30 0 36 0;
#X connect 31 0 29 1;
#X connect 32 0 33 0;
#X connect 33 0 30 1;
#X connect 34 0 31 1;
#X connect 35 0 37 0;
#X connect 36 0 37 0;
#X connect 37 0 39 0;
#X connect 44 0 6 0;
#X connect 44 0 30 0;
#X connect 44 1 42 0;
#X coords 0 -1 1 1 175 60 2 100 100;
